<?xml version="1.0" encoding="UTF-8"?>
<svg width="1200pt" height="1200pt" version="1.1" viewBox="0 0 1200 1200" xmlns="http://www.w3.org/2000/svg">
 <path d="m560.38 118.71c0.12109-30.973 0.21875-57.723-16.531-74.523-9.5117-9.543-22.883-14.184-40.902-14.184-40.43 0-76.559 23.918-91.727 59.43-9.3438-1.8555-18.949-2.8125-28.723-2.8125-79.383 0-143.96 63.996-143.96 142.66 0 5.4062 0.3125 10.77 0.91406 16.074-91.289 17.215-158.64 96.844-158.64 190.2 0 58.312 26.473 113.14 71.574 149.78-43.668 35.543-71.574 89.434-71.574 149.67 0 90.969 63.641 167.48 149.12 188.14-6.6133 16.398-6.625 31.156-6.625 46.566 0 78.656 64.582 142.66 143.96 142.66 13.391 0 28.715-0.98047 44.746-7.0273 13.645 38.191 51.035 64.66 93.785 64.66 17.656 0 30.652-4.4766 39.762-13.711 15.598-15.793 15.285-40.5 14.91-69.109-0.046875-4.3789-0.10938-8.8828-0.10938-13.469v-947.43zm-32.457 1020.2c-4.1992 4.2578-11.434 6.3281-22.121 6.3281-35.867 0-66.664-24.516-73.223-58.301-0.83594-4.3086-1.2578-8.75-1.2578-13.203 0-16.613 5.7617-32.199 16.652-45.062l-18.902-16.023c-14.531 17.16-22.531 38.844-22.531 61.086 0 2.3398 0.089843 4.6797 0.26172 7.0078-13.598 5.9492-26.973 6.875-39.531 6.875-65.719 0-119.18-52.883-119.18-117.88 0-16.039 0.007812-28.234 7.0586-42.195 6.9375 0.74219 13.98 1.125 21.113 1.125 13.227 0 26.465-1.3203 39.352-3.9219l-4.9141-24.297c-11.277 2.2852-22.859 3.4375-34.438 3.4375-94.109 0-170.67-75.75-170.67-168.86s76.562-168.86 170.67-168.86v-24.781c-37.684 0-72.906 10.621-102.79 28.996-42.656-31.875-67.883-81.691-67.883-134.81 0-81.508 58.945-151.01 138.79-165.91 6.3438 21.371 17.715 41.102 33.508 57.645l17.934-17.109c-20.957-21.957-32.504-50.684-32.504-80.906 0-65 53.461-117.88 119.18-117.88 33.059 0 63.809 13.086 86.559 36.852l17.91-17.137c-14.805-15.461-32.406-27.172-51.727-34.691 11.973-25 38.309-41.648 67.711-41.648 11.086 0 18.719 2.2578 23.344 6.8906 9.4883 9.5117 9.4023 31.492 9.3164 56.941l-0.023437 955.1c0 4.6953 0.058593 9.293 0.12109 13.781 0.29297 23.055 0.54688 42.961-7.7812 51.395z"/>
 <path d="m324.64 455.75c-4.7852 9.9062-8.7227 22.043-9.8555 36.25-1.9727 24.953 5.5078 44.793 12.125 57.051l21.805-11.785c-4.125-7.625-10.793-23.391-9.2227-43.309 1.6562-20.812 11.285-35.812 18.152-44.031 36.199-11.633 66.012-39.629 77.871-77.086 7.6094-24.027 6.9531-48.934-0.36328-71.668-1.6094-15.863 8.082-30.012 27.469-39.98 6.1094-3.1523 13.105-4.6836 20.547-4.3789l0.79688-24.77c-11.883-0.38672-22.785 2.0156-32.684 7.1172-14.578 7.4961-25.648 17.477-32.602 28.938-14.617-20.855-35.801-37.5-61.676-46.289l-7.9609 23.465c50.219 17.066 78.414 70.941 62.852 120.09-14.145 44.664-60.648 72.332-108.36 64.336l-4.0898 24.445c6.8594 1.1484 13.699 1.707 20.461 1.707 1.5859-0.011719 3.168-0.046875 4.7383-0.10547z"/>
 <path d="m462.18 645.84c28.789-30.785 31.391-77.258 5.918-105.83-17.559-19.672-46.152-27.609-74.516-20.711l5.832 24.082c19.277-4.6602 38.918 0.50391 50.195 13.129 16.734 18.77 14.254 51.246-5.5312 72.387z"/>
 <path d="m347.73 719.87c16.48 8.2305 25.68 21.176 29.707 28.16l21.469-12.367c-6.6055-11.484-18.926-27.395-40.113-37.961-7.7031-3.8398-15.332-6.2656-22.301-7.7617 10.605-17.355 15.445-38.188 13.141-59.387l-24.637 2.6875c2.7344 25.062-8.0234 49.371-28.062 63.434-22.109 15.551-51.539 16.008-74.965 1.1992l-13.262 20.934c15.465 9.7891 32.879 14.668 50.172 14.668 18.395-0.011718 36.664-5.5312 52.301-16.52 2-1.4023 3.9297-2.8828 5.7891-4.4258 7.6328 0.18359 19.066 1.5117 30.762 7.3398z"/>
 <path d="m450.04 397.46c-13.902 20.68-9.2812 42.945-7.5391 49.281l23.887-6.582c-0.73828-2.6758-3.9922-16.645 4.2227-28.871 7.2734-10.812 21.008-16.488 34.789-14.473l3.5586-24.527c-23.223-3.3477-46.371 6.5078-58.918 25.172z"/>
 <path d="m450.61 727.48c-24.457 13.555-36.086 43.84-27.664 72l23.742-7.0898c-5.1055-17.098 1.5859-35.273 15.926-43.223 11.289-6.2422 25.969-5.1172 37.5 2.8555l14.109-20.355c-19.176-13.324-44.18-14.945-63.613-4.1875z"/>
 <path d="m219.18 777.64c3.2656 15.695-2.5898 31.281-14.582 38.785-12.039 7.5391-25.773 3.6797-28.426 2.832l-7.625 23.574c3.1602 1.0273 10.32 2.9531 19.324 2.9531 8.8711 0 19.531-1.875 29.863-8.3516 20.754-12.984 31.074-39.051 25.691-64.848z"/>
 <path d="m213.2 391.29c-31.316 11.5-43.285 38.422-46.199 46.395l23.258 8.5312c1.4297-3.8789 9.6211-23.633 31.488-31.668 20.426-7.4766 38.02 0.42969 42.934 3.0312l11.617-21.891c-7.2031-3.8203-33.051-15.438-63.098-4.3984z"/>
 <path d="m359.36 953.45-17.402-17.645c-9.8867 9.7539-22.895 26.441-28.703 50.52-7.7461 32.008 1.5977 58.531 7.8516 71.492l22.312-10.77c-4.8164-9.9844-12.004-30.387-6.0859-54.902 4.457-18.414 14.438-31.203 22.027-38.695z"/>
 <path d="m468.38 896.95c-23.391-1.2578-37.469-21.391-40.781-26.68-2.6758-9.0977-6.8203-17.809-12.414-25.715-19.07-26.926-52.422-41.059-84.852-35.855l3.8711 24.469c23.27-3.6562 47.098 6.4141 60.746 25.715 13.676 19.312 15.32 45.305 4.2109 66.238l21.879 11.617c4.7422-8.9258 7.8125-18.516 9.2422-28.301 9.5625 6.8203 21.836 12.461 36.766 13.273 1.1992 0.058594 2.3945 0.097657 3.6055 0.097657 11.773 0 23.609-3.1094 34.465-9.0508l-11.906-21.734c-5.5195 3.0078-14.293 6.6133-24.832 5.9258z"/>
 <path d="m581.96 1116.9c0 29.273 23.816 53.086 53.086 53.086 29.273 0 53.086-23.816 53.086-53.086 0-2.8906-0.23438-5.7266-0.68359-8.4922l219.8-91.973c9.668 13.168 25.258 21.734 42.812 21.734 29.273 0 53.086-23.816 53.086-53.086 0-14.5-5.8438-27.656-15.301-37.246l61.48-98.734c5.2734 1.7578 10.91 2.7148 16.766 2.7148 29.273 0 53.086-23.816 53.086-53.074 0-25.008-17.379-46.027-40.695-51.621l0.007813-265.99c23.316-5.5977 40.695-26.613 40.695-51.617 0-29.273-23.816-53.086-53.086-53.086-7.4258 0-14.496 1.5352-20.918 4.3008l-110.65-148.4c7.6836-9.2109 12.312-21.051 12.312-33.953 0-29.273-23.816-53.086-53.086-53.086-17.117 0-32.363 8.1445-42.078 20.762l-164.44-73.289c0.58203-3.1445 0.89062-6.3867 0.89062-9.6953 0-29.266-23.816-53.082-53.086-53.082-29.273 0-53.086 23.816-53.086 53.082 0 25.008 17.379 46.027 40.695 51.621v87.164c-16.664 5.2695-28.777 20.875-28.777 39.262 0 18.387 12.113 33.988 28.777 39.262v130.57c-16.664 5.2695-28.777 20.875-28.777 39.254 0 18.387 12.113 33.988 28.777 39.262v233.67c-16.664 5.2695-28.777 20.875-28.777 39.262 0 18.387 12.113 33.988 28.777 39.262v243.62c-23.32 5.5938-40.699 26.613-40.699 51.621zm81.145-825.69 77.184 43.609c-0.60156 2.8086-0.91797 5.7188-0.91797 8.7031 0 5.9023 1.2422 11.523 3.4727 16.609l-86.305 74.98c-2.8281-1.7383-5.8789-3.1406-9.1016-4.1602v-130.58c5.9102-1.8672 11.242-5.0352 15.668-9.1641zm183.32-68.84c1.6523 3.2461 3.6328 6.3008 5.8906 9.1211l-56.902 73.156c-4.5273-1.6992-9.4297-2.6328-14.547-2.6328-10.957 0-20.938 4.2734-28.363 11.238l-77.18-43.609c0.46484-2.2031 0.75391-4.4688 0.85156-6.7852zm68.258 24.789 110.65 148.4c-7.1953 8.625-11.711 19.559-12.254 31.508l-128.5 24.648c-5.1992-11.438-14.34-20.719-25.676-26.098l36.43-174.18c6.8516-0.20312 13.383-1.707 19.352-4.2773zm132.94 501.82-63.543-94.664c8.7109-9.4609 14.035-22.082 14.035-35.926 0-14.246-5.6445-27.199-14.809-36.746l65.375-101.99c1.6445 0.57422 3.3242 1.0664 5.0352 1.4766l0.003907 265.99c-2.082 0.5-4.1211 1.125-6.0977 1.8633zm-97.547 183.02c-1.2539 0-2.5 0.046875-3.7344 0.13281l-45.781-144.83c4.7031-3.3125 8.6836-7.582 11.656-12.523l100.81 24.043c0.019531 14.465 5.8633 27.594 15.305 37.168l-61.48 98.73c-5.2734-1.7617-10.914-2.7188-16.773-2.7188zm-48.32 31.113-96.969-18.766c-0.58203-13.219-6.0195-25.195-14.566-34.188l75.734-116.86c3.4922 0.96484 7.168 1.4844 10.965 1.4844h0.023438l45.777 144.82c-9.1484 5.5234-16.5 13.723-20.965 23.508zm-31.059-714.9-36.043 172.33c-2.4609 0.070312-4.8828 0.3125-7.25 0.71094l-19.637-46.156c8.9336-7.6172 14.605-18.945 14.605-31.578 0-8.7812-2.7422-16.934-7.418-23.648zm18.551 227.84 128.51-24.648c2.5078 5.5195 5.9336 10.531 10.082 14.852l-65.371 101.99c-5.4609-1.9023-11.324-2.9414-17.422-2.9414-7.4961 0-14.637 1.5664-21.109 4.3828l-46.812-62.285c7.1211-8.5977 11.582-19.473 12.125-31.352zm129.54 298.66-100.81-24.043c-1.5156-21.332-19.352-38.219-41.062-38.219-11.312 0-21.574 4.5859-29.023 12l-56.23-29.414c1.043-4.1445 1.6016-8.4805 1.6016-12.945 0-1.1719-0.042969-2.3359-0.11719-3.4922l106.3-33.051c9.2734 15.516 26.242 25.926 45.598 25.926 6.4961 0 12.723-1.1758 18.477-3.3242l63.543 94.664c-3.2734 3.5586-6.0664 7.5547-8.2812 11.898zm-158.25-21.094c0-9.0391 7.3438-16.383 16.383-16.383 9.0391 0 16.383 7.3438 16.383 16.383 0 9.0391-7.3438 16.383-16.383 16.383-9.0391 0-16.383-7.3438-16.383-16.383zm-120.34-99.832c15.598 0 28.293 12.695 28.293 28.305 0 15.598-12.695 28.293-28.293 28.293-15.609 0-28.305-12.695-28.305-28.293 0-15.609 12.695-28.305 28.305-28.305zm96.035-127.1c7.4922 0 14.629-1.5664 21.098-4.3789l46.812 62.289c-7.6016 9.1875-12.176 20.965-12.176 33.793 0 1.1758 0.042969 2.3398 0.11719 3.4922l-106.3 33.051c-3.3398-5.5859-7.668-10.508-12.754-14.523l52.852-114.74c3.3516 0.66797 6.8086 1.0195 10.352 1.0195zm137.11 91.707c0 15.609-12.695 28.305-28.293 28.305-15.609 0-28.305-12.695-28.305-28.305 0-15.605 12.695-28.305 28.305-28.305 15.598 0 28.293 12.699 28.293 28.305zm-137.11-116.49c-15.609 0-28.305-12.695-28.305-28.297 0-15.605 12.695-28.305 28.305-28.305 15.609 0 28.305 12.699 28.305 28.305-0.003906 15.602-12.695 28.297-28.305 28.297zm-38.629-158.38c0 9.2227-7.5039 16.719-16.723 16.719-9.207 0-16.711-7.4961-16.711-16.719s7.5039-16.723 16.711-16.723c9.2227-0.003906 16.723 7.5 16.723 16.723zm-38.484 35.32c6.332 3.9141 13.785 6.1797 21.762 6.1797 1.3867 0 2.7578-0.070312 4.1055-0.20312l19.641 46.16c-13.027 9.6836-21.484 25.188-21.484 42.629 0 16.879 7.9219 31.945 20.246 41.672l-52.848 114.74c-3.3477-0.66406-6.8047-1.0156-10.34-1.0156-4.0703 0-8.0391 0.46094-11.852 1.3359l-64.746-130.49c7.7812-7.4961 12.629-18.012 12.629-29.645 0-5.8242-1.2188-11.363-3.4102-16.391zm-47.695 347.83c8.2969 5.3711 18.18 8.4961 28.777 8.4961 15.918 0 30.223-7.0508 39.957-18.188l56.238 29.418c-0.41797 2.3477-0.63672 4.7617-0.63672 7.2227 0 9.9375 3.5391 19.066 9.4219 26.188l-75.73 116.85c-5.5312-1.9609-11.48-3.0312-17.672-3.0312-6.9922 0-13.672 1.3633-19.789 3.8281l-64.094-90.246c5.2305-6.9023 8.3398-15.504 8.3398-24.812 0-6.5039-1.5156-12.656-4.2109-18.129zm12.051 220.04c0-15.609 12.695-28.305 28.305-28.305 15.598 0 28.293 12.695 28.293 28.305 0 15.609-12.695 28.305-28.293 28.305-15.609 0-28.305-12.695-28.305-28.305zm-17.305-305.33c-11.641 9.7461-19.059 24.379-19.059 40.711 0 9.707 2.6211 18.812 7.1953 26.652l-39.398 37.594c-2.3555-1.3008-4.8477-2.3789-7.4492-3.1992l-0.003906-220.09zm-58.473 180.2 64.102 90.25c-8.1562 9.3359-13.105 21.543-13.105 34.883 0 13.656 5.1836 26.125 13.688 35.543l-58.34 85.066c-2.1328-0.82031-4.3281-1.5039-6.582-2.0469l-0.003906-243.62c0.082031-0.023438 0.16406-0.050781 0.24219-0.078125zm-12.633 323.63c-15.609 0-28.305-12.695-28.305-28.305 0-15.609 12.695-28.305 28.305-28.305s28.305 12.695 28.305 28.305c0 15.609-12.695 28.305-28.305 28.305zm42.812-59.656c-1.0703-1.457-2.2109-2.8594-3.4219-4.1992l58.34-85.062c5.8945 2.2656 12.297 3.5117 18.984 3.5117 21.434 0 39.949-12.781 48.316-31.125l96.961 18.762c0.09375 2.082 0.30078 4.1289 0.62891 6.1406zm272.21-72.16c-15.609 0-28.305-12.695-28.305-28.305s12.695-28.305 28.305-28.305 28.305 12.695 28.305 28.305-12.695 28.305-28.305 28.305zm144.34-214.64c0 15.598-12.695 28.293-28.305 28.293-15.609 0-28.305-12.695-28.305-28.293 0-15.609 12.695-28.305 28.305-28.305 15.609 0 28.305 12.695 28.305 28.305zm0-369.23c0 15.605-12.695 28.297-28.305 28.297-15.609 0-28.305-12.695-28.305-28.297 0-15.605 12.695-28.305 28.305-28.305 15.609 0.003906 28.305 12.703 28.305 28.305zm-200.64-259.44c15.609 0 28.305 12.699 28.305 28.305s-12.695 28.297-28.305 28.297-28.305-12.695-28.305-28.297c0-15.605 12.695-28.305 28.305-28.305zm-52.199 18.605c-0.57812 3.1094-0.87891 6.3125-0.88672 9.5859l-170.97 40.656c-5.1523-8.0195-13.008-14.141-22.273-17.07v-87.164c11.98-2.875 22.395-9.8242 29.688-19.297zm-234.82-105.61c0-15.605 12.695-28.297 28.305-28.297s28.305 12.695 28.305 28.297c0 15.605-12.695 28.305-28.305 28.305-15.609-0.003907-28.305-12.703-28.305-28.305zm28.305 161.66c9.0391 0 16.383 7.3516 16.383 16.383 0 9.0352-7.3438 16.383-16.383 16.383-9.0391 0-16.383-7.3516-16.383-16.383s7.3438-16.383 16.383-16.383zm0 209.1c9.0391 0 16.383 7.3438 16.383 16.379s-7.3438 16.383-16.383 16.383c-9.0391 0-16.383-7.3516-16.383-16.383 0-9.0352 7.3438-16.379 16.383-16.379zm0 312.18c9.0391 0 16.383 7.3438 16.383 16.383s-7.3438 16.383-16.383 16.383c-9.0391 0-16.383-7.3438-16.383-16.383 0-9.0352 7.3438-16.383 16.383-16.383z"/>
</svg>
