<?xml version="1.0" encoding="UTF-8"?>
<svg width="1200pt" height="1200pt" version="1.1" viewBox="0 0 1200 1200" xmlns="http://www.w3.org/2000/svg">
 <path d="m547.92 368.64c0-68.281 103.68-68.281 103.68 0v303.96c0 68.16-103.68 68.16-103.68 0zm518.64 231.36c0-257.64-208.92-466.56-466.56-466.56-257.64 0-466.56 208.92-466.56 466.56 0 257.64 208.92 466.56 466.56 466.56 257.64 0 466.56-208.92 466.56-466.56zm103.68 0c0 314.88-255.36 570.24-570.24 570.24s-570.24-255.36-570.24-570.24 255.36-570.24 570.24-570.24 570.24 255.36 570.24 570.24zm-570 283.2c-29.039 0-52.32-23.16-52.32-51.84 0-28.559 23.281-51.84 52.32-51.84 28.68 0 51.84 23.281 51.84 51.84 0 28.68-23.16 51.84-51.84 51.84z"/>
</svg>
