<?xml version="1.0" encoding="UTF-8"?>
<svg width="1200pt" height="1200pt" version="1.1" viewBox="0 0 1200 1200" xmlns="http://www.w3.org/2000/svg">
 <path d="m512.9 18.188c-7.875 0-14.812 5.0156-17.297 12.469l-38.953 117.61c-25.734 8.2031-50.672 18.562-74.672 31.031l-110.81-55.688c-7.0312-3.5156-15.516-2.1562-21.047 3.375l-123.14 123.24c-5.5312 5.5312-6.8906 14.016-3.375 21l55.594 110.81c-12.422 23.953-22.781 48.938-30.984 74.672l-117.56 38.953v-0.046875c-7.4531 2.4844-12.469 9.4219-12.469 17.297v174.24-0.046876c0 7.875 5.0156 14.812 12.469 17.297l117.56 38.953c8.2031 25.734 18.562 50.719 30.984 74.719l-55.594 110.81v-0.046874c-3.5156 7.0312-2.1562 15.516 3.375 21.047l123.14 123.14c5.5781 5.5312 14.016 6.8906 21.047 3.375l110.86-55.688c23.953 12.469 48.938 22.828 74.672 31.031l38.953 117.56-0.046875 0.046875c2.4844 7.4531 9.4219 12.469 17.297 12.469h174.14c7.8281 0 14.812-5.0156 17.25-12.469l38.953-117.56c25.734-8.2031 50.672-18.562 74.672-31.031l110.86 55.688v-0.046875c6.9844 3.5156 15.469 2.1562 21-3.375l123.14-123.14c5.5781-5.5312 6.9375-14.016 3.4219-21.047l-55.594-110.81c12.422-23.953 22.781-48.938 30.984-74.672l117.66-39-0.046875 0.046876c7.4531-2.4844 12.469-9.4219 12.469-17.297v-174.24 0.046875c0-7.875-5.0156-14.812-12.469-17.297l-117.42-38.953c-8.2031-25.828-18.609-50.906-31.125-74.953l55.547-110.53v0.046875c3.5156-6.9844 2.1562-15.469-3.4219-21l-123.14-123.24c-5.5312-5.5312-14.016-6.8906-21-3.375l-110.53 55.547c-24.094-12.469-49.172-22.875-75-31.078l-38.953-117.42c-2.4844-7.4531-9.4219-12.469-17.25-12.469zm13.125 36.375h147.89l37.688 113.72v-0.046875c1.875 5.6719 6.4219 10.031 12.141 11.719 29.766 8.7656 58.5 20.672 85.734 35.531 5.25 2.8594 11.531 2.9531 16.875 0.28125l107.02-53.766 104.58 104.62-53.766 107.02c-2.7188 5.3438-2.5781 11.625 0.28125 16.875 14.859 27.234 26.812 55.922 35.578 85.688 1.6875 5.7188 6.0469 10.219 11.672 12.094l113.72 37.688v147.98l-113.91 37.781c-5.6719 1.875-10.031 6.4219-11.719 12.094-8.7656 29.625-20.672 58.266-35.438 85.406-2.8594 5.25-2.9531 11.531-0.28125 16.875l53.859 107.3-104.58 104.58-107.39-53.906c-5.3438-2.6719-11.625-2.5781-16.875 0.28125-27.141 14.812-55.781 26.719-85.406 35.531-5.7188 1.6875-10.219 6.0469-12.094 11.719l-37.688 113.86h-147.89l-37.688-113.86h-0.046875c-1.875-5.6719-6.375-10.031-12.094-11.719-29.625-8.8125-58.266-20.672-85.406-35.531-5.2031-2.8594-11.531-2.9531-16.875-0.28125l-107.39 53.906-104.58-104.58 53.859-107.3c2.7188-5.3438 2.5781-11.625-0.23438-16.875-14.812-27.141-26.672-55.828-35.438-85.453h-0.046875c-1.6875-5.7188-6.0469-10.219-11.719-12.094l-113.86-37.688 0.046875-147.98 113.86-37.688-0.046875-0.046875c5.6719-1.875 10.031-6.375 11.719-12.094 8.7656-29.625 20.625-58.266 35.438-85.406h0.046875c2.8125-5.2031 2.9531-11.531 0.23438-16.828l-53.859-107.3 104.58-104.67 107.39 53.906c5.3438 2.6719 11.672 2.5781 16.875-0.28125 27.141-14.812 55.781-26.719 85.406-35.531 5.7188-1.6875 10.219-6.0469 12.094-11.719zm73.969 233.81c-171.89 0-311.63 139.74-311.63 311.63 0 82.641 32.859 161.9 91.266 220.36 58.453 58.453 137.72 91.266 220.36 91.266 82.633 0 161.9-32.859 220.36-91.266 58.453-58.453 91.266-137.72 91.266-220.36s-32.859-161.9-91.266-220.36c-58.453-58.453-137.72-91.266-220.36-91.266zm0 36.375c73.031 0 143.02 29.016 194.63 80.625s80.625 121.64 80.625 194.63c0 73.031-29.016 143.02-80.625 194.63-51.609 51.613-121.64 80.625-194.63 80.625-73.031 0-143.02-29.016-194.63-80.625-51.613-51.609-80.625-121.64-80.625-194.63 0-152.26 123.05-275.26 275.26-275.26zm35.344 119.44v-0.046875c-1.0781 0.09375-2.1094 0.28125-3.1406 0.5625-6.2812 1.6875-11.156 6.5625-12.844 12.844l-73.828 275.48c-1.2656 4.6406-0.60938 9.6094 1.8281 13.781 2.3906 4.1719 6.375 7.2188 11.016 8.4844 9.7031 2.5781 19.688-3.1406 22.266-12.844l73.828-275.48c2.5781-9.7031-3.1406-19.688-12.844-22.266-2.0625-0.5625-4.1719-0.75-6.2812-0.5625zm-133.45 52.594c-0.89062 0.046875-1.8281 0.1875-2.7188 0.375-3.0938 0.70312-5.9531 2.25-8.2969 4.4062l-92.109 85.078c-3.7031 3.4688-5.8125 8.2969-5.8125 13.359s2.1094 9.8906 5.8125 13.359l92.109 85.078c7.3594 6.8438 18.844 6.375 25.688-0.98438 6.7969-7.4062 6.375-18.891-1.0312-25.688l-77.625-71.766 77.625-71.766c7.4062-6.7969 7.8281-18.281 1.0312-25.688-3.75-4.0312-9.1406-6.1875-14.672-5.7656zm196.22 0c-5.4844-0.42188-10.922 1.7344-14.672 5.7656-6.7969 7.4062-6.375 18.891 1.0312 25.688l77.625 71.766-77.625 71.766c-7.4062 6.7969-7.8281 18.281-1.0312 25.688 6.8438 7.3594 18.328 7.8281 25.688 0.98438l92.109-85.078c3.7031-3.4688 5.8125-8.2969 5.8125-13.359s-2.1094-9.8906-5.8125-13.359l-92.109-85.078c-2.3438-2.1562-5.2031-3.7031-8.2969-4.4062-0.89062-0.1875-1.7812-0.32812-2.7188-0.375z"/>
</svg>
