<?xml version="1.0" encoding="UTF-8"?>
<svg width="1200pt" height="1200pt" version="1.1" viewBox="0 0 1200 1200" xmlns="http://www.w3.org/2000/svg">
 <path d="m493.73 1200c-41.551 0-80.25-12.176-115.05-36.199-65.926-45.574-255.98-239.2-285.32-460.07-14.949-112.52 14.352-213.18 87.074-299.18 5.5234-5.75 112.5-112.88 240.48-99.5 56.824 5.9258 75.898 13.824 91.199 20.148 14.5 5.9766 25.949 10.727 88 10.926 61.875-0.19922 73.324-4.9492 87.801-10.926 15.324-6.3242 34.375-14.199 91.199-20.148 127.73-13.426 235.02 93.852 239.23 98.148 73.977 87.375 103.27 188.02 88.301 300.57-29.398 220.93-219.45 414.5-285.38 460-34.754 24.051-73.453 36.227-114.98 36.227-45.949 0-84.375-14.949-106.27-25.801-21.875 10.875-60.25 25.801-106.27 25.801zm-95.203-846.1c-97.449 0-180.3 83.449-181.15 84.301-62 73.426-87.477 161-74.477 258.95 26.801 201.65 205.57 385 264.15 425.52 26.305 18.129 55.453 27.328 86.68 27.328 45.949 0 83.301-19.727 93.676-25.75 7.75-4.5508 17.375-4.5742 25.176-0.023438 10.371 6.0234 47.871 25.773 93.695 25.773 31.176 0 60.301-9.1992 86.574-27.352 58.602-40.477 237.38-223.75 264.23-425.48 13.023-97.949-12.426-185.55-75.676-260.35-0.10156 0-93.102-93.102-197.1-82.074-49.625 5.1992-64.324 11.25-77.324 16.625-21.773 9-39.875 14.5-106.9 14.699-67.199-0.22656-85.273-5.7266-107.07-14.699-12.977-5.375-27.676-11.449-77.301-16.625-5.7734-0.57031-11.523-0.84766-17.176-0.84766z"/>
 <path d="m600.02 371.65c-1.1992 0-2.4258-0.074219-3.6484-0.27344-13.648-2-23.102-14.699-21.102-28.352 26.301-179.5-98.352-298.55-99.602-299.75-10.074-9.4258-10.625-25.227-1.2266-35.324 9.3984-10.102 25.148-10.727 35.273-1.3008 5.9492 5.5234 145.25 137.45 115.02 343.6-1.8164 12.449-12.516 21.398-24.719 21.398z"/>
 <path d="m737.8 289.68c-45.227 0-93.75-11.852-144.25-35.199-8.3242-3.8516-13.875-11.949-14.449-21.102-0.17578-2.9766-4.0234-73.426 51.551-132.68 66.648-71.023 187.27-94.023 355.35-67.074 12.125 1.9492 21.051 12.398 21.051 24.676-0.03125 15.848-74.98 231.38-269.25 231.38zm-108-73.875c38.227 15.852 74.477 23.898 107.98 23.898 121.88 0 185.7-108.68 209.35-161.1-134.12-16.898-229.52 2.4766-280.02 56.352-27.305 29.125-35.129 62.352-37.305 80.852z"/>
</svg>
