<?xml version="1.0" encoding="UTF-8"?>
<svg width="1200pt" height="1200pt" version="1.1" viewBox="0 0 1200 1200" xmlns="http://www.w3.org/2000/svg">
 <path d="m189.14 96.75c-11.531 0-22.453 5.3438-29.484 14.484l-118.59 153.24c-5.0156 6.5156-7.7344 14.531-7.7344 22.734v213.1c0 20.531 16.641 37.172 37.172 37.172h32.156v528.56c0 20.531 16.641 37.172 37.219 37.172h920.29c20.531 0 37.125-16.641 37.125-37.172v-528.56h32.203c20.531 0 37.172-16.641 37.172-37.172v-213.1c0-8.2031-2.6719-16.219-7.6875-22.734l-118.64-153.24c-7.0781-9.1406-17.953-14.484-29.484-14.484zm18.188 74.344h785.34l99.609 128.81v163.18h-984.61v-163.18zm-30.281 366.37h845.9v491.34h-845.9zm316.78 31.359c-9.8438 0-19.312 3.8906-26.297 10.875s-10.875 16.453-10.875 26.297c-0.046875 9.8906 3.8438 19.406 10.828 26.438 6.9844 6.9844 16.453 10.922 26.344 10.922h212.39c9.8906 0 19.406-3.9375 26.391-10.922 6.9844-7.0312 10.875-16.547 10.828-26.438 0-9.8438-3.9375-19.312-10.875-26.297-6.9844-6.9844-16.453-10.875-26.344-10.875z"/>
</svg>
