<?xml version="1.0" encoding="UTF-8"?>
<svg width="1200pt" height="1200pt" version="1.1" viewBox="0 0 1200 1200" xmlns="http://www.w3.org/2000/svg">
 <path d="m1060.9 425.63c23.719-8.8594 42.234-27.891 50.344-51.891s5.0156-50.391-8.4375-71.812c-13.5-21.469-35.906-35.719-61.031-38.766-25.172-3.0938-50.344 5.2969-68.625 22.828-52.312-11.062-122.48-4.6875-202.03 17.109-36.75-138.61-99.047-228.1-171.1-228.1-72.051 0-134.34 89.484-171.1 228.1-79.594-21.844-149.72-28.125-202.03-17.156v0.046875c-18.281-17.531-43.453-25.875-68.578-22.781s-47.531 17.344-60.984 38.766c-13.453 21.469-16.547 47.812-8.4375 71.766 8.1094 24 26.578 43.031 50.25 51.891 14.531 52.078 56.766 112.88 118.73 174.24-101.95 101.39-148.55 200.21-112.45 262.64 21.656 37.5 69.047 56.953 136.4 56.953 26.016-0.1875 51.984-2.5781 77.625-7.1719 22.219-3.75 45.516-9.2344 69.375-15.75 36.75 138.84 99.094 228.47 171.19 228.47 23.438-0.65625 45.891-9.3281 63.75-24.469 9.5625 3.7031 19.734 5.6719 30 5.7188 34.641 0.09375 65.812-21.047 78.516-53.25s4.4062-68.953-21-92.531c7.3125-20.156 14.109-41.25 20.062-63.891 23.766 6.4688 47.016 11.953 69.188 15.703h0.046875c25.641 4.5938 51.609 6.9844 77.625 7.1719 67.359 0 114.75-19.406 136.4-56.953 36.047-62.438-10.5-161.26-112.5-262.69 62.016-61.359 104.16-122.11 118.78-174.19zm17.25-78.75c-0.046875 21.75-15.047 40.594-36.188 45.516l-0.375 0.09375v0.046875c-19.406 4.3594-39.516-3.9844-50.062-20.906-10.547-16.875-9.2812-38.578 3.1406-54.141 12.469-15.562 33.375-21.516 52.172-14.906s31.359 24.375 31.312 44.297zm-126.52-26.719c-3.0469 8.5781-4.6406 17.625-4.7344 26.719 0.14062 42.141 31.359 77.719 73.125 83.25-24.797 54.656-60.562 103.64-105 143.95-35.906-32.531-73.875-62.719-113.67-90.328-3.9844-48.422-11.109-96.516-21.328-144 55.406-17.531 113.67-24.188 171.61-19.594zm-267.24 426c-28.125 16.219-56.25 31.172-84.375 44.812-28.125-13.641-56.25-28.594-84.375-44.812s-55.219-33.469-81.094-51.094c-2.1094-30.422-3.2812-62.062-3.2812-95.062s1.1719-64.875 3.2812-95.344c25.406-17.156 52.312-34.172 81.094-50.766 28.125-16.266 56.344-31.078 84.375-44.672 28.031 13.594 56.25 28.406 84.375 44.672 28.781 16.594 55.688 33.609 81.094 50.766 2.1094 30.469 3.2812 62.25 3.2812 95.344 0 32.391-1.2188 64.125-3.375 95.109-25.875 17.625-52.875 34.734-81 51.047zm76.641-3.0938v-0.046875c-3.8438 35.719-9.5156 71.203-17.016 106.36-34.172-11.016-67.781-23.812-100.69-38.297 19.969-10.266 39.938-20.953 59.812-32.438s39.141-23.484 57.891-35.625zm-204.37 68.016v-0.046875c-33.047 14.531-66.797 27.375-101.11 38.438-7.4531-35.203-13.078-70.781-16.875-106.59 18.844 12.188 38.156 24.188 58.125 35.719 19.969 11.578 39.938 22.172 59.906 32.438zm-161.26-143.68c-30.141-22.266-58.125-45-83.344-67.875l0.046875-0.046875c26.625-23.859 54.422-46.359 83.344-67.406-1.0781 22.219-1.6875 44.859-1.6875 67.922s0.60938 45.328 1.6875 67.359zm43.359-210.47c3.7969-35.812 9.4219-71.391 16.875-106.59 32.484 10.5 66.375 23.484 100.88 38.625-19.828 10.219-39.703 20.906-59.578 32.391-19.875 11.531-39.422 23.484-58.172 35.578zm204.79-67.969c32.953-14.531 66.656-27.422 100.88-38.625 7.4531 35.25 13.078 70.781 16.875 106.59-18.75-12.094-38.109-23.953-58.125-35.625-19.922-11.438-39.797-22.125-59.625-32.344zm160.97 143.11h0.046875c28.875 21.047 56.719 43.547 83.344 67.406-25.266 22.875-53.25 45.656-83.438 67.969 1.0781-22.219 1.875-44.625 1.875-67.5 0-22.828-0.70312-45.656-1.7812-67.875zm-204.52-419.58c50.391 0 102.98 75 135.79 201.14-46.406 15-91.734 33-135.79 53.859-44.062-20.859-89.438-38.812-135.79-53.812 32.812-126.19 85.406-201.19 135.79-201.19zm-478.13 234.37c0-18.938 11.438-36.047 28.922-43.312 17.531-7.2656 37.688-3.2344 51.094 10.172s17.438 33.562 10.172 51.094c-7.2656 17.484-24.375 28.922-43.312 28.922-3.5156 0-7.0312-0.46875-10.453-1.2656h-0.23438c-21.188-4.9688-36.188-23.859-36.188-45.609zm58.125 83.25c41.766-5.5312 72.984-41.109 73.125-83.25-0.09375-9.0938-1.6875-18.094-4.7344-26.672 57.938-4.6406 116.25 1.9688 171.71 19.547-10.266 47.484-17.391 95.578-21.422 144-39.797 27.609-77.766 57.797-113.67 90.328-44.438-40.312-80.203-89.297-105-143.95zm173.21 445.22c-90.891 15.469-154.78 3.9844-175.31-31.594-25.219-43.688 13.688-126.89 106.88-218.53 36.047 32.672 74.109 63 114 90.75 3.9375 48.469 11.016 96.609 21.234 144.14-22.969 6.3281-45.422 11.578-66.844 15.234zm340.55 193.4c-18.938 0-36.047-11.438-43.312-28.922-7.2656-17.531-3.2344-37.688 10.172-51.094s33.562-17.438 51.094-10.172c17.484 7.2656 28.922 24.375 28.922 43.312 0 12.422-4.9219 24.375-13.734 33.141-8.7656 8.8125-20.719 13.734-33.141 13.734zm24.375-127.22c-7.875-2.5312-16.078-3.8906-24.375-4.0312-33.281-0.14062-63.469 19.359-77.062 49.734-13.547 30.375-7.9219 65.906 14.391 90.609-9.2812 5.9531-20.016 9.3281-31.078 9.6562-50.438 0-103.12-75.094-135.84-201.47 46.359-14.953 91.781-32.859 135.84-53.719 43.922 20.766 89.156 38.672 135.42 53.578-5.1562 19.594-10.969 38.016-17.203 55.641zm304.03-97.781c-20.625 35.625-84.375 47.016-175.31 31.594-21.422-3.75-43.875-8.9062-66.844-15.234h-0.046875c10.219-47.531 17.344-95.625 21.281-144.05 39.938-27.844 78.047-58.172 114.09-90.844 93.141 91.641 132.05 174.84 106.83 218.53zm-422.16-356.26c-45.516 0-86.531 27.422-103.92 69.469-17.438 42-7.7812 90.422 24.375 122.58s80.578 41.812 122.58 24.375c42.047-17.391 69.469-58.406 69.469-103.92-0.046875-62.109-50.391-112.45-112.5-112.5zm0 187.5c-30.328 0-57.703-18.281-69.281-46.312-11.625-28.031-5.2031-60.281 16.266-81.703 21.422-21.469 53.672-27.891 81.703-16.266 28.031 11.578 46.312 38.953 46.312 69.281 0 19.875-7.9219 38.953-21.984 53.016s-33.141 21.984-53.016 21.984z"/>
</svg>
