<?xml version="1.0" encoding="UTF-8"?>
<svg width="1200pt" height="1200pt" version="1.1" viewBox="0 0 1200 1200" xmlns="http://www.w3.org/2000/svg">
 <path d="m580.64 133.31c-20.531 0-40.078 8.9062-53.578 24.328l-193.92 222.14c-5.0625 5.8125-12.375 9.0938-20.109 9.0938h-171.42c-24.281 0-44.438 20.156-44.438 44.438v333.32c0 24.281 20.156 44.438 44.438 44.438l171.42 0.046875c7.7344 0 15 3.3281 20.109 9.1406l193.92 222.05c13.5 15.469 33.047 24.328 53.578 24.328h77.766c24.281 0 44.438-20.156 44.438-44.438v-844.4c0-24.281-20.156-44.484-44.438-44.484zm0 44.438 77.766 0.046875v844.4h-77.766c-7.7344 0-15-3.2812-20.109-9.0938l-193.87-222.1c-3.3281-3.7969-7.0312-7.2188-11.016-10.219v-361.6c3.9844-3 7.6875-6.375 11.016-10.219l193.87-222.05c5.0625-5.8125 12.375-9.1406 20.109-9.1406zm300 53.625c-1.9688 0-3.8906 0.23438-5.7656 0.75-5.6719 1.5-10.547 5.25-13.5 10.359-6.0938 10.641-2.4844 24.188 8.1562 30.328 116.91 67.5 188.9 192.19 188.9 327.19s-71.953 259.69-188.9 327.19c-5.1094 2.9062-8.8594 7.7812-10.359 13.5-1.5469 5.6719-0.75 11.766 2.2031 16.875 6.1406 10.594 19.734 14.25 30.375 8.1094 130.6-75.422 211.13-214.87 211.13-365.68s-80.484-290.21-211.13-365.63c-3.375-1.9688-7.2188-3-11.109-3zm-55.547 96.234h-0.046875c-1.9219 0-3.8438 0.23438-5.7188 0.75-5.6719 1.5-10.547 5.25-13.5 10.359-6.0938 10.594-2.4844 24.188 8.1094 30.328 82.547 47.672 133.31 135.66 133.31 230.95 0 95.293-50.812 183.28-133.31 230.95-5.1094 2.9531-8.8125 7.7812-10.359 13.5-1.5 5.7188-0.70312 11.766 2.25 16.875 6.1406 10.594 19.734 14.25 30.328 8.1094 96.234-55.547 155.58-158.34 155.58-269.44s-59.344-213.84-155.58-269.39c-3.375-1.9688-7.1719-3-11.109-3zm-55.594 96.234c-7.9219 0-15.234 4.2188-19.219 11.109-6.1406 10.594-2.4844 24.188 8.1094 30.328 48.141 27.797 77.766 79.125 77.766 134.72s-29.625 106.92-77.766 134.72c-10.594 6.1406-14.25 19.734-8.1094 30.328 6.1406 10.641 19.688 14.297 30.328 8.1562 61.875-35.672 100.03-101.77 100.03-173.21s-38.156-137.48-99.984-173.16h-0.046875c-3.375-1.9688-7.2188-3-11.109-3zm-627.89 9.4688h169.55v333.37h-169.55z"/>
</svg>
