<?xml version="1.0" encoding="UTF-8"?>
<svg width="1200pt" height="1200pt" version="1.1" viewBox="0 0 1200 1200" xmlns="http://www.w3.org/2000/svg">
 <path d="m956.61 472.54c16.066-17.707 34.215-37.816 34.215-64.887 0-27.074-18.176-47.152-34.215-64.887-8.457-9.3359-18.027-19.934-19.934-27.016-2.0781-7.8164 0.96484-22.301 3.6875-35.062 4.8594-22.977 10.359-48.996-2.75-71.68-13.289-22.945-38.809-31.172-61.316-38.457-12.262-3.9531-26.105-8.4297-31.582-13.934-5.5039-5.4727-10.008-19.348-13.961-31.609-7.2578-22.508-15.512-48.027-38.457-61.316-9.4531-5.4727-20.281-8.1055-33.102-8.1055-13.023 0-26.02 2.75-38.547 5.4141-14.02 2.957-28.098 5.5312-35.062 3.6602-7.0547-1.9023-17.68-11.473-27.016-19.934-17.707-16.039-37.816-34.215-64.887-34.215-27.043 0-47.152 18.176-64.887 34.215-9.3672 8.457-19.961 18.027-27.016 19.934-6.9648 1.9023-21.043-0.70312-35.062-3.6602-12.559-2.6641-25.523-5.4141-38.551-5.4141-12.82 0-23.648 2.6328-33.102 8.1367-22.977 13.285-31.199 38.777-38.457 61.285-3.9805 12.266-8.4609 26.137-13.934 31.609-5.4727 5.4727-19.348 9.9805-31.609 13.934-22.508 7.2891-48.027 15.512-61.316 38.457-13.113 22.684-7.6094 48.703-2.7227 71.68 2.6914 12.762 5.7656 27.25 3.6602 35.062-1.9023 7.0547-11.473 17.68-19.902 27.016-16.039 17.707-34.215 37.816-34.215 64.887 0 27.074 18.176 47.152 34.215 64.887 8.457 9.3359 18.027 19.934 19.934 27.016 2.0781 7.8164-0.96484 22.301-3.6602 35.062-4.8867 22.977-10.391 48.996 2.7227 71.68 13.289 22.945 38.809 31.172 61.316 38.457 12.234 3.9531 26.105 8.3984 31.609 13.902 5.4727 5.5039 9.9531 19.375 13.934 31.609 4.418 13.758 9.6602 28.273 17.941 40.801l-113.45 348.91c-4.0391 14.43 0.085938 29.914 10.77 40.477 10.684 10.508 26.281 14.457 40.625 10.184l78.293-23.062 55.113 60.234c7.9336 8.6641 19.023 13.434 30.496 13.434 3.1914 0 6.4102-0.41016 9.6016-1.1406 14.574-3.4844 26.137-14.605 30.145-29.035l82.066-236.81 72.965 236.81c4.0391 14.457 15.57 25.582 30.145 29.035 3.1914 0.76172 6.4102 1.1406 9.6016 1.1406 11.445 0 22.535-4.7695 30.469-13.406l55.082-60.293 78.32 23.094c14.371 4.2734 29.941 0.35156 40.625-10.184 10.684-10.535 14.809-26.078 10.801-40.477l-113.18-349.26c8.1367-12.469 13.316-26.867 17.707-40.508 3.9531-12.234 8.4297-26.137 13.934-31.609 5.4727-5.5039 19.348-9.9531 31.609-13.934 22.508-7.2578 48.027-15.512 61.316-38.457 13.113-22.684 7.6094-48.703 2.75-71.68-2.7227-12.762-5.7656-27.25-3.6875-35.062 1.875-6.9961 11.445-17.59 19.906-26.93zm-484.45 649.61-48-52.535c-10.535-11.562-27.102-16.215-42.117-11.707l-68.281 20.078 101.56-319.73c4.1562 0.70312 8.2227 1.4648 12.848 1.4648 13.023 0 25.992-2.75 38.547-5.4453 14.02-2.957 28.066-5.5312 35.062-3.6602 7.082 1.875 17.68 11.504 27.016 19.934 10.156 9.1914 21.16 18.965 33.746 25.758h-0.67187l14.34 46.535zm333.19-64.242c-15.043-4.4492-31.551 0.20312-42.117 11.738l-48 52.566-93.367-324.23c13.875-6.7617 25.758-17.504 36.73-27.453 9.3359-8.4297 19.961-18 27.016-19.902 6.9648-1.875 21.043 0.67187 35.062 3.6602 12.555 2.6914 25.523 5.4453 38.547 5.4453 3.0156 0 5.5625-0.64453 8.3398-0.9375l106.07 319.23zm111.8-619.23c-12.762 14.137-25.961 28.711-30.965 47.387-5.1797 19.289-0.78906 39.836 3.043 57.98 2.8086 13.348 6.3516 29.941 2.9258 35.914-3.6289 6.2344-19.992 11.531-33.102 15.777-17.562 5.6484-37.375 12.086-51.336 25.992-13.902 13.961-20.312 33.777-25.992 51.277-4.2734 13.141-9.5117 29.504-15.746 33.102-1.6094 0.90625-4.332 1.4062-7.9336 1.4062-7.7266 0-17.562-2.0781-27.953-4.3008-12.586-2.6328-25.582-5.4453-38.723-5.4453-6.9961 0-13.316 0.78906-19.289 2.3984-18.645 4.9766-33.25 18.176-47.387 30.938-10.359 9.4258-23.328 21.102-31.023 21.102-7.6992 0-20.633-11.648-31.055-21.102-14.105-12.762-28.711-25.961-47.387-30.938-5.9727-1.6094-12.262-2.3984-19.289-2.3984-13.141 0-26.137 2.7812-38.723 5.4453-10.418 2.2227-20.254 4.2734-27.953 4.2734-3.6289 0.027343-6.3789-0.46875-7.9336-1.375-6.2344-3.6016-11.531-19.961-15.777-33.102-5.6484-17.504-12.086-37.348-25.992-51.309-13.934-13.902-33.777-20.312-51.277-25.992-13.141-4.2422-29.504-9.543-33.102-15.777-3.4531-5.9414 0.058594-22.566 2.8984-35.914 3.8359-18.145 8.1953-38.691 3.043-57.98-4.9766-18.672-18.203-33.25-30.965-47.387-9.3945-10.391-21.102-23.355-21.102-31.055 0-7.6992 11.707-20.633 21.102-31.055 12.762-14.137 25.961-28.711 30.965-47.387 5.1523-19.289 0.78906-39.863-3.043-58.008-2.8398-13.348-6.3516-29.941-2.9258-35.914 3.6719-6.1445 20.004-11.441 33.145-15.684 17.531-5.6484 37.375-12.086 51.309-26.02 13.902-13.902 20.344-33.777 25.992-51.281 4.2422-13.141 9.543-29.504 15.777-33.102 1.582-0.90625 4.3008-1.375 7.9336-1.375 7.7266 0 17.531 2.0781 27.953 4.2734 12.555 2.6641 25.582 5.4453 38.723 5.4453 6.9961 0 13.316-0.76172 19.289-2.3711 18.672-4.9766 33.25-18.203 47.387-30.965 10.391-9.3945 23.355-21.102 31.055-21.102s20.633 11.707 31.023 21.133c14.137 12.762 28.742 25.961 47.387 30.965 6 1.582 12.293 2.3711 19.289 2.3711 13.113 0 26.164-2.75 38.723-5.4141 10.391-2.2227 20.223-4.3008 27.953-4.3008 3.6016 0 6.3516 0.46875 7.9336 1.375 6.2344 3.6289 11.504 19.961 15.746 33.102 5.6484 17.531 12.086 37.375 26.02 51.309 13.934 13.934 33.746 20.34 51.277 25.992 13.113 4.2422 29.504 9.543 33.102 15.777 3.4531 5.9414-0.058594 22.566-2.8984 35.914-3.8359 18.145-8.2227 38.691-3.043 57.98 5.0039 18.672 18.203 33.25 30.965 47.387 9.3672 10.391 21.102 23.355 21.102 31.055-0.015625 7.6836-11.781 20.59-21.145 30.98z"/>
</svg>
