<svg xmlns="http://www.w3.org/2000/svg" viewBox="0 0 200 200" width="200" height="200">
<g transform="translate(0,200) scale(0.1,-0.1)" fill="#000000" stroke="none">
<path d="M935 1871 c-22 -10 -49 -28 -60 -41 -37 -41 -72 -53 -142 -45 -110
12 -182 -41 -202 -149 -11 -62 -32 -90 -91 -122 -91 -50 -118 -136 -72 -234
27 -56 27 -90 3 -138 -10 -20 -21 -50 -25 -65 -15 -62 36 -156 99 -182 42 -18
78 -59 79 -92 0 -21 -37 -82 -142 -231 -97 -137 -142 -209 -140 -224 6 -41 28
-43 149 -16 63 14 117 23 121 21 3 -2 21 -49 38 -106 18 -56 39 -110 47 -119
18 -20 44 -23 59 -8 6 6 57 111 114 233 l104 224 34 -24 c49 -32 135 -32 183
0 l35 23 99 -214 c112 -240 119 -252 144 -252 30 0 48 30 80 137 18 56 35 104
39 106 4 2 54 -7 112 -20 123 -28 142 -27 154 8 8 24 -5 46 -135 230 -106 151
-143 211 -143 232 1 29 48 87 70 87 26 0 92 75 103 115 12 45 3 100 -23 136
-22 32 -20 85 6 139 46 99 18 185 -75 236 -55 30 -82 67 -91 127 -10 60 -41
103 -91 127 -38 18 -55 21 -108 15 -70 -8 -105 4 -142 45 -25 28 -91 60 -125
60 -14 0 -43 -9 -65 -19z m118 -32 c12 -7 39 -27 59 -45 46 -41 94 -55 172
-47 60 5 64 4 99 -26 25 -22 38 -44 43 -69 15 -92 42 -130 122 -174 38 -20 72
-73 72 -110 0 -14 -11 -50 -25 -80 -31 -67 -31 -100 0 -163 44 -90 25 -152
-62 -199 -56 -31 -91 -78 -100 -132 -15 -101 -53 -129 -173 -129 -80 0 -90 -2
-128 -30 -23 -16 -56 -40 -73 -52 -45 -32 -79 -29 -135 12 -27 19 -60 43 -74
52 -18 13 -45 18 -100 19 -105 1 -105 1 -139 30 -23 19 -33 39 -42 86 -14 70
-50 118 -111 149 -74 38 -96 111 -56 184 29 53 29 126 0 182 -12 23 -22 55
-22 70 0 39 34 91 73 111 63 33 103 84 116 150 10 50 18 66 48 93 35 30 39 31
99 26 78 -8 126 6 172 47 20 18 46 38 57 44 26 15 81 15 108 1z m-419 -1200
c32 -14 56 -17 111 -13 120 10 120 16 -3 -248 -59 -125 -111 -226 -116 -225
-5 2 -25 52 -45 112 -20 60 -44 113 -53 119 -12 7 -42 5 -105 -8 -137 -30
-147 -31 -141 -15 3 8 61 94 129 191 l123 178 30 -36 c16 -20 48 -45 70 -55z
m960 -92 c65 -93 120 -175 123 -184 7 -18 1 -17 -140 13 -63 13 -93 15 -105 8
-9 -6 -33 -59 -53 -119 -20 -60 -40 -110 -45 -112 -5 -2 -57 99 -116 225 -123
264 -123 258 -3 248 85 -6 138 13 181 68 16 19 31 32 35 28 3 -4 59 -83 123
-175z M883 1651 c-206 -53 -362 -275 -339 -483 14 -122 61 -213 155 -301 129
-121 336 -150 499 -71 125 61 229 200 253 341 33 189 -78 398 -258 484 -61 29
-78 33 -173 35 -58 2 -119 -1 -137 -5z m260 -51 c118 -45 215 -142 254 -253
12 -36 18 -81 18 -147 0 -86 -3 -101 -31 -161 -55 -115 -138 -190 -255 -229
-53 -18 -80 -21 -154 -18 -110 6 -181 34 -254 103 -126 118 -171 277 -122 434
49 157 171 262 341 295 45 8 151 -4 203 -24z M963 1548 c-6 -7 -23 -46 -39
-86 -32 -85 -43 -92 -137 -92 -71 0 -107 -18 -107 -54 0 -17 20 -41 68 -82 37
-32 69 -59 71 -60 2 -2 -7 -46 -20 -100 l-23 -96 22 -19 c28 -22 41 -18 135
40 l67 41 67 -41 c94 -58 107 -62 135 -40 l22 19 -23 96 c-13 54 -22 98 -20
100 2 1 34 28 72 60 47 41 67 65 67 82 0 36 -36 54 -107 54 -94 0 -105 7 -137
92 -36 90 -42 98 -76 98 -15 0 -32 -6 -37 -12z m85 -113 l37 -90 95 -8 c52 -5
99 -12 103 -16 5 -5 -26 -37 -67 -71 -42 -35 -76 -65 -76 -69 0 -3 10 -48 22
-98 12 -51 19 -95 15 -99 -3 -3 -44 17 -91 46 l-86 53 -86 -53 c-47 -29 -88
-49 -91 -46 -4 4 3 48 15 99 12 50 22 95 22 98 0 3 -34 35 -75 69 -42 35 -72
67 -68 71 4 4 51 11 103 16 l94 8 39 93 c22 51 44 91 49 90 5 -2 26 -44 46
-93z"/>
</g>
</svg>