<?xml version="1.0" encoding="UTF-8"?>
<svg width="1200pt" height="1200pt" version="1.1" viewBox="0 0 1200 1200" xmlns="http://www.w3.org/2000/svg">
 <path d="m491.87 303.3c-9.2305-15.824-17.145-31.648-23.734-44.836-5.2734-10.551-18.461-15.824-29.012-10.551-10.551 5.2734-15.824 18.461-10.551 29.012 6.5938 14.504 15.824 30.328 25.055 47.473 6.5938 11.867 13.188 25.055 19.781 36.922 11.867-7.9102 25.055-15.824 38.242-22.418-6.5938-11.867-13.188-23.734-19.781-35.602z"/>
 <path d="m203.08 625.05c5.2734 0 10.551-1.3203 14.504-5.2734 9.2305-7.9102 32.969-10.551 58.023-9.2305 5.2734-14.504 11.867-29.012 18.461-43.516-38.242-3.957-83.078 0-105.5 19.781-9.2305 7.9102-10.551 22.418-2.6367 31.648 3.957 3.9531 10.551 6.5898 17.145 6.5898z"/>
 <path d="m578.9 1007.5c1.3203 11.867 10.551 19.781 22.418 19.781h2.6367c11.867-1.3203 21.098-11.867 19.781-23.734-1.3203-15.824-5.2734-30.328-9.2305-44.836-13.188 7.9102-26.375 14.504-40.879 19.781 1.3164 10.547 3.9531 19.777 5.2734 29.008z"/>
 <path d="m953.41 352.09c11.867-9.2305 25.055-18.461 35.605-25.055l5.2734-2.6367c10.551-6.5938 13.188-21.098 6.5938-30.328-6.5938-10.551-21.098-13.188-30.328-6.5938l-5.2734 2.6367c-14.504 9.2305-31.648 21.098-47.473 34.285 2.6367 1.3203 5.2734 3.957 9.2305 5.2734 9.2305 5.2734 18.461 13.184 26.371 22.418z"/>
 <path d="m781.98 229.45c9.2305-7.9102 9.2305-22.418 1.3203-31.648s-22.418-9.2305-31.648-1.3203c-19.781 17.145-36.922 52.746-43.516 87.031 14.504-1.3203 30.328-1.3203 46.152-1.3203 6.5938-21.094 17.145-42.191 27.691-52.742z"/>
 <path d="m660.66 472.09c14.504 7.9102 32.969 1.3203 43.516-5.2734 9.2305-6.5938 14.504-14.504 14.504-18.461s-5.2734-9.2305-14.504-13.188c-5.2734-2.6367-10.551-3.957-15.824-3.957-17.145 0-35.605 10.551-40.879 22.418-1.3203 3.9531-3.957 10.547 13.188 18.461z"/>
 <path d="m399.56 770.11c18.461 5.2734 36.922-2.6367 58.023-13.188 6.5938-3.957 14.504-6.5938 21.098-9.2305 15.824-6.5938 31.648-9.2305 47.473-11.867 21.098-3.957 40.879-6.5938 54.066-17.145 10.551-9.2305 17.145-27.691 17.145-52.746 0-40.879-18.461-89.672-39.559-106.81-10.551-7.9102-23.734-9.2305-42.199-3.957-40.879 11.867-85.715 55.383-94.945 84.395-2.6367 6.5938-5.2734 15.824-9.2305 25.055-10.551 27.691-31.648 79.121-22.418 98.902 2.6367 2.6367 5.2734 5.2773 10.547 6.5938zm39.562-93.625c3.957-23.734 21.098-29.012 31.648-31.648l2.6367-1.3203c9.2305-2.6367 18.461 0 25.055 7.9102 10.551 14.504 6.5938 26.375 3.957 31.648-9.2305 18.461-31.648 18.461-39.559 18.461-6.5938 0-13.188-2.6367-17.145-7.9102-5.2734-3.9531-6.5938-10.547-6.5938-17.141z"/>
 <path d="m358.68 609.23c-5.2734 10.551-18.461 15.824-29.008 10.551-11.867-5.2734-32.969-9.2305-54.066-10.551-1.3203 3.957-2.6367 7.9102-5.2734 11.867-42.199 117.36-40.883 269.01 88.348 341.54 39.559 22.418 81.758 32.969 123.96 32.969 30.328 0 60.66-6.5938 89.672-17.145-1.3203-3.957-1.3203-6.5938-2.6367-10.551-6.5938-22.418-13.188-44.836-10.551-69.891 1.3203-11.867 11.867-21.098 23.734-19.781 11.867 1.3203 21.098 11.867 19.781 23.734-1.3203 17.145 3.957 35.605 9.2305 54.066 0 1.3203 0 1.3203 1.3203 2.6367 40.879-25.055 76.484-61.977 104.18-110.77 25.055-44.836 58.023-96.266 109.45-134.5 6.5938-5.2734 13.188-10.551 21.098-14.504 34.285-25.055 73.848-54.066 98.902-90.988 31.648-48.793 48.793-108.13 44.836-160.88-2.6367-38.238-15.824-69.887-38.242-94.941-21.098 17.145-40.879 35.605-43.516 56.703-1.3203 10.551-10.551 18.461-22.418 18.461h-3.957c-11.867-1.3203-21.098-13.188-18.461-25.055 5.2734-31.648 27.691-56.703 52.746-77.801-44.836-27.691-104.18-39.559-162.2-40.879-5.2734 21.098-7.9102 40.879-2.6367 52.746 3.957 11.867-1.3203 23.734-11.867 29.012-2.6367 1.3203-5.2734 1.3203-7.9102 1.3203-9.2305 0-17.145-5.2734-21.098-14.504-7.9102-18.461-6.5938-43.516-1.3203-67.254-42.199 2.6367-79.121 9.2305-108.13 18.461-31.648 9.2305-61.977 22.418-89.672 38.242 10.551 21.098 21.098 42.199 27.691 64.617 3.957 11.867-3.957 23.734-15.824 27.691-2.6367 0-3.957 1.3203-6.5938 1.3203-9.2305 0-18.461-6.5938-21.098-15.824-5.2734-17.145-13.188-35.605-22.418-54.066-75.164 50.109-137.14 120-179.34 203.08 22.418 2.6367 42.199 7.9102 54.066 13.188 10.551 2.6289 14.508 15.816 9.2305 27.684zm462.86-84.395c14.504-1.3203 30.328 1.3203 43.516 7.9102 11.867 5.2734 17.145 18.461 11.867 29.012-3.957 7.9102-11.867 13.188-21.098 13.188-2.6367 0-5.2734 0-9.2305-1.3203-7.9102-2.6367-14.504-3.957-23.734-3.957-11.867 0-22.418-7.9102-23.734-21.098-1.3242-13.188 10.547-23.734 22.414-23.734zm-358.68 352.09-17.145 17.145c-3.957 3.957-10.551 6.5938-15.824 6.5938-5.2734 0-11.867-2.6367-15.824-6.5938-9.2305-9.2305-9.2305-22.418 0-31.648l17.145-17.145c9.2305-9.2305 22.418-9.2305 31.648 0 9.2344 7.9141 9.2344 22.418 0 31.648zm282.2-204.39c-3.957 3.957-9.2305 5.2734-14.504 5.2734-6.5938 0-13.188-2.6367-17.145-7.9102-10.551-13.188-10.551-31.648 0-44.836 7.9102-9.2305 22.418-10.551 31.648-2.6367 7.9102 6.5938 9.2305 17.145 6.5938 25.055 3.957 7.9102 1.3203 18.461-6.5938 25.055zm-137.14-238.68c17.145-35.605 72.527-60.66 116.04-39.559 31.648 15.824 38.242 38.242 39.559 50.109 1.3203 22.418-10.551 43.516-34.285 59.34-15.824 10.551-34.285 15.824-52.746 15.824-11.867 0-25.055-2.6367-35.605-7.9102-42.195-19.785-44.832-54.07-32.965-77.805zm-228.13 191.21c13.188-39.559 68.57-96.266 123.96-112.09 31.648-9.2305 60.66-5.2734 81.758 11.867 31.648 25.055 55.383 85.715 55.383 141.1 0 39.559-11.867 69.891-32.969 87.031-22.418 17.145-50.109 22.418-75.164 26.375-14.504 2.6367-27.691 5.2734-38.242 9.2305-6.5938 2.6367-13.188 5.2734-18.461 7.9102-18.461 9.2305-39.559 18.461-64.617 18.461-7.9102 0-15.824-1.3203-23.734-2.6367-17.145-5.2734-30.328-14.504-38.242-30.328-18.461-36.922 3.957-93.625 19.781-134.5 5.2734-7.9102 7.9141-15.82 10.551-22.414z"/>
</svg>
