<?xml version="1.0" encoding="UTF-8"?>
<svg width="1200pt" height="1200pt" version="1.1" viewBox="0 0 1200 1200" xmlns="http://www.w3.org/2000/svg">
 <path d="m250 200c-27.613 0-50 22.387-50 50v100c0 27.613-22.387 50-50 50s-50-22.387-50-50v-100c0-82.844 67.156-150 150-150h100c27.613 0 50 22.387 50 50s-22.387 50-50 50z"/>
 <path d="m800 150c0-27.613 22.387-50 50-50h100c82.844 0 150 67.156 150 150v100c0 27.613-22.387 50-50 50s-50-22.387-50-50v-100c0-27.613-22.387-50-50-50h-100c-27.613 0-50-22.387-50-50z"/>
 <path d="m150 800c27.613 0 50 22.387 50 50v100c0 27.613 22.387 50 50 50h100c27.613 0 50 22.387 50 50s-22.387 50-50 50h-100c-82.844 0-150-67.156-150-150v-100c0-27.613 22.387-50 50-50z"/>
 <path d="m1050 800c27.613 0 50 22.387 50 50v100c0 82.844-67.156 150-150 150h-100c-27.613 0-50-22.387-50-50s22.387-50 50-50h100c27.613 0 50-22.387 50-50v-100c0-27.613 22.387-50 50-50z"/>
 <path d="m250 500c0 27.613 22.387 50 50 50h200c27.613 0 50-22.387 50-50v-200c0-27.613-22.387-50-50-50h-200c-27.613 0-50 22.387-50 50zm100-50v-100h100v100z" fill-rule="evenodd"/>
 <path d="m300 950c-27.613 0-50-22.387-50-50v-200c0-27.613 22.387-50 50-50h200c27.613 0 50 22.387 50 50v200c0 27.613-22.387 50-50 50zm50-200v100h100v-100z" fill-rule="evenodd"/>
 <path d="m650 500c0 27.613 22.387 50 50 50h200c27.613 0 50-22.387 50-50v-200c0-27.613-22.387-50-50-50h-200c-27.613 0-50 22.387-50 50zm100-50v-100h100v100z" fill-rule="evenodd"/>
 <path d="m700 950c-27.613 0-50-22.387-50-50v-200c0-27.613 22.387-50 50-50h200c27.613 0 50 22.387 50 50v200c0 27.613-22.387 50-50 50zm50-200v100h100v-100z" fill-rule="evenodd"/>
</svg>
