<?xml version="1.0" encoding="UTF-8"?>
<svg width="1200pt" height="1200pt" version="1.1" viewBox="0 0 1200 1200" xmlns="http://www.w3.org/2000/svg">
 <path d="m528 462c9.9375 0 18 8.0625 18 18s-8.0625 18-18 18h-96c-16.547 0-30 13.453-30 30v144c0 16.547 13.453 30 30 30h48c9.9375 0 18 8.0625 18 18s-8.0625 18-18 18h-48c-36.469 0-66-29.531-66-66v-144c0-36.469 29.531-66 66-66z"/>
 <path d="m720 462c36.469 0 66 29.531 66 66v6h30c23.203 0 42 18.797 42 42v48c0 23.203-18.797 42-42 42h-30v6c0 36.469-29.531 66-66 66h-72c-9.9375 0-18-8.0625-18-18s8.0625-18 18-18h72c16.547 0 30-13.453 30-30v-24c0-9.9375 8.0625-18 18-18h48c3.3281 0 6-2.6719 6-6v-48c0-3.3281-2.6719-6-6-6h-48c-9.9375 0-18-8.0625-18-18v-24c0-16.547-13.453-30-30-30h-24c-9.9375 0-18-8.0625-18-18s8.0625-18 18-18z"/>
 <path d="m596.72 494.48c5.2969-8.4375 16.406-11.016 24.797-5.7656 8.4375 5.2969 11.016 16.406 5.7656 24.797l-42.797 68.484h39.516c6.5625 0 12.562 3.5625 15.75 9.2812 3.1406 5.7188 3 12.703-0.46875 18.234l-60 96c-5.2969 8.4375-16.406 11.016-24.797 5.7656-8.4375-5.2969-11.016-16.406-5.7656-24.797l42.797-68.484h-39.516c-6.5625 0-12.562-3.5625-15.75-9.2812-3.1406-5.7188-3-12.703 0.46875-18.234z"/>
</svg>
