<?xml version="1.0" encoding="UTF-8"?>
<svg width="1200pt" height="1200pt" version="1.1" viewBox="0 0 1200 1200" xmlns="http://www.w3.org/2000/svg">
 <path d="m471.74 35.297c-47.297 0-86.016 38.484-86.016 85.734 0 37.547 24.469 69.609 58.266 81.234v313.45l-308.63 479.81v-0.046875c-0.1875 0.28125-0.375 0.60938-0.5625 0.89062-42.188 74.531 12.797 168.32 98.484 168.32h733.5c85.688 0 140.53-93.797 98.344-168.32-0.14062-0.28125-0.32812-0.60938-0.51562-0.89062l-308.63-479.81v-313.36c33.844-11.531 58.406-43.688 58.406-81.281 0-47.25-38.672-85.734-85.969-85.734zm0 35.344h256.64c28.359 0 50.672 22.125 50.672 50.391s-22.312 50.578-50.672 50.578h-256.64c-28.359 0-50.672-22.312-50.672-50.578s22.312-50.391 50.672-50.391zm7.5469 136.26h241.4v313.97h0.046875c0 3.375 0.98438 6.7031 2.8594 9.5156l170.11 264.52c-45.938 18.422-172.08 58.031-284.76-7.5-39.891-23.203-80.953-34.688-120-39.094-64.688-7.2656-124.03 5.2969-164.21 18l151.82-235.97v0.046875c1.7812-2.8594 2.7656-6.1406 2.7188-9.5156zm162.98 340.26c-41.812 0-76.078 34.266-76.078 76.078s34.266 76.125 76.078 76.125 76.125-34.312 76.125-76.125-34.312-76.078-76.125-76.078zm0 35.297c22.734 0 40.781 18.047 40.781 40.781 0 22.734-18.047 40.781-40.781 40.781-22.734 0-40.781-18.047-40.781-40.781 0-22.734 18.047-40.781 40.781-40.781zm-196.36 199.31c45.984-0.65625 96.891 8.1562 145.31 36.281 132.52 77.016 276.71 26.531 321.94 7.125l121.4 188.81c29.438 52.359-7.5 115.59-67.781 115.59l-733.45-0.046875c-60.328 0-97.312-63.281-67.734-115.69 0.046875-0.046875-0.046875-0.046875 0-0.14062l126.89-197.21c15.375-7.125 77.438-33.703 153.47-34.734zm16.828 70.641c-60.094 0-109.17 49.078-109.17 109.17s49.078 109.17 109.17 109.17 109.08-49.078 109.08-109.17-48.984-109.17-109.08-109.17zm0 35.297c41.016 0 73.734 32.859 73.734 73.875s-32.719 73.875-73.734 73.875-73.875-32.859-73.875-73.875 32.859-73.875 73.875-73.875zm338.06 50.531c-33.281 0-60.562 27.328-60.562 60.609s27.281 60.703 60.562 60.703 60.703-27.422 60.703-60.703-27.422-60.609-60.703-60.609zm0 35.344c14.203 0 25.406 11.062 25.406 25.266s-11.203 25.406-25.406 25.406-25.266-11.203-25.266-25.406 11.062-25.266 25.266-25.266z"/>
</svg>
