<?xml version="1.0" encoding="UTF-8"?>
<svg width="1200pt" height="1200pt" version="1.1" viewBox="0 0 1200 1200" xmlns="http://www.w3.org/2000/svg">
 <path d="m1047.6 856.64c-5.7656-35.297-38.906-59.766-74.672-59.766h-18.75c-4.9688 0-9-4.0312-9-9v-265.4c0-148.22-106.03-271.36-246.37-298.45-4.1719-0.79688-7.2188-4.3594-7.2188-8.5781v-58.641c0-47.906-34.5-91.594-82.172-96.375-54.844-5.4844-101.06 37.406-101.06 91.125v63.844c0 4.2656-3.0469 7.7812-7.2188 8.5781-140.29 27.094-246.37 150.24-246.37 298.45v265.4c0 4.9688-4.0312 9-9 9h-18.75c-35.766 0-68.953 24.422-74.672 59.766-7.3125 45 27.234 83.906 70.828 83.906h753.47c43.641 0 78.141-38.906 70.828-83.906z"/>
 <path d="m717.89 1012.4h-235.74c-5.2031 0-9.6562 4.4531-9.2344 9.6562 4.9219 65.578 60.375 117.98 127.13 117.98 66.754 0 122.21-52.406 127.13-117.98 0.375-5.2031-4.0312-9.6562-9.2344-9.6562z"/>
</svg>
