<?xml version="1.0" encoding="UTF-8"?>
<svg width="1200pt" height="1200pt" version="1.1" viewBox="0 0 1200 1200" xmlns="http://www.w3.org/2000/svg">
 <path d="m309.42 694.15c0-17.914-14.578-32.496-32.496-32.496-17.914 0-32.496 14.578-32.496 32.496 0 17.914 14.578 32.508 32.496 32.508 17.914 0 32.496-14.594 32.496-32.508zm-32.496-22.895c5.5195 0 10.512 2.0391 14.473 5.3047-1.6562-0.50391-3.5156-0.16797-4.8125 1.1289l-3.3945 3.4062-6.2539 6.2656-6.2539-6.2656-3.3945-3.4062c-1.3086-1.3086-3.168-1.6445-4.8125-1.1289 3.9336-3.2539 8.9258-5.3047 14.449-5.3047zm0 45.789c-12.625 0-22.883-10.262-22.883-22.895 0-5.5195 2.0391-10.512 5.3047-14.473-0.50391 1.6562-0.16797 3.5156 1.1289 4.8125l13.055 13.055c0.9375 0.9375 2.1719 1.4023 3.3945 1.4023 1.2227 0 2.4609-0.46875 3.3945-1.4023l13.055-13.055c1.3086-1.3086 1.6445-3.168 1.1289-4.8125 3.2656 3.9609 5.3047 8.9531 5.3047 14.473 0 12.625-10.262 22.895-22.883 22.895zm711.27 406.19-37.246-3.9961v-374.13h4.4297c2.6523 0 4.8008-2.1602 4.8008-4.8008v-18.457c0-2.6523-2.1602-4.8008-4.8008-4.8008h-4.4297v-22.895c0-2.6523-2.1602-4.8008-4.8008-4.8008h-9.0352v-78.266c0-2.6523-2.1602-4.8008-4.8008-4.8008h-18.457c-2.6523 0-4.8008 2.1602-4.8008 4.8008v4.4297h-87.312v-9.0469c0-2.6523-2.1602-4.8008-4.8008-4.8008h-184.64c-2.6523 0-4.8008 2.1602-4.8008 4.8008v9.0469h-170.38v-4.4297c0-2.6523-2.1602-4.8008-4.8008-4.8008h-18.457c-2.6523 0-4.8008 2.1602-4.8008 4.8008v78.266h-9.0586c-2.6523 0-4.8008 2.1602-4.8008 4.8008v22.895h-4.4375c-2.6523 0-4.8008 2.1602-4.8008 4.8008v18.457c0 2.6523 2.1602 4.8008 4.8008 4.8008h4.4375v274.43c-8.7969-7.2109-19.883-11.723-32.125-11.723-14.449 0-27.445 6.1094-36.73 15.816v-587.94c0-1.9453-1.1758-3.6953-2.9648-4.4297-1.8008-0.74219-3.8516-0.33594-5.2422 1.0312l-17.062 17.051h-11.664l-0.003906-32.105v-18.477c0-0.44531-0.14453-0.85156-0.25391-1.2617-0.035156-0.14453 0-0.28906-0.046875-0.43359l-27.695-73.836c-1.4023-3.7422-7.5977-3.7422-9 0l-27.695 73.836c-0.046875 0.14453-0.011719 0.28906-0.046875 0.43359-0.12109 0.40625-0.25391 0.80469-0.25391 1.2461v50.582h-11.676l-17.051-17.051c-1.3789-1.3555-3.4336-1.7656-5.2422-1.0312-1.7891 0.74219-2.9648 2.4844-2.9648 4.4297v692.32c0 2.6523 2.1602 4.8008 4.8008 4.8008h775.41c2.5547 0 4.6562-2.0039 4.7891-4.5469 0.14453-2.5469-1.7539-4.7539-4.2852-5.0195zm-69.539-438.31v-69.051h8.8438v73.465h-8.8438zm-96.938-59.809h87.312v8.8438h-87.301v-8.8438zm82.898 45.766c-1.5703 0-3.0117 0.42188-4.4297 0.89844v-5.3281c0-2.4375 1.9805-4.4141 4.4297-4.4141 2.4492 0 4.4297 1.9805 4.4297 4.4141v5.3281c-1.418-0.47656-2.8594-0.89844-4.4297-0.89844zm4.4258 14.043v4.4141h-8.8555v-4.4141c0-2.4492 1.9805-4.4297 4.4297-4.4297 2.4453 0 4.4258 1.9805 4.4258 4.4297zm-4.4258-32.496c-1.5703 0-3.0117 0.42187-4.4297 0.89844v-9.7578h8.8555v9.7578c-1.4141-0.48047-2.8555-0.89844-4.4258-0.89844zm-18.469 18.453c-1.5586 0-3.0117 0.42188-4.4141 0.89844v-5.3281c0-2.4375 1.9805-4.4141 4.4141-4.4141 2.4492 0 4.4297 1.9805 4.4297 4.4141v5.3281c-1.418-0.47656-2.8711-0.89844-4.4297-0.89844zm4.4258 14.043v4.4141h-8.8438v-4.4141c0-2.4492 1.9805-4.4297 4.4141-4.4297 2.4531 0 4.4297 1.9805 4.4297 4.4297zm-4.4258-32.496c-1.5586 0-3.0117 0.42187-4.4141 0.88672v-9.7578h8.8438v9.7578c-1.418-0.46875-2.8711-0.88672-4.4297-0.88672zm-18.457 18.453c-1.5703 0-3.0117 0.42188-4.4297 0.89844v-5.3281c0-2.4375 1.9805-4.4141 4.4297-4.4141 2.4492 0 4.4297 1.9805 4.4297 4.4141v5.3281c-1.418-0.47656-2.8672-0.89844-4.4297-0.89844zm4.4297 14.043v4.4141h-8.8594v-4.4141c0-2.4492 1.9805-4.4297 4.4297-4.4297 2.4492 0 4.4297 1.9805 4.4297 4.4297zm-4.4297-32.496c-1.5703 0-3.0117 0.42187-4.4297 0.89844v-9.7578h8.8555v9.7578c-1.4141-0.48047-2.8633-0.89844-4.4258-0.89844zm-18.469 18.453c-1.5703 0-3.0117 0.42188-4.4297 0.89844v-5.3281c0-2.4375 1.9805-4.4141 4.4297-4.4141 2.4375 0 4.4141 1.9805 4.4141 4.4141v5.3281c-1.4023-0.47656-2.8398-0.89844-4.4141-0.89844zm4.4297 14.043v4.4141h-8.8555v-4.4141c0-2.4492 1.9805-4.4297 4.4297-4.4297 2.4453 0 4.4258 1.9805 4.4258 4.4297zm-4.4297-32.496c-1.5703 0-3.0117 0.42187-4.4297 0.89844v-9.7578h8.8438v9.7578c-1.4023-0.48047-2.8398-0.89844-4.4141-0.89844zm-18.465 18.453c-1.5586 0-3.0117 0.42188-4.4141 0.89844v-5.3281c0-2.4375 1.9805-4.4141 4.4141-4.4141 2.4492 0 4.4297 1.9805 4.4297 4.4141v5.3281c-1.4062-0.47656-2.8594-0.89844-4.4297-0.89844zm4.4375 14.043v4.4141h-8.8516v-4.4141c0-2.4492 1.9805-4.4297 4.4141-4.4297 2.4453 0 4.4375 1.9805 4.4375 4.4297zm-4.4375-32.496c-1.5586 0-3.0117 0.42187-4.4141 0.88672v-9.7578h8.8516v9.7578c-1.4141-0.46875-2.8672-0.88672-4.4375-0.88672zm-32.102-41.172h13.465v45.277h-13.465zm18.07 73.859v4.2344h-8.8594v-4.2344zm-18.07-18.961h13.465v9.3477h-13.465zm-9.2383 18.961h8.8438v4.2344h-8.8438zm-13.852-73.859h13.477v45.277h-13.477zm0 54.898h13.477v9.3477h-13.477zm-4.6172 18.961h8.8555v4.2344h-8.8594zm-18.457-46.355v-27.504h13.465v45.277h-13.465zm0 27.395h13.465v9.3477h-13.465zm0 18.961h8.8438v4.2344h-8.8438zm-23.074-73.859h13.465v45.277h-13.465zm0 54.898h13.465v9.3477h-13.465zm13.461 18.961v4.2344h-8.8438v-4.2344zm-36.539-73.859h13.465v45.277h-13.465zm18.086 73.859v4.2344h-8.8594v-4.2344zm-18.086-18.961h13.465v9.3477h-13.465zm-9.2266 18.961h8.8438v4.2344h-8.8438zm-13.859-73.859h13.477v45.277h-13.477zm0 54.898h13.477v9.3477h-13.477zm-4.5977 18.961h8.8438v4.2344h-8.8438zm-18.469-46.355v-27.504h13.465v45.277h-13.465zm0 27.395h13.465v9.3477h-13.465zm0 18.961h8.8555v4.2344h-8.8594zm-23.074-73.859h13.465v45.277h-13.465zm0 54.898h13.465v9.3477h-13.465zm13.461 18.961v4.2344h-8.8438v-4.2344zm-23.027-4.5977c0.12109 2.4727 2.0898 4.4531 4.5703 4.5469v4.2734h-8.8555v-4.4141c-0.007813-2.4023 1.8984-4.3203 4.2852-4.4062zm-0.046875-18.445v8.8438c-1.5 0.023437-2.8906 0.39453-4.2461 0.86328v-5.3281c0-2.375 1.8945-4.2695 4.2461-4.3789zm-4.2461-8.7461v-9.7578h4.2461v8.8906c-1.5 0.027343-2.8906 0.41016-4.2461 0.86719zm-166.14-28.211h170.39v8.8438h-170.4v-8.8438zm152.11 45.766c-1.5703 0-3.0117 0.42188-4.4297 0.89844v-5.3281c0-2.4375 1.9805-4.4141 4.4297-4.4141 2.4375 0 4.4141 1.9805 4.4141 4.4141v5.3281c-1.4023-0.47656-2.8398-0.89844-4.4141-0.89844zm4.4297 14.043v4.4141h-8.8555v-4.4141c0-2.4492 1.9805-4.4297 4.4297-4.4297 2.4453 0 4.4258 1.9805 4.4258 4.4297zm-4.4297-32.496c-1.5703 0-3.0117 0.42187-4.4297 0.89844v-9.7578h8.8438v9.7578c-1.4023-0.48047-2.8398-0.89844-4.4141-0.89844zm-18.465 18.453c-1.5586 0-3.0117 0.42188-4.4141 0.89844v-5.3281c0-2.4375 1.9805-4.4141 4.4141-4.4141 2.4492 0 4.4297 1.9805 4.4297 4.4141v5.3281c-1.4062-0.47656-2.8594-0.89844-4.4297-0.89844zm4.4375 14.043v4.4141h-8.8516v-4.4141c0-2.4492 1.9805-4.4297 4.4141-4.4297 2.4453 0 4.4375 1.9805 4.4375 4.4297zm-4.4375-32.496c-1.5586 0-3.0117 0.42187-4.4141 0.88672v-9.7578h8.8516v9.7578c-1.4141-0.46875-2.8672-0.88672-4.4375-0.88672zm-18.457 18.453c-1.5703 0-3.0117 0.42188-4.4297 0.89844v-5.3281c0-2.4375 1.9805-4.4141 4.4297-4.4141 2.4492 0 4.4297 1.9805 4.4297 4.4141v5.3281c-1.4062-0.47656-2.8594-0.89844-4.4297-0.89844zm4.4258 14.043v4.4141h-8.8555v-4.4141c0-2.4492 1.9805-4.4297 4.4297-4.4297 2.4492 0 4.4258 1.9805 4.4258 4.4297zm-4.4258-32.496c-1.5703 0-3.0117 0.42187-4.4297 0.89844v-9.7578h8.8555v9.7578c-1.4023-0.48047-2.8555-0.89844-4.4258-0.89844zm-18.457 18.453c-1.5703 0-3.0117 0.42188-4.4297 0.89844v-5.3281c0-2.4375 1.9805-4.4141 4.4297-4.4141 2.4375 0 4.4141 1.9805 4.4141 4.4141v5.3281c-1.4023-0.47656-2.8398-0.89844-4.4141-0.89844zm4.418 14.043v4.4141h-8.8438v-4.4141c0-2.4492 1.9805-4.4297 4.4297-4.4297 2.4336 0 4.4141 1.9805 4.4141 4.4297zm-4.418-32.496c-1.5703 0-3.0117 0.42187-4.4297 0.89844v-9.7578h8.8438v9.7578c-1.4023-0.48047-2.8398-0.89844-4.4141-0.89844zm-18.469 18.453c-1.5703 0-3.0117 0.42188-4.4297 0.89844v-5.3281c0-2.4375 1.9805-4.4141 4.4297-4.4141 2.4492 0 4.4297 1.9805 4.4297 4.4141v5.3281c-1.4062-0.47656-2.8555-0.89844-4.4297-0.89844zm4.4297 14.043v4.4141h-8.8594v-4.4141c0-2.4492 1.9805-4.4297 4.4297-4.4297 2.4492 0 4.4297 1.9805 4.4297 4.4297zm-4.4297-32.496c-1.5703 0-3.0117 0.42187-4.4297 0.89844v-9.7578h8.8555v9.7578c-1.4023-0.48047-2.8516-0.89844-4.4258-0.89844zm-18.453 18.453c-1.5703 0-3.0117 0.42188-4.4297 0.89844v-5.3281c0-2.4375 1.9805-4.4141 4.4297-4.4141 2.4375 0 4.4141 1.9805 4.4141 4.4141v5.3281c-1.4023-0.47656-2.8438-0.89844-4.4141-0.89844zm4.4141 14.043v4.4141h-8.8438v-4.4141c0-2.4492 1.9805-4.4297 4.4297-4.4297 2.4336 0 4.4141 1.9805 4.4141 4.4297zm-4.4141-32.496c-1.5703 0-3.0117 0.42187-4.4297 0.89844v-9.7578h8.8438v9.7578c-1.4023-0.48047-2.8438-0.89844-4.4141-0.89844zm-18.469 18.453c-1.5586 0-3.0117 0.42188-4.4141 0.89844v-5.3281c0-2.4375 1.9805-4.4141 4.4141-4.4141 2.4492 0 4.4297 1.9805 4.4297 4.4141v5.3281c-1.4062-0.47656-2.8594-0.89844-4.4297-0.89844zm4.4258 14.043v4.4141h-8.8438v-4.4141c0-2.4492 1.9805-4.4297 4.4141-4.4297 2.4492 0 4.4297 1.9805 4.4297 4.4297zm-4.4258-32.496c-1.5586 0-3.0117 0.42187-4.4141 0.88672v-9.7578h8.8438v9.7578c-1.4062-0.46875-2.8594-0.88672-4.4297-0.88672zm-18.457 18.453c-1.5703 0-3.0117 0.42188-4.4297 0.89844v-5.3281c0-2.4375 1.9805-4.4141 4.4297-4.4141s4.4297 1.9805 4.4297 4.4141v5.3281c-1.418-0.47656-2.8594-0.89844-4.4297-0.89844zm4.4297 14.043v4.4141h-8.8594v-4.4141c0-2.4492 1.9805-4.4297 4.4297-4.4297s4.4297 1.9805 4.4297 4.4297zm-4.4297-32.496c-1.5703 0-3.0117 0.42187-4.4297 0.89844v-9.7578h8.8555v9.7578c-1.4141-0.48047-2.8555-0.89844-4.4258-0.89844zm-22.883-8.8594h8.8438v9.7578c-1.4023-0.48047-2.8555-0.88672-4.4141-0.88672-1.5703 0-3.0117 0.42188-4.4297 0.89844zm0 22.887c0-2.4375 1.9805-4.4141 4.4297-4.4141 2.4375 0 4.4141 1.9805 4.4141 4.4141v5.3281c-1.4023-0.48047-2.8555-0.89844-4.4141-0.89844-1.5703 0-3.0117 0.42188-4.4297 0.89844zm0 18.469c0-2.4492 1.9805-4.4297 4.4297-4.4297 2.4375 0 4.4141 1.9805 4.4141 4.4297v4.4141h-8.8438zm-18.457-69.051h8.8438v73.465h-8.8438zm-13.859 83.078h13.461v4.4297c0 2.6523 2.1602 4.8008 4.8008 4.8008h9.2383c2.6523 0 4.8008-2.1602 4.8008-4.8008v-4.4297h8.8438v4.4297c0 2.6523 2.1602 4.8008 4.8008 4.8008l9.2539-0.003906c2.6523 0 4.8008-2.1602 4.8008-4.8008v-4.4297h8.8438v4.4297c0 2.6523 2.1602 4.8008 4.8008 4.8008h9.2383c2.6523 0 4.8008-2.1602 4.8008-4.8008v-4.4297h8.8438v4.4297c0 2.6523 2.1602 4.8008 4.8008 4.8008h9.2383c2.6523 0 4.8008-2.1602 4.8008-4.8008v-4.4297h8.8594v4.4297c0 2.6523 2.1602 4.8008 4.8008 4.8008h9.2266c2.6523 0 4.8008-2.1602 4.8008-4.8008v-4.4297h8.8555v4.4297c0 2.6523 2.1602 4.8008 4.8008 4.8008h9.2266c2.6523 0 4.8008-2.1602 4.8008-4.8008v-4.4297l4.4609 0.003906h4.4297v4.4297c0 2.6523 2.1602 4.8008 4.8008 4.8008h9.2266c2.6523 0 4.8008-2.1602 4.8008-4.8008v-4.4297h8.8555v4.4297c0 2.6523 2.1602 4.8008 4.8008 4.8008h9.2266c2.6523 0 4.8008-2.1602 4.8008-4.8008v-4.4297h8.8594v4.4297c0 2.6523 2.1602 4.8008 4.8008 4.8008h9.2383c2.6523 0 4.8008-2.1602 4.8008-4.8008v-4.4297h8.8438v4.4297c0 2.6523 2.1602 4.8008 4.8008 4.8008h9.2383c2.6523 0 4.8008-2.1602 4.8008-4.8008v-4.4297h8.875v4.4297c0 2.6523 2.1602 4.8008 4.8008 4.8008h9.2383c2.6523 0 4.8008-2.1602 4.8008-4.8008v-4.4297h8.8438v4.4297c0 2.6523 2.1602 4.8008 4.8008 4.8008h9.2383c2.6523 0 4.8008-2.1602 4.8008-4.8008v-4.4297h8.8438v4.4297c0 2.6523 2.1602 4.8008 4.8008 4.8008h9.2383c2.6523 0 4.8008-2.1602 4.8008-4.8008v-4.4297h8.8438v4.4297c0 2.6523 2.1602 4.8008 4.8008 4.8008h9.2383c2.6523 0 4.8008-2.1602 4.8008-4.8008v-4.4297h8.8438v4.4297c0 2.6523 2.1602 4.8008 4.8008 4.8008l9.2656-0.003906c2.6523 0 4.8008-2.1602 4.8008-4.8008v-4.4297h8.8438v4.4297c0 2.6523 2.1602 4.8008 4.8008 4.8008h9.2383c2.6523 0 4.8008-2.1602 4.8008-4.8008v-4.4297h8.8438v4.4297c0 2.6523 2.1602 4.8008 4.8008 4.8008h9.2383c2.6523 0 4.8008-2.1602 4.8008-4.8008v-4.4297h8.8555v4.4297c0 2.6523 2.1602 4.8008 4.8008 4.8008h9.2266c2.6523 0 4.8008-2.1602 4.8008-4.8008v-4.4297h13.465v18.098h-516.52zm-41.727 318.47c22.801 0 41.352 18.539 41.352 41.34 0 1.3789-0.27734 2.6758-0.40625 4.0195l-81.816-8.7617c2.3906-20.543 19.691-36.598 40.871-36.598zm-55.199-561.28 8.8555-8.8672v20.543h-8.8555zm-50.949-117.55 20.762 55.367h-41.531zm-22.887 64.977h45.77v8.8555l-45.77 0.003907zm0 18.469h45.77v27.301h-45.77zm-18.469 36.914h82.703v8.8555h-82.703zm-18.453-11.676 8.8438 8.8555v11.676h-8.8438zm0 30.145h119.63v8.8438h-119.63zm0 18.453h119.63l-0.003906 27.324h-119.64v-27.324zm119.61 36.926v64.246h-8.8555v-64.246zm-18.465 0v64.246h-8.8438v-64.246zm-18.457 0v64.246h-8.8555v-64.246zm-18.469 0v64.246h-8.8438v-64.246zm-18.457 0v64.246h-8.8438v-64.246zm-18.453 0v64.246h-8.8555l-0.003907-64.246zm-27.312 0h8.8438v64.246h-8.8438zm0 73.859h119.63v8.8438h-119.64v-8.8438zm119.61 18.457v412.73c-1.5977 3.5156-2.8555 7.2109-3.625 11.102-1.5352-2.3047-3.3477-4.3906-5.2305-6.4062v-417.42zm-45.969 410.76c13.262 0 24.949 6.3828 32.52 16.117l-58.922-6.3125c7.1875-6.0234 16.32-9.8047 26.402-9.8047zm-38.605 8.4961-16.586-1.7773v-417.48h82.703v409.34c-7.9453-5.125-17.363-8.1836-27.504-8.1836-15.512-0.007813-29.266 7.1172-38.613 18.098zm-35.039-419.25h8.8438v416.45l-8.8438-0.94922zm678.08 498.08h-678.11v-72.926l680.73 72.926zm-408.27-64.246c10.309 0 19.391 5.2578 24.758 13.223l-45.359-4.8594c5.3477-5.1484 12.598-8.3633 20.602-8.3633zm-6.7344-8.9297v-0.28906h2.9141c-0.98047 0.097656-1.9648 0.12109-2.9141 0.28906zm50.508-0.28906h87.578v8.8438h-106.3c-5.8906-4.8945-13.176-8.0508-21.215-8.8438zm-14.125-9.6094v-12.359l9.3125-4.1406v16.5zm37.082-46.609v11.195l-2.4727-1.1055h-0.011719c-0.58984-0.26562-1.2344-0.42188-1.9336-0.42188-0.68359 0-1.332 0.15625-1.9336 0.42188h-0.023438l-11.723 5.207v-15.312l18.098 0.003906zm-18.086-9.6133v-8.0273h18.086v8.0273zm8.8594 31.477v24.73h-8.9297v-20.773zm9.6094 24.746v-24.73l8.8438 3.9375v20.809l-8.8438-0.003906zm27.301-56.223h-18.086v-8.0273h18.086zm0.46875 43.824v12.395h-9.3125v-16.535zm-0.46875-34.211v23.508l-18.086-8.0391v-15.469zm10.082 46.609v-8.125l18.266 8.125zm26.844 28.066v15.41l-95.039-10.176c-0.78125-1.8359-1.8008-3.5391-2.8438-5.2305zm-111.3-28.066h-18.203l18.203-8.0898zm-8.6992-56.223h-18.086v-8.0273h18.086zm0 9.6133v28.141h-18.086v-28.141zm148.57 93.145h91.43v8.8438h-4.4141c-0.53906 0-1.043 0.14453-1.5352 0.3125zm132.62-36.926h106.5v8.8438h-138.09v-8.8438zm-22.992-9.6094 18.191-8.0898v8.0898zm46.414-46.609v15.48l-18.086 8.0391v-23.508h18.086zm-18.082-9.6133v-8.0273h18.086v8.0273zm8.7852 39.723v16.5h-9.3125v-12.359zm9.6094 16.5v-20.762l8.9297-3.9727v24.73zm27.383-46.609v15.301l-11.711-5.207h-0.011719c-0.58984-0.26562-1.2344-0.42188-1.9336-0.42188-0.68359 0-1.332 0.15625-1.9336 0.42188h-0.023437l-2.4844 1.1055v-11.207l18.098-0.003906zm-18.082-9.6133v-8.0273h18.086v8.0273zm18.082 35.414v20.809h-8.8438v-24.73zm9.6133 20.809v-16.535l9.3125 4.1406v12.395zm45.77-46.609v28.141h-18.086v-28.141zm-18.086-9.6133v-8.0273h18.086v8.0273zm9.5039 56.223h-18.266l0.003907-8.125zm17.82 64.992v8.1484l-76.094-8.1484zm-9.2383-36.926v27.312h-138.09v-27.312zm55.379 50.016-36.539-3.9102v-13.992c0-2.6523-2.1602-4.8008-4.8008-4.8008h-4.4297v-8.8438h45.77zm0-41.16h-45.77v-27.324h4.4297c2.2578 0 4.2344-1.5977 4.7031-3.8047s-0.68359-4.4648-2.7461-5.375l-20.879-9.2773h37.391c2.6523 0 4.8008-2.1602 4.8008-4.8008v-55.395c0-2.6523-2.1602-4.8008-4.8008-4.8008l-27.707 0.007813h-27.695c-2.6523 0-4.8008 2.1602-4.8008 4.8008v50.066l-18.086-8.0391v-42.023c0-2.6523-2.1602-4.8008-4.8008-4.8008h-27.695l-27.684-0.003906c-2.6523 0-4.8008 2.1602-4.8008 4.8008v50.234l-19.98 8.8789c1.1289-0.875 1.8945-2.1953 1.8945-3.7305v-55.395c0-2.6523-2.1602-4.8008-4.8008-4.8008h-55.391c-2.6523 0-4.8008 2.1602-4.8008 4.8008v55.395c0 2.6523 2.1602 4.8008 4.8008 4.8008h55.391c0.3125 0 0.58984-0.12109 0.875-0.17969l-21.277 9.457c-2.0742 0.91016-3.2266 3.168-2.7461 5.375 0.48047 2.207 2.4375 3.8047 4.7031 3.8047h4.4141v27.324h-110.39v-27.324h4.4297c2.2578 0 4.2344-1.5977 4.7031-3.8047 0.46875-2.207-0.68359-4.4648-2.7461-5.375l-21.277-9.457c0.30078 0.058594 0.5625 0.17969 0.875 0.17969h55.391c2.6523 0 4.8008-2.1602 4.8008-4.8008v-55.395c0-2.6523-2.1602-4.8008-4.8008-4.8008h-55.391c-2.6523 0-4.8008 2.1602-4.8008 4.8008v55.395c0 1.5352 0.76953 2.8438 1.8945 3.7305l-19.992-8.8906v-50.219c0-2.6523-2.1602-4.8008-4.8008-4.8008h-27.695l-27.723-0.003906c-2.6523 0-4.8008 2.1602-4.8008 4.8008v42.023l-18.086 8.0273v-50.066c0-2.6523-2.1602-4.8008-4.8008-4.8008h-55.391c-2.6523 0-4.8008 2.1602-4.8008 4.8008v55.395c0 2.6523 2.1602 4.8008 4.8008 4.8008h37.402l-20.879 9.2773c-2.0742 0.91016-3.2266 3.168-2.7461 5.375 0.48047 2.207 2.4375 3.8047 4.7031 3.8047h4.4297v3.2656c-6.3477 2.9141-11.785 7.4297-15.793 13.078l-21.266-2.2812c0.16797-1.6797 0.50391-3.3125 0.50391-5.0391 0-10.824-3.457-20.832-9.2383-29.102v-81.48h516.54zm-27.684-83.531v28.141h-18.086v-28.141zm-18.086-9.6133v-8.0273h18.086v8.0273zm-166.15 0v-8.0273h18.086v8.0273zm18.082 9.6133v28.141h-18.086v-28.141zm-45.781-9.6133v-8.0273h18.086v8.0273zm18.086 9.6133v28.141h-18.086v-28.141zm-83.078 0v28.141h-18.086v-28.141zm-18.07-9.6133v-8.0273h18.086v8.0273zm45.77 9.6133v28.141h-18.086v-28.141zm-18.086-9.6133v-8.0273h18.086v8.0273zm-193.85 0v-8.0273h18.086v8.0273zm18.082 9.6133v28.141h-18.086v-28.141zm470.76-54.938h-516.54v-8.8438h516.55v8.8438zm-516.54-18.453v-156.55h8.8438v156.56l-8.8438 0.003907zm36.539-138.09v119.62h-18.086l0.003906-119.62zm-18.082-9.6094v-8.8555h18.086v8.8555zm18.082 138.83v8.8555h-18.086v-8.8555zm9.6133 8.8672v-156.55h27.312v156.56l-27.312 0.003907zm55.008-138.09v119.6h-18.086v-119.6zm-18.086-9.6094v-8.8555h18.086v8.8555zm18.086 138.83v8.8555h-18.086v-8.8555zm37.297-56.582v-26.891h18.086v26.891zm18.082 9.6016v28.152h-18.086v-28.152zm-18.082-46.105v-26.102h18.086v26.102zm-4.8008-36.516h-22.883l-0.003907-4.418v-13.668h45.77v18.082zm-4.8008 10.414v26.102h-18.086v-26.102zm0 35.703v26.891h-18.086v-26.891zm0 36.504v28.152h-18.086v-28.152zm4.8008 37.762h22.883v18.082h-45.77v-18.082zm50.59-120v119.6h-18.098l0.003906-4.4023v-115.2zm-18.094-9.6094v-8.8555h18.098v8.8555zm18.094 138.83v8.8555h-18.098v-8.8555zm37.297-56.582v-26.891h18.086v26.891zm18.086 9.6016v28.152h-18.086v-28.152zm-18.086-46.105v-26.102h18.086v26.102zm-4.8008-36.516h-22.883v-18.086h45.77v18.082zm-4.8125 10.414v26.102h-18.086v-26.102zm0 35.703v26.891h-18.086v-26.891zm0 36.504v28.152h-18.086v-28.152zm4.8125 37.762h22.883v18.082h-45.77v-13.668l0.003906-4.4141zm50.582-120v119.6l-18.086 0.003906v-119.61zm-18.086-9.6094v-8.8555h18.086v8.8555zm18.086 138.83v8.8555h-18.086v-8.8555zm37.297-56.582v-26.891h18.086v26.891zm18.082 9.6016v28.152h-18.086v-28.152zm-18.082-46.105v-26.102h18.086v26.102zm-4.8008-36.516h-22.883l-0.003906-4.418v-13.668h45.77v18.082zm-4.8125 10.414v26.102h-18.086v-26.102zm0 35.703v26.891h-18.086v-26.891zm0 36.504v28.152h-18.086v-28.152zm4.8125 37.762h22.883v18.082h-45.77v-18.082zm50.578-120v119.6h-18.086l0.003907-4.4023v-115.2zm-18.082-9.6094v-8.8555l18.082-0.003907v8.8555zm18.082 138.83v8.8555h-18.086v-8.8555zm37.297-56.582v-26.891h18.086v26.891zm18.082 9.6016v28.152h-18.086v-28.152zm-18.082-46.105v-26.102h18.086v26.102zm-4.8008-36.516h-22.895v-18.086h45.77v18.082zm-4.8125 10.414v26.102h-18.082v-26.102zm0 35.703v26.891h-18.082v-26.891zm0 36.504v28.152h-18.082v-28.152zm4.8125 37.762h22.883v18.082l-45.777 0.003906v-18.086zm50.57-120v119.62h-18.086v-119.62zm-18.074-9.6094v-8.8555h18.086v8.8555zm18.074 138.83v8.8555h-18.086v-8.8555zm9.6094 8.8672v-156.55h27.324v156.56l-27.324 0.003907zm55.008-138.09v119.62h-18.082v-119.62zm-18.082-9.6094v-8.8555h18.086v8.8555zm18.082 138.83v8.8555h-18.082v-8.8555zm18.457 8.8672h-8.8438v-156.55h8.8438zm0-166.16h-516.54v-8.8438h516.54zm9.2383-18.457h-535.01v-8.8438h535.01z"/>
</svg>
