<?xml version="1.0" encoding="UTF-8"?>
<svg width="1200pt" height="1200pt" version="1.1" viewBox="0 0 1200 1200" xmlns="http://www.w3.org/2000/svg">
 <path d="m83.16 462.43c-6.9492 11.23-21.672 14.723-32.906 7.7773-11.23-6.9492-14.723-21.672-7.7773-32.906 19.98-32.219 47.594-58.176 79.633-75.996 32.148-17.855 68.688-27.719 106.49-27.719 37.801 0 74.34 9.8281 106.49 27.719 22.25 12.383 42.371 28.691 59.293 48.312 16.922-19.621 37.043-35.93 59.293-48.312 32.148-17.855 68.688-27.719 106.49-27.719 37.801 0 74.375 9.8281 106.49 27.719 32.039 17.82 59.652 43.777 79.633 75.996 6.9492 11.23 3.457 25.957-7.7773 32.906-11.23 6.9492-25.957 3.457-32.906-7.7773-15.59-25.129-37.152-45.359-62.207-59.328-24.949-13.895-53.531-21.527-83.27-21.527-29.699 0-58.285 7.6328-83.27 21.527-24.984 13.934-46.547 34.129-62.102 59.184-1.9062 3.1328-4.5352 5.8672-7.8828 7.9219-11.23 6.9492-25.957 3.457-32.906-7.7773-15.59-25.129-37.152-45.359-62.207-59.328-24.984-13.895-53.531-21.527-83.27-21.527-29.699 0-58.285 7.6328-83.27 21.527-25.055 13.934-46.656 34.199-62.207 59.328zm0 392.62c-6.9492 11.23-21.672 14.723-32.906 7.7773-11.23-6.9492-14.723-21.672-7.7773-32.906 19.98-32.258 47.594-58.176 79.633-75.996 32.148-17.855 68.688-27.719 106.49-27.719 37.766 0 74.34 9.8281 106.49 27.719 22.285 12.383 42.41 28.691 59.293 48.312 16.922-19.586 37.043-35.891 59.293-48.312 32.148-17.855 68.688-27.719 106.49-27.719 37.801 0 74.34 9.8281 106.49 27.719 32.039 17.855 59.652 43.777 79.633 75.996 6.9492 11.23 3.457 25.957-7.7773 32.906-11.23 6.9492-25.957 3.457-32.906-7.7773-15.59-25.129-37.152-45.359-62.207-59.328-24.949-13.895-53.531-21.527-83.234-21.527-29.699 0-58.285 7.6328-83.234 21.527-25.02 13.934-46.547 34.129-62.137 59.184-1.9062 3.1328-4.5352 5.8672-7.8828 7.9219-11.23 6.9492-25.957 3.457-32.906-7.7773-15.59-25.129-37.152-45.359-62.207-59.328-24.949-13.895-53.531-21.527-83.234-21.527-29.699 0-58.285 7.6328-83.27 21.527-25.055 13.934-46.621 34.199-62.207 59.328zm411.2-196.31c-6.9492 11.23-21.672 14.723-32.906 7.7773-11.23-6.9492-14.723-21.672-7.7773-32.906 19.98-32.258 47.594-58.176 79.633-75.996 32.148-17.855 68.688-27.719 106.49-27.719s74.34 9.8281 106.49 27.719c22.285 12.383 42.41 28.691 59.293 48.312 16.922-19.586 37.043-35.891 59.293-48.312 32.148-17.855 68.727-27.719 106.49-27.719 37.801 0 74.375 9.8281 106.49 27.719 32.039 17.855 59.652 43.777 79.633 75.996 6.9492 11.23 3.457 25.957-7.7773 32.906-11.23 6.9492-25.957 3.457-32.906-7.7773-15.59-25.129-37.152-45.359-62.207-59.328-24.949-13.895-53.531-21.527-83.27-21.527-29.699 0-58.285 7.6328-83.234 21.527-25.02 13.934-46.547 34.129-62.137 59.184-1.8711 3.1328-4.5352 5.8672-7.8828 7.9219-11.23 6.9492-25.957 3.457-32.906-7.7773-15.59-25.129-37.152-45.359-62.207-59.328-24.949-13.895-53.531-21.527-83.234-21.527-29.699 0-58.285 7.6328-83.234 21.527-25.055 13.934-46.621 34.199-62.207 59.328z"/>
</svg>
