<?xml version="1.0" encoding="UTF-8"?>
<svg width="1200pt" height="1200pt" version="1.1" viewBox="0 0 1200 1200" xmlns="http://www.w3.org/2000/svg">
 <path d="m168.66 262.5c-10.359 0.046875-18.75 8.4844-18.703 18.844v56.156h-56.297c-4.9688 0-9.7031 2.0156-13.219 5.5312-3.5156 3.5625-5.4844 8.3438-5.4375 13.312v562.45c0.046875 10.312 8.3906 18.656 18.656 18.703h1012.7c10.266-0.046875 18.609-8.3906 18.656-18.703v-562.45c0.046876-4.9688-1.9219-9.75-5.4375-13.312-3.5156-3.5156-8.25-5.5312-13.219-5.5312h-56.344v-56.156c0.046876-10.359-8.3438-18.797-18.703-18.844h-356.68c-30.516 0-57.656 14.906-74.766 37.734-17.156-22.828-44.391-37.734-74.906-37.734zm18.844 37.547h337.45c30.984 0 55.781 24.562 56.297 55.406 0 0.1875-0.046875 0.32812-0.046875 0.51562v520.31c-33.703-31.781-77.344-51.281-123.79-51.281h-269.9v-468.47l-0.046875-0.046875c0.046875-0.046875 0.046875-0.09375 0.046875-0.14062 0-0.14062 0-0.28125-0.046875-0.42188zm487.18 0h337.87v56.156h-0.046875c0 0.046875-0.046875 0.09375-0.046875 0.14062s0.046875 0.09375 0.046875 0.14062v468.47h-269.9c-46.453 0-90.094 19.547-123.79 51.281l-0.046875-519.89c0-0.32812-0.046875-0.60938-0.046875-0.9375 0.28125-30.891 24.938-55.406 55.875-55.406zm-562.13 75h37.453v468.74h-0.046875c0.046875 10.312 8.3906 18.656 18.703 18.703h288.74c35.906 0 70.312 13.5 96.797 37.453h-441.66zm131.21 0h-0.046874c-4.9688 0-9.7031 2.0156-13.219 5.5312-3.5156 3.5156-5.4844 8.2969-5.4375 13.266 0.046874 10.312 8.3906 18.656 18.656 18.703h243.74c4.9688 0 9.75-1.9688 13.312-5.4375 3.5156-3.5156 5.5312-8.2969 5.5312-13.266 0.046875-5.0156-1.9688-9.7969-5.4844-13.359-3.5625-3.5156-8.3438-5.4844-13.359-5.4375zm431.29 0h-0.046875c-4.9688-0.046875-9.7969 1.9219-13.312 5.4844-3.5156 3.5156-5.5312 8.2969-5.4844 13.312 0 4.9688 2.0156 9.75 5.5312 13.219 3.5156 3.5156 8.2969 5.4844 13.266 5.4844h281.29c10.266-0.046875 18.609-8.3906 18.656-18.703 0.046875-4.9688-1.9219-9.75-5.4375-13.266s-8.25-5.5312-13.219-5.5312zm374.95 0h37.5v524.9h-441.71c26.484-23.953 60.891-37.453 96.797-37.453h288.74-0.046876c10.312-0.046875 18.656-8.3906 18.703-18.703zm-806.29 112.45c-4.9688 0.046875-9.75 2.0156-13.219 5.5781-3.5156 3.5156-5.4844 8.2969-5.4375 13.312 0.046874 10.266 8.3906 18.609 18.656 18.656h243.74c4.9688 0.046875 9.75-1.9219 13.312-5.4375 3.5156-3.4688 5.5312-8.25 5.5312-13.219 0.046875-5.0156-1.9219-9.8438-5.4844-13.359-3.5625-3.5625-8.3438-5.5312-13.359-5.5312zm431.29 0c-4.9688 0-9.7969 1.9688-13.312 5.5312-3.5625 3.5156-5.5312 8.3438-5.4844 13.359 0 4.9688 2.0156 9.7031 5.5312 13.219s8.2969 5.4844 13.266 5.4375h281.29c10.266-0.046875 18.609-8.3906 18.656-18.656 0.046875-5.0156-1.9219-9.7969-5.4375-13.312-3.4688-3.5625-8.25-5.5312-13.219-5.5781zm-431.29 112.55c-10.266 0.046875-18.609 8.3906-18.656 18.656-0.046876 5.0156 1.9219 9.7969 5.4375 13.312 3.4688 3.5625 8.25 5.5312 13.219 5.5781h243.74c5.0156 0 9.7969-1.9688 13.359-5.4844 3.5625-3.5625 5.5312-8.3906 5.4844-13.406 0-4.9688-2.0156-9.75-5.5312-13.219-3.5625-3.5156-8.3438-5.4844-13.312-5.4375zm431.29 0c-4.9688 0-9.75 1.9219-13.266 5.4375s-5.5312 8.25-5.5312 13.219c-0.046875 5.0156 1.9219 9.8438 5.4844 13.359 3.5156 3.5625 8.3438 5.5312 13.312 5.5312h281.29c4.9688-0.046875 9.75-2.0156 13.219-5.5781 3.5156-3.5156 5.4844-8.2969 5.4375-13.312-0.046875-10.266-8.3906-18.609-18.656-18.656zm-431.29 112.55c-10.266 0-18.609 8.3438-18.656 18.656-0.046876 4.9688 1.9219 9.75 5.4375 13.266 3.5156 3.5625 8.25 5.5312 13.219 5.5781h243.74c5.0156 0 9.7969-1.9688 13.359-5.4844 3.5156-3.5625 5.5312-8.3438 5.4844-13.359 0-4.9688-2.0156-9.75-5.5312-13.266-3.5625-3.4688-8.3438-5.4375-13.312-5.3906zm431.29 0c-4.9688-0.046875-9.75 1.9219-13.266 5.4375-3.5156 3.4688-5.5312 8.25-5.5312 13.219-0.046875 5.0156 1.9688 9.7969 5.4844 13.312 3.5156 3.5625 8.3438 5.5312 13.312 5.5312h281.29c4.9688-0.046875 9.7031-2.0156 13.219-5.5781 3.5156-3.5156 5.4844-8.2969 5.4375-13.266-0.046875-10.312-8.3906-18.656-18.656-18.656z"/>
</svg>
