<?xml version="1.0" encoding="UTF-8"?>
<svg width="1200pt" height="1200pt" version="1.1" viewBox="0 0 1200 1200" xmlns="http://www.w3.org/2000/svg">
 <path d="m600.19 217.31c-3.6094-0.046875-6.9375 1.7344-8.9062 4.7344l-42.844 65.953v68.109c-62.719 22.266-103.97 82.406-102.28 148.92l-46.312 17.531v70.641h-65.438c-6.8438 0-12.375 5.5312-12.375 12.375v44.344h-259.69c-6.7969 0-12.328 5.5312-12.328 12.375v308.02c0 6.8438 5.5312 12.375 12.328 12.375h1075.3c6.8438 0 12.375-5.5312 12.375-12.375v-308.02c0-6.8438-5.5312-12.375-12.375-12.375h-259.64v-44.344c0-6.8438-5.5312-12.375-12.375-12.375h-65.484v-70.641l-46.266-17.531c1.6875-66.516-39.562-126.66-102.28-148.92v-68.109l-42.844-65.953c-1.875-2.9062-5.1094-4.6875-8.5781-4.7344zm0 11.297 36.094 55.547h-72.188zm-40.688 66.469h81.375v57.562h-0.046875c-26.625-7.2656-54.75-7.2656-81.375 0zm37.688 63.234-0.046875 0.046875c38.391-0.84375 75.469 13.828 102.94 40.641s42.984 63.562 43.078 101.95l-139.31-52.875c-2.3906-0.89062-5.0156-0.89062-7.4062 0l-139.26 52.875c0.1875-77.672 62.344-140.95 139.97-142.6zm3.0469 100.03 164.95 62.531h-330zm-189.24 73.453h66.984v61.406h-66.984zm77.859 0h67.031v61.406h-67.031zm77.859 0h66.984v61.406h-66.984zm77.859 0h66.984v61.406h-66.984zm77.859 0h66.984v61.406h-66.984zm-278.86 8.0625h-0.046875c-12.188 0.46875-21.75 10.453-21.703 22.641-0.09375 6.0469 2.2969 11.812 6.5156 16.125 4.2656 4.2656 10.031 6.7031 16.078 6.7031 6 0 11.812-2.4375 16.031-6.7031 4.2656-4.3125 6.6094-10.078 6.5625-16.125 0-6.1875-2.4844-12.047-6.9375-16.359-4.4062-4.2656-10.406-6.5625-16.547-6.2812zm311.44 0.046875h-0.046875c-12.141 0.51562-21.656 10.453-21.656 22.594-0.09375 6.0469 2.25 11.859 6.4688 16.172 4.2656 4.3125 10.078 6.75 16.125 6.75s11.859-2.4375 16.078-6.75c4.2656-4.3125 6.6094-10.125 6.5156-16.172 0-6.1875-2.4844-12.047-6.9375-16.312s-10.453-6.5625-16.594-6.2812zm-344.06 64.172h66.984v212.29h-66.984zm77.859 0h67.031v212.29h-67.031zm77.859 0h66.984v212.29h-66.984zm77.859 0h66.984v212.29h-66.984zm77.859 0h66.984v212.29h-66.984zm77.906 0h65.438l0.046875-0.046875c0.84375 0 1.5 0.70312 1.5 1.5469v210.79h-66.984zm-465.94 0.046875h65.484l0.046875 212.26h-66.984l-0.046875-210.79c0-0.75 0.5625-1.4062 1.3125-1.4531zm-272.02 56.719h259.64v155.53h-51.281 0.046874c-6.8438 0-12.375 5.5312-12.375 12.328v143.02h-195.98l-0.046876 0.046875c-0.79687 0-1.5-0.65625-1.5-1.4531v-308.02c0-0.75 0.5625-1.4062 1.3125-1.4531zm815.72 0h259.69c0.79688 0 1.5 0.65625 1.5 1.4531v307.97c0 0.84375-0.65625 1.5-1.5 1.5h-196.03v-143.02c0-6.8438-5.5312-12.375-12.375-12.375h-51.281zm-636.98 27.422c-9.375 0.375-18.094 4.875-23.812 12.328-5.9531-7.7344-15.188-12.281-24.938-12.281s-18.984 4.5469-24.938 12.281c-5.7656-7.5-14.578-12-24-12.281-8.5312-0.23438-16.734 3-22.875 8.9062-6.0938 5.9531-9.5156 14.109-9.5156 22.594v69h162.71v-69c0.046875-8.5312-3.4219-16.734-9.6094-22.688-6.1406-5.9531-14.438-9.1406-23.016-8.8594zm815.63 0c-9.375 0.375-18.141 4.875-23.812 12.328-5.9531-7.7344-15.188-12.281-24.938-12.281-9.7969 0-18.984 4.5469-24.938 12.281-5.7656-7.5-14.578-12-24-12.281-8.5312-0.23438-16.781 3-22.875 8.9062-6.0938 5.9531-9.5625 14.109-9.5156 22.594v69h162.71v-69c0-8.5312-3.4688-16.734-9.6094-22.688s-14.438-9.1406-23.016-8.8594zm-98.25 10.969h0.046875c11.203 0.23438 20.156 9.375 20.156 20.578v58.125h-41.203v-58.125c0-5.5312 2.25-10.828 6.1875-14.719 3.9844-3.8438 9.3281-5.9531 14.859-5.8594zm-716.86 0.1875c5.5312-0.14062 10.922 1.9219 14.906 5.7656s6.2812 9.0938 6.3281 14.672v58.125h-41.156v-58.125h-0.046875c0.09375-11.062 8.9062-20.109 19.969-20.438zm815.63 0c5.5312-0.14062 10.922 1.9219 14.906 5.7656s6.2344 9.0938 6.2812 14.672v58.125h-41.156v-58.125c0.09375-11.062 8.9062-20.109 19.969-20.438zm-914.11 0.046875c11.016 0.32812 19.828 9.3281 19.969 20.391v58.125h-41.203v-58.125h-0.046875c0.09375-5.5781 2.3438-10.828 6.375-14.672 3.9844-3.8438 9.375-5.9062 14.906-5.7188zm49.875 0c11.016 0.375 19.828 9.3281 19.969 20.391v58.125h-41.156v-58.125c0.046875-5.5312 2.2969-10.828 6.3281-14.672 3.9844-3.7969 9.3281-5.8594 14.859-5.7188zm814.31 0c5.5312-0.1875 10.875 1.875 14.906 5.7188 3.9844 3.8438 6.2812 9.0938 6.3281 14.672v58.125h-41.156v-58.125c0.14062-11.016 8.9062-20.016 19.922-20.391zm-737.9 127.74h660l-0.046875 0.046875c0.84375-0.046875 1.5469 0.65625 1.5469 1.5v143.02h-48.094v-72.609c0-20.25-16.406-36.656-36.609-36.656-20.25 0-36.656 16.406-36.656 36.656v72.656h-48.094l0.046875-72.656c0-16.406-10.875-30.797-26.672-35.25-15.75-4.5-32.578 2.0625-41.156 16.031-6.6562-10.828-18.469-17.438-31.172-17.438s-24.516 6.6094-31.172 17.438c-6.6562-10.828-18.469-17.438-31.172-17.438s-24.516 6.6094-31.172 17.438c-6.7031-10.828-18.469-17.438-31.172-17.438s-24.516 6.6094-31.172 17.438c-8.625-13.969-25.453-20.531-41.203-16.078-15.75 4.5-26.625 18.891-26.625 35.297v72.656h-48.094v-72.656c-0.23438-20.062-16.547-36.234-36.609-36.234s-36.422 16.172-36.656 36.234v72.656h-48.094zm-190.22 10.688v100.45h162.71v-100.45zm879.28 0v100.45h162.71v-100.45zm-868.4 10.922h41.203v78.656h-41.203zm49.922 0h41.156v78.656h-41.156zm49.875 0h41.156v78.656h-41.156zm779.44 0h41.203v78.656h-41.203zm49.922 0h41.156v78.656h-41.156zm49.875 0h41.156v78.656h-41.156zm-407.34 24.562c6.9375-0.1875 13.734 2.3906 18.703 7.2656 5.0156 4.875 7.8281 11.531 7.8281 18.516v72.609h-51.516v-72.609c0-13.922 11.062-25.359 24.984-25.781zm62.344 0c6.9844-0.1875 13.734 2.3906 18.703 7.2656 5.0156 4.875 7.8281 11.531 7.8281 18.516v72.609h-51.516v-72.609c0-13.922 11.062-25.359 24.984-25.781zm-371.26 0.28125c6.9375-0.23438 13.688 2.2969 18.75 7.125 5.0156 4.7812 7.875 11.391 7.9688 18.375v72.609h-51.469v-72.609c0.14062-13.641 10.828-24.797 24.469-25.5zm121.31 0c7.0312-0.32812 13.828 2.2031 18.938 6.9844 5.1094 4.8281 8.0156 11.484 8.0625 18.516v72.609h-51.422v-72.609c0.09375-13.641 10.828-24.797 24.422-25.5zm124.74 0c6.9375-0.23438 13.688 2.2969 18.75 7.125 5.0156 4.7812 7.875 11.391 7.9688 18.375v72.609h-51.469v-72.609c0.14063-13.641 10.875-24.797 24.469-25.5zm-62.25 0.09375c6.9375-0.28125 13.734 2.25 18.797 7.0312 5.0625 4.7344 7.9688 11.391 8.0625 18.328v72.656h-51.422v-72.656c0.1875-13.594 10.969-24.703 24.562-25.359zm308.39 0h0.046875c6.9844-0.28125 13.734 2.25 18.797 7.0312 5.0156 4.7812 7.9219 11.391 8.0156 18.328v72.656h-51.422v-72.656c0.1875-13.594 10.969-24.75 24.562-25.359z"/>
</svg>
