<?xml version="1.0" encoding="UTF-8"?>
<svg width="1200pt" height="1200pt" version="1.1" viewBox="0 0 1200 1200" xmlns="http://www.w3.org/2000/svg">
 <path d="m176.86 0c-8.7656 0-16.359 6.0938-18.281 14.672l-84 375.89v0.046875c-0.14062 0.9375-0.1875 1.9219-0.1875 2.8594-0.09375 0.42188-0.14062 0.84375-0.1875 1.3125v786.37c-0.046875 10.359 8.2969 18.797 18.656 18.844h1014.1c4.9688 0 9.7969-1.9688 13.312-5.4844 3.5156-3.5625 5.5312-8.3438 5.4844-13.359v-786.7c0-1.2656-0.14062-2.5781-0.42188-3.8438l-84.141-375.94c-1.9219-8.5781-9.5156-14.672-18.281-14.672zm14.953 37.547h303.28l-37.734 338.34h-341.06zm341.06 0h134.11l37.781 338.39h-209.68zm171.89 0h303.24l75.562 338.39-340.97-0.046875zm-593.06 375.89h343.69v221.44c-0.046875 6.4219 3.2344 12.422 8.625 15.844 5.4375 3.4688 12.234 3.8906 18.047 1.1719l117.94-55.5 117.8 55.5c5.8125 2.8125 12.656 2.3906 18.141-1.0781 5.4375-3.4688 8.7188-9.4688 8.6719-15.938v-221.44h343.64v749.06h-976.55zm381.19 0h214.26v191.95l-99.234-46.781h-0.046874c-5.0156-2.3906-10.875-2.3906-15.938 0l-99.094 46.781zm-231.42 508.78h-0.046875c-10.312 0-18.656 8.3906-18.656 18.703 0.046875 10.312 8.3438 18.609 18.656 18.656h176.48c4.9688 0.046876 9.75-1.9219 13.266-5.4375 3.5156-3.5156 5.5312-8.25 5.5312-13.219s-1.9688-9.75-5.5312-13.266c-3.5156-3.5156-8.2969-5.4844-13.266-5.4375zm0 102.98-0.046875-0.046874c-10.312 0.046874-18.609 8.3906-18.656 18.703-0.046875 4.9688 1.9219 9.75 5.3906 13.312 3.5156 3.5156 8.2969 5.5312 13.266 5.5312h176.48c5.0156 0.046876 9.7969-1.9688 13.359-5.4844 3.5156-3.5625 5.4844-8.3438 5.4375-13.359 0-4.9688-2.0156-9.75-5.5312-13.266-3.5156-3.4688-8.2969-5.4375-13.266-5.4375z"/>
</svg>
