<?xml version="1.0" encoding="UTF-8"?>
<svg width="1200pt" height="1200pt" version="1.1" viewBox="0 0 1200 1200" xmlns="http://www.w3.org/2000/svg">
 <path d="m696 342c9.9375 0 18 8.0625 18 18v24c0 2.8125-0.65625 5.5312-1.875 8.0625l-23.484 46.922c15.656 15.516 25.359 37.078 25.359 60.891 0 13.219 5.25 25.922 14.625 35.297l4.125 4.125c5.6719 5.6719 10.547 11.953 14.672 18.703h16.688c23.25 0 43.875-14.859 51.234-36.938l7.5938-22.734c3.1406-9.4688 13.312-14.531 22.781-11.391 9.4219 3.1406 14.484 13.312 11.344 22.734l-7.5469 22.781c-12.281 36.75-46.688 61.547-85.406 61.547h-3.4219c0.84375 5.25 1.3125 10.547 1.3125 15.938v44.062h34.125c17.484 0 34.312 6.9375 46.688 19.312l9.9375 9.9844c7.0312 6.9844 7.0312 18.422 0 25.406-7.0312 7.0312-18.422 7.0312-25.453 0l-9.9375-9.9375c-5.625-5.5781-13.266-8.7656-21.234-8.7656h-34.125v30c0 10.312-1.1719 20.344-3.3281 30.047 27.891 0.51562 52.5 18.516 61.359 45.094l13.031 39.188c3.1406 9.4219-1.9219 19.594-11.344 22.734-9.4688 3.1406-19.641-1.9219-22.781-11.391l-13.078-39.141c-4.0781-12.281-15.562-20.531-28.453-20.531h-12.188c-23.391 42.891-68.906 72-121.22 72h-48c-52.312 0-97.781-29.109-121.22-72h-12.188c-12.891 0-24.375 8.25-28.453 20.531l-13.078 39.141c-3.1406 9.4688-13.312 14.531-22.734 11.391-9.4688-3.1406-14.531-13.312-11.391-22.734l13.031-39.188c8.8594-26.531 33.469-44.578 61.359-45.094-2.1562-9.7031-3.3281-19.734-3.3281-30.047v-30h-34.125c-7.9219 0-15.562 3.1406-21.188 8.7656l-9.9375 9.9375c-7.0312 7.0312-18.422 7.0312-25.453 0-7.0312-6.9844-7.0312-18.422 0-25.406l9.9375-9.9844c12.375-12.375 29.156-19.312 46.641-19.312h34.125v-44.062c0-5.3906 0.46875-10.688 1.3125-15.938h-3.4219c-38.719 0-73.125-24.797-85.359-61.547l-7.5938-22.781c-3.1406-9.4219 1.9219-19.594 11.391-22.734 9.4219-3.1406 19.594 1.9219 22.734 11.391l7.5938 22.734c7.3594 22.078 27.984 36.938 51.234 36.938h16.688c4.125-6.75 9-13.031 14.719-18.703l4.0781-4.125c9.375-9.375 14.625-22.078 14.625-35.297 0-23.812 9.7031-45.375 25.359-60.891l-23.438-46.922c-1.2656-2.5312-1.9219-5.25-1.9219-8.0625v-24c0-9.9375 8.0625-18 18-18s18 8.0625 18 18v19.734l19.828 39.703c9.375-3.5156 19.5-5.4375 30.047-5.4375h56.25c10.547 0 20.672 1.9219 30.047 5.4375l19.828-39.703v-19.734c0-9.9375 8.0625-18 18-18zm-110.48 228c-5.1562 0-10.266 0.51562-15.281 1.5l-93.047 18.609c-2.1094 6.3281-3.1875 13.031-3.1875 19.828v110.06c0 56.344 45.656 102 102 102h6v-198c0-9.9375 8.0625-18 18-18s18 8.0625 18 18v198h6c56.344 0 102-45.656 102-102v-110.06c0-6.7969-1.125-13.5-3.1875-19.828l-93-18.609c-5.0625-0.98438-10.172-1.5-15.328-1.5zm-13.641-120c-27.516 0-49.875 22.359-49.875 49.875 0 17.016-5.0625 33.469-14.297 47.438l55.453-11.109c7.3594-1.4531 14.859-2.2031 22.359-2.2031h28.969c7.5 0 15 0.75 22.359 2.2031l55.453 11.109c-9.2344-13.969-14.297-30.422-14.297-47.438 0-27.516-22.312-49.875-49.875-49.875z" fill-rule="evenodd"/>
</svg>
