<?xml version="1.0" encoding="UTF-8"?>
<svg width="1200pt" height="1200pt" version="1.1" viewBox="0 0 1200 1200" xmlns="http://www.w3.org/2000/svg">
 <path d="m772.08 577.36c-7.5938 0-13.734-6.1406-13.734-13.734s6.1406-13.734 13.734-13.734h223.87c7.5938 0 13.734 6.1406 13.734 13.734s-6.1406 13.734-13.734 13.734zm-2.1094-372.52c-7.5938 0-13.734-6.1406-13.734-13.734s6.1406-13.734 13.734-13.734h111.94c7.5938 0 13.734 6.1406 13.734 13.734s-6.1406 13.734-13.734 13.734zm2.1094-72.797c-7.5938 0-13.734-6.1406-13.734-13.734s6.1406-13.734 13.734-13.734h223.87c7.5938 0 13.734 6.1406 13.734 13.734s-6.1406 13.734-13.734 13.734zm-2.1094 955.45c-7.5938 0-13.734-6.1406-13.734-13.734s6.1406-13.734 13.734-13.734h223.92c7.5938 0 13.734 6.1406 13.734 13.734s-6.1406 13.734-13.734 13.734zm2.1094-72.75c-7.5938 0-13.734-6.1406-13.734-13.734s6.1406-13.734 13.734-13.734h111.94c7.5938 0 13.734 6.1406 13.734 13.734s-6.1406 13.734-13.734 13.734zm-481.03-582.47c-47.625 0-90.75 19.312-121.97 50.531s-50.531 74.344-50.531 121.97 19.312 90.75 50.531 121.97 74.344 50.531 121.97 50.531 90.75-19.312 121.97-50.531c28.219-28.172 46.688-66.094 49.969-108.28h97.266v398.86c0 10.078 4.125 19.219 10.734 25.828 6.6094 6.6094 15.797 10.734 25.828 10.734h87.609v63.516c0 12.422 5.0625 23.672 13.219 31.828 8.2031 8.2031 19.453 13.266 31.828 13.266h306.98c12.422 0 23.672-5.0625 31.828-13.219s13.219-19.406 13.219-31.828v-154.5c0-12.422-5.0625-23.672-13.219-31.828s-19.406-13.219-31.828-13.219h-306.98c-12.422 0-23.672 5.0625-31.828 13.219s-13.219 19.406-13.219 31.828v63.516h-87.609c-2.5312 0-4.7812-1.0312-6.4688-2.6719-1.6406-1.6406-2.6719-3.9375-2.6719-6.4688l0.046875-398.81h96.75v58.734c0 12.422 5.0625 23.672 13.219 31.828s19.406 13.219 31.828 13.219h306.98c12.422 0 23.672-5.0625 31.828-13.219s13.219-19.406 13.219-31.828l-0.046875-154.5c0-12.422-5.0625-23.672-13.219-31.828s-19.406-13.219-31.828-13.219h-306.98c-12.422 0-23.672 5.0625-31.828 13.219s-13.219 19.406-13.219 31.828v68.344h-96.75l0.046875-408.42c0-2.5312 1.0312-4.7812 2.6719-6.4688 1.6406-1.6406 3.9375-2.6719 6.4688-2.6719h87.609v63.516c0 12.422 5.0625 23.672 13.219 31.828s19.406 13.219 31.828 13.219h306.98c12.422 0 23.672-5.0625 31.828-13.219s13.219-19.406 13.219-31.828l-0.046875-154.5c0-12.422-5.0625-23.672-13.219-31.828s-19.453-13.219-31.828-13.219h-306.98c-12.422 0-23.672 5.0625-31.828 13.219s-13.219 19.406-13.219 31.828v63.516h-87.609c-10.078 0-19.219 4.0781-25.828 10.734-6.6094 6.6094-10.734 15.797-10.734 25.828v408.42h-97.266c-3.3281-42.141-21.797-80.062-49.969-108.28-31.219-31.172-74.344-50.484-121.97-50.484zm102.56 69.938c26.25 26.25 42.469 62.531 42.469 102.61s-16.219 76.359-42.469 102.61-62.531 42.469-102.61 42.469-76.359-16.219-102.61-42.469-42.469-62.531-42.469-102.61 16.219-76.359 42.469-102.61 62.531-42.469 102.61-42.469c40.078-0.046875 76.359 16.219 102.61 42.469zm642.84 443.16h-306.98c-4.8281 0-9.2344 1.9688-12.422 5.1562s-5.2031 7.5938-5.2031 12.422v154.5c0 4.8281 1.9688 9.2344 5.2031 12.422 3.1875 3.1875 7.5938 5.1562 12.422 5.1562h306.98c4.8281 0 9.2344-1.9688 12.422-5.1562s5.1562-7.5938 5.1562-12.422v-154.5c0-4.8281-1.9688-9.2344-5.1562-12.422s-7.5938-5.1562-12.422-5.1562zm0-440.21h-306.98c-4.8281 0-9.2344 1.9688-12.422 5.1562s-5.2031 7.5938-5.2031 12.422v154.5c0 4.8281 1.9688 9.2344 5.2031 12.422 3.1875 3.1875 7.5938 5.1562 12.422 5.1562h306.98c4.8281 0 9.2344-1.9688 12.422-5.1562s5.1562-7.5938 5.1562-12.422v-154.5c0-4.8281-1.9688-9.2344-5.1562-12.422s-7.5938-5.1562-12.422-5.1562zm0-440.26h-306.98c-4.8281 0-9.2344 1.9688-12.422 5.1562s-5.2031 7.5938-5.2031 12.422v154.5c0 4.8281 1.9688 9.2344 5.2031 12.422 3.1875 3.1875 7.5938 5.1562 12.422 5.1562h306.98c4.8281 0 9.2344-1.9688 12.422-5.1562s5.1562-7.5938 5.1562-12.422v-154.45c0-4.8281-1.9688-9.2344-5.1562-12.422s-7.5938-5.2031-12.422-5.2031zm-266.48 585.19c-7.5938 0-13.734-6.1406-13.734-13.734s6.1406-13.734 13.734-13.734h223.92c7.5938 0 13.734 6.1406 13.734 13.734s-6.1406 13.734-13.734 13.734z" fill-rule="evenodd"/>
</svg>
