<?xml version="1.0" encoding="UTF-8"?>
<svg width="1200pt" height="1200pt" version="1.1" viewBox="0 0 1200 1200" xmlns="http://www.w3.org/2000/svg">
 <path d="m967.5 1004.6v-66.703c0-49.547-36.984-90.562-84.797-96.984 0.75-27 1.7344-53.578 2.625-80.438h104.34c6.5625 0 12.047-5.0625 12.516-11.625 12.094-161.29 2.5312-454.45-197.34-606.32-83.438-72.469-253.55-115.5-344.72-23.391-0.23438 0.046876-0.51562 0.09375-0.75 0.1875-19.828-51.703-59.297-94.359-109.69-118.08-9.1406-4.6406-20.297 4.4531-17.531 14.344 12.047 49.453 16.219 96.422 12.422 139.74-30.141 21.469-72.469 46.5-78.516 86.578-9.4219 41.906-26.391 81.188-50.344 116.81-31.172 46.266-53.203 97.266-65.484 151.6-17.859 89.531 99.562 163.31 170.34 105.7 29.344-36.047 48.375-59.672 109.08-75.984 33.188-4.3594 67.453-8.8594 90.234-66.844 15.516 8.25 24.422 17.578 27.047 28.312 7.2188 29.578-31.547 75.938-72.609 125.02-52.781 63.047-112.22 134.11-121.78 214.13-48.75 5.5781-86.719 47.062-86.719 97.266v66.703c-51.703 4.2656-88.5 51.703-83.672 103.36 0 50.719 41.297 92.016 92.062 92.016h684.89c50.766 0 92.062-41.297 92.062-92.062 4.7812-51.609-31.969-99.047-83.672-103.31zm-336.52-910.82c299.02 36 372.74 442.5 347.02 641.53h-91.922c3.8438-141.71-0.65625-284.81-80.438-407.16-97.125-143.53-196.36-215.63-295.82-215.26 32.766-18.047 74.391-24.844 121.18-19.125zm-137.39 548.86c47.25-56.438 88.031-105.14 77.766-147.1-5.25-21.516-22.875-38.25-53.812-51.141-6.5156-2.9062-14.766 0.89062-16.781 7.7812-17.766 55.547-41.484 58.641-74.391 63-43.219-2.2969-92.203 38.438-123.71 83.156-56.812 41.438-141.32-23.484-128.11-81.984 11.578-51.469 32.438-99.797 61.922-143.63 25.734-38.25 43.922-80.391 54.047-125.39 4.4062-33.844 49.359-56.391 73.266-75.047 2.9062-2.1094 4.7812-5.3438 5.1562-8.9062 4.125-39.609 1.9219-81.984-6.5156-126.32 36.188 23.812 63.656 59.625 76.969 101.25 2.1094 6.5625 9.0938 10.172 15.656 8.1562 139.97-38.906 245.26 73.406 329.58 195.56 95.062 145.64 77.484 327.94 72.891 497.9l-479.58 0.046875c10.172-71.297 66-138.05 115.64-197.34zm-129.84 222.47h505.82c40.125 0 72.797 32.672 72.797 72.797v66.281h-651.42v-66.281c0-40.172 32.672-72.797 72.797-72.797zm662.29 242.81c0 36.891-30.047 66.938-66.938 66.938h-684.89c-36.938 0-66.938-30.047-66.938-66.938-4.6406-40.641 24.797-78.938 66.938-78.656h684.89c42.141-0.28125 71.578 38.016 66.938 78.656z"/>
 <path d="m357.05 290.95c-28.828 11.625-48.75 39.469-50.25 70.5-0.375 6.9375 4.875 12.844 11.812 13.266h0.75c6.6094 0 12.141-5.1562 12.516-11.812 0.98438-21.469 14.812-40.828 34.875-48.75 6.375-2.6719 9.4219-10.031 6.75-16.406-2.7188-6.4219-10.078-9.4688-16.453-6.7969z"/>
</svg>
