<?xml version="1.0" encoding="UTF-8"?>
<svg width="1200pt" height="1200pt" version="1.1" viewBox="0 0 1200 1200" xmlns="http://www.w3.org/2000/svg">
 <path d="m891.52 1032.7v-40.172c0-52.5-41.531-95.438-93.469-97.781-49.641-128.26-73.594-248.58-75-377.29h41.953c41.391 0.09375 74.578-34.875 72.797-76.125 0-40.125-32.672-72.797-72.797-72.797h-17.953c52.266-96.375-10.125-219.19-104.16-273.1 8.6719-10.125 13.922-23.344 13.922-37.781 0.046875-31.828-25.359-57.656-56.625-57.656-31.219 0-56.672 25.828-56.672 57.609 0 14.531 5.3438 27.844 14.109 37.969-96.844 57.422-157.64 175.45-103.5 272.86h-18.797c-40.125 0-72.797 32.672-72.797 72.797-1.7344 41.25 31.406 76.266 72.797 76.125h36.047c-1.5 128.86-25.5 249.32-75.141 377.72-49.219 5.1094-87.75 46.828-87.75 97.359v40.172c-40.828 5.1094-72.516 39.984-72.516 82.172v2.25c0 45.703 37.172 82.828 82.828 82.828h562.36c45.703 0 82.828-37.172 82.828-82.828v-2.25c0.046875-42.047-31.641-76.969-72.469-82.078zm-291.32-1007.6c17.391 0 31.547 14.578 31.547 32.484 0.09375 18.703-15.562 33.609-33.609 32.391-16.453-1.0781-29.484-15.188-29.484-32.391 0-17.906 14.156-32.484 31.547-32.484zm-140.11 246.1c7.5938-53.016 46.078-110.34 100.41-149.68 12.703-8.9062 70.312-8.3438 82.078 0.65625 3.5625 2.8125 7.125 5.7188 10.594 8.6719-31.266 32.906-48.984 76.641-48.984 122.06-0.9375 7.6875 4.5 15.047 12.562 15 8.0156 0.046875 13.453-7.2656 12.562-15 0-39.094 15.328-76.734 42.281-105 61.5 61.5 95.25 146.44 46.266 220.5h-233.86c-20.953-29.016-28.969-61.734-23.906-97.219zm-72.422 173.39c-1.6875-27.422 20.062-51.141 47.719-51.047h329.68c26.297 0 47.719 21.375 47.719 47.719 1.6875 27.422-20.062 51.141-47.719 51.047h-329.72c-26.297-0.046875-47.672-21.422-47.672-47.719zm310.31 72.797c1.4062 128.86 24.797 249.37 73.172 377.21h-347.81c48.328-127.82 71.719-248.34 73.172-377.21zm-291.61 402.32h387.24c40.125 0 72.797 32.672 72.797 72.797v39.516h-532.82v-39.516c0-40.172 32.672-72.797 72.797-72.797zm532.55 197.44c0 31.828-25.922 57.75-57.75 57.75l-562.31-0.046875c-31.828 0-57.75-25.922-57.75-57.75v-2.25c0-31.828 25.922-57.75 57.75-57.75h562.36c31.828 0 57.75 25.922 57.75 57.75z"/>
</svg>
