<?xml version="1.0" encoding="UTF-8"?>
<svg width="1200pt" height="1200pt" version="1.1" viewBox="0 0 1200 1200" xmlns="http://www.w3.org/2000/svg">
 <path d="m888.1 1037.2v-36.047c0-50.016-37.688-91.359-86.156-97.172-2.0156-40.125-16.172-75.609-41.297-103.08-57.75-63.094-55.828-147.14-53.812-236.16 0.28125-12.656 0.5625-25.594 0.70312-38.531h73.547c26.297 0 47.719-21.375 47.719-47.719v-49.734c0-26.297-21.375-47.719-47.719-47.719h-87.281c62.062-34.641 104.2-101.39 104.2-177.89 0-111.98-90.328-203.11-201.28-203.11-110.95 0-201.28 91.125-201.28 203.16 0 76.5 42.141 143.26 104.2 177.89h-80.719c-26.297 0-47.719 21.375-47.719 47.719v49.734c0 26.297 21.375 47.719 47.719 47.719h69.609c0 15.047 0.28125 30.234 0.5625 45.047 1.7344 85.875 3.375 167.02-51.141 226.22-25.172 27.375-38.625 63.188-40.078 106.45-48.375 5.9062-86.016 47.203-86.016 97.172v36.047c-39.234 5.25-69.609 38.953-69.609 79.594v2.9062c0 44.297 36.047 80.344 80.344 80.344h554.81c44.297 0 80.344-36.047 80.344-80.344v-2.9062c0-40.641-30.375-74.344-69.656-79.594zm-467.53-834c0-98.156 79.031-178.03 176.16-178.03 97.129 0 176.16 79.875 176.16 178.03 0.32812 100.41-83.531 181.6-182.26 177.89-94.312-3.2812-170.06-81.797-170.06-177.89zm-24.234 275.34v-49.734c0-12.469 10.125-22.594 22.594-22.594h362.16c12.469 0 22.594 10.125 22.594 22.594v49.734c0 12.469-10.125 22.594-22.594 22.594h-362.16c-12.469 0-22.594-10.172-22.594-22.594zm60.141 336c61.312-66.656 59.531-156.71 57.75-243.74-0.28125-14.672-0.60938-29.766-0.5625-44.578h168.79c-0.09375 12.703-0.42188 25.5-0.70312 37.969-2.0156 90.047-4.125 183.14 60.422 253.64 20.719 22.641 32.531 51.984 34.641 85.406h-353.76c1.5-36.375 12.703-66.234 33.422-88.688zm-46.688 113.81h380.39c40.125 0 72.797 32.672 72.797 72.797v35.297h-525.98v-35.297c0-40.125 32.672-72.797 72.797-72.797zm522.84 191.34c0 30.469-24.797 55.219-55.219 55.219h-554.81c-30.469 0-55.219-24.797-55.219-55.219v-2.9062c0-30.469 24.797-55.219 55.219-55.219h554.81c30.469 0 55.219 24.797 55.219 55.219z"/>
</svg>
