<?xml version="1.0" encoding="UTF-8"?>
<svg width="1200pt" height="1200pt" version="1.1" viewBox="0 0 1200 1200" xmlns="http://www.w3.org/2000/svg">
 <path d="m901.5 1020.2v-52.688c0-50.203-37.969-91.641-86.672-97.266-1.5-49.5-14.391-87.516-39.422-115.97-64.078-72.984-62.531-170.11-60.891-272.9 0.1875-12.609 0.42188-25.594 0.46875-38.484h92.625c26.297 0 47.719-21.375 47.719-47.719v-64.594c0-22.312-15.422-41.016-36.094-46.219 0.98438-2.7656 43.266-68.906 40.219-70.5l-0.046875-201.32c0-6.9375-5.625-12.563-12.562-12.563h-106.27c-6.9375 0-12.562 5.625-12.562 12.563v117.56h-61.125l0.046875-117.56c0-6.9375-5.625-12.563-12.562-12.563h-107.53c-6.9375 0-12.562 5.625-12.562 12.563v117.56h-65.391v-117.56c0-6.9375-5.625-12.563-12.562-12.563h-109.17c-6.9375 0-12.562 5.625-12.562 12.563v201.28c-2.9531 0.046876 34.406 70.5 34.734 72.281-17.859 6.8906-30.609 24.188-30.609 44.484v64.594c0 26.297 21.375 47.719 47.719 47.719h94.359c-0.046875 17.391 0.28125 35.016 0.60938 52.125 1.7812 92.625 3.6562 188.44-55.547 255.52-26.203 29.672-39.516 68.953-40.688 119.77-48.703 5.625-86.625 47.062-86.625 97.219v52.688c-42.422 6.1875-75.094 42.797-75.094 86.906-2.5312 50.109 37.5 93 87.844 92.812h577.4c50.344 0.14062 90.422-42.703 87.844-92.812 0-44.062-32.672-80.672-75.047-86.906zm-541.74-995.11h84.047v117.56c0 6.9375 5.625 12.562 12.562 12.562h90.469c6.9375 0 12.562-5.625 12.562-12.562v-117.56h82.406v117.56c0 6.9375 5.625 12.562 12.562 12.562h86.203c6.9375 0 12.562-5.625 12.562-12.562l-0.046875-117.56h81.188v185.26l-43.5 72.516h-394.97l-36.094-72zm4.0781 370.08v-64.594c0-12.469 10.125-22.594 22.594-22.594h421.12c12.469 0 22.594 10.125 22.594 22.594v64.594c0 12.469-10.125 22.594-22.594 22.594h-421.13c-12.422 0-22.594-10.172-22.594-22.594zm80.812 371.95c65.672-74.391 63.75-175.18 61.828-272.58-0.32812-17.016-0.65625-34.5-0.60938-51.656h183.98c-0.09375 12.75-0.28125 25.594-0.46875 38.109-1.6406 103.08-3.375 209.68 67.125 289.92 20.766 23.625 31.641 56.016 33.141 98.766l-379.4-0.09375c1.2188-44.062 12.516-77.672 34.406-102.47zm-121.03 200.39c0-40.125 32.672-72.797 72.797-72.797h407.16c40.125 0 72.797 32.672 72.797 72.797v51.75h-552.74zm627.84 144.61c0 34.594-28.172 62.766-62.766 62.766l-577.4-0.046875c-36.609 0.14062-65.203-31.453-62.766-67.734 0-34.594 28.172-62.766 62.766-62.766h577.4c36.609-0.14062 65.203 31.5 62.766 67.781z"/>
</svg>
