<?xml version="1.0" encoding="UTF-8"?>
<svg width="1200pt" height="1200pt" version="1.1" viewBox="0 0 1200 1200" xmlns="http://www.w3.org/2000/svg">
 <path d="m891.52 1030.5v-42.281c0-52.5-41.484-95.438-93.422-97.781-51.656-135.42-73.734-243.94-75.047-370.69h44.484c38.766 0 70.312-31.547 70.312-70.312 4.0781-59.578-42.891-86.953-97.312-80.531 0.60938-73.688 27.609-143.63 71.156-202.78 5.6719-7.9219-0.65625-19.875-10.406-19.547h-188.76v-55.406h62.484c6.9375 0 12.562-5.625 12.562-12.562s-5.625-12.562-12.562-12.562h-62.484v-53.531c0-6.9375-5.625-12.562-12.562-12.562s-12.562 5.625-12.562 12.562v53.578h-62.484c-6.9375 0-12.562 5.625-12.562 12.562s5.625 12.562 12.562 12.562h62.484v55.359h-192.71c-9.5625-0.28125-15.938 11.25-10.641 19.172 40.547 60.469 66.75 130.31 71.953 203.16-52.594-6.5625-97.922 24.281-93.422 80.531 0 38.766 31.547 70.312 70.312 70.312h38.578c-1.3594 126.84-23.484 235.55-75.188 371.11-49.219 5.1094-87.75 46.828-87.75 97.359v42.281c-40.828 5.1094-72.516 39.984-72.516 82.172-2.2969 47.156 35.438 87.422 82.828 87.281h562.36c47.391 0.14063 85.125-40.125 82.828-87.281 0-42.188-31.688-77.062-72.516-82.172zm-474.24-858.79h360.37l-0.65625 0.9375c-39.328 58.453-60.516 126.05-61.641 196.26h-234.32c-4.9688-69.797-26.859-137.72-63.75-197.21zm-29.625 277.74c-3.6094-28.125 15.469-55.688 45.188-55.453h334.69c29.719-0.28125 48.797 27.328 45.188 55.453 0 24.938-20.25 45.188-45.188 45.188h-334.69c-24.938 0-45.188-20.25-45.188-45.188zm310.31 70.312c1.3125 127.18 22.875 236.26 73.266 370.6l-348-0.046875c50.344-134.26 71.953-243.42 73.266-370.6zm-291.56 395.68h387.24c40.125 0 72.797 32.672 72.797 72.797v41.625h-532.87v-41.625c0-40.125 32.672-72.797 72.844-72.797zm532.5 201.71c0 31.828-25.922 57.75-57.75 57.75l-562.31-0.046875c-33.609 0.14062-59.906-28.875-57.75-62.156 0-31.828 25.922-57.75 57.75-57.75h562.36c33.562-0.14062 59.906 28.875 57.703 62.203z"/>
</svg>
