<?xml version="1.0" encoding="UTF-8"?>
<svg width="1200pt" height="1200pt" version="1.1" viewBox="0 0 1200 1200" xmlns="http://www.w3.org/2000/svg">
 <path d="m888.1 1038v-35.203c0-48.234-35.109-88.406-81.094-96.422-2.1562-38.203-17.484-74.531-43.828-103.08-59.016-64.078-57.562-149.63-56.062-240.19 0.1875-10.688 0.375-21.656 0.42188-32.625h73.547c26.297 0 47.719-21.422 47.719-47.719v-48.984c0-26.297-21.422-47.719-47.719-47.719h-16.031l68.25-149.21c6.0938 2.4375 12.656 3.7969 19.594 3.7969 29.391 0 53.297-23.953 53.297-53.438 0-29.484-23.906-53.438-53.297-53.438s-53.297 23.953-53.297 53.438c0 10.219 2.9062 19.734 7.9219 27.844l-119.72 55.031-71.672-166.36c20.672-7.3594 35.578-27.094 35.578-50.344 0.046875-29.438-23.859-53.391-53.25-53.391s-53.297 23.953-53.297 53.438c0 23.297 14.953 43.078 35.719 50.391l-69.328 166.31-119.72-54.094c5.3438-8.3438 8.5312-18.234 8.5312-28.875 0-29.484-23.906-53.438-53.297-53.438s-53.297 23.953-53.297 53.438c0 29.484 23.906 53.438 53.297 53.438 5.8594 0 11.484-0.98437 16.781-2.7656l65.578 148.18h-10.547c-26.297 0-47.719 21.422-47.719 47.719v48.984c0 26.297 21.422 47.719 47.719 47.719h69.609c0 14.906 0.28125 30 0.5625 44.719 1.7344 85.312 3.375 165.89-51.094 224.76-27.516 29.719-43.359 67.266-45.094 106.45-45.938 8.0625-80.953 48.188-80.953 96.422v35.203c-39.281 5.25-69.656 38.953-69.656 79.594v2.0625c0 44.297 36.047 80.344 80.344 80.344h554.81c44.297 0 80.344-36.047 80.344-80.344v-2.0625c0-40.641-30.422-74.344-69.656-79.594zm-35.156-879.14c15.562 0 28.172 12.703 28.172 28.312s-12.656 28.312-28.172 28.312c-15.562 0-28.172-12.703-28.172-28.312 0-15.562 12.656-28.312 28.172-28.312zm-282.66-105.42c0-15.609 12.656-28.312 28.172-28.312 15.562 0 28.172 12.703 28.172 28.312s-12.656 28.312-28.172 28.312c-15.516 0.046875-28.172-12.703-28.172-28.312zm-251.44 133.78c0-15.609 12.656-28.312 28.172-28.312 15.562 0 28.172 12.703 28.172 28.312 0 8.0156-5.3438 28.312-28.172 28.312-15.516 0-28.172-12.703-28.172-28.312zm75.469 57.516 118.69 53.625c6.2344 2.9531 14.25-0.1875 16.734-6.6094l68.859-165.24 71.25 165.37c2.5781 6.375 10.594 9.4219 16.781 6.4219l115.22-53.016-64.406 140.76h-280.6zm1.9688 238.03v-48.984c0-12.469 10.125-22.594 22.594-22.594h362.26c12.469 0 22.594 10.125 22.594 22.594v48.984c0 12.469-10.125 22.594-22.594 22.594h-362.26c-12.469 0-22.594-10.125-22.594-22.594zm60.094 334.22c61.359-66.281 59.578-155.76 57.797-242.29-0.28125-14.578-0.60938-29.531-0.5625-44.203h168.84c-0.09375 10.781-0.23438 21.609-0.42188 32.203-1.5469 91.547-3.1406 186.19 62.719 257.63 21.703 23.531 34.594 53.25 37.031 84.609l-363.66-0.046875c2.0156-32.25 15.422-63.188 38.25-87.891zm-46.547 113.02h380.34c40.125 0 72.797 32.672 72.797 72.797v34.453l-525.94 0.046875v-34.453c0-40.172 32.625-72.844 72.797-72.844zm522.79 189.66c0 30.469-24.797 55.219-55.219 55.219h-554.81c-30.469 0-55.219-24.797-55.219-55.219v-2.0625c0-30.469 24.797-55.219 55.219-55.219h554.81c30.469 0 55.219 24.797 55.219 55.219z"/>
</svg>
