<?xml version="1.0" encoding="UTF-8"?>
<svg width="1200pt" height="1200pt" version="1.1" viewBox="0 0 1200 1200" xmlns="http://www.w3.org/2000/svg">
 <path d="m112.5 1125c-9.5977 0-19.188-3.6641-26.512-10.988-14.648-14.648-14.648-38.379 0-53.027l975-975c14.648-14.648 38.379-14.648 53.027 0 14.652 14.648 14.648 38.379 0 53.027l-975 975c-7.3281 7.3242-16.918 10.988-26.516 10.988z"/>
 <path d="m712.5 937.5c-41.363 0-75-33.637-75-75s33.637-75 75-75 75 33.637 75 75-33.637 75-75 75zm0-75c-0.039062 0-0.089844 0.019531-0.10938 0.039062l0.10938 37.461z"/>
 <path d="m862.5 1125c-41.363 0-75-33.637-75-75s33.637-75 75-75 75 33.637 75 75-33.637 75-75 75zm0-75c-0.039062 0-0.089844 0.019531-0.10938 0.039062l0.10938 37.461z"/>
 <path d="m487.5 1087.5c-41.363 0-75-33.637-75-75s33.637-75 75-75 75 33.637 75 75-33.637 75-75 75zm0-75c-0.039062 0-0.089844 0.019531-0.10938 0.039062l0.10938 37.461z"/>
 <path d="m750 750c-41.363 0-75-33.637-75-75s33.637-75 75-75 75 33.637 75 75-33.637 75-75 75zm0-75c-0.039062 0-0.089844 0.019531-0.10938 0.039062l0.10938 37.461z"/>
 <path d="m937.5 787.5c-41.363 0-75-33.637-75-75s33.637-75 75-75 75 33.637 75 75-33.637 75-75 75zm0-75c-0.039062 0-0.089844 0.019531-0.10938 0.039062l0.10938 37.461z"/>
 <path d="m975 562.5c-41.363 0-75-33.637-75-75s33.637-75 75-75 75 33.637 75 75-33.637 75-75 75zm0-75c-0.039062 0-0.089844 0.019531-0.10938 0.039062l0.10938 37.461z"/>
 <path d="m600 300c-20.707 0-37.5-16.793-37.5-37.5v-75c0-20.707 16.793-37.5 37.5-37.5s37.5 16.793 37.5 37.5v75c0 20.707-16.793 37.5-37.5 37.5z"/>
 <path d="m637.5 262.5h-75c-20.707 0-37.5-16.793-37.5-37.5s16.793-37.5 37.5-37.5h75c20.707 0 37.5 16.793 37.5 37.5s-16.793 37.5-37.5 37.5z"/>
 <path d="m525 487.5c-20.707 0-37.5-16.793-37.5-37.5v-75c0-20.707 16.793-37.5 37.5-37.5s37.5 16.793 37.5 37.5v75c0 20.707-16.793 37.5-37.5 37.5z"/>
 <path d="m562.5 450h-75c-20.707 0-37.5-16.793-37.5-37.5s16.793-37.5 37.5-37.5h75c20.707 0 37.5 16.793 37.5 37.5s-16.793 37.5-37.5 37.5z"/>
 <path d="m412.5 637.5c-20.707 0-37.5-16.793-37.5-37.5v-75c0-20.707 16.793-37.5 37.5-37.5s37.5 16.793 37.5 37.5v75c0 20.707-16.793 37.5-37.5 37.5z"/>
 <path d="m450 600h-75c-20.707 0-37.5-16.793-37.5-37.5s16.793-37.5 37.5-37.5h75c20.707 0 37.5 16.793 37.5 37.5s-16.793 37.5-37.5 37.5z"/>
 <path d="m150 637.5c-20.707 0-37.5-16.793-37.5-37.5v-75c0-20.707 16.793-37.5 37.5-37.5s37.5 16.793 37.5 37.5v75c0 20.707-16.793 37.5-37.5 37.5z"/>
 <path d="m187.5 600h-75c-20.707 0-37.5-16.793-37.5-37.5s16.793-37.5 37.5-37.5h75c20.707 0 37.5 16.793 37.5 37.5s-16.793 37.5-37.5 37.5z"/>
 <path d="m262.5 787.5c-20.707 0-37.5-16.793-37.5-37.5v-75c0-20.707 16.793-37.5 37.5-37.5s37.5 16.793 37.5 37.5v75c0 20.707-16.793 37.5-37.5 37.5z"/>
 <path d="m300 750h-75c-20.707 0-37.5-16.793-37.5-37.5s16.793-37.5 37.5-37.5h75c20.707 0 37.5 16.793 37.5 37.5s-16.793 37.5-37.5 37.5z"/>
 <path d="m300 450c-20.707 0-37.5-16.793-37.5-37.5v-75c0-20.707 16.793-37.5 37.5-37.5s37.5 16.793 37.5 37.5v75c0 20.707-16.793 37.5-37.5 37.5z"/>
 <path d="m337.5 412.5h-75c-20.707 0-37.5-16.793-37.5-37.5s16.793-37.5 37.5-37.5h75c20.707 0 37.5 16.793 37.5 37.5s-16.793 37.5-37.5 37.5z"/>
 <path d="m225 225c-20.707 0-37.5-16.793-37.5-37.5v-75c0-20.707 16.793-37.5 37.5-37.5s37.5 16.793 37.5 37.5v75c0 20.707-16.793 37.5-37.5 37.5z"/>
 <path d="m262.5 187.5h-75c-20.707 0-37.5-16.793-37.5-37.5s16.793-37.5 37.5-37.5h75c20.707 0 37.5 16.793 37.5 37.5s-16.793 37.5-37.5 37.5z"/>
</svg>
