<?xml version="1.0" encoding="UTF-8"?>
<svg width="1200pt" height="1200pt" version="1.1" viewBox="0 0 1200 1200" xmlns="http://www.w3.org/2000/svg">
 <path d="m82.875 281.25h215.06c32.25 0 58.312-28.125 58.312-62.438 0-32.438-23.25-59.25-52.875-62.25-7.6875-36-37.688-62.812-73.312-62.812-10.312 0-20.062 2.25-29.25 6.375-12.562-26.25-37.875-43.875-66.938-43.875-41.625 0-75.375 36.375-75.375 81.188 0 3.75 0.1875 7.5 0.75 11.25-23.625 10.125-40.312 35.062-40.312 63.75 0 37.875 28.688 68.812 64.125 68.812zm-0.5625-99.938c6.1875 0 11.812-3.1875 15.188-8.4375s4.125-11.625 1.875-17.25c-2.25-5.8125-3.375-11.812-3.375-18.188 0-24.188 17.062-43.688 37.875-43.688 19.312 0 35.438 16.688 37.688 38.812 0.75 7.3125 5.8125 13.688 12.75 15.938 6.9375 2.4375 14.812 0.375 19.688-5.25 7.125-7.875 16.312-12.188 26.062-12.188 20.812 0 37.875 19.688 37.688 45 0 6.1875 2.625 12 7.5 15.562s11.25 4.6875 17.062 2.8125c13.125-4.3125 26.438 8.0625 26.438 24 0 13.875-9.375 24.938-20.812 24.938h-215.06c-14.625 0-26.625-14.062-26.625-31.312s11.625-30.938 26.062-31.125z"/>
 <path d="m970.31 1181.2c29.438 0 57-14.625 73.5-38.812s20.062-55.312 9.375-82.688l-65.438-166.5c-2.8125-7.125-9.75-11.812-17.438-11.812s-14.625 4.6875-17.438 11.812l-65.438 166.5c-10.688 27.375-7.3125 58.312 9.375 82.688s44.062 38.812 73.5 38.812zm-48-107.81 48-122.06 48 122.06c6.375 16.125 4.3125 33.562-5.4375 47.812s-25.312 22.5-42.562 22.5-32.812-8.25-42.562-22.5-11.625-31.688-5.4375-47.812z"/>
 <path d="m1170.4 918.38-46.688-118.88c-2.8125-7.125-9.75-11.812-17.438-11.812s-14.625 4.6875-17.438 11.812l-46.688 118.88c-8.4375 21.188-5.625 45.188 7.125 64.125 12.938 18.938 34.125 30.188 57 30.188s44.062-11.25 57-30.188 15.562-42.75 7.125-64.125zm-38.25 42.938c-11.812 17.438-40.125 17.438-51.938 0-6-8.8125-7.125-19.312-3.375-29.25l29.25-74.438 29.25 74.438c3.9375 9.75 2.625 20.438-3.375 29.25z"/>
 <path d="m900 206.25c0 51.75 42 93.75 93.75 93.75s93.75-42 93.75-93.75-42-93.75-93.75-93.75-93.75 42-93.75 93.75zm93.75-56.25c30.938 0 56.25 25.312 56.25 56.25s-25.312 56.25-56.25 56.25-56.25-25.312-56.25-56.25 25.312-56.25 56.25-56.25z"/>
 <path d="m993.75 18.75c10.355 0 18.75 10.355 18.75 18.75v18.75c0 10.355-8.3945 18.75-18.75 18.75s-18.75-10.355-18.75-18.75v-18.75c0-10.355 8.3945-18.75 18.75-18.75z"/>
 <path d="m993.75 337.5c10.355 0 18.75 10.355 18.75 18.75v18.75c0 10.355-8.3945 18.75-18.75 18.75s-18.75-10.355-18.75-18.75v-18.75c0-10.355 8.3945-18.75 18.75-18.75z"/>
 <path d="m1143.8 187.5h18.75c10.355 0 18.75 10.355 18.75 18.75 0 10.355-8.3945 18.75-18.75 18.75h-18.75c-10.355 0-18.75-10.355-18.75-18.75 0-10.355 8.3945-18.75 18.75-18.75z"/>
 <path d="m825 187.5h18.75c10.355 0 18.75 10.355 18.75 18.75 0 10.355-8.3945 18.75-18.75 18.75h-18.75c-10.355 0-18.75-10.355-18.75-18.75 0-10.355 8.3945-18.75 18.75-18.75z"/>
 <path d="m887.62 73.688c-7.3125-7.3125-19.125-7.3125-26.438 0s-7.3125 19.125 0 26.438l13.312 13.312c7.3125 7.3125 19.125 7.3125 26.438 0s7.3125-19.125 0-26.438z"/>
 <path d="m1113 299.06c-7.3125-7.3125-19.125-7.3125-26.438 0s-7.3125 19.125 0 26.438l13.312 13.312c7.3125 7.3125 19.125 7.3125 26.438 0s7.3125-19.125 0-26.438z"/>
 <path d="m1126.3 73.688c-7.3125-7.3125-19.125-7.3125-26.438 0l-13.312 13.312c-7.3125 7.3125-7.3125 19.125 0 26.438s19.125 7.3125 26.438 0l13.312-13.312c7.3125-7.3125 7.3125-19.125 0-26.438z"/>
 <path d="m881.62 318.38c-7.3125-7.3125-19.125-7.3125-26.438 0l-10.5 10.5c-7.3125 7.3125-7.3125 19.125 0 26.438s19.125 7.3125 26.438 0l10.5-10.5c7.3125-7.3125 7.3125-19.125 0-26.438z"/>
 <path d="m37.5 1012.5h288.75c31.312 0 59.812-21.188 66.188-51.75 8.625-42.188-23.438-79.5-64.125-79.5h-9.375c-21.188 0-39.562 11.812-49.125 29.062-6.75 12.188 2.8125 27.188 16.875 27.188 6.375 0 12.75-3 15.75-8.625 3.1875-6 9.375-10.125 16.688-10.125h9.375c15.562 0 28.125 12.562 28.125 28.125s-12.562 28.125-28.125 28.125h-291c-10.312 0-18.75 8.4375-18.75 18.75s8.4375 18.75 18.75 18.75z"/>
 <path d="m75 937.5h82.5c31.312 0 59.812-21.188 66.188-51.75 8.625-42.188-23.438-79.5-64.125-79.5h-9.375c-21.188 0-39.562 11.812-49.125 29.062-6.75 12.188 2.8125 27.188 16.875 27.188 6.375 0 12.75-3 15.75-8.625 3.1875-6 9.375-10.125 16.688-10.125h9.375c15.562 0 28.125 12.562 28.125 28.125s-12.562 28.125-28.125 28.125h-84.75c-10.312 0-18.75 8.4375-18.75 18.75s8.4375 18.75 18.75 18.75z"/>
 <path d="m253.12 1143.8h-9.375c-7.125 0-13.5-4.125-16.688-10.125-3-5.625-9.375-8.625-15.75-8.625-13.875 0-23.625 15-16.875 27.188 9.5625 17.25 28.125 29.062 49.125 29.062h7.5c31.312 0 59.812-21.188 66.188-51.75 8.625-42.188-23.438-79.5-64.125-79.5h-140.62c-10.312 0-18.75 8.4375-18.75 18.75s8.4375 18.75 18.75 18.75h140.62c15.562 0 28.125 12.562 28.125 28.125s-12.562 28.125-28.125 28.125z"/>
 <path d="m124.12 337.69c-9.1875-5.0625-21-1.6875-25.688 7.6875-39.75 78.375-60.75 166.12-60.75 254.62 0 46.312 5.625 92.062 16.688 136.69 2.625 10.125 13.312 16.125 23.438 13.312 9.75-2.8125 15.375-12.938 12.938-22.688-10.312-41.438-15.562-84-15.562-127.12 0-82.5 19.5-164.25 56.625-237.38 4.6875-9 1.5-20.062-7.5-24.938z"/>
 <path d="m404.44 1127.6c62.438 23.25 128.06 34.875 195.56 34.875 74.625 0 147-14.25 215.06-42.562 9.75-4.125 14.062-15.562 9.75-25.125-4.125-9.1875-15-13.312-24.375-9.375-63.562 26.25-130.88 39.562-200.44 39.562-62.812 0-123.94-10.875-182.06-32.438-9.5625-3.5625-20.062 0.9375-24 10.312-3.9375 9.75 0.75 21.188 10.688 24.75z"/>
 <path d="m1110.2 412.69c-9.5625 3.5625-14.25 13.875-11.062 23.625 17.25 52.688 26.062 107.62 26.062 163.69 0 36.75-3.75 73.312-11.25 108.94-2.0625 9.9375 3.75 19.688 13.688 22.312 10.312 2.625 20.812-3.75 22.875-14.062 8.0625-38.25 12.188-77.625 12.188-117 0-60.188-9.375-119.25-27.938-175.88-3.375-9.9375-14.438-15.188-24.375-11.438z"/>
 <path d="m381.19 122.62c68.812-31.688 142.31-47.625 218.81-47.625 56.062 0 111.19 8.8125 163.69 26.062 9.75 3.1875 20.062-1.6875 23.625-11.062 3.5625-9.9375-1.5-21-11.438-24.375-56.625-18.562-115.69-27.938-175.88-27.938-82.125 0-161.06 17.25-234.94 51.188-9.5625 4.3125-13.5 16.125-8.625 25.5 4.5 9.1875 15.375 12.75 24.75 8.4375z"/>
 <path d="m600 862.5c144.75 0 262.5-117.75 262.5-262.5s-117.75-262.5-262.5-262.5-262.5 117.75-262.5 262.5 117.75 262.5 262.5 262.5zm55.875-439.12c-3.9375-20.438-15.75-37.312-32.625-47.062 113.25 11.625 201.75 107.62 201.75 223.88 0 3.375-0.375 6.5625-0.5625 9.75-4.5-4.5-7.6875-10.5-9-17.625-3.1875-15.938-11.625-30.375-24-40.875-17.438-14.062-39.938-18.188-60.375-11.062l-76.688 27.938c-12.75 4.6875-27.188-3.1875-32.812-17.812l-5.8125-15.375c-4.875-12.938-1.875-27.938 7.5-36.188l12-10.688c17.812-15.938 25.688-40.125 21-64.875zm-102-43.5c14.25 11.812 29.625 20.625 46.125 26.625 9.75 3.5625 16.875 12.562 19.125 24 2.25 11.625-1.125 22.688-9.1875 29.812l-12 10.688c-21 18.75-27.938 49.875-17.438 77.625l6 15.562c13.125 33.938 48.562 51.375 80.812 39.562l76.312-27.75c11.062-3.9375 19.875 1.3125 24 4.6875 5.625 4.6875 9.5625 11.438 11.062 18.938 4.3125 23.625 20.062 42.75 40.5 51.188-22.875 99.938-112.31 174.56-219.19 174.56-35.812 0-69.562-8.625-99.75-23.625l39.188-0.5625c14.25 0 28.5-3.9375 41.438-11.438 26.438-16.125 41.625-45.188 39.562-76.312-3.375-44.812-41.438-78.188-86.438-75.938l-26.25 1.6875c-14.062 0.9375-27.375-4.875-36.375-15.75-9.1875-10.875-12.562-25.125-9.375-39.188l5.625-24.938c9-36.562-4.125-75.562-33.188-99.562l-5.625-4.6875c31.688-37.312 75.375-64.312 125.06-74.812zm-143.44 108.38c18.188 14.812 26.25 39 20.625 62.062l-5.625 25.125c-6 25.5 0.375 51.75 17.25 71.812 16.875 19.875 41.438 30.375 67.312 28.875l26.062-1.6875c24.938-1.3125 45.188 17.062 47.062 41.25 1.125 16.875-7.125 32.812-21.375 41.438-6.9375 3.9375-14.438 6.1875-22.5 6.1875l-50.062 0.75c-16.125 0-31.688-1.125-46.5-3.5625-41.625-40.875-67.5-97.688-67.5-160.5 0-42 11.812-81.188 31.875-114.75l3.5625 3z"/>
</svg>
