<?xml version="1.0" encoding="UTF-8"?>
<svg width="1200pt" height="1200pt" version="1.1" viewBox="0 0 1200 1200" xmlns="http://www.w3.org/2000/svg">
 <path d="m600 108c-271.31 0-492 220.69-492 492s220.69 492 492 492 492-220.69 492-492-220.69-492-492-492zm0 72c232.4 0 420 187.6 420 420s-187.6 420-420 420-420-187.6-420-420 187.6-420 420-420zm-0.375 11.25c-18.984 0.1875-36 17.766-35.625 36.75v48c-0.28125 19.031 16.969 36.516 36 36.516s36.281-17.484 36-36.516v-48c0.42188-19.219-17.156-36.938-36.375-36.75zm-271.13 137.26c-9.375 9.375-9.375 24.375 0 33.75s24.375 9.375 33.75 0 9.375-24.375 0-33.75c-12.422-10.219-22.688-7.5938-33.75 0zm509.26 0c-9.375 9.375-9.375 24.375 0 33.75s24.375 9.375 33.75 0 9.375-24.375 0-33.75c-12.422-10.219-22.5-8.3438-33.75 0zm-238.13 6.75c-18.984 0.1875-36 17.766-35.625 36.75v223.5c-0.9375 15.562 5.0156 24.469 16.125 35.25l138.37 138.37c12.891 14.766 38.578 15.703 52.5 1.875s13.219-39.469-1.5-52.5l-133.5-133.5v-213c-3.5625-22.359-19.453-36.328-36.375-36.75zm-375.37 228.74c-18.844 0.98438-35.109 19.031-34.125 37.875s19.031 35.109 37.875 34.125h48c19.031 0.28125 36.516-16.969 36.516-36s-17.484-36.281-36.516-36zm696 0c-18.844 0.98438-35.109 19.031-34.125 37.875s19.031 35.109 37.875 34.125h48c19.031 0.28125 36.516-16.969 36.516-36s-17.484-36.281-36.516-36zm-591.74 273.74c-9.375 9.375-9.375 24.375 0 33.75s24.375 9.375 33.75 0 9.375-24.375 0-33.75c-12.422-10.219-24.75-8.3438-33.75 0zm509.26 0c-9.375 9.375-9.375 24.375 0 33.75s24.375 9.375 33.75 0 9.375-24.375 0-33.75c-12.422-10.219-22.875-9.0938-33.75 0zm-238.13 49.5c-18.984 0.1875-36 17.766-35.625 36.75v48c-0.28125 19.031 16.969 36.516 36 36.516s36.281-17.484 36-36.516v-48c0.42188-19.219-17.156-36.938-36.375-36.75z"/>
</svg>
