<?xml version="1.0" encoding="UTF-8"?>
<svg width="1200pt" height="1200pt" version="1.1" viewBox="0 0 1200 1200" xmlns="http://www.w3.org/2000/svg">
 <path d="m879.28 1078.1c-229.31 0-458.63-0.046875-687.94-0.09375-14.062 0-25.5 11.438-25.5 25.5s11.438 25.5 25.5 25.5c229.31 0 458.63 0.046875 687.94 0.09375 14.062 0 25.5-11.438 25.5-25.5 0-14.109-11.391-25.5-25.5-25.5z"/>
 <path d="m1026.4 690.71c-0.46875-5.625-1.2188-11.203-2.25-16.734-1.9688-10.875-5.0625-21.562-9.2812-31.781-4.125-10.125-9.375-19.781-15.703-28.688-5.0625-7.125-10.781-13.781-17.156-19.781-4.0312-3.7969-8.25-7.3125-12.75-10.547-4.5-3.2812-9.2344-6.2344-14.156-8.9062-9.9844-5.3438-20.719-9.3281-31.781-11.719-4.0312-0.89062-8.0625-1.5469-12.141-2.0625-9.4219-1.125-13.5-5.1094-14.859-14.484-2.3906-16.781-16.734-29.203-33.656-29.203h-654.89c-18.375 0-33.422 14.578-33.984 32.953-0.1875 5.4844-0.375 10.969-0.51562 16.5-0.60938 19.125-1.0312 38.25-0.89062 57.328 0.09375 18.844 0.70312 37.688 2.1562 56.438 1.5 18.75 3.8438 37.406 7.4062 55.828 1.7812 9.2812 3.8906 18.516 6.375 27.656 2.4844 9.2344 5.2969 18.422 8.5312 27.422 6.5625 18.562 14.812 36.516 24.516 53.625 2.5312 4.4062 5.1094 8.7656 7.8281 13.031 1.9688 3.0938 3.9844 6.1875 6.0469 9.2344 3.3281 4.875 6.75 9.7031 10.266 14.438 13.875 18.562 29.438 35.812 46.453 51.469 16.641 15.328 34.688 29.109 53.812 41.109 18.891 11.812 38.859 21.891 59.578 30.047 20.625 8.0625 41.953 14.297 63.703 18.422 21.797 4.1719 43.969 6.2812 66.188 6.2812s44.391-2.1094 66.188-6.2812c21.75-4.125 43.078-10.312 63.703-18.422 20.719-8.1562 40.688-18.234 59.578-30.047 19.172-12 37.219-25.781 53.859-41.109 14.906-13.734 28.688-28.688 41.25-44.672 6.9844-8.9062 14.344-12.656 25.641-13.031 5.25-0.1875 10.5-0.46875 15.75-0.89062 7.5-0.65625 15-1.6406 22.406-3 7.2188-1.3594 14.438-3.0938 21.469-5.2031 6.9375-2.0625 13.688-4.5 20.344-7.3594 6.5625-2.8125 12.938-5.9531 19.078-9.5156 6.0938-3.5156 12-7.3594 17.625-11.578 5.5781-4.2188 10.922-8.7188 15.938-13.594 4.9688-4.8281 9.6562-9.9844 13.969-15.422s8.25-11.156 11.812-17.109 6.75-12.188 9.5625-18.562c2.7656-6.375 5.1562-12.984 7.0781-19.688 3.8906-13.594 6-27.703 6.4219-41.859 0.09375-3.6094 0.09375-7.1719 0-10.781-0.046875-3.1406-0.23438-6.4688-0.51562-9.75zm-230.44 143.26c-60.328 92.062-159 143.63-260.63 143.63-101.63 0-200.29-51.562-260.58-143.63-50.812-77.578-53.484-164.95-50.344-266.11h621.89c3.1406 101.16 0.42187 188.53-50.344 266.11zm64.547-10.922c4.9688-10.453 9.4219-21.188 13.266-32.062 6.375-17.953 11.25-36.422 14.859-55.078 3.5625-18.469 5.9062-37.125 7.3594-55.828 1.5-18.75 2.0625-37.594 2.2031-56.438v-12.938c43.031 1.0781 74.344 37.172 77.531 86.719 4.3125 66.422-41.109 117.94-115.22 125.63z"/>
 <path d="m384.56 319.6c-1.8281 3.4688-4.0312 6.7031-6.6094 9.6562-2.3906 2.7188-5.0625 5.1094-8.0156 7.125-1.4062 0.9375-2.9062 1.8281-4.4062 2.5781-1.5469 0.75-3.1406 1.4062-4.7812 1.9688-17.156 3.7969-25.875 22.969-17.438 38.344 5.5781 10.219 12.047 13.406 23.578 11.719 10.781-1.5938 20.203-5.1094 29.391-10.969 47.812-30.422 62.438-103.5 23.203-147-16.922-18.75-30.094-38.297-18.375-62.906 7.0312-14.719 20.016-27 31.875-38.859 20.625-24.047-12.188-56.719-36.141-36l-7.3125 7.3125c-2.3438 2.3906-4.6875 4.7812-6.9844 7.2188-2.5312 2.7188-5.0625 5.4844-7.4531 8.3438-2.6719 3.0938-5.25 6.3281-7.6875 9.6562-2.6719 3.6562-5.1562 7.4062-7.4531 11.297-1.2188 2.0625-2.3906 4.2188-3.5156 6.375-1.0781 2.1094-2.0625 4.2188-3 6.375-1.7812 4.125-3.2812 8.3906-4.5 12.703-1.2188 4.3594-2.0625 8.7656-2.625 13.266-0.5625 4.4062-0.75 8.8594-0.65625 13.312 0.09375 4.2656 0.51562 8.5781 1.2188 12.75 0.65625 3.9844 1.5938 7.9219 2.8125 11.812 1.125 3.6094 2.4375 7.1719 3.9375 10.641 2.7188 6.2344 6 12.188 9.75 17.906 2.4375 3.7031 5.0156 7.3125 7.7812 10.781 3.3281 4.2188 6.8438 8.3438 10.453 12.328 1.125 1.2188 2.1094 2.5312 3 3.8438s1.6875 2.7188 2.3906 4.1719c1.5 3.0469 2.5312 6.2812 3.1875 9.6562 0.70312 3.7031 0.9375 7.5 0.79688 11.25-0.1875 4.0312-0.84375 8.0625-1.9219 12-1.0781 3.8438-2.5781 7.6875-4.5 11.344z"/>
 <path d="m531.52 319.6c-1.8281 3.4688-4.0312 6.7031-6.6562 9.6562-2.3906 2.7188-5.0625 5.1094-8.0156 7.125-1.4062 0.9375-2.9062 1.8281-4.4062 2.5781-1.5469 0.75-3.1406 1.4062-4.7812 1.9688-17.156 3.7969-25.828 22.969-17.438 38.344 5.625 10.219 12.094 13.406 23.578 11.719 10.781-1.5938 20.203-5.1094 29.438-10.969 47.812-30.422 62.438-103.5 23.203-147-16.922-18.75-30.094-38.297-18.375-62.906 7.0312-14.719 20.016-27 31.875-38.859 20.625-24.047-12.188-56.719-36.141-36l-7.3125 7.3125c-2.3438 2.3906-4.6875 4.7812-6.9844 7.2188-2.5312 2.7188-5.0625 5.4844-7.4531 8.3438-2.6719 3.0938-5.25 6.3281-7.6406 9.6562-2.6719 3.6562-5.2031 7.4062-7.5 11.297-1.2188 2.0625-2.4375 4.2188-3.5156 6.375-1.0781 2.1094-2.0625 4.2188-3 6.375-1.7812 4.125-3.2812 8.3906-4.5 12.703-1.2188 4.3594-2.0625 8.7656-2.625 13.266-0.5625 4.4062-0.75 8.8594-0.65625 13.312 0.09375 4.2656 0.51562 8.5781 1.2188 12.75 0.65625 3.9844 1.5938 7.9219 2.8125 11.812 1.125 3.6094 2.4375 7.1719 3.9375 10.641 2.7188 6.2344 6 12.188 9.75 17.906 2.4375 3.7031 5.0625 7.3125 7.7812 10.781 3.3281 4.2188 6.8438 8.3438 10.453 12.328 1.0781 1.2188 2.1094 2.5312 3 3.8438s1.6875 2.7188 2.3906 4.1719c1.5 3.0469 2.5312 6.2812 3.1875 9.6562 0.70312 3.7031 0.9375 7.5 0.75 11.25-0.1875 4.0312-0.84375 8.0625-1.9219 12-0.98438 3.8438-2.5312 7.6875-4.4531 11.344z"/>
 <path d="m673.45 319.6c-1.8281 3.4688-4.0312 6.7031-6.6562 9.6562-2.3438 2.7188-5.0625 5.1094-8.0156 7.125-1.4062 0.9375-2.9062 1.8281-4.4062 2.5781-1.5469 0.75-3.0938 1.4062-4.7812 1.9688-17.156 3.7969-25.828 22.969-17.391 38.344 5.5781 10.219 12.047 13.406 23.578 11.719 10.781-1.5938 20.203-5.1094 29.438-10.969 47.812-30.422 62.484-103.5 23.203-147-16.922-18.75-30.094-38.297-18.375-62.906 7.0312-14.719 20.016-27 31.875-38.859 20.625-24.047-12.188-56.719-36.141-36l-7.3125 7.3125c-2.3438 2.3906-4.6875 4.7812-6.9844 7.2188-2.5312 2.7188-5.0625 5.4844-7.4531 8.3438-2.6719 3.0938-5.25 6.3281-7.6406 9.6562-2.6719 3.6562-5.1562 7.4062-7.5 11.297-1.2188 2.0625-2.4375 4.2188-3.5156 6.375-1.0781 2.1094-2.0625 4.2188-3 6.375-1.7812 4.125-3.2812 8.3906-4.5 12.703-1.2188 4.3594-2.0625 8.7656-2.625 13.266-0.5625 4.4062-0.75 8.8594-0.65625 13.312 0.09375 4.2656 0.51562 8.5781 1.2188 12.75 0.65625 3.9844 1.5938 7.9219 2.8125 11.812 1.125 3.6094 2.4375 7.1719 3.9375 10.641 2.7188 6.2344 6 12.188 9.75 17.906 2.4375 3.7031 5.0625 7.3125 7.7812 10.781 3.3281 4.2188 6.8438 8.3438 10.453 12.328 1.0781 1.2188 2.1094 2.5312 3 3.8438s1.6875 2.7188 2.3906 4.1719c1.5 3.0469 2.5312 6.2812 3.1875 9.6562 0.70312 3.7031 0.9375 7.5 0.79688 11.25-0.1875 4.0312-0.84375 8.0625-1.9219 12-1.125 3.8438-2.625 7.6875-4.5469 11.344z"/>
</svg>
