<?xml version="1.0" encoding="UTF-8"?>
<svg width="1200pt" height="1200pt" version="1.1" viewBox="0 0 1200 1200" xmlns="http://www.w3.org/2000/svg">
 <path d="m749.2 355.44c0.097657-8.6172-6.8047-16.906-15.422-17.004l-27.289-1.0781h-0.17969c-8.5312 0-15.492 8.0898-15.59 16.633-0.097656 8.6172 6.8047 16.992 15.422 17.09l27.289 1.1758h0.17969c8.5352 0.007813 15.496-8.2617 15.59-16.816zm-230.3 101.7 19.078-19.5c6.0234-6.1562 5.9141-16.02-0.23828-22.043-6.1562-6.0234-16.02-5.9141-22.043 0.23828l-19.078 19.5c-6.0234 6.1562-5.9141 16.02 0.23828 22.043 3.0352 2.9648 6.9727 4.4531 10.895 4.4531 4.0586-0.011719 8.1016-1.5703 11.148-4.6914zm171.49-163.7 19.078-19.5c6.0234-6.1562 5.9141-16.02-0.23828-22.043-6.1562-6.0117-16.02-5.9141-22.043 0.23828l-19.078 19.5c-6.0234 6.1562-5.9141 16.02 0.23828 22.043 3.0352 2.9648 6.9727 4.4531 10.906 4.4531 4.0469 0 8.0898-1.5742 11.137-4.6914zm14.953 163.94c6.1562-6.0234 6.2656-15.898 0.23828-22.043l-19.078-19.5c-6.0117-6.1562-15.887-6.2539-22.043-0.23828-6.1562 6.0234-6.2656 15.898-0.23828 22.043l19.078 19.5c3.0469 3.1211 7.0938 4.6797 11.137 4.6797 3.9336 0 7.8711-1.4766 10.906-4.4414zm-171.5-163.7c6.1562-6.0234 6.2656-15.887 0.23828-22.043l-19.078-19.5c-6.0234-6.1562-15.898-6.2656-22.043-0.23828-6.1562 6.0234-6.2656 15.887-0.23828 22.043l19.078 19.5c3.0469 3.1211 7.0938 4.6914 11.148 4.6914 3.9336 0 7.8711-1.4883 10.895-4.4531zm-22.391 61.766c0.097656-8.6172-6.8164-16.906-15.422-17.004l-27.289-1.0781h-0.17969c-8.5312 0-15.492 8.0898-15.59 16.633-0.097657 8.6172 6.8164 16.992 15.422 17.09l27.289 1.1758h0.17969c8.543 0.007813 15.504-8.2617 15.59-16.816zm108.19 125.87v-27.289c0-8.6055-7.7539-15.59-16.355-15.59-8.6055 0-16.355 6.9844-16.355 15.59v27.289c0 8.6172 7.7539 15.59 16.355 15.59 8.6016-0.003907 16.355-6.9883 16.355-15.59zm0-222.17v-27.289c0-8.6055-7.7539-15.59-16.355-15.59-8.6055 0-16.355 6.9844-16.355 15.59v27.289c0 8.6055 7.7539 15.59 16.355 15.59 8.6016-0.003907 16.355-6.9727 16.355-15.59zm-17.57 55.535c-23.102 0-41.902 18.793-41.902 41.902 0 23.102 18.793 41.902 41.902 41.902 23.102 0 41.902-18.793 41.902-41.902 0.003906-23.098-18.801-41.902-41.902-41.902zm0 114.98c-40.297 0-73.078-32.785-73.078-73.078 0-40.297 32.785-73.078 73.078-73.078 40.297 0 73.078 32.785 73.078 73.078 0.003906 40.293-32.781 73.078-73.078 73.078zm414.12 570.75c0-8.6055-6.9844-15.266-15.59-15.266l-42.875 0.003906c-8.6172 0-15.59 6.6602-15.59 15.266s6.9844 15.266 15.59 15.266h42.875c8.6055-0.003906 15.59-6.6641 15.59-15.27zm-109.13 0c0-8.6055-6.9844-15.266-15.59-15.266h-42.875c-8.6172 0-15.59 6.6602-15.59 15.266 0 8.6055 6.9844 15.266 15.59 15.266h42.875c8.6055 0 15.59-6.6602 15.59-15.266zm-109.14 0c0-8.6055-6.9844-15.266-15.59-15.266h-42.875c-8.6172 0-15.59 6.6602-15.59 15.266 0 8.6055 6.9844 15.266 15.59 15.266h42.875c8.6211 0 15.59-6.6602 15.59-15.266zm-109.12 0c0-8.6055-6.9844-15.266-15.59-15.266h-42.875c-8.6172 0-15.59 6.6602-15.59 15.266 0 8.6055 6.9844 15.266 15.59 15.266h42.875c8.6055 0 15.59-6.6602 15.59-15.266zm-109.14 0c0-8.6055-6.9844-15.266-15.59-15.266h-42.875c-8.6055 0-15.59 6.6602-15.59 15.266 0 8.6055 6.9844 15.266 15.59 15.266h42.875c8.6172 0 15.59-6.6602 15.59-15.266zm-109.13 0c0-8.6055-6.9844-15.266-15.59-15.266h-42.875c-8.6055 0-15.59 6.6602-15.59 15.266 0 8.6055 6.9844 15.266 15.59 15.266h42.875c8.6055 0 15.59-6.6602 15.59-15.266zm-109.13 0c0-8.6055-6.9844-15.266-15.59-15.266h-42.875c-8.6055 0-15.59 6.6602-15.59 15.266 0 8.6055 6.9844 15.266 15.59 15.266h42.875c8.6055 0 15.59-6.6602 15.59-15.266zm-109.14 0c0-8.6055-6.9844-15.266-15.59-15.266h-42.875c-8.6055 0-15.59 6.6602-15.59 15.266 0 8.6055 6.9844 15.266 15.59 15.266h42.875c8.6172 0 15.59-6.6602 15.59-15.266zm763.93-51.262c0-8.6055-6.9844-16.355-15.59-16.355h-42.875c-8.6172 0-15.59 7.7539-15.59 16.355 0 8.6055 6.9844 16.355 15.59 16.355h42.875c8.6055 0 15.59-7.7383 15.59-16.355zm-109.13 0c0-8.6055-6.9844-16.355-15.59-16.355h-42.875c-8.6172 0-15.59 7.7539-15.59 16.355 0 8.6055 6.9844 16.355 15.59 16.355h42.875c8.6055 0 15.59-7.7383 15.59-16.355zm-109.14 0c0-8.6055-6.9844-16.355-15.59-16.355h-42.875c-8.6172 0-15.59 7.7539-15.59 16.355 0 8.6055 6.9844 16.355 15.59 16.355h42.875c8.6211 0 15.59-7.7383 15.59-16.355zm-109.12 0c0-8.6055-6.9844-16.355-15.59-16.355h-42.875c-8.6172 0-15.59 7.7539-15.59 16.355 0 8.6055 6.9844 16.355 15.59 16.355h42.875c8.6055 0 15.59-7.7383 15.59-16.355zm-109.14 0c0-8.6055-6.9844-16.355-15.59-16.355h-42.875c-8.6055 0-15.59 7.7539-15.59 16.355 0 8.6055 6.9844 16.355 15.59 16.355h42.875c8.6172 0 15.59-7.7383 15.59-16.355zm-109.13 0c0-8.6055-6.9844-16.355-15.59-16.355h-42.875c-8.6055 0-15.59 7.7539-15.59 16.355 0 8.6055 6.9844 16.355 15.59 16.355h42.875c8.6055 0 15.59-7.7383 15.59-16.355zm-109.13 0c0-8.6055-6.9844-16.355-15.59-16.355h-42.875c-8.6055 0-15.59 7.7539-15.59 16.355 0 8.6055 6.9844 16.355 15.59 16.355h42.875c8.6055 0 15.59-7.7383 15.59-16.355zm-109.14 0c0-8.6055-6.9844-16.355-15.59-16.355h-42.875c-8.6055 0-15.59 7.7539-15.59 16.355 0 8.6055 6.9844 16.355 15.59 16.355h42.875c8.6172 0 15.59-7.7383 15.59-16.355zm771.06 160.31h-844.44c-18.961 0-34.824-13.094-38.723-32.711h921.86c-3.875 19.629-19.75 32.711-38.699 32.711zm-844.44-196.3h844.43c21.863 0 39.086 18.562 39.086 40.414v92.629h-922.6v-92.629c0-21.852 17.219-40.414 39.082-40.414zm914.05 40.297c0-39.121-31.715-70.836-70.836-70.836h-844.19c-39.121 0-70.836 31.715-70.836 70.836v115.7c0 39.121 31.715 70.836 70.836 70.836h844.19c39.121 0 70.836-31.715 70.836-70.836zm-224.85-273.67c0-8.6055-6.9844-15.266-15.59-15.266h-257.24c-8.6055 0-15.59 6.6602-15.59 15.266 0 8.6055 6.9844 15.266 15.59 15.266h257.24c8.6094 0.007812 15.59-6.6523 15.59-15.266zm-496.94 15.887c-13.969 0-25.332 11.363-25.332 25.332s11.363 25.332 25.332 25.332 25.332-11.363 25.332-25.332-11.363-25.332-25.332-25.332zm0 81.852c-31.164 0-56.52-25.355-56.52-56.52 0-31.164 25.355-56.52 56.52-56.52 31.164 0 56.52 25.355 56.52 56.52-0.011719 31.164-25.367 56.52-56.52 56.52zm473.15-544.46c0-21.898-17.746-39.648-39.648-39.648h-400.54c-21.898 0-39.648 17.746-39.648 39.648v252.22c0 21.898 17.746 39.648 39.648 39.648h400.54c21.898 0 39.648-17.746 39.648-39.648zm30.527 249.4c0 39.121-31.715 70.836-70.836 70.836h-399.24c-39.121 0-70.836-31.715-70.836-70.836v-250.93c0-39.121 31.715-70.836 70.836-70.836h399.25c39.121 0 70.836 31.715 70.836 70.836v250.93zm43.633-351.91c0-21.898-17.746-39.648-39.648-39.648h-551.04c-21.898 0-39.648 17.746-39.648 39.648v642.64c0 21.898 17.746 39.648 39.648 39.648h551.03c21.898 0 39.648-17.746 39.648-39.648v-642.64zm30.527 641.99c0 39.121-31.715 70.836-70.836 70.836h-551.92c-39.121 0-70.836-31.715-70.836-70.836v-641.34c0-39.121 31.715-70.836 70.836-70.836h551.93c39.121 0 70.836 31.715 70.836 70.836v641.34z"/>
</svg>
