<?xml version="1.0" encoding="UTF-8"?>
<svg width="1200pt" height="1200pt" version="1.1" viewBox="0 0 1200 1200" xmlns="http://www.w3.org/2000/svg">
 <path d="m473.64 149.97c-41.633 0-78.82 23.879-96.805 60.793-1.3516-0.050781-2.6758-0.19922-4.0391-0.19922-0.32422 0-0.59766 0.16797-0.92188 0.17969-60.707-1.8672-110.88 47.855-110.88 109.05v0.125c-8.6055-2.2031-17.48-3.3164-26.504-3.3164-59.566 0-108.02 48.988-108.02 109.2 0 14.332 2.8008 28.445 8.1953 41.602-42.328 30.211-67.992 79.543-67.992 132.59s25.664 102.38 67.992 132.59c-5.3945 13.168-8.1953 27.27-8.1953 41.602 0 60.215 48.453 109.21 108.02 109.21 9.0234 0 17.898-1.1211 26.504-3.3164v0.11719c0 61.18 50.184 110.84 110.88 109.04 0.32422 0.019531 0.59766 0.1875 0.93359 0.1875 1.3633 0 2.6875-0.15625 4.0391-0.19922 17.996 36.914 55.168 60.781 96.805 60.781 59.566 0 108.03-48.988 108.03-109.21l-0.007813-681.61c0-60.227-48.465-109.22-108.03-109.22zm0 863.39c-24.258 0-46.113-12.465-59.113-32.234 39.578-16.43 67.488-55.453 67.488-100.91 0-10.125-8.2031-18.332-18.34-18.332-10.125 0-18.332 8.2031-18.332 18.332 0 34.332-24.027 63.016-56.102 70.5-0.29297-0.011719-0.55469-0.13672-0.85156-0.13672-1.332 0-2.6758 0.14844-4.0195 0.44141-45.578 10.211-86.711-25.684-86.711-70.801 0-8.2578 1.4492-16.527 4.3008-24.582 2.6641-7.4805 0.1875-15.824-6.1055-20.672-6.3047-4.8594-15.004-5.0977-21.551-0.58594-11.773 8.0898-25.539 12.359-39.828 12.359-39.336 0-71.348-32.547-71.348-72.543 0-13.578 3.7969-26.891 10.984-38.496 2.6328-4.2617 3.4219-9.4023 2.1602-14.25-1.25-4.8359-4.4297-8.9727-8.793-11.406-39.555-22.117-64.141-64.277-64.141-110.04 0-45.758 24.582-87.914 64.141-110.04 4.3633-2.4336 7.543-6.5586 8.793-11.406 1.2578-4.8359 0.47266-9.9883-2.1602-14.238-7.1758-11.605-10.984-24.918-10.984-38.496 0-39.996 32.012-72.543 71.348-72.543 14.281 0 28.055 4.2695 39.828 12.359 6.5586 4.5 15.258 4.2383 21.551-0.58594 6.2969-4.8477 8.7734-13.188 6.1055-20.672-2.8555-8.0586-4.3008-16.336-4.3008-24.582 0-45.117 41.16-81.062 86.711-70.801 1.4688 0.32422 2.8945 0.16797 4.3438 0.13672 32.348 7.293 56.629 36.145 56.629 70.668 0 10.125 8.2031 18.332 18.332 18.332 10.137 0 18.34-8.2031 18.34-18.332 0-45.453-27.922-84.473-67.488-100.91 13-19.77 34.855-32.234 59.113-32.234 39.348 0 71.348 32.547 71.348 72.543v284.61h-26.953c-26.262 0-47.637-18.961-47.637-42.254 0-10.125-8.2148-18.34-18.34-18.34s-18.332 8.2148-18.332 18.34c0 43.523 37.816 78.922 84.305 78.922h26.953v129.95h-31.242c-14.805 0-26.852-10.398-26.852-23.176 0-54.047-47.133-98-105.07-98h-12.203c-10.137 0-18.34 8.2031-18.34 18.332 0 10.125 8.2031 18.34 18.34 18.34h12.203c37.719 0 68.398 27.512 68.398 61.328 0 33 28.496 59.848 63.52 59.848h31.246l0.003906 193.72c0 39.988-32.004 72.535-71.348 72.535z"/>
 <path d="m315.39 509.12c0-39.348-32-71.359-71.348-71.359h-7.5742c-10.125 0-18.332 8.2148-18.332 18.34s8.2031 18.34 18.332 18.34h7.5742c19.129 0 34.676 15.559 34.676 34.676 0 19.129-15.551 34.676-34.676 34.676-10.125 0-18.332 8.2148-18.332 18.34s8.2031 18.332 18.332 18.332c39.344 0.003906 71.348-31.996 71.348-71.344z"/>
 <path d="m327.35 646.02c-51.875 0-94.074 42.191-94.074 94.062v3.8203c0 10.125 8.2148 18.34 18.34 18.34s18.34-8.2148 18.34-18.34v-3.8203c0-31.645 25.75-57.395 57.395-57.395 10.125 0 18.34-8.2148 18.34-18.34 0-10.121-8.2148-18.328-18.34-18.328z"/>
 <path d="m372.79 459.31c35.172 0 63.773-28.613 63.773-63.785 0-10.125-8.2031-18.332-18.332-18.332-10.125 0-18.34 8.2031-18.34 18.332 0 14.953-12.148 27.102-27.102 27.102-10.125 0-18.332 8.2148-18.332 18.34 0 10.129 8.207 18.344 18.332 18.344z"/>
 <path d="m440.96 801.3c-27.48 0-49.828-22.348-49.828-49.828 0-10.125-8.2148-18.332-18.34-18.332s-18.332 8.2031-18.332 18.332c0 47.699 38.801 86.5 86.5 86.5 10.125 0 18.332-8.2031 18.332-18.332 0-10.125-8.207-18.34-18.332-18.34z"/>
 <path d="m655.01 315.78c-10.125 0-18.34 8.2148-18.34 18.34v183.36c0 5.5703 2.5391 10.84 6.8945 14.32l47.078 37.668c-0.82812 3.5469-1.3633 7.207-1.3633 10.996 0 26.82 21.824 48.633 48.633 48.633 26.82 0 48.621-21.812 48.621-48.633 0-26.809-21.805-48.633-48.621-48.633-9.5898 0-18.465 2.8867-26.012 7.6797l-38.551-30.848v-174.55c0-10.125-8.2148-18.34-18.34-18.34zm94.852 264.69c0 6.6016-5.3633 11.949-11.949 11.949-6.6016 0-11.961-5.3633-11.961-11.949 0-6.5898 5.3633-11.961 11.961-11.961 6.5859 0 11.949 5.3711 11.949 11.961z"/>
 <path d="m1058.4 664.98h-76.887c-0.56641 0-1.0391 0.27344-1.5938 0.32422-6.3594-0.42969-12.758 2.1602-16.527 7.8477l-5.3008 7.9531c-3.1484-0.64062-6.3984-0.98438-9.7266-0.98438-26.82 0-48.633 21.824-48.633 48.633 0 26.82 21.812 48.633 48.633 48.633 26.809 0 48.621-21.812 48.621-48.633 0-10.02-3.0547-19.348-8.2773-27.102h51.352v90.895h-143.64l-68.809-63.438c1.6562-4.8984 2.7578-10.051 2.7578-15.496 0-26.82-21.812-48.621-48.621-48.621-26.82 0-48.633 21.805-48.633 48.621 0 26.809 21.812 48.633 48.633 48.633 7.8906 0 15.234-2.0664 21.824-5.4141l73.258 67.539c3.3906 3.1172 7.8281 4.8477 12.434 4.8477h169.14c10.125 0 18.332-8.2031 18.332-18.332v-127.57c-0.003906-10.125-8.207-18.34-18.332-18.34zm-110.04 75.723c-6.5898 0-11.949-5.3633-11.949-11.949 0-6.5898 5.3633-11.949 11.949-11.949 6.5898 0 11.949 5.3633 11.949 11.949 0.011719 6.5859-5.3516 11.949-11.949 11.949zm-178.57-27.102c0-6.5898 5.3633-11.949 11.961-11.949 6.5898 0 11.949 5.3711 11.949 11.949 0 6.6016-5.3711 11.961-11.949 11.961-6.6016 0.011719-11.961-5.3516-11.961-11.961z"/>
 <path d="m1084.7 543.8c-1.5625 0-3.043 0.31641-4.5742 0.46094l-22.539-46.891v-126.58c0-10.125-8.2031-18.332-18.332-18.332h-91.348c0.11719-0.82031 0.48438-1.543 0.48438-2.3906v-90.875c0-10.125-8.2031-18.34-18.34-18.34h-91.684v-53.426c0-10.125-8.2031-18.34-18.332-18.34h-119.2c-0.57812 0-1.0586 0.27344-1.6172 0.32422-8.8867-11.73-22.82-19.441-38.645-19.441-26.82 0-48.633 21.824-48.633 48.645 0 26.809 21.812 48.621 48.633 48.621 24.363 0 44.414-18.066 47.898-41.477h93.215v57.656c-13.828 8.582-23.125 23.785-23.125 41.215 0 26.82 21.812 48.633 48.621 48.633 26.82 0 48.633-21.812 48.633-48.633 0-10.031-3.0547-19.348-8.2773-27.102h44.172v72.543c0 0.85156 0.36719 1.5742 0.48438 2.3906h-24.414c-4.6367 0-9.1055 1.7539-12.508 4.9102l-64.422 60.016c-8.1406-6.1367-18.152-9.9141-29.105-9.9141-26.82 0-48.633 21.812-48.633 48.633 0 26.809 21.824 48.633 48.633 48.633 26.82 0 48.621-21.824 48.621-48.633 0-2.1211-0.35547-4.1445-0.61719-6.1914l65.254-60.781 125.91-0.003907v91.684h-53.059c-4.6289 0-9.0742 1.7422-12.477 4.8906l-33.965 31.488c-5.707-2.3516-11.93-3.6914-18.477-3.6914-26.82 0-48.633 21.824-48.633 48.633 0 26.82 21.812 48.621 48.633 48.621 26.809 0 48.621-21.805 48.621-48.621 0-6.8086-1.4375-13.293-3.9766-19.191l27.457-25.465h51.527l21.07 43.836c-7.1133 8.457-11.574 19.223-11.574 31.109 0 26.82 21.824 48.633 48.633 48.633 26.82 0 48.633-21.824 48.633-48.633 0-26.82-21.812-48.621-48.633-48.621zm-424.11-333.24c-6.6016 0-11.961-5.3633-11.961-11.949 0-6.6016 5.3633-11.961 11.961-11.961 6.5898 0 11.949 5.3633 11.949 11.961 0 6.5859-5.3633 11.949-11.949 11.949zm166.61 106.04c-6.5898 0-11.949-5.3633-11.949-11.961 0-6.5898 5.3633-11.949 11.949-11.949 6.6016 0 11.961 5.3633 11.961 11.949 0.003906 6.5977-5.3594 11.961-11.961 11.961zm-45.43 151.47c-6.6016 0-11.961-5.3633-11.961-11.961 0-6.5898 5.3633-11.949 11.961-11.949 6.5898 0 11.949 5.3633 11.949 11.949 0 6.5977-5.3594 11.961-11.949 11.961zm121.18 106.02c-6.6016 0-11.961-5.3633-11.961-11.949 0-6.6016 5.3633-11.961 11.961-11.961 6.5898 0 11.949 5.3633 11.949 11.961 0 6.5898-5.3594 11.949-11.949 11.949zm181.76 30.301c-6.6016 0-11.961-5.3711-11.961-11.961 0-6.6016 5.3633-11.949 11.961-11.949 6.5898 0 11.949 5.3633 11.949 11.949 0.015624 6.5898-5.3594 11.961-11.949 11.961z"/>
 <path d="m956.35 837.19c-26.82 0-48.633 21.812-48.633 48.621 0 14.363 6.3789 27.164 16.305 36.074l-6.3789 15.613-78.422 1.7422c-0.30469 0-0.54688 0.16797-0.85156 0.1875v-27.145c21.426-5.0781 37.469-24.258 37.469-47.207 0-26.82-21.824-48.633-48.633-48.633-26.82 0-48.633 21.812-48.633 48.633 0 17.438 9.3086 32.641 23.125 41.227v69.605h-99.887c-8.582-13.828-23.785-23.137-41.227-23.137-26.82 0-48.633 21.812-48.633 48.621 0 26.82 21.812 48.633 48.633 48.633 22.945 0 42.117-16.031 47.207-37.449h112.25c10.125 0 18.332-8.2148 18.332-18.34v-18.582c0.42969 0.03125 0.79687 0.24219 1.2383 0.24219h0.41797l90.434-2.0039c7.3008-0.16797 13.809-4.6367 16.578-11.395l11.562-28.277c25.75-1.2188 46.367-22.371 46.367-48.41 0.003906-26.809-21.797-48.621-48.617-48.621zm-295.76 176.17c-6.6016 0-11.961-5.3633-11.961-11.961 0-6.5898 5.3633-11.949 11.961-11.949 6.5898 0 11.949 5.3711 11.949 11.949 0 6.5977-5.3633 11.961-11.949 11.961zm166.61-160.24c6.6016 0 11.961 5.3633 11.961 11.949 0 6.6016-5.3633 11.961-11.961 11.961-6.5898 0-11.949-5.3633-11.949-11.961 0-6.5859 5.3633-11.949 11.949-11.949zm130.37 44.414c-0.99609-0.66016-1.8164-1.5-2.957-1.9727-2.1914-0.89062-4.4492-1.2383-6.6836-1.2695-2.1836-2.1602-3.5352-5.1641-3.5352-8.4766 0-6.5898 5.3633-11.949 11.961-11.949 6.5898 0 11.949 5.3633 11.949 11.949-0.003906 6.168-4.7461 11.082-10.734 11.719z"/>
 <path d="m618.34 693.52v190.71c0 10.125 8.2031 18.332 18.332 18.332h29.66c8.3828 14.68 24.008 24.719 42.086 24.719 26.82 0 48.621-21.824 48.621-48.633 0-26.82-21.812-48.633-48.621-48.633-22.379 0-41.078 15.277-46.723 35.883h-6.6836v-166.12l32.871-42.734c6.1797-8.0273 4.668-19.547-3.3477-25.719-8.0391-6.1797-19.559-4.6914-25.719 3.3477l-36.672 47.676c-2.4727 3.1992-3.8047 7.1367-3.8047 11.176zm90.078 173.16c6.5898 0 11.949 5.3633 11.949 11.949 0 6.6016-5.3633 11.961-11.949 11.961-6.6016 0-11.961-5.3633-11.961-11.961 0-6.5859 5.3594-11.949 11.961-11.949z"/>
</svg>
