<?xml version="1.0" encoding="UTF-8"?>
<svg width="1200pt" height="1200pt" version="1.1" viewBox="0 0 1200 1200" xmlns="http://www.w3.org/2000/svg">
 <defs>
  <clipPath id="a">
   <path d="m222.14 312h755.71v576h-755.71z"/>
  </clipPath>
 </defs>
 <g clip-path="url(#a)">
  <path d="m405.05 886.98c-5.0977-0.55078-10.285-2.4531-14.527-5.3242-7.9688-5.3945-13.195-14.508-13.727-23.941-0.070313-1.2383-0.14062-2.0742-0.15234-1.8594-0.039063 0.58203-0.50781 1.6211-0.94531 2.0977-0.48047 0.52344-15.316 11.68-16.008 12.039-1.9453 1.0078-4.4258-0.007813-5.168-2.1133-0.21094-0.59766-0.26562-1.5938-0.26562-4.7227l-0.003906-3.9648h-53.223v-7.4531h53.195l0.058594-4.2031c0.054688-3.9062 0.082031-4.2539 0.42969-4.8984 0.46484-0.86719 0.81641-1.1875 1.7969-1.6328 0.87891-0.39844 1.9219-0.45703 2.7852-0.15625 0.32422 0.11328 4.1484 2.875 8.5 6.1406 7.4766 5.6094 7.9375 5.9883 8.3672 6.8516 0.25 0.50391 0.46875 1.0742 0.48438 1.2695 0.015625 0.19531 0.085938-0.65625 0.15625-1.8984 0.59766-10.312 6.6992-19.949 15.969-25.223 4.9688-2.8281 9.5-3.9883 15.574-3.9883 3.4492 0 4.9922 0.17188 7.6484 0.84766 1.375 0.35156 1.8633 0.35156 0.69141 0-0.39062-0.11719-0.71094-0.28516-0.71094-0.37109 0-0.12891 11.625-31.293 24.551-65.816 1.0859-2.8945 1.9375-5.3164 1.8984-5.3828-0.039063-0.0625-2.8438-1.9805-6.2305-4.2578l-6.1562-4.1406 0.37109-0.53125c0.20703-0.29297-0.43359 0.30859-1.418 1.332-5.4297 5.6602-11.879 8.9453-19.32 9.8477-2.4961 0.30469-7.8594 0.11328-10.055-0.35547-12.594-2.6914-21.984-12.105-24.766-24.816-0.35156-1.6094-0.39453-2.2695-0.39453-6.2188 0-3.9531 0.042969-4.6133 0.39453-6.2188 1.8125-8.2812 6.3398-15.125 13.121-19.82 2.125-1.4688 5.6094-3.2031 8.1172-4.0312 6.1992-2.0508 13.809-1.9961 19.969 0.14063 1.9062 0.66016 1.9336 0.66797 1.4297 0.375-0.26172-0.15234-0.47656-0.32422-0.47656-0.37891 0-0.09375 10.523-20.801 19.789-38.938 2.1797-4.2656 3.9648-7.8242 3.9648-7.9023 0-0.078126-3.7109-5.0898-8.2461-11.137l-8.2461-10.996 0.41797-0.34766c0.23047-0.19141 0.64453-0.52734 0.92188-0.74609s0.13281-0.15625-0.32422 0.14062c-1.0938 0.71484-4.2734 2.293-5.6797 2.8203-3.5781 1.3438-6.375 1.875-10.484 1.9844-3.6055 0.09375-5.8711-0.13672-8.8438-0.91016-5.5273-1.4375-11.062-4.6914-14.855-8.7383-5.1797-5.5273-8.2109-12.387-8.625-19.516-0.070313-1.2383-0.14062-2.0938-0.15625-1.8984-0.015625 0.19531-0.22266 0.75391-0.46484 1.2383-0.41016 0.82031-0.97656 1.2852-8.2109 6.7109-4.2734 3.207-8.1094 5.9961-8.5195 6.1953-1.5664 0.75781-3.6914 0.046875-4.6289-1.543l-0.48047-0.82031-0.10938-8.5781-26.598-0.003906h-26.602v-7.2812h53.195l0.058594-4.2891c0.0625-4.7969 0.074219-4.8438 1.332-5.9844 1.0156-0.91797 2.2891-1.207 3.5078-0.79688 0.62891 0.21094 15.68 11.383 16.52 12.262 0.27344 0.28906 0.63672 0.92188 0.80078 1.4102l0.30078 0.88672 0.097656-2.2188c0.34375-7.8281 4.3555-15.895 10.664-21.434 4.5781-4.0234 10.129-6.5664 16.332-7.4844 2.4922-0.37109 7.7773-0.28125 10.055 0.16797 1.5469 0.30469 4.2305 1.0078 5.1133 1.3398 1.0742 0.40234 3.9766 1.7617 4.9961 2.3398 0.73047 0.41406 0.96094 0.49219 0.74609 0.25-0.33984-0.375-1.3125 0.96094 17.027-23.352l3.1445-4.168-21.703-44.578-1.8281 0.91797c-3.3945 1.7031-6.9766 2.7969-10.488 3.2031-1.0625 0.125-3.0586 0.17188-5.0625 0.12109-2.7734-0.070312-3.6406-0.16016-5.3672-0.55469-9.3242-2.1328-16.707-7.6953-21.305-16.047-1.5-2.7266-2.6875-6.3047-3.2891-9.9297-0.20312-1.2188-0.41406-2.1914-0.46484-2.168-0.054687 0.027343-3.5508 2.6406-7.7695 5.8086s-7.9648 5.8867-8.3203 6.0391c-1.3125 0.55859-3.293 0.042968-4.1484-1.0742-0.82812-1.082-0.90625-1.6016-0.91406-5.8281l-0.007812-3.9453h-53.223v-7.457h53.223v-3.957c0-4.6211 0.10938-5.1562 1.2891-6.2461 0.91016-0.83984 2.2539-1.1992 3.3633-0.90234 0.82422 0.22266 1.2969 0.55859 9.9297 7.0469l6.6992 5.0312 0.21484-1.5703c1.7539-12.82 11.051-23.184 23.664-26.371 5.6875-1.4375 11.988-1.2109 17.512 0.62891 2.1875 0.73047 5.125 2.0586 6.5898 2.9766 2.7539 1.7305 5.9258 4.4883 8.1211 7.0625 0.62109 0.72656 0.71094 0.79297 0.37891 0.27734-0.24219-0.37109-0.4375-0.73047-0.4375-0.79688s2.1055-1.5078 4.6797-3.1992c2.5742-1.6914 4.6797-3.1133 4.6797-3.1562s-5.8516-15.488-13.004-34.32c-7.1523-18.836-13.004-34.309-13.004-34.391 0-0.082032 0.21484-0.23438 0.47656-0.33594 0.42969-0.17188 0.43359-0.17969 0.042968-0.09375-4.0391 0.88672-3.7188 0.85547-8.4102 0.85156-4.3242-0.003906-4.5938-0.023437-6.5664-0.48828-13.203-3.1055-22.586-13.086-24.645-26.215-0.41797-2.6602-0.28125-8.6133 0.25391-11.086 2.6133-12.066 11.469-21.281 23.328-24.277 5.6875-1.4375 11.988-1.2109 17.512 0.62891 2.1914 0.73047 5.1289 2.0586 6.5898 2.9766 8.2617 5.207 13.609 13.398 14.906 22.84 0.125 0.90625 0.23438 1.3945 0.24609 1.082l0.023438-0.55469h128.98l0.023437 0.99609c0.019532 0.89453 0.039063 0.83984 0.16797-0.51562 0.4375-4.5547 2.2773-9.8789 4.7461-13.758 2.3164-3.6406 5.5547-6.9062 9.5156-9.6016 2.5547-1.7383 6.9258-3.5469 10.453-4.3281 14.191-3.1367 28.855 3.9766 35.168 17.062 1.5625 3.2422 2.6172 6.8359 3 10.23 0.10547 0.94531 0.16406 1.1523 0.17969 0.64844l0.027344-0.73438h132.6l0.070313 0.47656c0.054687 0.37109 0.078125 0.32812 0.097656-0.19531 0.042969-1.1016 0.84766-4.8125 1.4258-6.5508 0.70703-2.1328 2.4805-5.7617 3.7227-7.6016 4.8164-7.1562 12.074-11.918 20.664-13.562 1.707-0.32812 2.6289-0.39062 5.5977-0.39062 3.8086 0 4.875 0.12891 8.1445 0.96484 10.18 2.6094 18.535 10.469 21.914 20.613 1.2109 3.6328 1.3945 4.9375 1.3984 9.8828 0.003906 3.9727-0.035157 4.6055-0.39453 6.2422-1.8516 8.4844-6.5664 15.488-13.555 20.145-3.2734 2.1836-6.543 3.5625-10.836 4.5781-1.6445 0.39062-2.4219 0.46484-5.6406 0.53906-3.9883 0.09375-6.0898-0.10156-8.8125-0.83203-1.3438-0.35938-1.9102-0.36328-0.71484-0.003906 0.38281 0.11328 0.69531 0.27734 0.69531 0.35938 0 0.10547-24.027 63.516-26.09 68.852-0.082031 0.21484 0.94922 0.95703 4.582 3.293 2.5781 1.6602 4.6875 3.0781 4.6914 3.1562 0 0.078125-0.23438 0.48828-0.52734 0.91016-0.75391 1.0938-0.51562 0.94922 0.37109-0.23047 1.0781-1.4297 3.3281-3.7305 4.8359-4.9492 5.3242-4.2969 11.902-6.7578 18.746-7.0117 6.957-0.25781 13.082 1.4766 18.898 5.3516 2.6094 1.7383 6.3594 5.3867 8.1758 7.9492 2.2773 3.2148 4.2656 7.8086 5.168 11.918 0.57422 2.6172 0.66797 8.5664 0.18359 11.402-1.7305 10.121-7.8867 18.531-16.867 23.043-5.2383 2.6289-9.2734 3.5156-15.273 3.3516-3.5469-0.097656-5.6094-0.43359-8.7305-1.4258-1.0312-0.32812-1.9141-0.55859-1.957-0.51562-0.042968 0.042969-0.007812 0.078125 0.082032 0.082031 0.76172 0.011719 0.60156 0.35547-10.852 23.043l-11.477 22.742 0.96094 1.25c0.52734 0.6875 4.707 6.0469 9.2812 11.91l8.3203 10.664-0.64062 0.57031c-0.52344 0.46484-0.37109 0.40625 0.83203-0.33594 2.832-1.7383 6.5391-3.1836 10.25-3.9922 1.6055-0.35156 2.2656-0.39062 6.1328-0.38672 4.0508 0.003906 4.4648 0.035156 6.3398 0.46094 4.3281 0.98828 7.8359 2.4766 11.273 4.7852 6.8203 4.582 11.543 11.641 13.363 19.973 0.35547 1.6211 0.39453 2.2734 0.39453 6.2305 0 3.9531-0.042969 4.6133-0.39453 6.2422-1.1719 5.3984-3.4531 10.062-7.0195 14.34-4.3711 5.2461-10.895 9.0469-17.98 10.484-1.7617 0.35547-2.457 0.40234-6.1484 0.39062-3.6367-0.007812-4.3867-0.058594-5.9609-0.39844-3.4062-0.73437-6.9531-2.0586-9.7578-3.6445-0.71484-0.40234-1.0586-0.54297-0.78906-0.31641l0.48047 0.40234-18.438 24.375 0.69922 1.3242c0.38281 0.73047 5.6289 10.832 11.656 22.453 11.039 21.277 11.105 21.418 10.281 21.43-0.11328 0-0.24609 0.066406-0.29688 0.14453-0.046875 0.078125 0.90234-0.19141 2.1133-0.59766 3.5547-1.1992 5.1328-1.4648 9.3086-1.5703 3.3711-0.085937 3.8242-0.058593 6.1562 0.35156 6.5 1.1484 12.359 4.1484 16.805 8.6094 2.8203 2.8281 4.4609 5.1055 6.1875 8.582 1.3086 2.6328 2.1758 5.1953 2.6875 7.9297 0.20312 1.0742 0.39453 2.0508 0.42969 2.1719 0.050782 0.17188 5.4297 0.21484 26.16 0.21484l26.102 0.007812v-8.2578l0.47656-0.94141c0.86328-1.7031 2.9258-2.4961 4.582-1.7656 0.8125 0.35938 15.695 11.445 16.41 12.223 0.22266 0.24219 0.51172 0.74219 0.64062 1.1055 0.20312 0.56641 0.23828-8.5391 0.24609-60.926l0.007812-61.59-7.6055 5.707c-4.1836 3.1406-7.9258 5.8711-8.3164 6.0703-0.89453 0.45703-1.9688 0.45703-2.9727 0-1.0508-0.47656-1.3672-0.78906-1.8477-1.8086-0.39062-0.83203-0.40625-1.0273-0.41016-4.9844l0.003907-4.1094h-53.227v-7.2812h53.227v-4.125c0-4.1172 0-4.1289 0.45703-5.0469 0.77734-1.5625 2.6484-2.4141 4.25-1.9336 0.43359 0.12891 3.4922 2.3047 8.3477 5.9414 4.2148 3.1523 7.7578 5.8125 7.8789 5.9062 0.17188 0.13672 0.21484-12.176 0.21094-61.441-0.007812-52.402-0.042969-61.512-0.24609-60.945-0.12891 0.36719-0.41797 0.86328-0.64062 1.1055-0.60547 0.66016-15.418 11.746-16.281 12.188-1.5352 0.78516-3.5781 0.15234-4.6211-1.4258l-0.47656-0.72266-0.10938-8.6094-26.605 0.003907h-26.602v-7.4531h53.227l0.003907-4.1172c0.003906-3.6211 0.042968-4.1992 0.32031-4.8125 0.36328-0.79688 1.082-1.5586 1.8281-1.9453 0.78125-0.40234 2.5156-0.36719 3.2539 0.070313 1.293 0.76172 15.887 11.84 16.215 12.305 0.19141 0.26953 0.42969 0.72656 0.53125 1.0117 0.13281 0.37109 0.1875-17.652 0.19141-62.152 0.003907-53.426-0.027343-62.574-0.23438-62.004-0.13281 0.36719-0.46094 0.90625-0.73047 1.1953-0.73438 0.78516-15.629 11.926-16.344 12.223-0.89453 0.375-2.4492 0.19922-3.3125-0.375-0.375-0.24609-0.89453-0.77344-1.1602-1.1719l-0.47656-0.72266-0.10938-8.6094h-53.203v-7.4531h53.227l0.003907-4.1172c0.003906-3.6211 0.042968-4.1992 0.32031-4.8125 0.36328-0.79688 1.082-1.5586 1.8281-1.9453 0.78125-0.40234 2.5156-0.36719 3.2539 0.070312 1.293 0.76172 15.887 11.84 16.215 12.305 0.19141 0.26953 0.42969 0.72656 0.53125 1.0117 0.13281 0.37891 0.1875-2.7773 0.19922-11.484l0.011718-12.008h75.414v567.27h-75.414l-0.085937-28.758-7.8359 5.875c-8.5078 6.3789-8.6133 6.4414-10.195 6.0781-1.2188-0.28125-2.0742-0.93359-2.5938-1.9727-0.43359-0.86719-0.4375-0.9375-0.4375-5.0078l-0.003906-4.1289h-53.227v-7.4531h53.203l0.10938-8.6094 0.47656-0.72266c0.26172-0.39844 0.78516-0.92578 1.1602-1.1719 0.86719-0.57422 2.4219-0.75 3.3203-0.375 0.33984 0.14062 4.1055 2.875 8.3633 6.0703l7.7461 5.8086-0.007812-63.996c-0.007812-54.422-0.042969-63.898-0.24609-63.332-0.12891 0.36719-0.41797 0.86328-0.64062 1.1055-0.60547 0.66016-15.418 11.746-16.281 12.188-0.89453 0.45703-2.1484 0.39844-3.2148-0.14844-0.83984-0.42969-1.168-0.78516-1.6133-1.7695-0.32031-0.71094-0.35156-1.1289-0.35547-4.8945l-0.007813-4.1133h-26.098c-20.73 0-26.109 0.042969-26.16 0.21484-0.035156 0.12109-0.22266 1.082-0.42187 2.1367-2.3516 12.559-12.262 22.488-25.02 25.074-1.7344 0.35156-2.4492 0.39844-6.125 0.39062-4.7188-0.007812-6.0586-0.21094-9.8555-1.4727-5.0703-1.6875-9.0859-4.25-12.973-8.2812-1.0742-1.1133-1.7812-1.7852-1.5781-1.4883l0.375 0.53516-5.6445 3.7891c-3.1055 2.0859-5.6797 3.8828-5.7188 3.9922-0.0625 0.15625 10.602 27.973 26.309 68.625 0.66016 1.7031 1.1953 3.168 1.1953 3.2578 0 0.085937-0.17578 0.23828-0.39062 0.33203-0.375 0.16406-0.37109 0.16797 0.042969 0.074219 3.2383-0.73438 3.8711-0.80859 7.4922-0.89844 4.1836-0.10547 5.4219 0.015625 8.7188 0.83984 10.215 2.5547 18.746 10.484 22.09 20.527 1.293 3.8867 1.4805 5.1445 1.4844 9.9609 0.003907 3.7305-0.042969 4.4805-0.38672 6.1797-2.3047 11.367-10.441 20.555-21.281 24.035-12.332 3.957-25.773 0.070312-34.043-9.8438-2.8594-3.4297-4.8945-7.3086-6.168-11.742-0.47656-1.6602-0.94922-4.1602-0.99219-5.2461-0.027344-0.64063-0.035157-0.65234-0.097657-0.12891l-0.070312 0.5625-65.949-0.011719h-65.957v-7.4531h131.94l0.019531 0.5625c0.011719 0.30859 0.12109-0.20703 0.25-1.1523 0.44531-3.2812 1.5234-6.7461 3.0352-9.7734 0.46484-0.92969 0.69141-1.4922 0.50781-1.2539-0.18359 0.23828-0.33984 0.49219-0.33984 0.5625-0.003906 0.070312-0.089844 0.12891-0.19531 0.12891-0.10547 0-5.8984-3.8359-12.871-8.5273-19.207-12.914-21.488-14.449-36.172-24.324-7.4844-5.0352-15.105-10.164-16.938-11.395l-3.3281-2.2383-21.465 14.441c-11.805 7.9453-24.371 16.395-27.922 18.777-3.5547 2.3828-9.4727 6.3594-13.152 8.8359-7.4453 5.0078-6.6562 4.6562-7.5586 3.375-0.16406-0.23438 0.042969 0.23828 0.46484 1.0508 1.6875 3.25 2.9609 7.2969 3.3945 10.805 0.30859 2.4844 0.13281 7.4922-0.34766 9.9141-0.76953 3.8633-2.457 8-4.6172 11.324-4.8945 7.5195-12.848 12.594-21.82 13.914-6.4023 0.94141-12.902-0.070312-18.555-2.8945-7.6094-3.7969-13.379-10.414-16.016-18.355-1.2734-3.832-1.6641-6.6719-1.5352-11.156 0.13281-4.7188 0.99609-8.3086 3-12.512 0.60547-1.2656 0.80469-1.8086 0.54297-1.4883-0.28516 0.35156-0.48438 0.46094-0.65625 0.35938-0.13672-0.082031-4.1445-2.7734-8.9141-5.9805-20.406-13.734-36.223-24.379-40.828-27.473-2.7188-1.8281-8.0234-5.3945-11.793-7.9258l-6.8516-4.6055-13.953 9.5039c-7.6719 5.2266-16.176 11.02-18.891 12.871-2.7188 1.8516-11.301 7.6914-19.07 12.984-7.7695 5.293-14.473 9.8438-14.887 10.121l-0.75781 0.5-0.43359-0.51562c-0.42969-0.51172-0.42969-0.51172 0.035156 0.35156 1.832 3.3867 3.2148 7.9883 3.6172 12.051 0.054687 0.55859 0.0625 0.55078 0.089843-0.12891l0.011719-0.73828h129.51v7.4531l-64.754 0.003906h-64.754l-0.027343-0.64844c-0.023438-0.55859-0.035157-0.57812-0.085938-0.12891-0.84375 7.2617-3.4766 13.211-8.1406 18.371-4.9648 5.5-11.816 9.0703-19.312 10.07-1.6523 0.21875-5.7617 0.29297-7.2812 0.12891zm7.1211-8.8203c4.6914-0.78906 9.3828-3.3203 12.762-6.8945 7.5742-8.0078 8.4062-20.258 1.9805-29.152-4.7773-6.6094-12.641-10.195-20.715-9.4453-3.4648 0.32422-6.5312 1.3047-9.4297 3.0156-2.1719 1.2852-3.3438 2.2188-5.0977 4.0625-4.6289 4.8633-6.8828 11.375-6.2148 17.973 1.0742 10.652 8.9961 18.906 19.77 20.602 1.2031 0.1875 5.4531 0.09375 6.9492-0.16016zm194.29-0.3125c6.6094-1.6562 11.781-5.6953 15.016-11.723 2.5742-4.793 3.2617-10.949 1.8438-16.469-2.0586-8.0039-8.7383-14.523-16.887-16.48-4.207-1.0078-9.2109-0.71484-13.164 0.77344-7.0664 2.6602-12.504 8.6211-14.324 15.707-0.78516 3.0469-0.94922 6.75-0.4375 9.7305 1.625 9.4648 9.2422 17.129 18.652 18.781 2.3359 0.41016 7.0312 0.24609 9.2969-0.32031zm195.09 0.074219c4.4141-1.1133 7.9219-3.0781 11.031-6.1758 6.3906-6.3672 8.4102-15.703 5.2695-24.371-1.9492-5.3789-6.6484-10.383-12.016-12.789-2.4922-1.1172-4.6602-1.6758-7.4883-1.9219-12.156-1.0664-22.957 7.582-24.715 19.785-0.26953 1.8633-0.125 5.9648 0.26953 7.7812 0.97266 4.4688 3.2383 8.5391 6.543 11.77 3.207 3.1328 7.6133 5.4062 11.941 6.1641 2.1875 0.38281 7.2188 0.25 9.1641-0.24219zm167.65-274.45v-274.96h-58.078v549.93h58.078zm-389.84 229.12c0.82031-0.80078 1.0898-1.1328 0.65234-0.80078-0.63672 0.48438-0.78516 0.53516-0.98047 0.33203-0.125-0.13281-6.5-8.6289-14.16-18.879-7.6641-10.25-17.473-23.375-21.801-29.16l-7.8672-10.523-3.3984 2.3125c-1.8711 1.2734-5.2148 3.5508-7.4297 5.0625-2.2148 1.5117-5.4102 3.6875-7.0938 4.832-1.6875 1.1445-3.8359 2.6133-4.7812 3.2656l-1.7188 1.1836 4.9961 3.375c2.75 1.8555 17.613 11.855 33.031 22.219 15.418 10.363 28.039 18.918 28.043 19.004 0.003906 0.085938-0.19922 0.4375-0.44922 0.78125s-0.003907 0.11719 0.54687-0.50391c0.55078-0.62109 1.6328-1.7461 2.4062-2.5zm46.488 2.9609c-0.24219-0.32031-0.4375-0.65234-0.4375-0.73828 0.003906-0.085937 5.9922-4.1758 13.305-9.0898 37.996-25.516 53.242-35.809 53.211-35.918-0.046875-0.14844-24.059-16.312-24.121-16.234-0.76172 1.0391-44.348 58.641-44.496 58.809-0.078126 0.085937-0.47266-0.10938-0.88672-0.43359-0.41016-0.32422-0.046875 0.11719 0.8125 0.97266 0.85938 0.85938 1.8633 1.9297 2.2305 2.3828 0.76172 0.9375 1.0469 1.1211 0.37891 0.24219zm147.89-2.0078c1.043-1.0898 1.5977-1.7617 1.2344-1.4883-0.5625 0.41797-0.69141 0.45703-0.88281 0.24609-0.125-0.13281-7.8594-10.309-17.191-22.609s-19.277-25.406-22.102-29.125c-2.8242-3.7188-5.2305-6.7617-5.3477-6.7617-0.11719 0-5.5469 3.5898-12.066 7.9766-9.1719 6.168-11.809 8.0234-11.648 8.1797 0.11328 0.11328 7.0312 4.7969 15.375 10.41 8.3438 5.6133 21.762 14.641 29.82 20.062s16.113 10.84 17.898 12.039c1.7891 1.1992 3.25 2.2461 3.25 2.3281 0 0.082031-0.16797 0.39453-0.375 0.69531-0.42578 0.625-0.48828 0.68359 2.0352-1.9531zm-340.94 1.7227c-0.20312-0.28516-0.32812-0.58984-0.27344-0.67188 0.050781-0.085937 1.6367-1.2031 3.5234-2.4883 17.051-11.613 41.465-28.234 50.324-34.258 5.9609-4.0508 10.895-7.418 10.969-7.4805s-2.582-1.9375-5.8945-4.168-8.6719-5.8398-11.902-8.0234c-5.6641-3.8242-5.8867-3.957-6.1797-3.6484-0.29688 0.30469-4 5.2695-30.648 41.059-6.8164 9.1523-12.418 16.672-12.449 16.711-0.03125 0.039062-0.35156-0.15625-0.71094-0.42578-0.35938-0.26953 0.28125 0.49219 1.4258 1.6992 1.1445 1.207 2.1055 2.1992 2.1367 2.2031s-0.10938-0.22656-0.3125-0.51172zm185.77-6.2422c-0.058594-0.09375-0.27734-0.25781-0.48828-0.35938-0.32812-0.16016-0.32031-0.13672 0.054688 0.16797 0.48438 0.39844 0.58984 0.44141 0.43359 0.19141zm-193.22-0.25781c0-0.042969-0.17578-0.16406-0.39062-0.26953-0.375-0.17969-0.375-0.17969-0.054687 0.082032 0.35547 0.28516 0.44531 0.32031 0.44531 0.1875zm160.02-0.72266c0-0.125-1.0117 0.44141-1.125 0.62891-0.058593 0.097656 0.16797 0.011718 0.50781-0.1875 0.33984-0.19922 0.61719-0.39844 0.61719-0.4375zm194.69 0.35547c0-0.046875-0.15625-0.003906-0.34766 0.097656-0.19141 0.10156-0.34766 0.22266-0.34766 0.27344 0 0.046875 0.15625 0.003906 0.34766-0.097656 0.19141-0.10156 0.34766-0.22266 0.34766-0.27344zm-162.45 0.019531c0-0.042969-0.17578-0.16406-0.39062-0.26953-0.375-0.17969-0.375-0.17969-0.054687 0.082031 0.35547 0.28516 0.44531 0.32031 0.44531 0.1875zm-7.9453-3.5078c-0.55078-0.19531-0.73047-0.33984-0.67188-0.55078 0.046875-0.15625 6.2148-16.43 13.715-36.16 7.4961-19.73 13.566-35.918 13.488-35.973s-2.5-1.6875-5.3789-3.6289c-2.8789-1.9414-5.2773-3.6016-5.332-3.6836-0.050781-0.085937 0.074219-0.40625 0.28125-0.71875 0.20703-0.30859-0.039062-0.097656-0.55078 0.46875-5.5508 6.1602-12.02 9.6992-19.688 10.766-2.8203 0.39453-7.8867 0.27344-10.465-0.24609-6.9414-1.4023-12.762-4.7734-17.836-10.34-0.60938-0.66797-0.89062-0.91406-0.625-0.54687 0.26562 0.36719 0.41406 0.72656 0.33203 0.80469-0.082031 0.074219-2.5312 1.7539-5.4375 3.7266-4.2734 2.9023-5.2852 3.6602-5.2734 3.9648 0.007812 0.20703 6.1172 16.438 13.582 36.07 13.859 36.469 13.688 35.98 12.859 35.992-0.13672 0-0.20312 0.046875-0.14844 0.097657 0.054688 0.054687 0.58984-0.03125 1.1914-0.1875 2.2305-0.57813 4.0547-0.76953 7.3516-0.77344 3.3906-0.003906 5.2773 0.20312 7.6289 0.83594 1.4805 0.39844 2.0039 0.44141 0.98047 0.078124zm-29.566-4.168c-0.23047-0.45312-6.6758-13.695-14.324-29.43-7.6484-15.734-13.973-28.672-14.047-28.754-0.14453-0.15234-10.227 6.5977-10.227 6.8477 0 0.16016 38.848 52.16 38.965 52.16 0.027344 0-0.14062-0.37109-0.36719-0.82422zm57.91-20.094c7.8047-10.312 16.32-21.57 18.93-25.02s4.7148-6.2891 4.6797-6.3164c-0.79297-0.60547-9.5273-6.3828-9.5742-6.332-0.070312 0.070313-25.27 49.965-27.578 54.598-0.64062 1.2891-1.0469 2.2227-0.90234 2.082 0.14453-0.14453 6.6445-8.6992 14.449-19.012zm-189.14-5.7852c10.09-13.543 18.371-24.691 18.398-24.773 0.058594-0.17188-9.1055-6.3633-9.2305-6.2383-0.21875 0.21875-27.691 55.633-27.582 55.633 0.035156 0 8.3203-11.078 18.41-24.621zm324.37 23.625c-0.375-0.74219-6.4492-12.59-22.703-44.293-3.0664-5.9805-5.6367-10.859-5.7109-10.836-0.074219 0.023437-2.1523 1.4023-4.6211 3.0664l-4.4883 3.0234 2.7148 3.5742c1.4922 1.9648 10.008 13.184 18.926 24.93 8.9141 11.746 16.23 21.355 16.258 21.359 0.027344 0-0.14062-0.36719-0.37109-0.82031zm-12.344-44.699c-3.4883-9.0469-6.3984-16.547-6.4648-16.668-0.085937-0.15234-0.58594 0.10547-1.6992 0.87109l-1.5781 1.0898 7.9961 15.617c4.3984 8.5898 8.0195 15.602 8.043 15.578 0.023437-0.023437-2.8086-7.4414-6.2969-16.492zm-121.58-2.1562 6.5039-12.914-1.4492-0.99609c-0.79687-0.54688-1.5117-0.99609-1.5938-0.99609-0.10937 0-11.941 30.867-12.293 32.074-0.16797 0.58203 2.6562-4.9141 8.8242-17.164zm-194.68 2.3984 7.1953-14.508-1.4453-0.96094c-0.79688-0.52734-1.4844-0.90234-1.5273-0.82812-0.0625 0.10156-10.926 29.086-11.492 30.668-0.0625 0.16797-0.070312 0.26953-0.019531 0.22266 0.050781-0.046874 3.332-6.6133 7.2891-14.594zm68.906 5.2852c5.1289-3.5 11.051-7.5352 13.156-8.9727 2.1055-1.4336 3.8516-2.6758 3.8828-2.7617 0.054688-0.14844-25.836-34.941-26.004-34.941-0.11328 0-26.383 35.277-26.414 35.465-0.023438 0.14062 25.68 17.547 25.93 17.562 0.066406 0.003907 4.3203-2.8555 9.4492-6.3555zm198.31-2.7734c7.1914-4.832 13.074-8.832 13.074-8.8867 0-0.15234-26.074-34.449-26.246-34.527-0.085938-0.039063-0.86719 0.86719-1.7422 2.0117-3.5156 4.6055-24.293 32.062-24.41 32.258-0.085937 0.14062 3.707 2.7891 11.695 8.1602 6.5039 4.375 12.41 8.3555 13.129 8.8516 0.71875 0.49609 1.332 0.90625 1.3633 0.91016s5.9414-3.9453 13.133-8.7812zm-147.99-8.7305c-2.1875-5.7656-4.0156-10.582-4.0625-10.703-0.10547-0.27344-1.8477 0.8125-1.7812 1.1133 0.0625 0.28906 9.7266 20.168 9.7812 20.117 0.023438-0.023437-1.7461-4.7617-3.9336-10.527zm-87.941-9.2305c2.2148-2.9766 8.2383-11.07 13.391-17.98 5.1523-6.9141 9.3672-12.629 9.3672-12.699 0-0.070312-5.1211-0.10938-11.379-0.085937l-11.383 0.042969-6.3281 12.656c-3.4805 6.9609-6.7383 13.523-7.2383 14.586l-0.91406 1.9297 5.1406 3.4805c2.8281 1.9141 5.1797 3.4805 5.2305 3.4805 0.046875 0 1.8984-2.4336 4.1133-5.4102zm260.58 1.375c2.6953-1.8125 4.8984-3.3633 4.8984-3.4453 0-0.17578-14.352-28.203-14.605-28.523-0.13672-0.16797-2.6172-0.21484-11.352-0.21484-9.8281 0-11.168 0.03125-11.082 0.25781 0.078125 0.19922 23.957 31.762 26.332 34.809 0.29297 0.375 0.59375 0.60156 0.71094 0.53516 0.10938-0.0625 2.4062-1.5977 5.0977-3.4141zm-193.86-0.47266c3.0898-2.1055 5.6211-3.9062 5.6211-4 0-0.20313-12.887-26.73-13.27-27.316l-0.26172-0.39453h-12.133c-6.6719 0-12.133 0.058594-12.133 0.12891 0 0.16016 26.348 35.41 26.469 35.41 0.046875 0 2.6133-1.7227 5.707-3.8242zm137-13.844c7.3594-9.7188 13.379-17.715 13.379-17.77 0-0.054687-5.2227-0.097656-11.605-0.097656h-11.605l-3.0195 5.9375c-1.6602 3.2656-4.8984 9.6641-7.1953 14.215l-4.1758 8.2773 5.2344 3.5391c2.8789 1.9453 5.3203 3.5469 5.4219 3.5547 0.10156 0.007812 6.207-7.9336 13.566-17.652zm-218.27-5.2695c3.3672-6.7852 6.1172-12.398 6.1094-12.473-0.003906-0.074219-1.6914-0.11328-3.75-0.085938l-3.7383 0.046876-4.1484 11.086c-2.2812 6.0977-4.1484 11.188-4.1484 11.309 0 0.19531 3.2383 2.5039 3.4648 2.4688 0.046874-0.007813 2.8438-5.5664 6.207-12.352zm288.47 10.598 1.7734-1.1836-0.33984-0.91016c-0.1875-0.5-2.0859-5.4336-4.2188-10.965l-3.8789-10.055-4.0273-0.046875c-2.2148-0.027344-4 0.019532-3.9688 0.10156s2.8633 5.6172 6.2891 12.301c3.707 7.2305 6.3047 12.113 6.4141 12.047 0.10156-0.058594 0.98047-0.64062 1.957-1.293zm-94.605-10.914c3.2852-6.4961 6-11.922 6.0312-12.051 0.046876-0.19922-0.59375-0.23047-3.8125-0.19141l-3.8711 0.046876-8.1797 21.555 1.7461 1.2148c0.96094 0.66797 1.8281 1.2188 1.9258 1.2266 0.097656 0.007813 2.8672-5.3008 6.1562-11.801zm-99.305 10.391c0.54688-0.36719 0.99609-0.72656 0.99219-0.79297 0-0.066406-1.8555-5-4.125-10.961l-4.1211-10.836-2.7461-0.046875c-2.375-0.042968-2.7305-0.011718-2.6445 0.21094 0.57812 1.5039 11.34 23.27 11.469 23.195 0.09375-0.054687 0.62109-0.40234 1.1719-0.76953zm-145.59-3.8008c2.2969-0.45703 3.9883-1.043 5.9609-2.0703 6.3047-3.2852 10.609-8.9531 12.102-15.934 0.23828-1.1055 0.31641-2.2305 0.31641-4.5078 0-3.2695-0.22266-4.7734-1.0703-7.2812-2.1211-6.2578-6.8867-11.387-12.895-13.875-5.1133-2.1211-10.996-2.3477-16.066-0.625-7.9102 2.6914-13.617 9.125-15.316 17.281-0.48438 2.3203-0.52734 6.0664-0.097657 8.4805 1.6055 9.0273 8.4609 16.281 17.387 18.402 2.8398 0.67578 6.6836 0.72656 9.6758 0.13281zm194.68 0.089844c7.0625-1.1094 13.418-5.8594 16.629-12.426 1.5-3.0664 2.1133-5.3008 2.3359-8.4883 0.73828-10.578-5.6055-20.09-15.637-23.445-2.457-0.82031-4.4609-1.1367-7.2227-1.1367-1.3594 0-2.9961 0.11328-3.9023 0.27344-10.344 1.8164-18.246 10.496-18.953 20.816-0.53516 7.8086 2.5586 14.961 8.5508 19.758 5.1602 4.1328 11.379 5.7227 18.195 4.6523zm193.66 0.20703c4.5-0.26172 9.7461-2.6445 13.422-6.1016 6.9062-6.4961 9.0938-16.672 5.4805-25.473-2.7188-6.625-8.3438-11.512-15.523-13.484-3.1758-0.875-7.9805-0.88281-11.309-0.019531-8.5 2.2031-14.953 8.9336-16.867 17.586-0.38672 1.7539-0.53125 5.8359-0.26953 7.6602 1.5664 10.938 10.242 19.16 20.988 19.898 0.90625 0.0625 1.8438 0.09375 2.082 0.066406 0.23828-0.023437 1.1367-0.085937 1.9961-0.13672zm-350.12-9.8086c1.8359-4.9102 3.375-9.0273 3.4219-9.1445 0.0625-0.17188-1.4492-0.21484-7.207-0.21484h-7.2891l-0.070313-0.5625c-0.066406-0.51953-0.070313-0.51172-0.097656 0.12891-0.11328 2.8555-1.5312 7.6719-3.25 11.051-0.79297 1.5586-0.90625 1.9805-0.25 0.91406l0.37109-0.60156 5.4922 3.707c3.0195 2.0391 5.5039 3.6953 5.5156 3.6797s1.5234-4.043 3.3633-8.957zm314.49 4.9414 5-3.3789 0.375 0.60547c0.59766 0.96484 0.59766 0.69922 0-0.39062-1.6914-3.0898-3.0273-7.3711-3.457-11.082-0.074218-0.65234-0.14844-0.92969-0.16016-0.62109l-0.023438 0.56641h-6.7617c-5.082 0-6.7617 0.050781-6.7617 0.20312 0 0.24219 6.6328 17.48 6.7266 17.48 0.035156 0 2.3164-1.5195 5.0664-3.3789zm-194.88 0.007813 4.6953-3.1992 0.45312 0.68359c0.25 0.375 0.46875 0.68359 0.48828 0.68359 0.019532 0-0.41406-0.89453-0.96094-1.9883-2.25-4.4922-3.2734-8.9336-3.2773-14.223-0.003906-4.8633 0.86719-8.8672 2.8828-13.262 0.41406-0.90625 0.61719-1.4727 0.44922-1.2578l-0.30469 0.39062-2.7734-1.8555c-1.5234-1.0195-4.4102-2.918-6.4141-4.2188-2.0039-1.3008-7.5273-4.918-12.281-8.0391-4.7539-3.1211-8.6719-5.6445-8.7109-5.6094-0.039062 0.039063 2.5039 6.8477 5.6484 15.129s5.7188 15.086 5.7188 15.113c0 0.03125 3.5117 0.054688 7.8008 0.054688h7.8008v7.2812h-12.695l0.10156 0.39062c0.22266 0.875 6.4492 17.121 6.5586 17.121 0.066406 0 2.2305-1.4375 4.8164-3.1992zm70.996 2.7227c1.4219-3.6523 6.332-16.719 6.332-16.852 0-0.125-2.0078-0.18359-6.3281-0.18359l-6.3242 0.003906v-7.2812h15.57l0.17188-0.47656c0.09375-0.26172 2.4141-6.3672 5.1484-13.566 6.2383-16.406 6.0234-15.82 5.7617-15.672-0.33203 0.19141-9.4414 6.0703-20.027 12.93-5.2695 3.4141-9.6484 6.2109-9.7305 6.2109s-0.27344-0.17578-0.42188-0.39062c-0.15234-0.21484 0.035156 0.28516 0.41406 1.1094 0.90625 1.9727 1.9648 5.1875 2.4219 7.3438 0.46875 2.2109 0.66406 7.5703 0.35938 9.8828-0.48438 3.6758-1.4961 7.0977-3.0234 10.215-0.79297 1.6211-0.86719 1.9609-0.19922 0.91016 0.14453-0.23047 0.91016 0.23047 4.8555 2.9102 2.5742 1.75 4.7305 3.1875 4.793 3.1992s0.16406-0.11719 0.23047-0.28516zm-193.04-24.312h8.6406l0.44531-1.1719c2.5078-6.5977 11.184-29.938 11.141-29.98-0.03125-0.03125-7.2188 4.6016-15.973 10.289-15.082 9.8008-15.93 10.328-16.16 10.012-0.13281-0.18359-0.35547-0.48828-0.49219-0.67969s0.17578 0.55078 0.69531 1.6484c0.51953 1.0977 1.1797 2.7305 1.4766 3.6289 0.57422 1.7695 1.3711 5.4453 1.4141 6.5352 0.019532 0.52344 0.042969 0.56641 0.097657 0.19531l0.070312-0.47656zm319.02-1.2148c0.42578-2.9609 1.5898-6.6133 3-9.4062 0.64844-1.2812 0.69141-1.5117 0.10547-0.5625-0.20703 0.33203-0.45703 0.60547-0.55469 0.60547-0.10156 0-7.0547-4.4336-15.461-9.8555-8.4023-5.4219-15.375-9.9102-15.492-9.9766-0.12891-0.074219-0.066406 0.26953 0.16797 0.88281 0.21094 0.55469 2.8516 7.4023 5.8672 15.223l5.4844 14.215 16.516 0.09375 0.023438 0.47656c0.027343 0.54297-0.007813 0.72266 0.33594-1.6914zm-289.15-8.4102c2.6719-5.2969 4.7852-9.6914 4.7578-9.8828-0.046875-0.32031-6.8516-9.5938-7.0508-9.6133-0.046875-0.003906-2.4961 6.4492-5.4414 14.34-2.9453 7.8906-5.3906 14.445-5.4375 14.566-0.066407 0.17578 0.78906 0.21094 4.1406 0.17188l4.2227-0.046875zm19.379 9.5117c0-0.0625-2.125-2.9492-4.7227-6.4141l-4.7227-6.3008-3.1562 6.2852c-1.7344 3.457-3.1602 6.3438-3.1641 6.4141-0.003906 0.070312 3.5391 0.12891 7.8789 0.12891 4.3398 0 7.8867-0.050781 7.8867-0.11328zm35.836-0.10156c-0.25-0.60547-6.7617-13.93-6.8594-14.031-0.097656-0.10156-10.418 13.648-10.57 14.082-0.035156 0.10156 3.293 0.16406 8.7305 0.16406 6.9609 0 8.7695-0.046875 8.6992-0.21484zm14.617 0.14453c0-0.10938-10.77-28.441-10.836-28.508-0.03125-0.03125-1.3242 1.6289-2.8711 3.6875l-2.8125 3.7461 3.4375 7.0586c1.8906 3.8828 4.2031 8.6406 5.1367 10.57l1.6992 3.5117h3.1211c1.7148 0 3.1211-0.03125 3.1211-0.070313zm124.05-9.3789c2.6133-5.1484 4.75-9.4414 4.7539-9.5352 0.003907-0.19922-7.043-9.5117-7.2539-9.582-0.09375-0.035156-9.2812 23.852-10.906 28.352-0.0625 0.17578 0.82031 0.21094 4.2891 0.17188l4.3672-0.046875zm19.148 9.3477c0-0.11719-8.5664-11.449-9.0156-11.922-0.28906-0.30469-0.42969-0.074218-3.3594 5.668-1.6797 3.293-3.0547 6.0703-3.0547 6.1719 0 0.12891 2.3906 0.18359 7.7148 0.18359 4.2422 0 7.7148-0.046875 7.7148-0.10156zm33.777-0.15234c-0.089844-0.40625-5.7617-11.363-5.8828-11.363-0.09375 0-8.3672 10.82-8.7148 11.398-0.10156 0.17188 1.3945 0.21484 7.2617 0.21484 6.375 0 7.3828-0.035156 7.3359-0.25391zm17.367 0.054687c0-0.23438-10.578-27.754-10.73-27.91-0.058594-0.058594-1.7695 2.1016-3.8047 4.8086l-3.6992 4.918 4.332 8.457c2.3828 4.6484 4.4961 8.7852 4.6992 9.1914l0.37109 0.73828h4.418c3.1836 0 4.418-0.054687 4.418-0.19531zm-34.328-9.2578c3.8633-5.1016 7.0898-9.375 7.1719-9.4961 0.10156-0.14844-2.3242-5.0586-7.3672-14.902-4.1367-8.0742-7.5586-14.684-7.6094-14.684-0.13672-0.003907-14.477 28.477-14.453 28.707 0.019531 0.1875 3.0547 4.2266 11.547 15.371 1.7969 2.3594 3.3633 4.2891 3.4805 4.2891 0.11328 0 3.3672-4.1758 7.2305-9.2773zm-193.22-1.7266c4.3398-5.8164 7.8867-10.691 7.8828-10.836-0.011718-0.36328-14.672-30.434-14.816-30.391-0.066406 0.019531-3.707 7.2422-8.0938 16.047l-7.9766 16.012 7.4102 9.9219c4.0742 5.457 7.4766 9.8984 7.5586 9.8711 0.082031-0.027344 3.6992-4.8086 8.0391-10.625zm113.54-4.7734c-0.26562-0.40234-0.39453-0.75781-0.30469-0.83984 0.085938-0.074219 1.9141-1.2695 4.0586-2.6562 3.4844-2.2461 29.668-19.215 29.777-19.293 0.054688-0.039062-9.9414-13.242-10.348-13.668-0.28516-0.30078-0.86328 0.41797-13.027 16.281-7 9.1289-12.777 16.672-12.84 16.77-0.066406 0.10156-0.42578-0.070313-0.86719-0.41016-0.4375-0.33594 0.015625 0.21875 1.0742 1.3164 1.0039 1.043 2.0469 2.1914 2.3164 2.5469 0.64844 0.85938 0.74609 0.83203 0.16406-0.050782zm-195.35-0.10938-0.43359-0.63672 2.3789-1.5508c1.3086-0.85156 9.1641-5.9609 17.461-11.348 8.2969-5.3867 15.188-9.8945 15.316-10.012 0.19141-0.17969-0.69531-1.4531-5.0078-7.2148-2.8828-3.8477-5.3359-7.1016-5.4531-7.2305-0.17578-0.1875-2.6914 3.0117-13.438 17.078-7.2734 9.5195-13.312 17.406-13.422 17.523-0.15625 0.16797-0.34766 0.097656-0.88672-0.33594-0.37891-0.30469 0.09375 0.26172 1.0508 1.2578s1.9609 2.1055 2.2305 2.4609c0.62891 0.83594 0.76562 0.84375 0.20312 0.011719zm343.08-2.4727c0.86328-0.89844 1.2617-1.3906 0.88672-1.0898-0.375 0.30078-0.73828 0.50781-0.80859 0.46484-0.070313-0.042969-5.9609-7.5664-13.09-16.723-7.1289-9.1523-13.008-16.641-13.062-16.637-0.054688 0.003907-1.1602 1.4297-2.4609 3.1641-1.2969 1.7344-3.6133 4.8047-5.1484 6.8203l-2.7891 3.6641 8.7891 5.6797c4.832 3.125 12.551 8.1055 17.148 11.074 4.5977 2.9688 8.3633 5.4609 8.3633 5.543 0.003906 0.082031-0.16016 0.39453-0.35938 0.69531-0.19922 0.30078-0.066407 0.19531 0.29688-0.23438 0.36328-0.42969 1.3672-1.5156 2.2305-2.4141zm-195.37 0.17187c1.082-1.1328 1.5742-1.7383 1.1484-1.4102-0.41016 0.31641-0.76953 0.54688-0.80078 0.51172s-3.0117-3.9258-6.6289-8.6445c-16.547-21.605-19.008-24.801-19.137-24.879-0.074218-0.046876-2.4414 3.0078-5.2617 6.7891l-5.125 6.875 1.7695 1.1562c0.97266 0.63672 5.668 3.7188 10.438 6.8516 4.7695 3.1328 11.281 7.4102 14.477 9.5039 8.1875 5.3672 7.3594 4.7422 7.0117 5.293-0.18359 0.29297-0.19922 0.36719-0.039062 0.20312 0.13672-0.14453 1.1016-1.1523 2.1445-2.2461zm-151.97-1.9844c0-0.035157-0.13672-0.17188-0.30469-0.30469-0.27344-0.21484-0.28125-0.21094-0.066407 0.066406 0.22656 0.28906 0.36719 0.37891 0.36719 0.23828zm352.98-2.8086c0-0.046875-0.15625-0.003906-0.34766 0.097656-0.19141 0.10156-0.34766 0.22266-0.34766 0.27344 0 0.046874 0.15625 0.003906 0.34766-0.097657 0.19141-0.10156 0.34766-0.22266 0.34766-0.27344zm-188.28-3.2188c3.082-1.0625 6.1133-1.5352 9.7969-1.5312 3.8555 0.003906 7 0.5 10.316 1.6328 1.4961 0.51172 1.5547 0.51953 1.1641 0.23047-0.25781-0.19531 0.89453-2.5352 11.148-22.582 6.2891-12.301 11.402-22.457 11.363-22.566-0.039062-0.10938-4.1797-5.6094-9.1992-12.215l-9.125-12.016 0.57812-0.48828c0.41016-0.34766 0.19141-0.26172-0.75 0.30078-2.7617 1.6445-6.168 2.9453-9.5938 3.6641-2.8984 0.60938-8.1406 0.76953-10.926 0.33984-4.1523-0.64062-7.8516-1.9141-11.355-3.9062-0.52344-0.29688-0.77734-0.39062-0.5625-0.20312 0.21484 0.1875 0.39062 0.39062 0.39062 0.45703 0 0.0625-3.8594 5.293-8.5742 11.617-4.7148 6.3281-8.668 11.656-8.7852 11.84-0.18359 0.29688 1.1914 3.0859 11.195 22.68 6.2734 12.289 11.477 22.477 11.559 22.641 0.11719 0.22656 0.039063 0.35938-0.32812 0.57422-0.26172 0.15234-0.32422 0.22656-0.13281 0.16016 0.19141-0.0625 1.0117-0.34375 1.8203-0.625zm131.04-4.8203c3.8789-5.1328 3.9844-5.293 3.7852-5.7773-0.16016-0.39453-2.3164-1.8633-10.344-7.0586-5.5781-3.6094-10.164-6.5391-10.195-6.5078-0.054687 0.054688 11.438 22.598 12.227 23.988 0.23438 0.41406 0.44922 0.72656 0.48047 0.69531s1.8516-2.4336 4.0469-5.3359zm-37.945-6.8906c3.1172-6.1797 5.6445-11.266 5.6172-11.301-0.023438-0.035156-4.4102 2.7656-9.7461 6.2227l-9.6992 6.2852 2.2617 2.9688c1.2461 1.6328 3.0117 3.9609 3.9219 5.1758 1.0117 1.3438 1.7227 2.1445 1.8203 2.0469 0.085938-0.085938 2.707-5.2148 5.8242-11.395zm-193.82-0.74609c3.2422-6.4844 5.8477-11.789 5.7891-11.789-0.13281 0-18.77 12.098-19.188 12.457-0.17188 0.14844-0.28906 0.39453-0.26172 0.55078 0.039063 0.22656 7.5586 10.504 7.7227 10.555 0.023438 0.007812 2.6953-5.293 5.9375-11.777zm38.242 5.9922c2.1836-2.9102 3.0195-4.1523 2.9453-4.3789-0.054687-0.17188-0.82422-0.78125-1.7031-1.3516-0.88281-0.57031-4.1992-2.7461-7.3711-4.8359-3.1719-2.0859-5.8047-3.7617-5.8477-3.7188-0.074218 0.074218 8.7578 18.348 8.8711 18.348 0.03125 0 1.4297-1.8281 3.1055-4.0664zm244.23-0.48438c-6.7539-13.098-16.102-30.988-16.195-30.988-0.0625 0-1.0508 1.2539-2.1992 2.7852l-2.0859 2.7852 10.777 13.855c5.9258 7.6211 10.801 13.855 10.832 13.859s-0.48047-1.0312-1.1289-2.293zm-194.68 0.51953c-0.96875-1.9258-11.969-23.445-14.32-28.008-1.1445-2.2227-2.0977-4.0156-2.1211-3.9883-0.023438 0.03125-0.98438 1.3086-2.1328 2.8477l-2.0938 2.793 5.1172 6.6562c2.8125 3.6602 7.582 9.875 10.594 13.809 3.0117 3.9336 5.5 7.1523 5.5312 7.1523s-0.22656-0.56641-0.57422-1.2578zm55.746-12.578c5.6445-7.3711 10.242-13.496 10.211-13.617-0.10156-0.40625-4.0352-5.4766-4.1523-5.3555-0.10547 0.10938-14.59 28.391-16.18 31.59-0.35547 0.71484-0.53516 1.1836-0.39453 1.0391 0.13672-0.14453 4.8711-6.2891 10.516-13.66zm-203.76 10.957c1.1328-1.4844 6.0898-7.9727 11.012-14.418l8.9531-11.715-2.1602-2.8789c-1.1875-1.582-2.2148-2.8945-2.2812-2.918-0.066407-0.023437-2.1289 3.918-4.582 8.7539-2.4531 4.8359-6.418 12.637-8.8047 17.332-2.3867 4.6953-4.3086 8.5391-4.2695 8.5391 0.039062 0 0.99609-1.2148 2.1289-2.7031zm305.9-15.164c2.3438-3.0938 4.8555-6.4023 5.582-7.3555 0.76562-1 1.2617-1.8008 1.1836-1.9062-3.2695-4.3164-12.914-16.566-13.016-16.531-0.074219 0.027344-2.0195 1.2617-4.3203 2.7422-3.4414 2.2109-4.1719 2.75-4.1172 3.0352 0.042969 0.24609 8.8164 23.074 9.9531 25.898 0.082031 0.20313 0.125 0.20313 0.28516-0.007812 0.10547-0.13672 2.1055-2.7812 4.4531-5.875zm-193.42-2.0586c3.0117-4.043 5.4766-7.3984 5.4766-7.4531 0-0.16797-12.609-16.559-12.863-16.719-0.16016-0.10156-1.4219 0.62109-4.043 2.3242-2.0938 1.3594-3.9219 2.5742-4.0547 2.6953-0.21094 0.19141 0.49219 2.168 4.7578 13.414 2.7539 7.2539 5.0625 13.168 5.1289 13.141 0.070312-0.023438 2.5898-3.3555 5.5977-7.3984zm127.32-5.4414c2.6875-7.082 4.8906-12.965 4.8906-13.07 0-0.23828-8.0742-5.4844-8.3125-5.4023-0.09375 0.03125-3.0273 3.7891-6.5195 8.3438-4.3984 5.7422-6.3008 8.3516-6.1875 8.4961 0.089844 0.11328 2.5977 3.4258 5.5781 7.3594 2.9805 3.9336 5.4727 7.1523 5.543 7.1523 0.070312 0 2.3242-5.7969 5.0156-12.879zm-193.74-0.57812c2.6523-7.1133 4.7969-12.953 4.7695-12.977-0.027344-0.023437-2.1055-1.3906-4.6133-3.0391-4.3008-2.8242-4.5742-2.9766-4.7969-2.668-0.12891 0.17969-2.8945 3.8008-6.1445 8.043s-5.875 7.7969-5.8398 7.8984c0.10156 0.27344 11.621 15.676 11.723 15.676 0.046875 0 2.2539-5.8203 4.9062-12.934zm208.16 2.8438c3.6719-2.375 6.7773-4.4219 6.9062-4.543 0.19141-0.18359-0.64062-0.78516-4.6523-3.375-2.6836-1.7344-4.9766-3.1914-5.0938-3.2344-0.14453-0.054687-1.1914 2.4922-3.1914 7.7695-1.6406 4.3164-3.1367 8.2578-3.3242 8.7539l-0.34375 0.90625 1.5156-0.97656c0.83203-0.53906 4.5195-2.9219 8.1875-5.2969zm-157.79 4.4219c-1.5391-4.1328-6.0391-15.879-6.1094-15.949-0.050782-0.050781-2.2773 1.3359-4.9531 3.0781-2.6758 1.7422-4.8438 3.1875-4.8164 3.2109 0.097656 0.085937 16.172 10.652 16.211 10.652 0.023437 0-0.125-0.44531-0.33203-0.99219zm194.22 0.17188c-0.17578-0.45312-1.5898-4.1172-3.1406-8.1445-1.7852-4.6289-2.8906-7.2773-3.0078-7.207-2.4805 1.5312-9.1367 5.9609-9.1133 6.0625 0.03125 0.14453 15.223 10.066 15.457 10.094 0.070313 0.007813-0.015625-0.35547-0.19141-0.80859zm-231.49-4.8984c4.2148-2.7344 7.5547-5.0078 7.4727-5.0938-0.38281-0.40625-9.2852-6.1289-9.3789-6.0312-0.058593 0.0625-1.4141 3.625-3.0156 7.9141-1.5977 4.2891-2.9453 7.9102-2.9961 8.043-0.050781 0.13281-0.003906 0.21094 0.10156 0.17188 0.10547-0.035156 3.6211-2.2891 7.8125-5.0078zm261.11-13.395 2.4648-3.2539-3.4805-6.7148c-1.9141-3.6953-3.5469-6.8203-3.6289-6.9453-0.11328-0.17578-1.2656 0.49219-4.7852 2.7734-2.5508 1.6523-4.6445 3.0742-4.6523 3.1602-0.007813 0.085937 2.5156 3.4141 5.6094 7.3906 4.1562 5.3477 5.6758 7.1836 5.8164 7.0391 0.10547-0.10938 1.3008-1.6602 2.6562-3.4492zm-95.789-3.8984c3.0117-3.9336 5.4766-7.2188 5.4766-7.3008 0-0.082032-2.0664-1.4805-4.5898-3.1094l-4.5898-2.9609-1.2812 2.4609c-0.70312 1.3516-2.3125 4.4727-3.5742 6.9375l-2.293 4.4766 2.5547 3.375c1.4062 1.8555 2.6133 3.3516 2.6875 3.3242 0.074219-0.027344 2.5977-3.2695 5.6094-7.2031zm48.109-2.4219 4.8555-9.6602-4.7812-12.402c-2.6289-6.8203-4.8203-12.469-4.8672-12.551-0.10938-0.17969-9.7734 25.195-9.7109 25.496 0.042969 0.21484 9.5469 18.773 9.6133 18.773 0.019531 0 2.2227-4.3477 4.8906-9.6602zm-147.29 6.0234 2.5664-3.4492-3.4922-6.8164c-1.9219-3.75-3.5547-6.8828-3.6328-6.9609-0.16016-0.16406-9.2812 5.6953-9.2812 5.9609 0 0.18359 11.039 14.707 11.184 14.711 0.046875 0.003906 1.2422-1.5469 2.6562-3.4453zm-96.25-3.6055c2.3086-3.0234 4.6914-6.1328 5.2969-6.9102l1.0938-1.4102-4.6914-3.0781c-2.7656-1.8164-4.7539-3.0156-4.8438-2.9219-0.24219 0.24219-6.6016 12.773-6.5469 12.906 0.16016 0.39453 5.2695 7.0469 5.3711 6.9883 0.066407-0.039062 2.0117-2.5469 4.3203-5.5703zm38.047 2.6914c-1.3867-2.9883-4.7969-9.8828-4.8594-9.8203-0.10938 0.10938-2.1758 5.6953-2.1758 5.8828 0 0.12109 7.1914 5.0312 7.582 5.1758 0.019531 0.007812-0.22266-0.55078-0.54297-1.2422zm12.289-7.6289c2.0781-4.2188 3.7812-7.75 3.7812-7.8438 0.003907-0.17187-9.1719-24.426-9.3945-24.832-0.14062-0.25781-7.8828 20.41-7.7969 20.812 0.097656 0.44141 9.4023 19.539 9.5234 19.539 0.058594 0 1.8047-3.4531 3.8867-7.6719zm202.48 4.5781c0.039062-0.0625-0.13281-0.61328-0.375-1.2227l-0.44531-1.1094-1.0039 1.9766c-0.55078 1.0859-1.0078 2.0352-1.0117 2.1016-0.007812 0.12891 2.7148-1.5469 2.8359-1.7461zm-194.45-0.69141c0.17578-0.10938 0.14453-0.34375-0.15625-1.125-0.20703-0.54297-0.41797-0.95312-0.46484-0.90625s-0.46094 0.86719-0.91797 1.8203l-0.83203 1.7344 1.0742-0.69531c0.58984-0.38281 1.1719-0.75781 1.2969-0.83203zm167.67 0.10156c-0.29688-0.59766-0.56641-1.1133-0.59766-1.1445-0.03125-0.035156-0.17969 0.23438-0.33203 0.59766-0.21875 0.52734-0.23047 0.6875-0.054687 0.79297 0.12109 0.074218 0.45703 0.28516 0.74219 0.47266s0.57812 0.34766 0.65234 0.35547c0.074219 0.007813-0.11328-0.47656-0.41016-1.0703zm36.676-5.7852c2.3164-1.4961 3.3438-2.2539 3.2578-2.4023-0.25781-0.43359-6.3711-8.2305-6.457-8.2344-0.050781-0.003907-0.73438 1.2852-1.5234 2.8672l-1.4336 2.8711 1.3477 3.5391c0.74219 1.9453 1.3672 3.5391 1.3867 3.543 0.019531 0 1.5586-0.98047 3.4219-2.1836zm-43.043-1.3828 1.1602-3.0508-1.4766-2.8438c-0.8125-1.5664-1.5078-2.8438-1.543-2.8438-0.10547 0-5.8008 7.4492-5.8008 7.5898 0 0.125 6.2227 4.1992 6.4102 4.1992 0.050782 0 0.61328-1.3711 1.25-3.0508zm-193.09-2.7148c1.1094-2.9805 2.0078-5.5742 2.0039-5.7656-0.007812-0.19141-0.57422-1.457-1.2617-2.8125l-1.2461-2.4648-8.9141 11.688 3.5938 2.3789c1.9766 1.3086 3.6406 2.3828 3.7031 2.3867 0.0625 0.003906 1.0195-2.4297 2.125-5.4102zm42.113 3.0781c1.4844-0.95312 2.6836-1.7852 2.6641-1.8516s-1.4375-1.9531-3.1562-4.1953l-3.1211-4.0781-2.7578 5.5078 1.1875 3.1758c1.5586 4.168 1.3945 3.875 1.9922 3.4883 0.26953-0.17188 1.7031-1.0938 3.1875-2.0469zm113.85-4.0547c1.5234-2.9805 2.7695-5.4844 2.7695-5.5664 0-0.082031-4.3672-2.9727-9.707-6.4219-5.3398-3.4531-9.707-6.3516-9.707-6.4453s0.14453-0.375 0.31641-0.62891c0.85547-1.2344 0.66016-1.125-0.41406 0.23438-0.375 0.47656-1.3477 1.5625-2.1602 2.4141-0.8125 0.85156-1.2227 1.3633-0.91016 1.1367 0.51562-0.375 0.58203-0.38281 0.78125-0.125 12.832 16.914 16.016 21.047 16.129 20.945 0.074219-0.070313 1.3828-2.5625 2.9023-5.543zm124.14-4.7031c4.3008-5.6719 7.9258-10.465 8.0547-10.645 0.22656-0.32031 0.25781-0.3125 0.89453 0.15625 0.36328 0.26953-0.125-0.32422-1.082-1.3164-0.95703-0.99219-1.9961-2.1172-2.3125-2.5l-0.57031-0.69531 0.38672 0.66406c0.32422 0.5625 0.34766 0.69922 0.14453 0.88672-0.13281 0.12109-4.4531 2.9375-9.6016 6.2539-5.1484 3.3164-9.4609 6.125-9.5859 6.2344-0.17969 0.16406 0.35156 1.3125 2.6758 5.7852 1.5938 3.0703 2.9609 5.5586 3.0391 5.5352 0.078125-0.027344 3.6602-4.6875 7.9609-10.363zm-195.49 0.066406c4.0039-5.3906 7.4766-10.035 7.7148-10.32l0.43359-0.52344 0.51953 0.39453c0.28516 0.21484-0.1875-0.34375-1.0469-1.2422-0.86328-0.89844-1.8633-1.9844-2.2305-2.4141-0.42578-0.5-0.52344-0.57422-0.27344-0.20312 0.21094 0.31641 0.31641 0.63672 0.23438 0.71094-0.082031 0.074218-2.9219 1.9297-6.3047 4.125-3.3867 2.1953-7.543 4.8984-9.2422 6.0117l-3.0898 2.0195 1.3789 2.6406c0.75781 1.4531 2.0547 3.9844 2.8828 5.6289s1.5586 2.9883 1.625 2.9805c0.066406-0.003906 3.3984-4.418 7.4023-9.8086zm-123.21 3.0312c1.457-2.8711 2.6289-5.2383 2.6016-5.2656-0.027343-0.027344-3.8672-2.5547-8.5352-5.6172-4.668-3.0625-8.5195-5.6055-8.5625-5.6484-0.042968-0.042969 0.13281-0.41406 0.39062-0.82031l0.47266-0.74219-0.64453 0.78125c-0.35547 0.42969-1.5781 1.707-2.7227 2.8398-1.5938 1.5781-1.8477 1.8828-1.0859 1.3086l0.99219-0.75 0.32031 0.42578c0.17578 0.23438 3.3867 4.5352 7.1328 9.5586 3.7461 5.0234 6.8516 9.1367 6.8984 9.1406 0.046876 0.003906 1.2812-2.3398 2.7383-5.2109zm290.04-3.2578c2.6953-1.7422 4.8984-3.2383 4.8984-3.3242 0-0.13672-7.9453-15.523-10.324-19.992l-0.91406-1.7188-4.1758 8.3516c-2.2969 4.5938-4.1758 8.4258-4.1758 8.5195s2.0391 2.7891 4.5273 5.9883c4.3359 5.5703 4.543 5.8086 4.8984 5.582 0.20312-0.12891 2.5742-1.6641 5.2695-3.4062zm-68.133-2.1797 4.1836-5.4609-4.1758-8.1602c-2.2969-4.4883-4.2344-8.0938-4.3047-8.0195-0.35156 0.38281-10.426 20.371-10.32 20.477 0.26563 0.26953 10.078 6.5977 10.25 6.6094 0.10156 0.007813 2.0664-2.4453 4.3711-5.4492zm-126.95 1.8281c2.668-1.7383 4.9492-3.25 5.0625-3.3594 0.16016-0.15625-1.0586-2.6797-5.3242-11.035l-5.5312-10.836-4.1758 8.457c-2.4727 5.0117-4.1211 8.543-4.043 8.668 0.16797 0.26953 7.3633 9.6719 8.1641 10.668 0.33203 0.41016 0.69141 0.71484 0.79688 0.67188 0.10938-0.042969 2.3789-1.4961 5.0508-3.2344zm-66.133-4.9375c2.9805-3.9062 5.4492-7.2188 5.4844-7.3672 0.0625-0.24609-7.8711-16.777-8.3008-17.297-0.5-0.60547-0.042968-1.4336-10.004 18.176l-3.6641 7.2148 5.2461 3.4688c4.8516 3.207 5.2695 3.4453 5.5352 3.1875 0.15625-0.15625 2.7227-3.4766 5.7031-7.3789zm209.41-3.3867c0.95703-2.5195 1.7109-4.6055 1.6836-4.6328-0.074218-0.074219-4.9609 6.3125-4.9609 6.4883 0 0.20312 1.4102 2.8594 1.4805 2.7891 0.035156-0.035157 0.84375-2.1211 1.7969-4.6406zm27.457 2.8555c0.35547-0.71484 0.64453-1.3789 0.64453-1.4727s-1.1445-1.6328-2.5391-3.4219c-1.3984-1.7891-2.5078-3.168-2.4688-3.0625 0.69922 1.9531 3.5625 9.25 3.6289 9.2539 0.050781 0 0.38281-0.58203 0.73828-1.3008zm-194.29-0.64062c0.54297-1.0742 0.59766-1.2969 0.41016-1.5977-0.38672-0.62109-4.0391-5.3047-4.0898-5.25-0.054688 0.054687 2.9336 8.0859 3.0117 8.0938 0.023437 0 0.32422-0.55859 0.67188-1.2461zm135.21-12.227c3.1484-6.168 5.7461-11.277 5.7773-11.352s-6.1523-0.13672-13.738-0.13672h-13.797l-0.027344-0.82422c-0.023437-0.65625-0.039062-0.70313-0.085937-0.21484-0.39844 4.082-1.5078 8.1094-3.1172 11.312-0.61719 1.2266-0.67188 1.5273-0.12109 0.66016l0.32422-0.51172 9.4453 6.1289c5.1953 3.3711 9.4844 6.1367 9.5312 6.1445 0.046875 0.007812 2.6602-5.0312 5.8086-11.203zm104.2 5.2422c4.957-3.2188 9.1562-5.9414 9.3281-6.0469 0.32422-0.20312 0.35156-0.17969 1.0703 0.84766 0.13281 0.19141-0.066407-0.27734-0.44531-1.0391-1.6172-3.2695-3.0156-8.0977-3.1328-10.836-0.023438-0.52344-0.035156-0.54297-0.097656-0.12891l-0.070313 0.47656h-13.945c-7.668 0-13.945 0.046876-13.945 0.10547 0 0.058594 2.6289 5.1719 5.8438 11.367 4.3867 8.4492 5.9102 11.242 6.1094 11.188 0.14453-0.039063 4.3242-2.707 9.2812-5.9258zm-195.17-0.36719 8.957-5.8281 0.40234 0.49609c0.28516 0.35156 0.17969 0.015625-0.36719-1.1523-1.4648-3.1367-2.5195-6.8516-2.8555-10.066-0.11328-1.0859-0.16016-1.25-0.17578-0.64062l-0.023438 0.82812h-13.176c-7.2461 0-13.176 0.019532-13.176 0.046875 0 0.042969 1.6914 3.3633 8.4336 16.551 1.5703 3.0742 2.8945 5.5898 2.9414 5.5898s4.1133-2.6211 9.0391-5.8281zm-134.99 4.832c0.21484-0.27344 0.21094-0.28125-0.066406-0.066407-0.16797 0.13281-0.30469 0.26563-0.30469 0.30469 0 0.14453 0.14062 0.050781 0.36719-0.23828zm30.82-10.281c2.9648-5.8203 5.3906-10.66 5.3906-10.75 0-0.10156-4.6367-0.16406-12.137-0.16406h-12.137l-0.019531-0.5625c-0.011719-0.30859-0.12109 0.20312-0.25 1.1367-0.45312 3.3164-1.5156 6.7891-3.0078 9.8281-0.58984 1.1992-0.60547 1.5469-0.027344 0.53516 0.078125-0.13281 0.24609-0.19922 0.37891-0.14844s3.8672 2.4805 8.3008 5.3984c4.4336 2.918 8.0742 5.3047 8.0898 5.3047s2.4531-4.7617 5.418-10.582zm317.63 9.9961c0-0.035156-0.13672-0.17187-0.30469-0.30469-0.27344-0.21484-0.28125-0.21094-0.066406 0.066406 0.22656 0.28906 0.36719 0.37891 0.36719 0.23828zm-155.25-0.45312c0.17188-0.19141 0.27344-0.34766 0.22656-0.34766s-0.22656 0.15625-0.40234 0.34766c-0.17187 0.19141-0.27344 0.34766-0.22656 0.34766s0.22656-0.15625 0.40234-0.34766zm-128.13-3.4531c0.72266-1.9453 1.293-3.5508 1.2695-3.5703-0.023438-0.019531-0.88672 1.0742-1.918 2.4336l-1.8711 2.4727 0.5625 1.1406c0.30859 0.62891 0.58203 1.1211 0.60547 1.1016 0.023437-0.023438 0.63281-1.6328 1.3555-3.5742zm-80.281 1.875c4.043-0.80469 7.6602-2.5977 10.695-5.293 5.0781-4.5078 7.7812-10.523 7.7812-17.309 0-5.9258-2.2656-11.465-6.4805-15.828-2.3789-2.4648-4.6523-4.0234-7.6445-5.2461-3.2109-1.3125-5.3789-1.7344-8.875-1.7344-3.75 0-6.9922 0.77734-10.367 2.4844-8.2852 4.1953-13.305 13.258-12.41 22.418 0.76172 7.8086 4.8789 14.168 11.703 18.078 4.4805 2.5703 10.336 3.4844 15.598 2.4336zm191.59 0.082032c4.5898-0.71094 8.6172-2.7422 12.074-6.0898 9.1211-8.8281 9.4531-23.066 0.75391-32.258-3.9648-4.1914-9.1562-6.6836-14.781-7.1016-5.8906-0.4375-11.137 1.1094-15.824 4.6562-6.5312 4.9492-9.9258 13.246-8.7617 21.398 1.1875 8.3047 6.8945 15.406 14.742 18.348 3.625 1.3594 7.5352 1.707 11.789 1.0469zm194.35 0.21094c4.5117-0.26172 9.7461-2.6445 13.441-6.1172 5.9414-5.5898 8.4688-14.027 6.5898-21.988-2.1172-8.9688-9.7969-16.039-18.902-17.41-1.6406-0.24609-5.0664-0.25-6.7539-0.007812-7.3789 1.0586-14.129 6.0234-17.336 12.746-1.4688 3.0781-2.0781 5.5781-2.2109 9.0469-0.10547 2.7148 0.078125 4.4453 0.72656 6.9023 2.4648 9.3555 10.762 16.238 20.375 16.898 0.90625 0.0625 1.8438 0.09375 2.082 0.066406 0.23828-0.023438 1.1367-0.085938 1.9961-0.13672zm-113.91-11.457 5.8359-7.6289-10.098-0.042969c-5.5547-0.023437-10.129-0.015625-10.164 0.023437-0.039062 0.039063 1.75 3.6211 3.9727 7.9648 3.7695 7.3711 4.0586 7.875 4.3281 7.6055 0.15625-0.16016 2.9141-3.7227 6.125-7.918zm36.578 0.09375c2.0938-4.1914 3.7617-7.6641 3.7109-7.7148-0.054687-0.054687-4.4844-0.078125-9.8516-0.050781l-9.7539 0.042969 5.957 7.668c3.2773 4.2188 5.9961 7.6719 6.043 7.6719 0.046874 0 1.8008-3.4258 3.8945-7.6172zm-194.59-0.36719c1.9961-4.0273 3.6016-7.3516 3.5664-7.3828-0.035157-0.035156-4.2578-0.042969-9.3828-0.019531l-9.3164 0.042969 4.457 5.8086c2.4531 3.1953 5.0039 6.5312 5.6758 7.4141 0.66797 0.88281 1.25 1.5742 1.293 1.5312 0.042969-0.042969 1.7109-3.3711 3.707-7.3984zm-35.816-1.9375c2.1914-2.875 4.0117-5.2891 4.0469-5.3672 0.03125-0.078125-2.9609-0.14062-6.6484-0.14062-6.1055 0-6.6992 0.023438-6.6016 0.28125 0.28516 0.74219 5.0547 10.469 5.1289 10.461 0.046875-0.003907 1.8828-2.3594 4.0742-5.2344zm78.613-15.52c0.46875-2.3086 1.3242-4.8984 2.332-7.0664 0.55469-1.1953 0.68359-1.5859 0.41016-1.2578l-0.39453 0.47656-3.0352-2.0039c-2.5898-1.7109-13.691-8.9883-14.867-9.7461-0.39062-0.25-0.41406-0.20703-5.9375 10.926-3.0508 6.1484-5.5469 11.227-5.5469 11.289s5.9297 0.11328 13.176 0.11328h13.176l0.023438 0.82422c0.019531 0.67578 0.046875 0.58984 0.16016-0.47656 0.074219-0.71484 0.30078-2.1016 0.5-3.0781zm75.52 2.7305c7.0977 0 12.906-0.054688 12.906-0.12109s-2.5117-5.0195-5.5781-11.008l-5.5781-10.891-0.44531 0.29297c-6.8281 4.4883-16.992 11.047-17.219 11.109-0.16797 0.046876-0.30469 0.007813-0.30469-0.078124 0-0.089844-0.11719-0.3125-0.25781-0.49609s0.082031 0.40625 0.5 1.3086c1.5039 3.2656 2.5781 7.0781 2.8398 10.102 0.10156 1.1797 0.13281 1.2852 0.17578 0.60547l0.054688-0.82422zm-191.14 0h14.035l0.34766-0.5625c0.19141-0.30859 0.39062-0.72266 0.44141-0.91406 0.0625-0.23438-1.7148-4.0625-5.3867-11.617-3.0117-6.1953-5.5352-11.32-5.6016-11.387-0.066406-0.066406-4.832 3.0039-10.594 6.8203-7.7656 5.1484-10.508 6.8828-10.605 6.707-0.63672-1.1055-0.50391-0.56641 0.25781 1.0664 1.5195 3.2422 2.5469 6.8125 2.8359 9.8438 0.085937 0.91406 0.14453 1.1328 0.17969 0.6875l0.054687-0.64844zm311.29-1.7344c0.47266-2.9102 1.3867-5.7305 2.7695-8.543 0.37891-0.76953 0.48047-1.0859 0.26562-0.82031-0.19531 0.23828-0.35547 0.49219-0.35547 0.5625-0.003906 0.070312-0.070312 0.12891-0.14844 0.12891-0.10938 0-15.57-9.8477-18.605-11.848l-0.45703-0.30078-5.6523 11.191c-3.1094 6.1562-5.6523 11.23-5.6523 11.277 0 0.046876 6.1641 0.085938 13.695 0.085938h13.695l0.027344 0.47656c0.027344 0.46875 0.027344 0.46875 0.089844-0.042968 0.035156-0.28516 0.18359-1.2617 0.33203-2.168zm-268.86 1.5469c-0.14453-0.42969-11.852-15.555-11.961-15.449-0.25 0.25-7.0781 13.762-7.0781 14.004 0 0.14062 0.15625 0.56641 0.35156 0.94141l0.35156 0.6875h9.1992c6.4375 0 9.1797-0.054688 9.1367-0.18359zm33.84 0.007812c0-0.24609-7.8633-15.594-7.9883-15.594-0.125-0.003906-11.762 15.195-11.891 15.531-0.078125 0.20703 1.4062 0.24219 9.8945 0.24219 6.7188 0 9.9883-0.058594 9.9883-0.17969zm159.8-0.050781c-0.13281-0.35156-10.586-13.723-10.781-13.793-0.16797-0.0625-7.1797 13.395-7.1914 13.805-0.003907 0.17188 1.9102 0.21484 9.0273 0.21484 7.4023 0 9.0195-0.042969 8.9453-0.22656zm34.379 0.03125c0-0.28125-7.3242-14.363-7.4727-14.363-0.13672 0-10.895 13.984-11.027 14.336-0.070312 0.18359 1.6172 0.22656 9.207 0.22656 6.918 0 9.293-0.050781 9.293-0.19922zm-53.258-14.738 2.9805-5.8359-4.6953-6.0391c-2.582-3.3242-4.8008-6.1484-4.9297-6.2812-0.19531-0.20312-1.0586 0.29297-5.6602 3.2734-2.9883 1.9336-5.4922 3.5703-5.5664 3.6367s2.5312 5.3281 5.7891 11.691l5.9258 11.566 1.5859-3.0859c0.87109-1.6992 2.9297-5.7109 4.5664-8.9219zm32.012-2.6367c2.8203-7.4219 5.125-13.578 5.125-13.684 0-0.17188-7.5859-14.934-9.4922-18.469l-0.77734-1.4414-10.391 20.344 5.1719 13.402c2.8438 7.3711 5.1875 13.387 5.2031 13.371 0.019531-0.019531 2.3398-6.1055 5.1562-13.523zm33.539 2.3008c3.0625-6.0625 5.5664-11.109 5.5664-11.211 0-0.16406-10.25-6.8828-10.703-7.0117-0.1875-0.054687-9.625 12.145-9.543 12.336 0.55469 1.2852 8.9258 17.113 9.0039 17.031 0.0625-0.066406 2.6172-5.0781 5.6797-11.141zm-194.77-0.47656 5.4375-10.934-5.4922-3.5898c-3.0195-1.9727-5.5781-3.5977-5.6875-3.6055-0.10547-0.007813-2.1562 2.5469-4.5508 5.6797l-4.3555 5.6992 3.7266 7.3047c4.9453 9.6953 5.3633 10.5 5.4297 10.434 0.03125-0.03125 2.5039-4.9766 5.4961-10.988zm-32.945-2.625c2.7305-7.293 4.9727-13.379 4.9844-13.523 0.019531-0.28125-10.441-20.805-10.605-20.805-0.21875 0-10.094 19.629-10.016 19.902 0.046875 0.16016 2.3945 6.3789 5.2227 13.816s5.1797 13.633 5.2266 13.766c0.046876 0.13281 0.11719 0.21094 0.15625 0.17188 0.035157-0.039063 2.3008-6.0352 5.0312-13.332zm-32.602 2.0352 3.0664-6.0273-4.1211-5.3945c-2.2656-2.9648-4.2148-5.4297-4.3281-5.4727-0.11328-0.042969-1.7305 0.9375-3.5898 2.1797l-3.3828 2.2617 4.5391 9.3477c2.4961 5.1406 4.5859 9.2969 4.6445 9.2383 0.058594-0.058594 1.4883-2.8203 3.1758-6.1367zm297.42-2.1094c0.8125-0.85156 1.1953-1.3359 0.84766-1.0781l-0.63281 0.46875-0.60156-0.74219c-0.33203-0.41016-3.9375-5.0352-8.0117-10.281-4.0781-5.2461-7.5156-9.6445-7.6406-9.7773-0.1875-0.20312-0.67578 0.65625-2.9375 5.1797-1.4922 2.9805-2.6484 5.4805-2.5703 5.5508 0.078125 0.070312 4.4336 2.8789 9.6758 6.2422 5.2461 3.3594 9.6016 6.1719 9.6875 6.2461 0.082031 0.074219-0.023437 0.39453-0.23438 0.71484-0.25 0.37109-0.15234 0.30078 0.27344-0.20312 0.36328-0.42969 1.3281-1.4766 2.1406-2.3242zm-340.74 2.1992-0.4375-0.64453 10.926-7.25c6.0078-3.9883 10.898-7.3047 10.867-7.3711-0.035156-0.066406-1.3398-2.7539-2.8984-5.9727-1.5625-3.2188-2.8945-5.8516-2.9609-5.8516-0.066406 0-4.1562 5.3438-9.0859 11.875-4.9297 6.5312-9.0234 11.914-9.0977 11.961-0.074219 0.046875-0.35938-0.085938-0.63281-0.29297s0.20703 0.35938 1.0664 1.2578c0.85938 0.90234 1.7852 1.9297 2.0586 2.2891 0.63672 0.83984 0.76562 0.83984 0.19922 0.003906zm145.01-2.3867c0.71875-0.76172 1.0898-1.1953 0.82422-0.96484-0.28906 0.25781-0.53906 0.35937-0.62891 0.26172-0.082031-0.089844-3.3047-4.2969-7.1602-9.3516-8.1172-10.645-8.668-11.355-8.7617-11.355-0.12891 0-5.2656 10.605-5.2109 10.754 0.027344 0.078125 4.1875 2.8516 9.2422 6.1562 5.0547 3.3047 9.2969 6.1133 9.4258 6.2383 0.20312 0.19141 0.17969 0.31641-0.14453 0.80469-0.22266 0.33203-0.066406 0.21094 0.36328-0.28906 0.41016-0.47656 1.3359-1.4922 2.0508-2.2539zm47.328 2.4609-0.33984-0.57422 18.367-11.922-2.6406-5.1641c-1.4531-2.8398-2.6797-5.1602-2.7266-5.1562-0.066407 0.007813-13.906 17.969-15.039 19.523-0.19922 0.27344-0.25781 0.26562-0.78125-0.11328-0.30859-0.22656 0.023437 0.20703 0.73828 0.96484 0.71484 0.75391 1.6094 1.7461 1.9883 2.1992 0.37891 0.45312 0.70703 0.82422 0.73047 0.82422 0.023438 0-0.10938-0.25781-0.29688-0.57422zm-45.566-4.0625c0.21484-0.27344 0.21094-0.28125-0.066406-0.066407-0.28906 0.22656-0.37891 0.36719-0.23828 0.36719 0.035156 0 0.17187-0.13672 0.30469-0.30469zm103.33-1.375c-0.15234-0.26172-0.18359-0.26562-0.1875-0.042969-0.003906 0.29297 0.17578 0.55469 0.30078 0.43359 0.039063-0.039063-0.007812-0.21484-0.10938-0.39062zm-193.94-1.043c-0.24219-0.63672-0.46875-1.1914-0.50391-1.2266-0.14063-0.14063-0.45313 0.67187-0.33594 0.875 0.20312 0.35156 1.1289 1.5117 1.207 1.5117 0.039063 0-0.125-0.52344-0.36719-1.1602zm223.91 0.61719c0-0.30078-0.30859-0.14453-0.39844 0.20312-0.078124 0.29297-0.050781 0.32031 0.15234 0.15234 0.13672-0.11328 0.24609-0.27344 0.24609-0.35547zm-94.66-0.39063c0-0.035156-0.13672-0.17187-0.30469-0.30469-0.27344-0.21484-0.28125-0.21094-0.066406 0.066406 0.22656 0.28906 0.36719 0.37891 0.36719 0.23828zm-31.988-2.2188c2.3477-1.1914 5.1641-2.168 7.9766-2.7695 1.7031-0.36328 2.3516-0.40625 6.0664-0.40234 4.5586 0.003906 5.7891 0.17187 9.5352 1.3125 1.5938 0.48437 5.7461 2.375 7.1953 3.2773l0.60547 0.37891-0.99219-0.85938 8.6875-11.289c4.7773-6.207 8.6875-11.363 8.6875-11.449 0-0.089843-5.3477-10.59-11.887-23.34-6.5391-12.746-11.863-23.195-11.832-23.223 0.03125-0.027343 0.30859-0.17578 0.61719-0.33203 0.30859-0.15625 0.5625-0.30859 0.5625-0.33203 0-0.023438-0.99609 0.28516-2.2109 0.6875-3.9922 1.3281-5.2617 1.5195-10.012 1.5273-4.7812 0.007813-6.25-0.19531-9.707-1.3281-1.1445-0.375-2.1992-0.71875-2.3398-0.76563-0.14453-0.046874 0.03125 0.078126 0.39062 0.27344 0.35938 0.19531 0.64844 0.41797 0.64844 0.49219 0 0.074218-3.2227 6.6055-7.1602 14.516-3.9375 7.9102-8.9805 18.059-11.203 22.551l-4.043 8.1719 9.0352 11.812c4.9688 6.4961 9.0352 11.867 9.0352 11.934 0 0.066407-0.21484 0.30859-0.47656 0.53516l-0.47656 0.41406 0.60547-0.37109c0.33203-0.20313 1.543-0.84375 2.6875-1.4258zm91.18-11.297c-0.99609-2.5742-1.8438-4.7148-1.8828-4.7578-0.14063-0.14062-5.1133 3.168-5.0469 3.3594 0.035157 0.10547 1.6523 2.2305 3.5859 4.7188l3.5195 4.5234 1.6328-3.1641zm44.641 1.9883c1.5586-2.0352 2.7578-3.7539 2.6641-3.8125-2.6602-1.7461-4.9336-3.1758-4.9766-3.125-0.14844 0.17969-3.3984 8.8906-3.3984 9.1133 0 0.14453 0.35547 0.91406 0.79297 1.7148l0.79297 1.457 0.64453-0.82031c0.35547-0.45312 1.918-2.4883 3.4805-4.5234zm-238.14 2.2852 0.92578-1.8477-1.2891-3.3945c-0.71094-1.8672-1.3438-3.5312-1.4062-3.6953-0.097656-0.25391-0.50781-0.039063-2.6445 1.3867l-2.5312 1.6875 2.9492 3.8594c1.625 2.1211 2.9766 3.8594 3.0078 3.8594s0.47656-0.83203 0.98438-1.8477zm42.809-2.6914 2.875-3.7578-2.168-1.418c-1.1914-0.78125-2.2305-1.3516-2.3047-1.2695-0.18359 0.19922-3.1289 8.082-3.1289 8.3711 0 0.125 0.28906 0.75391 0.64062 1.3984 0.62891 1.1523 0.64844 1.168 0.92578 0.80469 0.15625-0.20312 1.5781-2.0625 3.1602-4.1289zm128.16-1.9219c2.4805-1.6133 4.5234-2.9453 4.5391-2.9609 0.042969-0.03125-10.281-13.285-10.594-13.602-0.19141-0.19531-0.70703 0.39062-3.1055 3.5195l-2.875 3.75 0.57812 1.0781c0.31641 0.59375 1.8047 3.4805 3.3008 6.418l2.7227 5.3398 0.46094-0.30469c0.25391-0.16797 2.4883-1.625 4.9688-3.2383zm94.012-3.6797 3.3398-6.6797-2.7344-3.5391c-1.5039-1.9453-2.7852-3.5234-2.8516-3.5039-0.10938 0.03125-2.9766 3.7305-8.6875 11.219-1.125 1.4766-2.0391 2.7617-2.0312 2.8555 0.011718 0.14453 9.2617 6.2656 9.5391 6.3125 0.046875 0.007812 1.5898-2.9922 3.4258-6.6641zm-195.11-0.14844 3.2695-6.6406-2.8125-3.6758c-1.5469-2.0195-2.8906-3.6484-2.9844-3.6172-0.16797 0.054687-10.914 14.039-10.84 14.105 0.23047 0.19531 9.9414 6.4844 10.008 6.4805 0.046875-0.003906 1.5586-2.9961 3.3555-6.6484zm-89.52 2.0938c1-0.66406 1.8477-1.2305 1.8828-1.2617 0.10156-0.085938-10.379-13.684-10.547-13.684-0.085937 0-0.62109 0.62109-1.1914 1.3828-0.71484 0.95312-0.99609 1.4648-0.90234 1.6484 0.074219 0.14453 1.6758 3.4375 3.5586 7.3125l3.4258 7.0508 0.97656-0.62109c0.53906-0.33984 1.7969-1.1641 2.7969-1.832zm223.95-10.965c-0.089844-0.089844-6.1055 3.8867-6.168 4.0781-0.03125 0.097656 0.26562 1.0156 0.66406 2.043 0.39844 1.0273 0.80078 2.0586 0.89062 2.293 0.14844 0.38281 0.39844-0.023438 2.418-3.9688 1.2383-2.418 2.2266-4.418 2.1992-4.4453zm24.297 6.0977c0.38672-1.0391 0.70703-1.9727 0.70703-2.082 0-0.15625-2.2188-1.6523-5.4961-3.7109-0.28906-0.18359-0.046874 0.40625 1.0039 2.418 0.76172 1.4609 1.7148 3.3008 2.1133 4.0859 0.39844 0.78516 0.77734 1.3711 0.84766 1.3008 0.066406-0.070312 0.44141-0.97656 0.82812-2.0156zm-194.52-0.32422c0.32422-0.88281 0.62109-1.6992 0.66406-1.8164 0.066407-0.1875-4.6289-3.4141-4.7656-3.2773-0.070313 0.070313 3.3125 6.6875 3.4219 6.6914 0.050782 0 0.35547-0.71875 0.67969-1.6016zm-27.215-1.8789 1.2539-2.4414-3.6406 2.4453 0.45703 1.2188c0.25391 0.67188 0.50781 1.2188 0.56641 1.2227 0.058594 0 0.67188-1.0977 1.3594-2.4414zm180.15-1.6406c1.4844-0.96094 1.7383-1.1953 1.6719-1.5156-0.066406-0.31641-9.1172-23.887-9.2109-23.992-0.042969-0.050781-9.9883 12.902-9.9883 13.008 0 0.078125 10.219 13.273 11.73 15.148l0.58984 0.73047 1.7266-1.1211c0.94922-0.61719 2.5156-1.6328 3.4805-2.2578zm-194.87 0.87891c3.2617-2.1562 3.2695-2.1602 3.0859-2.6406-0.10156-0.26562-2.1367-5.6289-4.5273-11.922-2.3867-6.293-4.3984-11.547-4.4648-11.672-0.082031-0.14844-1.8203 2.0234-5.0195 6.2617l-4.8945 6.4922 6.0352 7.8984c3.8359 5.0195 6.1211 7.8711 6.2734 7.8203 0.12891-0.042969 1.707-1.0508 3.5078-2.2383zm254.79 0.38672c6.1602-7.9961 10.598-13.801 10.789-14.109 0.21484-0.34375-0.10938-0.80859-4.7695-6.8047-2.75-3.5391-5.0195-6.4141-5.043-6.3906-0.03125 0.03125-6.8281 17.887-8.9961 23.629l-0.39453 1.0469 3.4023 2.1992c1.8711 1.207 3.457 2.1992 3.5195 2.2031 0.066406 0.003906 0.73438-0.79297 1.4883-1.7734zm-190.33-6.9648 6.0781-7.9609-0.46875-0.62109c-3.2227-4.2734-8.9492-11.727-9.0391-11.758-0.10938-0.039063-9.0859 23.836-9.168 24.383-0.058594 0.40625 6.0352 4.3711 6.3164 4.1094 0.11328-0.10547 2.9414-3.7734 6.2852-8.1523zm144.52-3.4883c4.2695-2.7695 5.5586-3.6836 5.4023-3.832-0.36328-0.34766-18.703-12.047-18.773-11.977-0.12891 0.12891 7.4453 19.555 7.6055 19.5 0.089843-0.03125 2.6836-1.6875 5.7695-3.6875zm-193.65-0.097656c4.3008-2.8398 5.2578-3.5391 5.0742-3.7188-0.22656-0.21484-17.277-11.402-17.836-11.699-0.20703-0.11328 0.18359 1.1016 1.3359 4.1289 0.89453 2.3594 2.5391 6.6875 3.6523 9.625 1.4258 3.7539 2.0898 5.3125 2.25 5.25 0.125-0.046874 2.6094-1.6602 5.5273-3.5859zm33.516-5.7109c1.9102-5.1055 3.5273-9.4258 3.5977-9.6055 0.09375-0.24219 0.0625-0.30469-0.125-0.23047-0.13672 0.054688-4.2539 2.7539-9.1484 6.0078l-8.8984 5.9102 4.3906 2.8828c2.4141 1.5859 4.8984 3.2188 5.5195 3.625 0.62109 0.40625 1.1406 0.73047 1.1562 0.71875 0.015626-0.015625 1.5938-4.1992 3.5-9.3047zm194.88-0.35156c2.0312-5.3477 3.6602-9.75 3.625-9.7852-0.074219-0.074219-18.855 12.094-18.859 12.223-0.003906 0.125 11.141 7.2617 11.359 7.2734 0.10156 0.003907 1.8438-4.3633 3.875-9.7109zm-78.02 5.6875c1.1562-1.5039 2.1016-2.7695 2.1016-2.8125 0-0.082031-22.977-29.684-23.281-29.996-0.09375-0.09375 0.53516 1.1914 1.3945 2.8594 2.2188 4.3008 15.645 30.512 16.414 32.055 0.76562 1.5273 0.40234 1.7539 3.3672-2.1055zm120.61-10.312c3.5-6.9375 7.4531-14.758 8.7891-17.379 1.3359-2.6211 2.3477-4.6914 2.25-4.5938-0.097656 0.09375-5.1055 6.5977-11.125 14.449-7.2148 9.4102-10.895 14.344-10.797 14.477 1.2188 1.6133 4.4062 5.6602 4.457 5.6602 0.035156 0 2.9297-5.6758 6.4258-12.613zm-192.73-5.3281c4.7852-9.6289 8.5898-17.395 8.4492-17.25-0.13672 0.14453-5.1055 6.6172-11.039 14.391-5.9336 7.7695-10.852 14.211-10.93 14.309-0.16797 0.21094 4.5195 6.4023 4.6953 6.1992 0.066407-0.074219 4.0352-8.0156 8.8203-17.645zm-119.29 13.422 0.51953-0.70703-2.3438-3.0625c-1.2891-1.6836-2.457-3.1797-2.5938-3.3203-0.13672-0.14453 0.62891 1.5547 1.7031 3.7695 1.0742 2.2188 2.0039 4.0312 2.0703 4.0312s0.35547-0.32031 0.64062-0.70703zm200.12-9.1016c0.99219-1.2969 3.4219-4.4648 5.4062-7.043s3.582-4.75 3.5547-4.8281c-0.027343-0.078125-7.8906-5.1797-17.473-11.34-9.582-6.1602-17.613-11.34-17.848-11.508l-0.42578-0.3125 0.39453-0.59375c0.24609-0.37109 0.11328-0.26562-0.35156 0.27344-0.41016 0.47656-1.4141 1.5625-2.2266 2.4141-0.8125 0.85156-1.168 1.3008-0.78906 0.99609 0.53906-0.43359 0.73047-0.50391 0.88672-0.33594 0.10938 0.11719 6.2227 7.957 13.586 17.422s13.41 17.207 13.438 17.207c0.027343 0 0.85938-1.0586 1.8477-2.3555zm-189.34-5.1562c2.7852-3.7031 5.0391-6.7539 5.0039-6.7812-0.035157-0.027343-7.8438-5.1406-17.355-11.359s-17.328-11.367-17.371-11.438c-0.042969-0.070313 0.11719-0.43359 0.35938-0.80859 0.42969-0.66406 0.42578-0.66016-0.21484 0.10156-0.36328 0.42969-1.4023 1.5547-2.3125 2.5039-0.96875 1.0117-1.3555 1.4922-0.93359 1.168l0.72266-0.55469 11.668 15.215c6.418 8.3672 12.371 16.133 13.23 17.254 1.4727 1.9219 1.5781 2.0195 1.8477 1.7344 0.16016-0.16797 2.5664-3.332 5.3555-7.0352zm298.58-10.215c7.1797-9.3672 13.059-17.086 13.059-17.148s-0.49609-0.62891-1.1016-1.2617l-1.1016-1.1484-17.363 11.293c-9.5508 6.2109-17.387 11.312-17.418 11.34-0.054687 0.050781 10.723 13.953 10.816 13.953 0.027344 0 5.9258-7.6641 13.109-17.031zm-201.46 7.4688c3.1836-4.1641 8.1289-10.637 10.988-14.383s5.7578-7.5352 6.4414-8.4258l1.2383-1.6172 0.58203 0.47266c0.32031 0.25781-0.046874-0.1875-0.80859-0.99219-0.76562-0.80469-1.7266-1.8555-2.1367-2.332-0.66797-0.77734-0.69922-0.79688-0.30078-0.17969 0.24219 0.37891 0.38672 0.74219 0.31641 0.8125-0.070313 0.070312-7.6172 5.0938-16.77 11.164s-16.668 11.062-16.695 11.086c-0.046875 0.039062 5.707 7.6289 9.1094 12.012l1.1133 1.4375 0.57031-0.74219c0.3125-0.41016 3.1758-4.1484 6.3555-8.3125zm148.1-8.6914c4.0742-7.9805 6.4805-12.879 6.3945-13.02-0.45312-0.75391-15.051-19.348-15.16-19.309-0.074219 0.027343-3.5234 4.4531-7.668 9.8398l-7.5312 9.7969 1.9375 3.7344c1.0664 2.0547 4.5117 8.6953 7.6562 14.758l5.7188 11.023 1.0586-2.0156c0.58203-1.1094 3.9961-7.7734 7.5898-14.812zm-196.14 1.0508c3.8398-7.5586 7.1289-13.984 7.3086-14.281l0.32422-0.54297-6.8672-8.9922c-3.7773-4.9453-6.9961-9.1289-7.1562-9.293-0.27344-0.28516-0.71094 0.25781-7.5703 9.3359-4.0039 5.3008-7.3008 9.6992-7.332 9.7773-0.070313 0.18359 14.016 27.738 14.18 27.738 0.070313 0 3.2695-6.1836 7.1094-13.738zm10.777 7.6445c6.3477-4.2148 9.1484-6.168 9.082-6.3359-0.10938-0.28516-7.2344-9.6211-7.2891-9.5508-0.019531 0.027344-1.207 2.3516-2.6406 5.1641-1.4336 2.8125-3.9492 7.7461-5.5898 10.965-1.6406 3.2188-2.9297 5.8516-2.8633 5.8516s4.25-2.7422 9.2969-6.0938zm-28.422 2.0625c-0.94922-1.8359-3.2188-6.2695-5.0469-9.8555-1.8281-3.5859-3.418-6.6484-3.5352-6.8047-0.18359-0.24609-0.66797 0.32031-3.5039 4.0898-1.8125 2.4062-3.293 4.4688-3.293 4.582 0 0.16406 16.801 11.324 17.043 11.324 0.035156 0-0.71484-1.5-1.6641-3.3359zm190.05-6.875c-2.8281-5.4531-5.2031-9.8906-5.2812-9.8594-0.17969 0.066406-6.7539 8.6055-6.75 8.7695 0.003906 0.13281 17.039 11.129 17.125 11.051 0.027343-0.023437-2.2656-4.5078-5.0938-9.957zm34.594 3.625c4.1484-2.6953 7.5703-4.9258 7.6016-4.957 0.046875-0.039063-6.0938-8.0586-6.7383-8.7969-0.097657-0.11328-10.227 19.43-10.227 19.734 0 0.10938-0.29688 0.29688 9.3633-5.9844zm-47.223-16.301c1.7227-2.2422 3.2266-4.2305 3.3477-4.4219 0.19141-0.3125-0.39844-1.5352-5.293-10.965l-5.5117-10.617h-4.582c-4.2812 0-4.5742 0.019531-4.4961 0.30469 0.046875 0.16797 2.7344 7.168 5.9727 15.559s5.9375 15.398 6.0039 15.574c0.13672 0.36719-0.21484 0.78125 4.5625-5.4336zm-193.69 0.125 3.7617-4.9883-3.1562-6.1953c-1.7344-3.4062-4.1641-8.1641-5.4023-10.57l-2.2422-4.375h-8.9844l0.34375 0.87109c0.1875 0.47656 2.7969 7.3242 5.793 15.215 2.9961 7.8906 5.5352 14.57 5.6406 14.848 0.10937 0.28516 0.25391 0.4375 0.33594 0.34766 0.078125-0.085938 1.8359-2.4023 3.9062-5.1445zm259.18-10.441c3.1094-8.1992 5.7305-15.086 5.8242-15.301l0.16797-0.39453-9.0391 0.09375-10.734 21.031 3.9453 5.0547c3.0781 3.9414 3.9727 4.9844 4.0625 4.7422 0.066406-0.17188 2.6641-7.0234 5.7734-15.223zm-194.94-0.085938c3.0781-8.2461 5.6367-15.133 5.6797-15.301 0.074219-0.28516-0.23047-0.30469-4.6641-0.30078l-4.7461 0.003906-5.0586 9.9297c-2.7812 5.4609-5.082 10.008-5.1133 10.105-0.078125 0.25 8.043 10.855 8.1875 10.691 0.0625-0.074218 2.6367-6.8828 5.7148-15.129zm-77.703 12.043c-0.20312-0.52734-2.6406-6.9453-5.418-14.258l-5.0508-13.297-13.945-0.09375-0.023438-0.5625c-0.027344-0.61719-0.007812-0.69922-0.33594 1.6055-0.40625 2.8789-1.9023 7.4648-3.2109 9.8594-0.24219 0.44141-0.32031 0.64453-0.17578 0.45312 0.76953-1.0117-0.46094-1.6992 14.582 8.1602 7.6289 5 13.887 9.0898 13.906 9.0898s-0.12891-0.43359-0.33203-0.96094zm94.602-8.2969 13.176-8.75 0.32422 0.50781c0.57031 0.90234 0.46094 0.55078-0.40234-1.2656-1.543-3.2578-2.6133-7.0195-2.9297-10.305-0.12891-1.3594-0.14844-1.418-0.17188-0.53125l-0.023437 0.99609h-13.094l-5.0977 13.652c-2.8047 7.5078-5.2031 13.91-5.332 14.227-0.21875 0.53516-0.21484 0.5625 0.074219 0.39844 0.17188-0.097656 6.2383-4.1133 13.484-8.9258zm93.348-5.2148-5.4453-14.133h-14.648l-0.023438-0.73828c-0.019531-0.58984-0.050781-0.5-0.16016 0.42578-0.38281 3.293-1.3828 6.832-2.7852 9.8438-0.69531 1.4961-0.78125 1.957-0.16797 0.89062 0.10156-0.17969 3.3164 1.8008 13.035 8.0352 7.0938 4.5508 13.48 8.6523 14.191 9.1172 0.71094 0.46094 1.3281 0.80469 1.3711 0.76562 0.042969-0.042969-2.3711-6.4375-5.3672-14.207zm94.676 9.7891c3.0039-1.9609 8.9492-5.8242 13.215-8.5859s7.7539-5.0859 7.7578-5.1602c0.003906-0.078125-0.30469-0.86719-0.68359-1.7539-1.0625-2.4922-1.8711-5.5391-2.2422-8.4219-0.078125-0.62109-0.15625-0.875-0.16797-0.56641l-0.023437 0.5625-13.945 0.09375-5.3359 14.043c-2.9336 7.7227-5.3359 14.07-5.3359 14.102 0 0.089844 0.91406-0.49219 6.7617-4.3086zm-162.79-0.58594c0-0.035156-0.21484-0.19922-0.47656-0.35547l-0.47656-0.28906 0.41016 0.35547c0.39844 0.34766 0.54297 0.42578 0.54297 0.28906zm34.035-0.78516c0.11328-0.13672-0.12891-0.027344-0.53516 0.23828s-0.73828 0.51953-0.73828 0.55859c0 0.125 1.0547-0.53906 1.2695-0.80078zm-38.023-2.1602c0-0.035156-0.13672-0.17187-0.30469-0.30469-0.27344-0.21484-0.28125-0.21094-0.066406 0.066406 0.22656 0.28906 0.36719 0.37891 0.36719 0.23828zm-167.41-1.6875c8.0781-1.6094 14.754-7.4805 17.328-15.234 1.5352-4.625 1.5312-10.055-0.007813-14.562-1.1016-3.2266-2.8711-6.082-5.3906-8.6953-4.1641-4.3164-9.2734-6.6016-15.352-6.8633-2.8203-0.12109-5.1406 0.16016-7.7344 0.94141-8.2891 2.4922-14.562 9.6875-15.988 18.332-0.29297 1.7773-0.24609 5.7812 0.089843 7.6641 1.8125 10.129 10.605 18.109 20.66 18.754 2.5898 0.16406 4.3594 0.074219 6.3945-0.33203zm190.2 0.28516c7.4805-0.51172 15.059-5.8828 18.363-13.008 3.9922-8.6094 2.3711-18.66-4.1133-25.508-3.3477-3.5391-7.2695-5.7344-12.082-6.7656-2.0508-0.44141-7.1133-0.44531-9.1367-0.011719-6.6641 1.4375-12.082 5.3984-15.457 11.293-4.957 8.6641-3.5625 19.766 3.3984 26.996 3.2617 3.3867 6.9727 5.5195 11.473 6.5898 1.4922 0.35547 4.4648 0.65234 5.5586 0.55859 0.33203-0.027344 1.2305-0.09375 1.9922-0.14844zm195.73 0.007812c2.8047-0.16016 6.2812-1.25 9.0117-2.8164 5.9219-3.4023 10.094-9.2773 11.301-15.918 0.38281-2.0977 0.375-6.0898-0.011719-8.1055-1.6523-8.5781-7.7266-15.414-15.887-17.867-2.5977-0.78125-4.918-1.0625-7.7344-0.94141-5.8086 0.25-10.668 2.3047-14.746 6.2422-2.3633 2.2812-3.9062 4.4336-5.125 7.1484-1.3633 3.0352-1.8477 5.1406-1.9805 8.582-0.25781 6.5977 2.0078 12.422 6.6172 17.031 3.1641 3.1641 6.75 5.1836 11.012 6.1953 1.5469 0.36719 4.582 0.6875 5.5469 0.58594 0.23828-0.023438 1.1367-0.085938 1.9961-0.13672zm-112.86-11.688 5.5586-7.2227-4.7344-0.046875c-2.6055-0.023438-6.875-0.023438-9.4883 0l-4.75 0.046875 2.1211 4.0742c1.168 2.2422 2.8828 5.543 3.8164 7.3359 0.93359 1.793 1.7461 3.2109 1.8086 3.1484s2.6133-3.3633 5.6719-7.3359zm34.676 2.6133c1.3047-2.5508 2.9922-5.8281 3.7461-7.2812l1.375-2.6445h-18.891l5.668 7.2812c3.1172 4.0039 5.6797 7.2812 5.6992 7.2812s1.1016-2.0859 2.4062-4.6367zm-228.44-2.7305 5.3672-7.1094-4.582-0.046875c-2.5195-0.027344-6.6367-0.027344-9.1484 0l-4.5664 0.046875 3.6562 7.1484c2.0117 3.9336 3.7148 7.1289 3.7812 7.1094 0.070312-0.023437 2.5391-3.2383 5.4922-7.1484zm34.426-0.41406c1.8711-3.6602 3.3711-6.6836 3.3359-6.7188-0.035156-0.035156-3.9102-0.046875-8.6094-0.019531l-8.543 0.046875 4.8906 6.4141c4.9336 6.4727 5.3984 7.0586 5.4805 6.9766 0.023437-0.023438 1.5742-3.0391 3.4453-6.6992zm43.098-17c0.55469-2.707 1.9531-6.5977 3.043-8.4609 0.51563-0.88281 0.42969-0.99219-0.10547-0.12891-0.20703 0.33203-0.4375 0.60547-0.51562 0.60547s-1.8008-1.0938-3.832-2.4336c-2.6367-1.7383-3.7305-2.3672-3.8164-2.2109-0.16016 0.28516-5.7031 15.145-5.7031 15.285 0 0.058594 2.3008 0.10547 5.1133 0.10547h5.1133l0.023437 0.99609c0.023438 0.91016 0.035156 0.86719 0.16406-0.47656 0.078125-0.80859 0.30859-2.2891 0.51172-3.2852zm68.457 2.7227 5.8594-0.046876-2.9922-7.7461c-1.6445-4.2617-3.0195-7.832-3.0547-7.9414-0.035156-0.10937-2.0117 1.0664-4.3906 2.6055-3.7891 2.4531-4.3477 2.7656-4.5039 2.5078-0.57031-0.94531-0.51562-0.67188 0.15234 0.77734 1.4805 3.2148 2.5508 6.9766 2.8359 9.9922 0.10156 1.0547 0.14062 1.1992 0.18359 0.62891l0.054687-0.73438zm-192.61 0 5.5156-0.046876-3.0039-7.8867c-1.6523-4.3398-3.0742-7.8711-3.1602-7.8516-0.085937 0.019531-1.8828 1.1719-3.9883 2.5586-3.6133 2.3789-4.1836 2.7031-4.1953 2.3906-0.003907-0.070312-0.16016-0.32422-0.34766-0.5625-0.19141-0.23828 0.078126 0.46484 0.59766 1.5586 0.51953 1.0977 1.1836 2.7227 1.4766 3.6133 0.59766 1.8008 1.3828 5.4648 1.4258 6.6367 0.023438 0.63281 0.039063 0.66797 0.097657 0.19922l0.070312-0.5625zm320.05-2.9609c0.45312-2.1289 1.5273-5.2656 2.4375-7.1133 0.5625-1.1484 0.56641-1.4648 0-0.48438-0.10156 0.17578-1.1406-0.41406-4.1797-2.3789-2.2266-1.4375-4.0703-2.5898-4.1016-2.5586s-1.3711 3.5195-2.9766 7.7539l-2.9219 7.6992 11.047 0.09375 0.023437 0.47266c0.011719 0.26172 0.085938-0.03125 0.16797-0.65234 0.078125-0.62109 0.30859-1.8906 0.50781-2.8281zm-299.9 0.35547c-0.75781-1.4531-3.3438-6.5039-5.75-11.227-2.4062-4.7188-4.4336-8.6445-4.5-8.7188-0.070313-0.078125-1 0.42578-2.0703 1.1133-1.3672 0.88281-1.9219 1.3359-1.8711 1.5273 0.09375 0.34375 7.418 19.645 7.5234 19.82 0.042969 0.070312 1.8711 0.12891 4.0625 0.12891h3.9844zm31.75 2.4141c-0.09375-0.15625-22.797-29.906-25.477-33.383-0.027343-0.035157-2.2891 1.4062-5.0234 3.207s-5.0469 3.3242-5.1406 3.3828c-0.09375 0.058594 2.6719 5.6641 6.1602 12.484 3.4805 6.8047 6.5742 12.859 6.8711 13.457l0.54297 1.082h11.102c9.1641 0 11.078-0.039062 10.965-0.23047zm36.48 0.011719c0.13281-0.17188 13.336-26.016 13.535-26.5 0.042969-0.10547-8.5-5.8633-9.4922-6.3906-0.27734-0.14844-0.73828 0.38672-3.6094 4.2031-1.8086 2.4062-7.3789 9.7969-12.379 16.422-5 6.6289-9.1484 12.148-9.2227 12.266-0.10547 0.17188 2.0273 0.21484 10.434 0.21484 8.2461 0 10.602-0.046875 10.734-0.21484zm20.406-9.4102c1.9805-5.2969 3.6367-9.7656 3.6797-9.9336 0.074219-0.28906-0.5625-0.77344-3.7812-2.8672l-0.45703-0.29687-5.7422 11.277c-3.1562 6.2031-5.7422 11.316-5.7422 11.363 0 0.046876 1.8984 0.085938 4.2188 0.085938h4.2188zm105.49 8.8906c-0.63281-1.2578-11.309-21.883-11.359-21.953-0.085938-0.10938-4.2305 2.6055-4.1562 2.7266 0.039062 0.0625 1.7227 4.4023 3.7461 9.6484 2.0234 5.2461 3.7461 9.7109 3.8281 9.9258 0.15234 0.39062 0.16016 0.39062 4.2344 0.39062h4.082zm31.453 0.3125c-3.5156-4.6875-25.859-33.188-25.996-33.16-0.35938 0.070313-10.453 6.625-10.461 6.793-0.007813 0.17969 13.441 26.207 13.734 26.574 0.13281 0.16797 2.6641 0.21484 11.605 0.21484h11.438zm42.262-7.4648c2.1953-4.2891 5.2266-10.223 6.7422-13.184l2.7539-5.3828-5.2188-3.3711c-2.8711-1.8555-5.3047-3.3867-5.4062-3.4062-0.15625-0.027344-25.379 32.621-25.559 33.086-0.03125 0.082032 4.9688 0.12891 11.32 0.10547l11.379-0.042969zm16.043-1.9062c2.0312-5.3398 3.6953-9.7852 3.6953-9.8828 0.003906-0.23437-3.8633-2.6953-4-2.5469-0.058594 0.066406-2.0391 3.9023-4.3984 8.5273s-4.9102 9.5977-5.668 11.055l-1.3789 2.6484 8.0625-0.09375zm-37.195-9.8398c7.2695-9.4648 13.32-17.332 13.453-17.488 0.21484-0.25391-1.1797-1.1992-13.461-9.1445-7.5312-4.8672-13.746-8.8555-13.805-8.8555s-6.1445 3.9062-13.527 8.6797l-13.418 8.6797 0.99609 1.2773c0.54688 0.70312 6.7305 8.6523 13.738 17.664 7.0078 9.0117 12.758 16.391 12.773 16.395 0.019531 0.003907 5.9805-7.7344 13.246-17.199zm-199.2 6.4648c4.1328-5.4844 9.9141-13.148 12.852-17.035s5.3359-7.125 5.3281-7.1953c-0.003906-0.070312-1.625-1.1797-3.5977-2.4648-1.9727-1.2852-8.0117-5.25-13.418-8.8125l-9.832-6.4805-12.969 8.5273c-7.1328 4.6914-13.059 8.6172-13.168 8.7266-0.19531 0.19141 1.4492 2.3711 23.977 31.816 2.6055 3.4023 2.7109 3.5195 3.0039 3.207 0.16797-0.17578 3.6836-4.8086 7.8164-10.293zm63.707-3.9883c2.6133-3.0781 6.5508-6.0234 10.527-7.8789 6.3281-2.9492 14.344-3.6797 21.051-1.9141 2.0742 0.54688 4.6211 1.5039 6.4883 2.4375 3.3867 1.6953 7.3164 4.7734 9.6328 7.5391 1.125 1.3398 1.5703 1.7773 1.0234 0.99609-0.14844-0.21094-0.26953-0.46484-0.26953-0.56641 0-0.097656 2.1875-1.582 4.8594-3.2969 4.0195-2.5781 4.8477-3.1797 4.7969-3.4648-0.046875-0.25781-23.941-62.336-26.102-67.82l-0.35547-0.89844 0.87109-0.28906c1.3594-0.45312 0.92187-0.44141-0.79688 0.019531-2.9258 0.78516-5.0117 0.98828-9.0156 0.88672-3.0039-0.078125-3.9727-0.16797-5.5469-0.51953-1.0508-0.23437-1.9375-0.40234-1.9727-0.36719-0.035156 0.03125 0.14062 0.10938 0.39062 0.17188s0.45312 0.21094 0.45312 0.33203c0 0.12109-5.7461 15.578-12.766 34.352-7.0195 18.773-12.801 34.258-12.84 34.406-0.054688 0.19922 1.1445 1.0742 4.3555 3.1797 2.4375 1.6016 4.4336 2.9844 4.4336 3.0781s-0.23828 0.53125-0.53125 0.98047c-0.55469 0.83984-0.51172 0.79688 1.3203-1.3594zm-9.5195-27.352c3.5508-9.5039 6.4336-17.301 6.4102-17.328-0.023437-0.023437-2.1797 4.1484-4.7852 9.2734-2.6094 5.125-6.332 12.426-8.2734 16.23-1.9414 3.8008-3.5078 6.9336-3.4805 6.9531 0.59375 0.47266 3.5234 2.3086 3.5859 2.2422 0.046875-0.046875 2.9922-7.8672 6.543-17.371zm194.96 1.1367c3.4062-8.9805 6.1719-16.352 6.1445-16.375-0.027344-0.027344-3.5781 6.8633-7.8945 15.309-4.3164 8.4453-7.8203 15.383-7.7891 15.414 0.23047 0.23047 3.0352 1.9805 3.1719 1.9805 0.09375 0 2.9609-7.3477 6.3633-16.328zm-118.79 14.895c0.71484-0.47656 1.3242-0.88672 1.3555-0.91016s-3.5508-6.9961-7.9609-15.492c-4.4102-8.4961-8.043-15.418-8.0781-15.387-0.03125 0.03125 2.8008 7.4805 6.2969 16.547 6.125 15.879 6.3711 16.48 6.7188 16.297 0.19922-0.10547 0.94531-0.58203 1.6641-1.0586zm-192.83-0.15234 1.2578-0.84375-2.9883-5.8516c-1.6445-3.2188-5.1289-10.039-7.7461-15.16-2.6172-5.1211-4.7812-9.2891-4.8047-9.2617-0.035157 0.035156 10.398 27.621 12.059 31.891 0.22266 0.56641 0.23828 0.5625 2.2266-0.77344zm307.77-28.055c6.6016-12.922 12.895-25.227 13.988-27.348s1.9492-3.8594 1.8984-3.8594c-0.14453 0-37.297 48.375-37.297 48.566 0 0.14844 9.3008 6.2617 9.3789 6.1641 0.015625-0.019532 5.4258-10.605 12.027-23.523zm-102.46 20.145c2.4297-1.5625 4.4883-2.9062 4.5664-2.9805 0.078125-0.074218-1.3711-2.0742-3.2227-4.4453-1.8516-2.3711-10.254-13.164-18.672-23.988-8.418-10.824-15.422-19.793-15.562-19.938-0.30078-0.30469-0.3125-0.32812 15.719 30.551 7.3789 14.215 12.461 23.816 12.57 23.754 0.10156-0.058594 2.1719-1.3906 4.6016-2.9531zm-192.93-0.24219 4.2773-2.8242-6.3633-8.3203c-3.5-4.5781-11.699-15.305-18.215-23.84-6.5156-8.5352-11.93-15.594-12.023-15.691-0.097656-0.09375 0.72656 1.582 1.8242 3.7266 1.1016 2.1445 6.5039 12.715 12.004 23.492 14.48 28.352 13.582 26.641 13.926 26.445 0.16016-0.09375 2.2188-1.4375 4.5703-2.9922zm92.945-6.7383c2.7461-5.3789 5.9961-11.77 7.2266-14.203 1.2305-2.4297 3.6875-7.2695 5.4688-10.75 7.043-13.781 9.1367-17.938 8.9648-17.77-0.10156 0.09375-2.8984 3.7773-6.2227 8.1797-3.3203 4.4023-11.227 14.883-17.566 23.281-6.3398 8.4023-11.527 15.355-11.527 15.449 0 0.22656 8.2617 5.7109 8.4961 5.6406 0.09375-0.027344 2.418-4.4531 5.1641-9.8359zm-3.3398-22.004c9.1758-12.156 18.758-24.852 21.293-28.211l4.6094-6.1055 0.61328 0.45703c0.33984 0.25-0.089844-0.27734-0.95312-1.1758s-1.8633-1.9844-2.2266-2.4141c-0.65625-0.77734-0.65625-0.77734-0.21094-0.089844l0.44531 0.6875-5.2852 3.4727c-2.9062 1.9102-15.41 10.145-27.789 18.297-12.375 8.1523-24.586 16.188-27.133 17.855-2.5469 1.668-4.6094 3.0938-4.5859 3.168 0.042968 0.12891 24.453 16.258 24.508 16.195 0.015625-0.015625 7.5352-9.9805 16.711-22.137zm199.63-6.0078c11.918-15.5 21.723-28.266 21.785-28.367 0.070313-0.11328 0.40234 0.039063 0.86719 0.38672 0.62891 0.47656 0.58203 0.40234-0.29297-0.44922-0.57422-0.55859-1.5391-1.5625-2.1406-2.2305-0.60156-0.66797-1.0039-1.0312-0.89062-0.80469s0.14062 0.46875 0.0625 0.53906c-0.082031 0.070313-8.4141 5.4727-18.523 12-10.105 6.5273-24.992 16.145-33.082 21.375l-14.703 9.5078 1.1797 0.74609c0.64844 0.41016 6.293 4.0586 12.535 8.1055 6.2461 4.0469 11.395 7.3633 11.441 7.3711 0.046874 0.003907 9.8398-12.676 21.758-28.176zm-273.66 24.473c2.6211-1.7266 7.9492-5.2305 11.84-7.7891 3.8906-2.5586 7.0508-4.7148 7.0195-4.7891-0.050781-0.14453-6.0469-4.1016-42.18-27.863-12.109-7.9648-22.129-14.582-22.262-14.703-0.20703-0.19141-0.20312-0.28906 0.046875-0.66797 0.16016-0.24219 0.26562-0.44531 0.23047-0.44531-0.03125 0-0.79297 0.83984-1.6875 1.8633-0.89453 1.0234-1.5078 1.7695-1.3633 1.6523 0.23047-0.18359 0.9375 0.66406 4.9336 5.9141 24.422 32.047 38.332 50.148 38.477 50.066 0.09375-0.054687 2.3203-1.5078 4.9414-3.2344zm200.73-4.5703c6.6914-4.3242 12.164-7.9141 12.164-7.9766-0.003906-0.0625-7.1914-4.7539-15.98-10.426-40.949-26.445-50.156-32.418-50.211-32.586-0.03125-0.097656 0.10938-0.43359 0.31641-0.74219 0.27734-0.42188 0.22656-0.38672-0.19531 0.12891-0.3125 0.38281-1.3164 1.4688-2.2266 2.4141-0.91016 0.94531-1.3438 1.4727-0.96484 1.1719 0.37891-0.30078 0.74219-0.49219 0.80859-0.42187 0.10547 0.11328 7.8359 10.039 36.727 47.156 3.9531 5.0781 7.2344 9.2148 7.293 9.1875 0.058593-0.023438 5.5781-3.582 12.273-7.9102zm-166.68-17.828c9.332-6.1328 9.0586-5.9531 34.602-22.762 11.109-7.3086 21.238-13.984 22.508-14.832l2.3125-1.543 0.33203 0.42578c0.18359 0.23438-0.015625-0.3125-0.4375-1.2188-1.457-3.1133-2.4883-6.8203-2.8477-10.246-0.14453-1.3633-0.15234-1.3945-0.17578-0.45703l-0.023437 0.99609h-128.97l-0.066407-0.64844c-0.066406-0.64844-0.066406-0.64844-0.097656 0.10938-0.089844 2.3008-1.4141 7.1133-2.8008 10.188-0.38281 0.84375-0.58594 1.3945-0.44922 1.2188 0.1875-0.24219 0.32422-0.27734 0.5625-0.14844 0.17578 0.09375 15.375 10.086 33.777 22.207 19.703 12.977 33.559 21.996 33.707 21.941 0.13672-0.050781 3.7656-2.4062 8.0625-5.2305zm207.88-8.8125c36.359-23.512 47.094-30.422 47.242-30.422 0.078124 0 0.3125 0.27344 0.51953 0.60547 0.20703 0.33203 0.39453 0.60547 0.42188 0.60547 0.023437 0-0.32812-0.75781-0.78516-1.6797-1.3828-2.8008-2.4766-6.5039-2.9062-9.8672-0.085938-0.65625-0.16406-0.9375-0.17578-0.62891l-0.023437 0.5625h-132.62l-0.023438-0.82422c-0.019531-0.67578-0.046875-0.58984-0.16016 0.47656-0.35938 3.3672-1.5547 7.4766-3.0312 10.418-0.79297 1.5781-0.92578 2.043-0.26562 0.92188 0.26172-0.44531 0.44922-0.59375 0.65234-0.51562 0.15625 0.058594 3.5703 2.2266 7.582 4.8164 6.7031 4.3242 57.957 37.457 60.344 39.008 0.57031 0.37109 1.1562 0.64453 1.3008 0.60547 0.14453-0.039063 10.016-6.375 21.934-14.082zm-102.89-17.867c0-0.046875-0.15625-0.003906-0.34766 0.097656-0.19141 0.10156-0.34766 0.22266-0.34766 0.27344 0 0.046875 0.15625 0.003906 0.34766-0.097657 0.19141-0.10156 0.34766-0.22266 0.34766-0.27344zm-37.273-2.3945c0-0.035156-0.13672-0.17188-0.30469-0.30469-0.27344-0.21484-0.28125-0.21094-0.066406 0.066406 0.22656 0.28906 0.36719 0.37891 0.36719 0.23828zm-150.75-0.80078c0.17187-0.19141 0.27344-0.34766 0.22656-0.34766s-0.22656 0.15625-0.40234 0.34766c-0.17188 0.19141-0.27344 0.34766-0.22656 0.34766s0.22656-0.15625 0.40234-0.34766zm-16.836-1.0625c4.5195-0.89844 8.5-3.0352 11.789-6.3242 3.2227-3.2227 5.3125-7.1055 6.293-11.684 0.43359-2.0352 0.4375-6.9375 0.003907-8.9609-0.95703-4.4766-2.9375-8.1836-6.1602-11.523-4.1641-4.3164-9.2734-6.6016-15.352-6.8633-2.8203-0.12109-5.1406 0.16016-7.7344 0.94141-9.0391 2.7188-15.473 10.824-16.215 20.426-0.28516 3.6797 0.65625 8.3594 2.3594 11.734 4.6602 9.2422 14.91 14.262 25.016 12.254zm189.8 0.35938c4.332-0.4375 7.9336-1.7656 11.297-4.1719 1.5586-1.1133 3.7695-3.2266 4.8828-4.6641 2.332-3.0117 3.9883-6.9219 4.5195-10.66 1-7.043-1.1914-13.973-6.0391-19.098-3.3477-3.5391-7.2695-5.7344-12.082-6.7656-2.0508-0.44141-7.1133-0.44531-9.1367-0.011718-6.5977 1.4219-12.031 5.3633-15.383 11.152-3.3516 5.793-3.9453 13.086-1.5781 19.375 3.0586 8.1289 10.555 13.926 19.164 14.824 2.0977 0.21875 2.3594 0.21875 4.3555 0.019532zm195.86-0.003907c4.5625-0.42578 8.5156-1.9844 12.066-4.7578 5.1133-3.9883 8.1523-9.582 8.7656-16.125 1-10.668-5.8359-20.789-16.137-23.887-2.5977-0.78125-4.918-1.0625-7.7344-0.94141-5.8516 0.25391-10.832 2.4102-15.031 6.5156-4.5156 4.4141-6.8789 10.086-6.8711 16.5 0.007812 6.1055 2.3281 11.652 6.707 16.031 4.2422 4.2422 9.4492 6.4883 15.828 6.8281 0.23828 0.011718 1.3242-0.058594 2.4102-0.16406zm-575.05 230.25v-283.63h75.242v567.26h-75.242zm66.574 0.085938v-275.05h-58.078v274.93c0 151.21 0.050781 274.98 0.11719 275.05 0.0625 0.0625 13.133 0.11719 29.039 0.11719l28.922-0.003906zm65.691 141.14c-0.78516-0.28125-1.2617-0.61328-1.7344-1.2148-0.72266-0.92188-0.85547-1.8242-0.85547-5.9453l0.003907-3.8711h-53.223v-7.2812h53.195l0.058594-4.2031c0.066406-4.582 0.13281-4.9453 1.1094-5.9102 0.98047-0.97266 2.3477-1.3477 3.6367-1 0.48828 0.13281 3.1602 2.0352 8.7656 6.2383 7.7578 5.8203 8.082 6.0859 8.4414 6.9258 0.48438 1.1289 0.48047 2.2305-0.011719 3.2617-0.35547 0.73828-1.1094 1.3516-8.3516 6.7852-4.3789 3.2852-8.2188 6.082-8.5312 6.2148-0.70703 0.29297-1.6836 0.29688-2.5039 0.003906zm1.1406-379.65c-0.85938-0.30469-1.4453-0.80469-1.9492-1.6641l-0.47656-0.8125-0.10938-8.4062h-53.203v-7.457h53.227v-3.8711c0-4.6289 0.12891-5.2617 1.2773-6.3203 1.1758-1.0859 2.7578-1.3125 4.1641-0.60547 0.66797 0.33594 15.516 11.496 16.004 12.027 1.0039 1.0938 1.1797 2.6797 0.46094 4.125-0.43359 0.87109-0.875 1.2305-8.3711 6.8516-4.3516 3.2617-8.1758 6.0234-8.4961 6.1367-0.70312 0.24609-1.8164 0.24219-2.5234-0.007812z"/>
 </g>
</svg>
