<?xml version="1.0" encoding="UTF-8"?>
<svg width="1200pt" height="1200pt" version="1.1" viewBox="0 0 1200 1200" xmlns="http://www.w3.org/2000/svg">
 <path d="m844.6 459.74c-0.14062-0.28125-0.32812-0.46875-0.51562-0.75-0.32812-0.42188-0.65625-0.79688-1.0312-1.1719-0.23438-0.23437-0.46875-0.46875-0.75-0.65625-0.14062-0.14062-0.28125-0.28125-0.46875-0.42187v0.046874c-0.28125-0.1875-0.60938-0.32812-0.89062-0.46875-0.1875-0.09375-0.32812-0.23437-0.51562-0.32812l-236.72-103.41c-2.3438-1.0312-5.0625-1.0312-7.4062 0l-236.72 103.41c-0.1875 0.09375-0.32812 0.23437-0.51562 0.32812-0.32812 0.14063-0.60938 0.28125-0.89062 0.46875-0.1875 0.09375-0.28125 0.28125-0.46875 0.42188v-0.046876c-0.28125 0.1875-0.51562 0.42188-0.75 0.65625-0.375 0.375-0.70312 0.75-1.0312 1.1719-0.1875 0.23437-0.375 0.46875-0.51562 0.75-0.28125 0.51562-0.51562 1.0312-0.70312 1.5938-0.09375 0.23437-0.1875 0.42187-0.28125 0.65625-0.23438 0.79687-0.32812 1.5938-0.32812 2.4375v267c0 3.75 2.25 7.125 5.7188 8.5312l236.68 97.172c0.09375 0.046876 0.23438 0.046876 0.32812 0.046876l0.046875 0.046874c2.0156 0.79688 4.2656 0.79688 6.2812 0 0.09375-0.046874 0.23438 0 0.32812-0.046874l236.72-97.219c3.4688-1.4062 5.7188-4.7812 5.7188-8.5312v-267c0-0.84375-0.09375-1.6406-0.32812-2.4375-0.046875-0.23438-0.1875-0.46875-0.28125-0.65625-0.1875-0.5625-0.42188-1.0781-0.70312-1.5938zm-244.6-88.641 213.05 93.047-213.05 87.516-213.05-87.516zm-227.48 107.11 218.26 89.625v247.03l-218.26-89.625zm236.72 336.66v-247.08l218.26-89.578v247.03z"/>
 <path d="m590.76 175.55v123.42c0 5.0625 4.125 9.1875 9.2344 9.1875s9.2344-4.125 9.2344-9.1875v-123.42c36.188-4.875 62.391-36.938 60-73.359-2.4375-36.469-32.719-64.781-69.234-64.781s-66.797 28.312-69.234 64.781c-2.3906 36.422 23.812 68.484 60 73.359zm9.2344-119.62c20.578 0 39.188 12.422 47.062 31.453s3.5156 40.922-11.062 55.5-36.469 18.938-55.5 11.062c-19.031-7.9219-31.406-26.484-31.406-47.062 0-28.125 22.781-50.906 50.906-50.953z"/>
 <path d="m768.79 362.48c3.0469 0 5.9062-1.5 7.5938-3.9844l65.156-94.969h94.312c4.8281 36.188 36.938 62.438 73.359 60s64.734-32.672 64.734-69.188-28.312-66.797-64.734-69.234-68.531 23.812-73.359 60h-99.141c-3.0469 0-5.9062 1.5-7.6406 3.9844l-67.875 98.953c-1.9688 2.8125-2.1562 6.4688-0.5625 9.5156s4.7344 4.9219 8.1562 4.9219zm235.74-159.1c20.578 0 39.188 12.422 47.062 31.453s3.5156 40.922-11.062 55.5c-14.578 14.531-36.469 18.891-55.5 11.016s-31.406-26.438-31.406-47.016c0-28.125 22.781-50.906 50.906-50.953z"/>
 <path d="m1088 518.68c-34.734 0.046875-64.031 25.734-68.672 60.141h-111.28c-5.1094 0-9.1875 4.125-9.1875 9.2344 0 5.0625 4.0781 9.1875 9.1875 9.2344h111.28c3.6094 26.953 22.688 49.266 48.703 57.141 26.062 7.8281 54.281-0.32812 72.188-20.812s22.172-49.5 10.922-74.297c-11.25-24.75-35.953-40.641-63.141-40.641zm0 120.28c-20.625 0-39.188-12.422-47.062-31.453s-3.5156-40.922 11.062-55.453c14.531-14.578 36.469-18.938 55.5-11.062s31.406 26.438 31.406 47.062c-0.046875 28.078-22.828 50.859-50.906 50.906z"/>
 <path d="m180.71 597.28h111.28c5.1094-0.046875 9.1875-4.1719 9.1875-9.2344 0-5.1094-4.0781-9.2344-9.1875-9.2344h-111.28c-4.8281-36.188-36.938-62.438-73.359-60s-64.734 32.719-64.734 69.234 28.312 66.75 64.734 69.188 68.531-23.766 73.359-59.953zm-68.672 41.719v-0.046875c-20.578 0-39.141-12.422-47.016-31.453-7.9219-19.031-3.5625-40.922 11.016-55.453 14.578-14.578 36.469-18.938 55.5-11.062s31.453 26.438 31.453 47.062c-0.046875 28.078-22.828 50.859-50.953 50.906z"/>
 <path d="m195.47 323.68c34.734-0.046875 64.031-25.734 68.672-60.141h94.312l65.156 94.969c1.3594 2.0156 3.5156 3.4219 5.9062 3.8438 2.3906 0.46875 4.875-0.046875 6.9375-1.4531 2.0156-1.4062 3.375-3.5156 3.8438-5.9062 0.42188-2.4375-0.09375-4.9219-1.5-6.9375l-67.875-98.953c-1.7344-2.4844-4.5938-3.9844-7.6406-3.9844h-99.141c-3.6094-26.953-22.688-49.312-48.75-57.141-26.016-7.8281-54.281 0.28125-72.141 20.766-17.906 20.484-22.172 49.547-10.922 74.297 11.25 24.797 35.953 40.688 63.141 40.641zm0-120.28c20.578 0 39.188 12.422 47.062 31.453s3.5156 40.922-11.062 55.5c-14.578 14.531-36.469 18.891-55.5 11.016s-31.406-26.438-31.406-47.016c0-28.125 22.781-50.906 50.906-50.953z"/>
 <path d="m609.24 1024.5v-123.42c0-5.0625-4.125-9.1875-9.2344-9.1875s-9.2344 4.125-9.2344 9.1875v123.42c-36.188 4.875-62.391 36.938-60 73.359 2.4375 36.469 32.719 64.781 69.234 64.781s66.797-28.312 69.234-64.781c2.3906-36.422-23.812-68.484-60-73.359zm-9.2344 119.62c-20.578 0-39.188-12.422-47.062-31.453s-3.5156-40.922 11.062-55.5 36.469-18.938 55.5-11.062c19.031 7.9219 31.406 26.484 31.406 47.062 0 28.125-22.781 50.906-50.906 50.953z"/>
 <path d="m1004.5 876.32c-34.734 0.046875-64.031 25.734-68.672 60.141h-94.312l-65.156-94.969c-2.8594-4.1719-8.5781-5.25-12.797-2.3438-4.1719 2.8594-5.25 8.5781-2.3906 12.797l67.922 98.953h-0.046875c1.7344 2.4844 4.5938 3.9844 7.6406 3.9844h99.141c3.6094 26.953 22.688 49.312 48.75 57.141s54.281-0.28125 72.141-20.766c17.906-20.484 22.172-49.547 10.922-74.297-11.25-24.797-35.953-40.688-63.141-40.641zm0 120.28c-20.578 0-39.188-12.422-47.062-31.453s-3.5156-40.922 11.062-55.5c14.531-14.578 36.469-18.938 55.5-11.016 19.031 7.875 31.406 26.438 31.406 47.062 0 28.078-22.781 50.859-50.906 50.906z"/>
 <path d="m423.61 841.5-65.156 94.969h-94.312c-4.8281-36.188-36.938-62.438-73.359-60s-64.734 32.672-64.734 69.188c0 36.562 28.312 66.797 64.734 69.234s68.531-23.812 73.359-60h99.141c3.0469 0 5.9062-1.5 7.6406-3.9844l67.875-98.953c2.8594-4.2188 1.7812-9.9375-2.3906-12.797-4.2188-2.9062-9.9375-1.8281-12.797 2.3438zm-228.14 155.11c-20.578 0-39.188-12.422-47.062-31.453s-3.5156-40.922 11.062-55.5c14.531-14.578 36.469-18.891 55.5-11.016s31.406 26.438 31.406 47.062c0 28.078-22.781 50.859-50.906 50.906z"/>
</svg>
