<?xml version="1.0" encoding="UTF-8"?>
<svg width="1200pt" height="1200pt" version="1.1" viewBox="0 0 1200 1200" xmlns="http://www.w3.org/2000/svg">
 <path d="m510.8 856.97c5.5664 0.18359 11.078 0.26562 16.535 0.26562 118.68 0 215.91-43.094 275.01-122.25 64.957-87.086 77.367-211.53 34.074-341.47-70.695-211.89 48.012-325.91 53.34-330.86 13.426-12.344 14.348-33.23 2.0586-46.723-12.344-13.488-33.297-14.504-46.828-2.1641-6.4102 5.8398-156.33 146.29-71.445 400.71 36.883 110.68 28.258 210.39-24.316 280.87-48.477 64.957-132.64 98.953-236.25 95.395-18.516-0.59375-33.586 13.727-34.207 32.02-0.56641 18.27 13.754 33.594 32.031 34.215z"/>
 <path d="m879.98 430c-0.64453 18.289 13.648 33.641 31.938 34.258 5.6953 0.21094 11.234 0.30469 16.695 0.30469 188.61 0 248.49-115.52 251.01-120.59 8.1094-16.219 1.543-35.777-14.57-44.07-16.18-8.293-36.055-1.8867-44.531 14.137-0.89844 1.6758-11.512 20.586-37.699 40.047l-168.23-153.27c-13.543-12.344-34.484-11.355-46.828 2.1641-12.316 13.516-11.328 34.484 2.1875 46.801l149 135.81c-27.758 8.5039-62.07 13.91-104.71 12.461-18.074-0.75391-33.609 13.645-34.258 31.949z"/>
 <path d="m322.67 771.62c0-18.289-14.836-33.125-33.125-33.125-199.21 0-270.59 113.14-273.55 117.96-9.5352 15.641-4.5898 36 11.023 45.559 5.3789 3.2695 11.355 4.8398 17.234 4.8398 11.184 0 22.074-5.6445 28.301-15.863 0.26562-0.41016 12.539-19.504 42.133-39.613l172.56 166.72c6.4336 6.2383 14.73 9.3242 23.023 9.3242 8.6758 0 17.328-3.4023 23.828-10.129 12.727-13.16 12.371-34.129-0.80469-46.852l-154.76-149.5c29.539-9.5078 65.961-16.18 111.01-16.18 18.289 0 33.125-14.836 33.125-33.141z"/>
 <path d="m556.93 726.58c6.4609 6.5664 15.02 9.8633 23.59 9.8633 8.3984 0 16.785-3.1641 23.262-9.5352 13.027-12.855 13.188-33.812 0.32812-46.852l-154.09-156.33c5.7891-10.512 12.344-20.348 19.648-29.367 14.137-17.461 31.426-31.676 51.125-43.344l148.63 146.98c6.4336 6.3828 14.863 9.5859 23.289 9.5859 8.5469 0 17.078-3.2695 23.566-9.8359 12.855-13.004 12.75-33.969-0.26562-46.852l-127.89-126.48c30.516-7.0039 64.934-9.7305 103.15-8.0586 18.055 0.83203 33.746-13.398 34.535-31.676 0.80469-18.266-13.371-33.746-31.648-34.535-123.79-5.3281-216.58 29.102-276 102.53-15.27 18.855-27.785 40.18-37.91 63.469-0.43359 0.92188-0.84375 1.8867-1.2148 2.8359-35.566 84.305-37.859 195.31-5.207 321.51 54.832 211.91-55.426 288.73-60.777 292.3-15.27 9.8906-19.727 30.238-9.9688 45.613 6.3281 9.918 17.051 15.348 27.996 15.348 6.0781 0 12.238-1.6758 17.75-5.207 6.4336-4.0742 156.8-103.25 89.168-364.67-22.918-88.551-27.152-167.41-13.215-231.34z"/>
</svg>
