<?xml version="1.0" encoding="UTF-8"?>
<svg width="1200pt" height="1200pt" version="1.1" viewBox="0 0 1200 1200" xmlns="http://www.w3.org/2000/svg">
 <path d="m600.05 33.328c-311.39 0-564.52 254.29-564.52 566.72 0 312.43 253.18 566.63 564.52 566.63 311.39 0 564.42-254.16 564.42-566.63 0-312.42-253.03-566.72-564.42-566.72zm0 74.344c270.98 0 490.03 219.98 490.03 492.37s-219.05 492.24-490.03 492.24-490.22-219.84-490.22-492.24c0-272.39 219.19-492.37 490.22-492.37zm171.37 168.74c-9.8438 0-19.312 3.8906-26.25 10.875l-68.719 68.719h-0.046875c-0.75 0.65625-1.4531 1.3125-2.1562 2.0156-0.70312 0.70312-1.3594 1.4531-2.0156 2.2031l-356.21 356.21v0.046875c-5.2031 5.1562-8.7656 11.766-10.219 18.938l-28.734 143.68v0.046875c-2.4375 12.188 1.3594 24.797 10.172 33.609s21.422 12.609 33.609 10.172l143.68-28.734h0.046875c7.1719-1.4531 13.781-5.0156 18.938-10.219l429.19-429.19c14.484-14.531 14.484-38.016 0-52.547l-114.98-114.98v0.046875c-6.9844-6.9844-16.406-10.875-26.297-10.875zm0.09375 89.625 62.438 62.484-17.531 17.484c-13.125-12.469-33.141-31.875-63.188-61.688zm-70.922 70.922c29.391 29.109 49.406 48.562 63.234 61.641l-324.84 324.84-78 15.703 15.516-78.094z"/>
</svg>
