<?xml version="1.0" encoding="UTF-8"?>
<svg width="1200pt" height="1200pt" version="1.1" viewBox="0 0 1200 1200" xmlns="http://www.w3.org/2000/svg">
 <path d="m277.82 31.688h482.16c0.14062 0 0.28125 0 0.42188 0.046875h0.046875c0.14062 0 0.28125 0.046875 0.42188 0.046875l0.42188 0.046875h0.09375l0.375 0.046875h0.09375l0.375 0.046875h0.09375l0.32812 0.046875h0.14062l0.375 0.09375 0.046875 0.09375h0.046875l0.375 0.09375 0.046875 0.046875 0.32812 0.09375h0.09375l0.32812 0.09375h0.09375l0.42188 0.14062 0.32812 0.14062 0.09375 0.09375 0.28125 0.09375 0.375 0.1875 0.14062 0.046875 0.1875 0.09375 0.046875 0.046875 0.14062 0.046875 0.1875 0.09375 0.046875 0.046875 0.14062 0.09375 0.1875 0.09375h0.046875l0.375 0.1875h0.046875l0.5625 0.28125 0.1875 0.14062 0.1875 0.09375 1.3125 0.98438 0.14062 0.14062 1.3125 0.98438 0.14062 0.14062 0.1875 0.14062 163.31 163.31c0.375 0.375 0.70312 0.75 1.0781 1.125l0.14062 0.1875 0.14062 0.14062 0.14062 0.1875v0.046875l0.09375 0.14062 0.046875 0.046875 0.14062 0.1875 0.09375 0.09375 0.23438 0.32812 0.046875 0.046875 0.1875 0.28125 0.09375 0.09375 0.23438 0.32812 0.23438 0.375 0.1875 0.32812v0.046875l0.1875 0.32812 0.1875 0.375 0.09375 0.14062 0.09375 0.1875 0.046875 0.046875 0.09375 0.14062 0.09375 0.1875c1.0781 2.3438 1.6875 4.9688 1.6875 7.6875v155.81h149.06c10.125 0 18.328 8.2031 18.328 18.328v52.359c0 10.125-8.2031 18.328-18.328 18.328s-18.328-8.2031-18.328-18.328v-34.078h-130.74v526.31c0 10.125-8.2031 18.328-18.328 18.328h-443.58l20.578 76.734h189.71c10.125 0 18.328 8.2031 18.328 18.328s-8.2031 18.328-18.328 18.328h-203.76v-0.046875c-8.1094 0-15.516-5.3906-17.672-13.594l-26.719-99.797-162.89 0.046875c-10.125 0-18.328-8.2031-18.328-18.328v-353.16h-136.4c-10.125 0-18.328-8.2031-18.328-18.328v-74.484c0-10.125 8.2031-18.328 18.328-18.328s18.328 8.2031 18.328 18.328v56.156h118.08v-492.1c0-10.125 8.2031-18.328 18.328-18.328zm625.97 199.78h-144.74c-10.125 0-18.328-8.2031-18.328-18.328v-144.79h-444.52v473.76h116.67v-17.906c0-10.125 8.2031-18.328 18.328-18.328s18.328 8.2031 18.328 18.328v36.234c0 10.125-8.2031 18.328-18.328 18.328h-135v334.82h134.72l-15.422-57.469c-2.625-9.75 3.1875-19.781 12.938-22.406s19.781 3.1875 22.406 12.938l17.953 66.938h435.05v-507.98h-155.58c-10.125 0-18.328-8.2031-18.328-18.328v-39.281c0-10.125 8.2031-18.328 18.328-18.328s18.328 8.2031 18.328 18.328v20.906h137.21zm-126.42-137.21v100.5h100.5zm-405.42 213.37h227.53c10.125 0 18.328-8.2031 18.328-18.328s-8.2031-18.328-18.328-18.328h-227.53c-10.125 0-18.328 8.2031-18.328 18.328 0 10.078 8.2031 18.328 18.328 18.328zm306.1 0h150c10.125 0 18.328-8.2031 18.328-18.328s-8.2031-18.328-18.328-18.328h-150c-10.125 0-18.328 8.2031-18.328 18.328-0.046875 10.078 8.1562 18.328 18.328 18.328zm-306.1 163.08h120.79c10.125 0 18.328-8.2031 18.328-18.328s-8.2031-18.328-18.328-18.328h-120.79c-10.125 0-18.328 8.2031-18.328 18.328s8.2031 18.328 18.328 18.328zm0 163.08h65.438c10.125 0 18.328-8.2031 18.328-18.328s-8.2031-18.328-18.328-18.328h-65.438c-10.125 0-18.328 8.2031-18.328 18.328s8.2031 18.328 18.328 18.328zm0 163.08h191.29c10.125 0 18.328-8.2031 18.328-18.328s-8.2031-18.328-18.328-18.328h-191.29c-10.125 0-18.328 8.2031-18.328 18.328s8.2031 18.328 18.328 18.328zm251.21 0h83.578c10.125 0 18.328-8.2031 18.328-18.328s-8.2031-18.328-18.328-18.328h-83.578c-10.125 0-18.328 8.2031-18.328 18.328s8.2031 18.328 18.328 18.328zm387.24-299.39c-10.125 0-18.328 8.2031-18.328 18.328v139.6c0 10.125 8.2031 18.328 18.328 18.328h139.6c10.125 0 18.328-8.2031 18.328-18.328v-139.6c0-10.125-8.2031-18.328-18.328-18.328zm121.26 36.656h-102.94v102.94h102.94zm-996.05-232.87h-0.046875c-1.5469-2.6719-3.7969-5.0156-6.7031-6.6562-8.7656-5.0156-19.875-2.0156-24.938 6.75l-68.859 119.3c-2.1094 3-3.375 6.6562-3.375 10.594 0 10.125 8.2031 18.328 18.328 18.328h139.5v-0.046875c3.1406 0 6.2812-0.79688 9.1875-2.4375 8.7188-5.0625 11.719-16.266 6.6562-24.984zm22.219 111.66-38.062-65.906-38.062 65.906zm395.34 57.797h274.82c10.125 0 18.328-8.2031 18.328-18.328s-8.2031-18.328-18.328-18.328h-274.82c-10.125 0-18.328 8.2031-18.328 18.328s8.2031 18.328 18.328 18.328zm-45.281 163.08h320.16c10.125 0 18.328-8.2031 18.328-18.328s-8.2031-18.328-18.328-18.328h-320.16c-10.125 0-18.328 8.2031-18.328 18.328s8.2031 18.328 18.328 18.328zm258.71 163.08h61.406c10.125 0 18.328-8.2031 18.328-18.328s-8.2031-18.328-18.328-18.328h-61.406c-10.125 0-18.328 8.2031-18.328 18.328s8.2031 18.328 18.328 18.328zm56.672 193.82c-24.516 0-46.734 9.9375-62.812 26.016-16.078 16.078-26.016 38.25-26.016 62.812 0 24.516 9.9375 46.734 26.016 62.812 16.078 16.078 38.25 26.016 62.812 26.016 24.516 0 46.734-9.9375 62.812-26.016 16.078-16.078 26.016-38.25 26.016-62.812 0-24.516-9.9375-46.734-26.016-62.812-16.125-16.078-38.297-26.016-62.812-26.016zm36.844 51.938c-9.4219-9.4219-22.453-15.281-36.891-15.281-14.391 0-27.422 5.8594-36.844 15.281-9.4219 9.4219-15.281 22.453-15.281 36.844 0 14.391 5.8125 27.422 15.281 36.844 9.4219 9.4219 22.453 15.281 36.844 15.281s27.422-5.8125 36.891-15.281c9.4219-9.4219 15.281-22.453 15.281-36.844 0-14.391-5.8125-27.422-15.281-36.844z" fill-rule="evenodd"/>
</svg>
