<?xml version="1.0" encoding="UTF-8"?>
<svg width="1200pt" height="1200pt" version="1.1" viewBox="0 0 1200 1200" xmlns="http://www.w3.org/2000/svg">
 <path d="m823.69 496.5c4.1719-9.0469 14.859-13.031 23.859-8.8594 9.0469 4.125 13.031 14.812 8.9062 23.859-19.406 42.375-48.984 79.172-85.922 107.25l43.453 65.484c5.4844 8.2969 3.2344 19.453-5.0625 24.984-8.25 5.4844-19.453 3.2344-24.938-5.0625l-43.453-65.484c-21 12.047-43.406 21.328-66.609 27.656l15.703 77.016c1.9688 9.7031-4.3125 19.219-14.016 21.234-9.75 1.9688-19.266-4.3125-21.234-14.062l-15.75-77.016c-12.75 1.7812-25.594 2.7188-38.578 2.7188s-25.922-0.9375-38.719-2.7188l-15.703 77.016c-1.9688 9.75-11.484 16.031-21.234 14.062-9.75-2.0156-16.031-11.531-14.016-21.234l15.703-77.016c-23.25-6.3281-45.656-15.609-66.656-27.656l-43.406 65.484c-5.5312 8.2969-16.688 10.547-24.984 5.0625-8.25-5.5312-10.547-16.688-5.0156-24.984l43.406-65.484c-36.891-28.031-66.422-64.781-85.828-107.16-4.125-9.0469-0.14062-19.734 8.8594-23.859 9.0469-4.125 19.734-0.14062 23.859 8.8594 19.125 41.719 49.5 77.25 87.703 102.61 1.0312 0.65625 2.0625 1.3594 3.0938 2.0156 25.688 16.5 54.094 27.984 83.672 34.031 16.172 3.2812 32.672 4.9688 49.266 4.9688s33.047-1.6875 49.125-4.9688c29.672-6.0469 58.078-17.578 83.766-34.078 1.0312-0.65625 2.0625-1.3125 3.0469-1.9688 38.203-25.359 68.625-60.938 87.703-102.7z"/>
</svg>
