<?xml version="1.0" encoding="UTF-8"?>
<svg width="1200pt" height="1200pt" version="1.1" viewBox="0 0 1200 1200" xmlns="http://www.w3.org/2000/svg">
 <path d="m347.29 347.29c6.9844-7.0312 18.422-7.0312 25.453 0l188.95 188.95c0.046875 0.046875 0.09375 0.046875 0.14062 0.09375 0 0.046875 0.046875 0.09375 0.09375 0.14062l101.72 101.72c0.046875 0 0.046875 0.046875 0.09375 0.09375l189 189c6.9844 7.0312 6.9844 18.422 0 25.453-7.0312 6.9844-18.469 6.9844-25.453 0l-99.797-99.797c-38.25 21.094-81.562 33.047-127.5 33.047-114.7 0-212.48-74.109-256.6-179.02-1.875-4.4531-1.875-9.5156 0-13.969 21.469-51 55.5-94.641 98.062-126.1l-94.172-94.172c-7.0312-7.0312-7.0312-18.422 0-25.453zm119.95 145.4c-37.219 26.25-67.688 63.281-87.609 107.25 40.547 89.578 124.5 150.05 220.36 150.05 35.906 0 70.031-8.4844 100.83-23.719l-51.188-51.188c-4.7812 3.1406-9.8906 5.8594-15.188 8.0625-10.922 4.5-22.641 6.8438-34.453 6.8438s-23.531-2.3438-34.453-6.8438c-10.922-4.5469-20.812-11.156-29.203-19.5-8.3438-8.3438-14.953-18.281-19.5-29.203-4.5-10.922-6.8438-22.641-6.8438-34.453s2.3438-23.531 6.8438-34.453c2.2031-5.2969 4.9219-10.406 8.0625-15.188zm84.047 84.047c-0.42188 0.84375-0.79688 1.6875-1.1719 2.5781-2.7188 6.5625-4.125 13.594-4.125 20.672 0 7.0781 1.4062 14.109 4.125 20.672s6.7031 12.516 11.719 17.531c4.9688 4.9688 10.969 8.9531 17.484 11.672 6.5625 2.7188 13.594 4.125 20.672 4.125s14.109-1.4062 20.672-4.125c0.89062-0.32813 1.7344-0.75 2.5781-1.1719z" fill-rule="evenodd"/>
 <path d="m600 414c114.7 0 212.44 74.109 256.6 179.02 1.875 4.4531 1.875 9.5156 0 13.969-10.688 25.359-24.469 48.891-40.828 70.031-6.0938 7.8281-17.391 9.2812-25.266 3.1875s-9.2812-17.391-3.1875-25.266c12.938-16.688 24.047-35.109 33-54.938-40.547-89.531-124.45-150-220.31-150-9.5625 0-19.031 0.60938-28.266 1.7812-9.8906 1.2188-18.891-5.7656-20.109-15.609-1.2656-9.8906 5.7188-18.891 15.609-20.109 10.734-1.3594 21.703-2.0625 32.766-2.0625z"/>
</svg>
