<?xml version="1.0" encoding="UTF-8"?>
<svg width="1200pt" height="1200pt" version="1.1" viewBox="0 0 1200 1200" xmlns="http://www.w3.org/2000/svg">
 <path d="m600 510c49.688 0 90 40.312 90 90s-40.312 90-90 90-90-40.312-90-90 40.312-90 90-90zm0 36c-29.812 0-54 24.188-54 54s24.188 54 54 54 54-24.188 54-54-24.188-54-54-54z" fill-rule="evenodd"/>
 <path d="m600 414c114.7 0 212.48 74.109 256.6 179.02 1.875 4.4531 1.875 9.5156 0 13.969-44.109 104.91-141.89 179.02-256.6 179.02-114.71 0-212.48-74.109-256.6-179.02-1.875-4.4531-1.875-9.5156 0-13.969 44.109-104.91 141.89-179.02 256.6-179.02zm0 36c-95.859 0-179.76 60.469-220.31 150 40.547 89.531 124.45 150 220.31 150s179.76-60.469 220.31-150c-40.547-89.531-124.45-150-220.31-150z" fill-rule="evenodd"/>
</svg>
