<?xml version="1.0" encoding="UTF-8"?>
<svg width="1200pt" height="1200pt" version="1.1" viewBox="0 0 1200 1200" xmlns="http://www.w3.org/2000/svg">
 <path d="m1091.6 491.11c-0.1875-2.3438-0.5625-4.5469-1.4531-6.8906-0.375-0.89062-0.5625-1.8281-0.89062-2.5312-1.2656-2.9062-2.9062-5.4375-5.25-7.8281l-214.6-214.78c-2.3438-2.3438-4.9219-3.9844-7.8281-5.25-0.89062-0.375-1.8281-0.75-2.7188-0.89063-2.2031-0.75-4.3594-1.0781-6.5625-1.2656-0.5625 0-1.2656-0.375-1.8281-0.375l-429.61-0.046876c-54.188 0-98.344 44.203-98.344 98.344v715.45c0 54.188 44.203 98.344 98.344 98.344h572.53c54.188 0 98.344-44.203 98.344-98.344l0.046875-572.29c0.1875-0.5625-0.1875-1.125-0.1875-1.6406zm-91.266-25.125h-78.375c-24.75 0-44.719-20.016-44.719-44.719v-78.375zm-6.8906 643.82h-572.58c-24.75 0-44.719-20.016-44.719-44.719v-715.45c0-24.75 20.016-44.719 44.719-44.719h402.74v116.34c0 54.188 44.203 98.344 98.344 98.344h116.34v545.63c-0.14062 24.562-20.156 44.578-44.859 44.578z"/>
 <path d="m528.37 591.1h214.74c14.719 0 26.906-12 26.906-26.906s-12-26.906-26.906-26.906h-214.74c-14.719 0-26.906 12-26.906 26.906s12.188 26.906 26.906 26.906z"/>
 <path d="m886.18 895.26h-357.79c-14.719 0-26.906 12-26.906 26.906s12 26.906 26.906 26.906h357.79c14.719 0 26.906-12 26.906-26.906s-12-26.906-26.906-26.906z"/>
 <path d="m886.18 716.34h-357.79c-14.719 0-26.906 12-26.906 26.906 0 14.719 12 26.906 26.906 26.906h357.79c14.719 0 26.906-12 26.906-26.906s-12-26.906-26.906-26.906z"/>
 <path d="m242.21 895.08h-35.812c-25.078 0-44.719-19.641-44.719-44.719l-0.046875-715.45c0-24.75 20.016-44.719 44.719-44.719h572.34c24.75 0 44.719 20.016 44.719 44.719v35.812c0 14.719 12 26.906 26.906 26.906s26.906-12 26.906-26.906l0.046875-35.812c0-54.188-44.203-98.344-98.344-98.344h-572.39c-54.328-0.1875-98.531 43.969-98.531 98.344v715.64c0 54.188 44.203 98.344 98.344 98.344h35.812c14.719 0 26.906-12 26.906-26.906 0.046875-14.906-11.953-26.906-26.859-26.906z"/>
</svg>
