<?xml version="1.0" encoding="UTF-8"?>
<svg width="1200pt" height="1200pt" version="1.1" viewBox="0 0 1200 1200" xmlns="http://www.w3.org/2000/svg">
 <path d="m927.5 486.63-4.082-6.3633c-9.3047-14.531-18.926-29.555-31.066-44.695-14.941-18.621-40.297-24.246-61.695-13.711-21.609 10.664-32.703 34.465-26.879 58.266 11.812 48.938 21.34 98.367-0.63281 121.31-6.9609-9.1875-24.203-42.34-24.203-145 0-114.56-34.934-219.57-103.84-312.14-32.258-43.324-69.859-78.668-111.77-105.07-19.863-12.516-44.301-12.199-63.766 0.84375-19.207 12.867-29.07 35.941-25.113 58.793v0.011718c11.445 66.094 10.805 197.4-122.03 334.3-143.52 147.91-200.23 309.35-159.68 454.56 35.824 128.29 147.91 231.47 292.54 269.3 3.2695 0.85547 6.9102 2.3086 10.664 3.7148 16.363 6.1289 59.871 22.453 81.035-15.562 12.852-23.086-0.050781-40.594-21.422-69.598-81.387-110.45-156.8-251.68-61.918-397.8 23.18 98.648 83.273 158.53 133.64 208.73 68.371 68.145 106.36 105.98 45.238 209.54-3.0664 3.5508-5.2344 6.9141-6.707 9.2109l-0.89062 1.3711c-9.3828 12.855-9.1992 30.352 0.44531 43.02 7.5273 9.8906 20.133 20.273 39.832 20.273 5.1328 0 10.746-0.70312 16.883-2.3086l1.1328-0.31641c129.07-20.801 240.8-124.77 278.04-258.71 40.172-144.54 16.047-282.56-73.746-421.97zm4.3711 402.68c-25.102 90.328-91.699 163.51-172.84 194.24 48.012-119.52-17.402-184.72-80.922-248.02-60.105-59.906-122.26-121.84-122.26-246.14 0-14.566-8.7695-27.691-22.227-33.258-4.4531-1.8516-9.1289-2.7422-13.77-2.7422-9.3672 0-18.574 3.6562-25.457 10.547-200.85 200.85-96.926 407.82-26.777 512.21-102.31-37.5-179.53-114.67-205.54-207.79-33.383-119.52 17.055-256.27 142.01-385.05 137.08-141.27 152.99-280.64 145.32-366.04 24.773 19.172 47.547 42.633 67.945 70.02 59.445 79.863 89.582 170.41 89.582 269.14 0 121.24 22.102 190.86 67.578 212.84 22.789 11.027 49.477 7.9336 69.656-8.0508 33.145-26.285 43.609-63.035 44.184-99.891 60.285 108.88 74.496 216.54 43.516 327.97z"/>
</svg>
