<?xml version="1.0" encoding="UTF-8"?>
<svg width="1200pt" height="1200pt" version="1.1" viewBox="0 0 1200 1200" xmlns="http://www.w3.org/2000/svg">
 <path d="m565.45 270.56c-53.25 0.79688-101.44 33.516-121.64 83.203-173.21 11.484-317.44 125.53-386.9 190.08-3.5156 3.2344-5.4844 7.8281-5.4844 12.562 0 4.7812 1.9688 9.3281 5.4844 12.562 13.922 12.938 24.469 23.578 31.547 31.031-7.0781 7.4531-17.625 18.094-31.547 31.031-3.5156 3.2344-5.4844 7.7812-5.4844 12.562 0 4.7344 1.9688 9.3281 5.4844 12.562 69.469 64.547 213.71 178.6 386.9 190.08 22.406 55.172 79.453 89.484 139.55 82.266l69.281-8.2969c40.688-4.875 69.984-42.234 65.109-82.922l-6.5625-54.516c50.859-26.859 95.016-58.359 130.22-86.906 36 73.594 111 121.36 194.02 121.4h0.046875c36.422-0.046875 72.234-9.2812 104.11-26.906l0.046875-0.046875c5.7656-3.1875 9.1875-9.375 8.8125-15.984-0.375-6.5625-4.5-12.328-10.594-14.859-64.359-26.578-106.36-89.484-106.41-159.47 0.046875-70.031 42.094-132.94 106.5-159.52h0.046875c6.0938-2.4844 10.172-8.2969 10.547-14.859s-3.0469-12.797-8.8125-15.984c-31.922-17.625-67.781-26.906-104.25-26.906-83.062 0.046875-158.02 47.812-194.02 121.4-35.156-28.547-79.312-60.047-130.18-86.906l6.5625-54.516c4.875-40.688-24.469-78-65.109-82.922l-69.281-8.2969c-6-0.70313-12-1.0312-17.906-0.9375zm2.6719 34.266c3.7031 0.046875 7.4062 0.28125 11.156 0.70312l69.281 8.2969c22.266 2.6719 37.828 22.5 35.156 44.766l-5.1094 42.516c-58.875-27-125.29-46.453-196.26-48.188 17.859-29.859 50.344-48.422 85.734-48.141zm-96.047 82.266c151.18 0 287.11 91.453 364.97 158.02 4.3125 3.6562 10.078 4.9688 15.562 3.5156 5.4375-1.4531 9.7969-5.4844 11.719-10.781 26.062-72.562 94.453-120.79 171.14-120.84 19.219 0 38.297 3.0469 56.438 9-58.266 37.547-94.688 102.8-94.734 173.95v0.046875c0.046875 71.109 36.422 136.36 94.688 173.9-18.141 5.9531-37.172 9.0469-56.391 9.0469-76.688-0.046875-145.08-48.234-171.14-120.84v0.046875c-1.9219-5.2969-6.2812-9.3281-11.719-10.781-5.4844-1.4531-11.25-0.14062-15.562 3.5156-77.906 66.516-213.84 158.02-364.97 158.02-32.016 0-63.375-4.1719-93.656-11.297 7.4531-7.8281 15.703-17.625 23.812-29.672 24.188-35.906 47.906-92.109 47.906-171.94s-23.719-136.03-47.906-171.94c-8.1094-12.047-16.359-21.844-23.812-29.672 30.281-7.125 61.594-11.297 93.609-11.297zm-131.95 21.984c7.3125 5.9531 20.109 17.953 33.703 38.109 20.812 30.844 42.047 79.688 42.047 152.76 0 73.125-21.234 121.92-42.047 152.76-13.547 20.156-26.391 32.156-33.703 38.109-104.44-33.891-192.79-100.03-246.37-147.61 19.781-19.219 30.984-32.016 30.984-32.016v0.046875c5.5781-6.4688 5.5781-16.031 0-22.5 0 0-11.203-12.844-30.984-32.016 53.578-47.578 141.94-113.72 246.37-147.61zm-41.906 78.938c-29.859 0-54.422 24.562-54.422 54.469 0 29.859 24.562 54.469 54.422 54.469s54.422-24.562 54.422-54.469c0-29.859-24.562-54.469-54.422-54.469zm217.69 4.8281h0.046875c-1.5 0-3 0.23438-4.4531 0.65625-9.0938 2.5781-14.391 12.047-11.812 21.188 6.75 23.812 11.203 52.031 11.203 85.312s-4.4531 61.5-11.203 85.266h0.046875c-2.625 9.1406 2.6719 18.609 11.766 21.188 9.1406 2.5781 18.609-2.7188 21.188-11.812 7.6406-26.859 12.516-58.312 12.516-94.641s-4.875-67.828-12.516-94.688c-1.875-6.7031-7.6406-11.578-14.484-12.375-0.75-0.09375-1.5-0.14062-2.25-0.09375zm-217.69 29.484c11.344 0 20.156 8.8125 20.156 20.156s-8.8125 20.156-20.156 20.156-20.156-8.8125-20.156-20.156 8.8125-20.156 20.156-20.156zm380.39 276.52 5.1094 42.516c2.6719 22.266-12.891 42.094-35.156 44.766l-69.281 8.2969c-39.609 4.7344-77.156-14.484-96.891-47.438 70.969-1.7344 137.39-21.188 196.26-48.188z"/>
</svg>
