<?xml version="1.0" encoding="UTF-8"?>
<svg width="1200pt" height="1200pt" version="1.1" viewBox="0 0 1200 1200" xmlns="http://www.w3.org/2000/svg">
 <path d="m1139.9 831.66c-0.84375-12.75-9.2812-23.812-21.375-27.984l-215.34-80.156c-20.391-82.406-51-161.95-90.984-236.81l66.797-101.2-8.6719-11.109c-70.359-90.094-189.19-108.66-224.53-112.27-11.25-10.922-22.969-21.609-35.156-32.109-232.87-199.5-518.76-161.58-530.86-159.89l-14.812 2.1094-1.875 14.859c-1.4531 11.719-31.594 269.76 132.19 485.16-0.375 16.781-0.23437 124.18 58.688 190.13l7.7812 8.7188 120-28.594c110.25 71.719 233.16 121.74 362.16 147.37l80.953 225.32 1.4531 3.0938v0.046875c5.4844 9.5625 15.656 15.469 26.719 15.469 1.125 0 2.2031-0.046875 3.3281-0.1875 12.188-1.3125 22.406-9.7031 26.062-21.375l45.047-195.71 191.11-52.312 3.6094-1.3594c11.719-5.8125 18.703-18.141 17.719-31.219zm-309.47-443.81-39.844 60.328h0.046875c-28.688-48.938-61.875-95.109-99.094-137.86 42.047 10.688 98.484 32.672 138.89 77.531zm-729.71-280.36c130.45-8.5312 260.76 18.75 376.87 78.844-11.625 39.75-75.281 210.05-318.32 248.02-44.438-102.98-64.5-214.87-58.547-326.86zm175.22 619.87c-21.047-31.312-34.125-67.266-38.109-104.81 31.125 32.766 64.969 62.766 101.16 89.812zm618.52 157.55-43.172 187.92-78.328-217.97-11.578-1.7344c-2.9531-0.42187-295.78-46.734-495.47-257.95v-0.046876c-35.016-37.078-64.828-78.797-88.641-123.89 237.37-42.141 314.86-207.79 334.82-264.98 25.688 15.984 50.109 33.891 73.078 53.531 220.74 189.14 281.34 479.34 281.95 482.26l2.1562 10.688 215.29 80.156z"/>
 <path d="m214.82 257.34c4.5469 0 8.9062-1.5469 12.375-4.4062l18.703-15.234 15.234 18.703c6.8906 8.3438 19.172 9.5625 27.562 2.7188 8.3438-6.7969 9.6562-19.078 2.8594-27.516l-15.234-18.656 18.703-15.234c8.4375-6.8438 9.7031-19.219 2.8594-27.609s-19.219-9.6562-27.609-2.8125l-18.703 15.234-15.234-18.703c-6.8438-8.3438-19.172-9.5625-27.516-2.7656-8.3438 6.8438-9.6562 19.125-2.9062 27.516l15.234 18.703-18.703 15.234c-6.4219 5.25-8.8594 13.969-6.0938 21.797s10.172 13.031 18.516 13.031z"/>
 <path d="m565.22 361.03c2.25-10.594-4.5469-21-15.141-23.25-10.641-2.2031-21.047 4.5469-23.25 15.188-30.797 146.21-152.86 159.84-158.26 160.36-10.406 0.9375-18.234 9.9375-17.766 20.391 0.46875 10.5 9.0938 18.75 19.547 18.75 0.5625 0 1.1719-0.046875 1.7812-0.09375 1.5938-0.14062 156.14-15.984 193.08-191.34z"/>
 <path d="m618.98 465.19c-5.1094-0.98438-10.406 0.09375-14.719 3.0469s-7.2656 7.4531-8.2031 12.562c-17.203 90.984-92.203 101.44-95.719 101.86v0.046875c-10.359 1.1719-17.953 10.219-17.344 20.578 0.5625 10.406 9.1406 18.516 19.547 18.516 0.75 0 1.4531-0.046875 2.2031-0.14062 36.984-4.0781 111.7-37.266 129.89-133.6l-0.046875 0.046875c2.0156-10.641-4.9688-20.906-15.609-22.922z"/>
</svg>
