<?xml version="1.0" encoding="UTF-8"?>
<svg width="1200pt" height="1200pt" version="1.1" viewBox="0 0 1200 1200" xmlns="http://www.w3.org/2000/svg">
 <path d="m1031.2 269.62h-470.16l-101.86-121.09c-4.7539-5.6484-11.758-8.9102-19.137-8.9102h-361.11c-6.6328-0.003906-12.992 2.6289-17.68 7.3203-4.6914 4.6875-7.3242 11.047-7.3203 17.68v781c0.035156 30.43 12.137 59.602 33.652 81.117 21.516 21.516 50.688 33.617 81.117 33.652h862.5c30.43-0.035157 59.602-12.137 81.117-33.652 21.516-21.516 33.617-50.688 33.652-81.117v-561.24c-0.035156-30.426-12.141-59.598-33.656-81.109-21.516-21.516-50.688-33.617-81.113-33.648zm-927.27-80.004h324.46l67.309 80.004h-391.77zm992.04 756c-0.015625 17.172-6.8477 33.637-18.988 45.781-12.145 12.141-28.609 18.973-45.781 18.988h-862.5c-17.172-0.015625-33.637-6.8477-45.781-18.988-12.141-12.145-18.973-28.609-18.988-45.781v-626h927.27c17.172 0.019531 33.633 6.8477 45.777 18.984 12.141 12.141 18.973 28.602 18.992 45.773z"/>
</svg>
