<?xml version="1.0" encoding="UTF-8"?>
<svg width="1200pt" height="1200pt" version="1.1" viewBox="0 0 1200 1200" xmlns="http://www.w3.org/2000/svg">
 <path d="m350.02 448.22c-84.75-12.141-150-85.125-150-173.21 0-96.562 78.422-174.98 174.98-174.98s174.98 78.422 174.98 174.98c0 88.078-65.25 161.06-150 173.21v179.29l1.2656-1.2656c32.812-32.812 77.344-51.234 123.74-51.234h150c33.141 0 64.969-13.172 88.406-36.609s36.609-55.266 36.609-88.406v-1.7812c-84.75-12.141-150-85.125-150-173.21 0-96.562 78.422-174.98 174.98-174.98s174.98 78.422 174.98 174.98c0 88.078-65.25 161.06-150 173.21v1.7812c0 46.406-18.469 90.938-51.234 123.74-32.812 32.812-77.344 51.234-123.74 51.234h-150c-33.141 0-64.969 13.172-88.406 36.609s-36.609 55.266-36.609 88.406v1.7812c84.75 12.141 150 85.125 150 173.21 0 96.562-78.422 174.98-174.98 174.98s-174.98-78.422-174.98-174.98c0-88.078 65.25-161.06 150-173.21zm24.984-48.234c69 0 125.02-56.016 125.02-125.02s-56.016-125.02-125.02-125.02-125.02 56.016-125.02 125.02 56.016 125.02 125.02 125.02zm0 399.98c-69 0-125.02 56.016-125.02 125.02s56.016 125.02 125.02 125.02 125.02-56.016 125.02-125.02-56.016-125.02-125.02-125.02zm450-650.02c-69 0-125.02 56.016-125.02 125.02s56.016 125.02 125.02 125.02 125.02-56.016 125.02-125.02-56.016-125.02-125.02-125.02z" fill-rule="evenodd"/>
</svg>
