<?xml version="1.0" encoding="UTF-8"?>
<svg width="1200pt" height="1200pt" version="1.1" viewBox="0 0 1200 1200" xmlns="http://www.w3.org/2000/svg">
 <path d="m1135.3 557.02-155.22-300.13c-5.1523-9.9219-14.027-17.395-24.684-20.785s-22.219-2.418-32.16 2.7031l-86.746 44.867c-9.7969 5.082-17.211 13.801-20.652 24.285-3.4453 10.484-2.6445 21.902 2.2305 31.805l-10.703 3.6016v-0.003906c-8.2969 2.8398-17.047 4.125-25.812 3.793l-102.18-2.832c-26.902-1.0664-53.145 8.5117-73.043 26.652l-41.578 37.008-161.41-60.504c5.3086-9.3828 6.8281-20.441 4.2461-30.91-2.5859-10.465-9.0742-19.547-18.141-25.383l-82.238-52.691c-9.4219-6.0117-20.844-8.043-31.762-5.6523-10.918 2.3906-20.445 9.0117-26.496 18.406l-182.3 284.51c-6.0156 9.418-8.0508 20.84-5.6602 31.758 2.3906 10.918 9.0117 20.445 18.414 26.488l82.234 52.691h0.003906c6.7422 4.3438 14.598 6.6523 22.617 6.6484 3.0781 0 6.1445-0.33203 9.1445-0.99609 9.5-2.0508 17.984-7.3477 24-14.977l38.293 48-19.09 29.832c-9.1211 14.262-12.207 31.559-8.5859 48.094 3.6172 16.535 13.648 30.961 27.891 40.105 10.207 6.5742 22.086 10.066 34.227 10.07 2.4844-0.003906 4.9688-0.15625 7.4375-0.45703-0.8125 7.0547-0.44531 14.195 1.082 21.133 3.5039 16.215 13.203 30.418 27.027 39.582 13.828 9.1641 30.691 12.562 46.988 9.4727-0.027344 4.7578 0.47266 9.5039 1.4883 14.148 3.0664 14.195 10.898 26.914 22.191 36.039 11.297 9.1289 25.375 14.117 39.895 14.133 4.6602 0 9.3086-0.50391 13.863-1.5 11.527-2.4922 22.133-8.1445 30.633-16.32 4.9336 11.383 13.078 21.082 23.441 27.902 10.359 6.8203 22.488 10.469 34.891 10.5 4.6641-0.007812 9.3086-0.51172 13.863-1.5117 16.551-3.5547 30.992-13.586 40.102-27.855l7.1992-11.16 44.723 28.801h0.003906c10.23 6.6055 22.152 10.121 34.332 10.117 4.6562 0 9.2969-0.50391 13.848-1.5 15.613-3.3711 29.398-12.469 38.633-25.508 9.2344-13.035 13.242-29.059 11.238-44.91 11.785 1.207 23.676-0.87891 34.352-6.0234 10.672-5.1445 19.711-13.141 26.117-23.109 7.1797-11.203 10.641-24.383 9.8984-37.668 19.742 5.2578 40.809 0.78125 56.699-12.059 15.891-12.84 24.695-32.492 23.703-52.898 18.027 4.7695 37.238 1.4492 52.617-9.1016 15.379-10.551 25.395-27.281 27.43-45.82 2.0352-18.539-4.1094-37.043-16.832-50.68l17.762-14.617-0.003906 0.003906c7.5898 12.898 21.445 20.816 36.41 20.805 6.7188 0.003906 13.336-1.6133 19.297-4.7148l86.746-44.832c9.9219-5.1523 17.398-14.031 20.789-24.684 3.3867-10.656 2.4141-22.219-2.7031-32.16zm-557.61-120.47 0.49219-0.43359 48.086-42.793v0.003907c14.176-13.086 32.996-19.957 52.27-19.082l102.18 2.832c12.223 0.43359 24.422-1.3633 36-5.3008l15.191-5.0273 128.69 248.69-28.523 23.473-155.68-99.758c-8.3164-5.4141-17.387-9.5781-26.914-12.348-26.832-7.957-44.746-31.656-49.199-65.016-0.63281-4.8164-3.5586-9.0234-7.8477-11.297-4.293-2.2695-9.418-2.3242-13.754-0.14062-33.07 22.109-63.91 47.387-92.074 75.48-13.238 10.391-30.859 13.309-46.738 7.7344s-27.812-18.867-31.648-35.25zm-390.72 186.5c-3.1484 0.71875-6.4531 0.14062-9.168-1.6055l-82.227-52.645c-5.6406-3.6328-7.2852-11.141-3.6836-16.801l182.3-284.57c1.7422-2.7188 4.5-4.6211 7.6562-5.293 0.87891-0.19141 1.7773-0.28906 2.6758-0.28906 2.3008-0.003906 4.5547 0.65625 6.4922 1.8945l82.176 52.695c5.6484 3.625 7.2969 11.141 3.6836 16.797l-8.7969 13.738-0.070313 0.097657-162.16 253.16c-2.0273 1.8164-3.5273 4.1445-4.332 6.7461l-6.8984 10.801c-1.7422 2.7109-4.5 4.6094-7.6562 5.2656zm85.105 155.1h-0.003906c-7.5586-4.8516-12.883-12.508-14.805-21.281-1.918-8.7773-0.27344-17.953 4.5703-25.52l46.883-73.199c4.8555-7.5273 12.516-12.809 21.277-14.664 2.4219-0.53516 4.8984-0.80469 7.3789-0.80469 8.1172 0.046875 15.945 3.0078 22.062 8.3438 6.1172 5.332 10.117 12.688 11.27 20.719 1.1523 8.0352-0.61719 16.215-4.9883 23.055l-46.895 73.199c-4.8633 7.5352-12.516 12.836-21.277 14.738-8.7656 1.9062-17.926 0.25391-25.477-4.5859zm70.621 70.859h-0.003907c-7.543-4.8672-12.852-12.52-14.77-21.289-1.918-8.7695-0.28906-17.941 4.5352-25.512l76.906-120c4.8359-7.5586 12.492-12.867 21.266-14.746 2.4219-0.53516 4.8984-0.80469 7.3789-0.80469 8.125 0.039063 15.961 2.9961 22.086 8.3359 6.1211 5.3359 10.125 12.695 11.273 20.738 1.1484 8.0391-0.63281 16.227-5.0156 23.066l-27.156 42.324-49.762 77.676c-4.8555 7.543-12.5 12.852-21.262 14.766-8.7617 1.9141-17.926 0.27734-25.48-4.5547zm100.98 67.789c-8.7656 1.9297-17.941 0.29297-25.496-4.5508-7.5586-4.8398-12.879-12.492-14.789-21.262-1.9102-8.7734-0.25-17.941 4.6094-25.488l6.7422-10.512 39.086-60.996 46.453-72.492c4.8359-7.5312 12.477-12.824 21.227-14.699 2.4297-0.53516 4.9062-0.80469 7.3906-0.80469 8.1055 0.054687 15.922 3.0156 22.027 8.3398 6.1094 5.3281 10.105 12.668 11.262 20.688 1.1562 8.0234-0.60156 16.191-4.957 23.027l-67.883 105.95-3.8281 6-20.566 32.113c-4.8516 7.5352-12.512 12.824-21.277 14.688zm77.34 16.066c-7.5625-4.8477-12.891-12.504-14.809-21.281-1.9219-8.7734-0.27734-17.953 4.5742-25.52l35.352-55.199 7.1406-11.137c4.7617-7.7305 12.434-13.223 21.285-15.242 8.8555-2.0234 18.148-0.40234 25.793 4.4961 7.6484 4.8984 13.008 12.664 14.871 21.551 1.8672 8.8906 0.082032 18.152-4.9492 25.711l-42.492 66.312c-4.8477 7.5586-12.492 12.883-21.258 14.809-8.7695 1.9258-17.941 0.29687-25.508-4.5352zm417.82-213.6v0.003906c-4.875 7.5898-12.562 12.941-21.379 14.871-8.8125 1.9297-18.035 0.28516-25.637-4.5781l-27.359-17.531-89.617-57.434v0.003906c-3.3398-2.4258-7.5312-3.3672-11.586-2.6055-4.0547 0.76562-7.6172 3.1641-9.8477 6.6367-2.2266 3.4727-2.9297 7.707-1.9375 11.715 0.99219 4.0039 3.5898 7.4219 7.1836 9.4531l89.594 57.406h-0.003906c10.129 6.6133 15.984 18.105 15.383 30.188-0.59766 12.078-7.5664 22.934-18.301 28.508-10.734 5.5742-23.617 5.0352-33.848-1.418l-27.359-17.531-60.648-39.719v-0.003906c-4.4805-2.8633-10.145-3.1367-14.883-0.72656-4.7383 2.4141-7.8477 7.1562-8.168 12.465-0.32031 5.3086 2.1953 10.391 6.6094 13.355l60.684 39.742c10.25 6.543 16.234 18.055 15.695 30.199-0.53906 12.148-7.5156 23.086-18.305 28.695-10.789 5.6055-23.75 5.0312-34-1.5078l-17.102-10.875-33.047-21.168c-4.4961-2.5312-9.9727-2.5742-14.508-0.11719-4.5352 2.4531-7.4922 7.0703-7.8242 12.215-0.33594 5.1484 2 10.105 6.1797 13.129l33.07 21.191c10.25 6.5625 16.219 18.098 15.656 30.254-0.55859 12.156-7.5625 23.094-18.371 28.688-10.809 5.5898-23.781 4.9961-34.027-1.5703l-44.762-28.801 19.199-29.902c9.1172-14.258 12.207-31.555 8.5859-48.086-3.6211-16.535-13.652-30.957-27.891-40.102-10.074-6.4805-21.781-9.9648-33.758-10.043 9.1523-14.25 12.262-31.551 8.6445-48.098-3.6172-16.543-13.664-30.969-27.926-40.098-14.266-9.125-31.574-12.207-48.109-8.5625-5.5156 1.2148-10.848 3.1445-15.867 5.7344-5.9531-20.953-22.176-37.43-43.039-43.707-20.859-6.2812-43.48-1.4961-60.016 12.688-5.9766-14.43-17.039-26.172-31.09-32.996-14.051-6.8281-30.117-8.2656-45.156-4.043-15.039 4.2188-28.012 13.809-36.457 26.949l-10.656 16.621-38.148-47.785 152.2-237.62 152.53 57.121-57.191 50.902c-3.5234 3.1445-5.3633 7.7617-4.9648 12.469 1.6055 19.203 10.16 37.16 24.055 50.508 13.898 13.352 32.184 21.176 51.438 22.012 19.25 0.83203 38.145-5.3789 53.145-17.477 0.32422-0.26562 0.63672-0.52734 0.9375-0.81641 21.812-20.992 44.773-40.762 68.773-59.219 8.8789 31.996 33.551 57.199 65.352 66.758 6.8008 1.9609 13.273 4.9297 19.199 8.8047l168.34 107.87v0.003906c7.5977 4.8633 12.957 12.547 14.898 21.359 1.9375 8.8125 0.30078 18.035-4.5547 25.645zm170.58-139.2c-0.96484 3.0859-3.125 5.6523-6 7.1289l-86.746 44.867c-5.9766 3.0781-13.316 0.74609-16.418-5.2188l-7.5-14.531-138.12-267.07c-0.11719-0.55469-0.26172-1.1016-0.43359-1.6406-0.67969-2.0352-1.7891-3.9023-3.25-5.4727l-5.8906-11.398-0.003907-0.003906c-3.0391-5.9727-0.71484-13.285 5.2227-16.402l86.746-44.867c1.7031-0.88672 3.5977-1.3477 5.5195-1.3438 1.2773 0 2.543 0.19922 3.7578 0.58594 3.0859 0.96094 5.6562 3.1211 7.1289 6l155.23 300.11c1.4805 2.8672 1.7539 6.207 0.75391 9.2734z"/>
</svg>
