<?xml version="1.0" encoding="UTF-8"?>
<svg width="1200pt" height="1200pt" version="1.1" viewBox="0 0 1200 1200" xmlns="http://www.w3.org/2000/svg">
 <path d="m969.23 827.81h-36.926c-2.6523 0-4.8008 2.1602-4.8008 4.8008v73.836c0 2.6523 2.1484 4.8008 4.8008 4.8008h36.926c2.6523 0 4.8008-2.1602 4.8008-4.8008v-73.836c0-2.6406-2.1484-4.8008-4.8008-4.8008zm-13.656 28.066h8.8555v8.8555h-8.8555zm-18.465-18.453h27.324v8.8438h-27.324zm8.8672 18.453v8.8555h-8.8672v-8.8555zm-8.8672 18.469h8.8672v27.301h-8.8672zm27.324 27.312h-8.8555v-27.301h8.8555zm-36.926-161.35v73.836c0 2.6523 2.1484 4.8008 4.8008 4.8008h36.926c2.6523 0 4.8008-2.1602 4.8008-4.8008l-0.003906-36.902v-36.934c0-2.6523-2.1484-4.8008-4.8008-4.8008h-36.926c-2.6367 0-4.7969 2.1602-4.7969 4.8008zm9.6016 41.734h8.8672v27.301h-8.8672zm27.324 27.301h-8.8555l-0.003907-27.301h8.8555zm-8.8594-45.77h8.8555v8.8555h-8.8555zm-18.465-18.453h27.324v8.8438h-27.324zm8.8672 18.453v8.8555h-8.8672v-8.8555zm23.254 156.55h-36.926c-2.6523 0-4.8008 2.1602-4.8008 4.8008v73.836c0 2.6523 2.1484 4.8008 4.8008 4.8008h36.926c2.6523 0 4.8008-2.1602 4.8008-4.8008v-73.836c0-2.6523-2.1484-4.8008-4.8008-4.8008zm-13.656 28.066h8.8555v8.8555h-8.8555zm-18.465-18.457h27.324v8.8438h-27.324zm8.8672 18.457v8.8555h-8.8672v-8.8555zm-8.8672 18.469h8.8672v27.301h-8.8672zm27.324 27.301h-8.8555v-27.301h8.8555zm4.7969 18.469h-36.926c-2.6523 0-4.8008 2.1602-4.8008 4.8008v73.84c0 2.6523 2.1484 4.8008 4.8008 4.8008h36.926c2.6523 0 4.8008-2.1602 4.8008-4.8008v-73.832c0-2.6484-2.1484-4.8086-4.8008-4.8086zm-13.656 28.066h8.8555v8.8438h-8.8555zm-18.465-18.457h27.324v8.8438h-27.324zm8.8672 18.457v8.8438h-8.8672v-8.8438zm-8.8672 18.457h8.8672v27.312h-8.8672zm27.324 27.312h-8.8555v-27.312h8.8555zm-696.73-258.46h-36.926c-2.6523 0-4.8008 2.1602-4.8008 4.8008v73.836c0 2.6523 2.1484 4.8008 4.8008 4.8008h36.926c2.6523 0 4.8008-2.1602 4.8008-4.8008v-73.836c0-2.6406-2.1602-4.8008-4.8008-4.8008zm-13.668 28.066h8.8672v8.8555h-8.8672zm-18.457-18.453h27.324v8.8438h-27.324zm8.8594 18.453v8.8555h-8.8555v-8.8555zm-8.8594 18.469h8.8555v27.301h-8.8555zm27.324 27.312h-8.8672v-27.301h8.8672zm4.8008-166.15h-36.926c-2.6523 0-4.8008 2.1602-4.8008 4.8008v73.836c0 2.6523 2.1484 4.8008 4.8008 4.8008h36.926c2.6523 0 4.8008-2.1602 4.8008-4.8008v-73.836c0-2.6406-2.1602-4.8008-4.8008-4.8008zm-13.668 28.066h8.8672v8.8555h-8.8672zm-18.457-18.453h27.324v8.8438h-27.324zm8.8594 18.453v8.8555h-8.8555v-8.8555zm-8.8594 18.469h8.8555v27.301h-8.8555zm27.324 27.301h-8.8672v-27.301h8.8672zm4.8008 110.79h-36.926c-2.6523 0-4.8008 2.1602-4.8008 4.8008v73.836c0 2.6523 2.1484 4.8008 4.8008 4.8008h36.926c2.6523 0 4.8008-2.1602 4.8008-4.8008v-73.836c0-2.6523-2.1602-4.8008-4.8008-4.8008zm-13.668 28.066h8.8672v8.8555h-8.8672zm-18.457-18.457h27.324v8.8438h-27.324zm8.8594 18.457v8.8555h-8.8555v-8.8555zm-8.8594 18.469h8.8555v27.301h-8.8555zm27.324 27.301h-8.8672v-27.301h8.8672zm4.8008 18.469h-36.926c-2.6523 0-4.8008 2.1602-4.8008 4.8008v73.84c0 2.6523 2.1484 4.8008 4.8008 4.8008h36.926c2.6523 0 4.8008-2.1602 4.8008-4.8008v-73.832c0-2.6484-2.1602-4.8086-4.8008-4.8086zm-13.668 28.066h8.8672v8.8438h-8.8672zm-18.457-18.457h27.324v8.8438h-27.324zm8.8594 18.457v8.8438h-8.8555v-8.8438zm-8.8594 18.457h8.8555v27.312h-8.8555zm27.324 27.312h-8.8672v-27.312h8.8672zm355.57-258.46h-36.926c-2.6523 0-4.8008 2.1602-4.8008 4.8008v73.836c0 2.6523 2.1484 4.8008 4.8008 4.8008l18.457-0.003906h18.469c2.6523 0 4.8008-2.1602 4.8008-4.8008v-73.836c-0.011719-2.6367-2.1602-4.7969-4.8008-4.7969zm-13.668 28.066h8.8672v8.8555h-8.8672zm-18.469-18.453h27.324v8.8438h-27.324zm8.8672 18.453v8.8555h-8.8672v-8.8555zm-8.8672 18.469h8.8672v27.301h-8.8672zm27.336 27.312h-8.8672v-27.301h8.8672zm-13.668-147.7c-12.828 0-23.258 10.441-23.258 23.27 0 12.816 10.441 23.258 23.258 23.258s23.258-10.441 23.258-23.258c0-12.832-10.43-23.27-23.258-23.27zm12.695 18.469h-7.8945v-7.8828c3.6484 1.3789 6.5039 4.2344 7.8945 7.8828zm-17.496-7.8867v7.8828h-7.8945c1.3906-3.6445 4.2461-6.5 7.8945-7.8828zm-7.8945 17.496h7.8945v7.8711c-3.6484-1.3789-6.5039-4.2227-7.8945-7.8711zm17.496 7.8711v-7.8711h7.8945c-1.3906 3.6484-4.2461 6.4922-7.8945 7.8711zm142.89 37.898h-36.926c-2.6523 0-4.8008 2.1602-4.8008 4.8008v73.836c0 2.6523 2.1484 4.8008 4.8008 4.8008h36.926c2.6523 0 4.8008-2.1602 4.8008-4.8008v-73.836c0-2.6406-2.1602-4.8008-4.8008-4.8008zm-13.668 28.066h8.8672v8.8555h-8.8672zm-18.457-18.453h27.324v8.8438h-27.324zm8.8594 18.453v8.8555h-8.8555v-8.8555zm-8.8594 18.469h8.8555v27.301h-8.8555zm27.324 27.312h-8.8672v-27.301h8.8672zm4.8008 18.469h-36.926c-2.6523 0-4.8008 2.1602-4.8008 4.8008v18.457c0 2.6523 2.1484 4.8008 4.8008 4.8008h36.926c2.6523 0 4.8008-2.1602 4.8008-4.8008v-18.457c0-2.6523-2.1602-4.8008-4.8008-4.8008zm-4.8008 18.453h-27.324v-8.8438h27.324zm78.637-27.32h36.938c2.6523 0 4.8008-2.1602 4.8008-4.8008v-73.836c0-2.6523-2.1484-4.8008-4.8008-4.8008h-36.926c-2.6523 0-4.8008 2.1602-4.8008 4.8008v73.836c0 2.6523 2.1484 4.8008 4.7891 4.8008zm4.8008-36.914h8.8672v27.301h-8.8672zm27.336 27.312h-8.8672v-27.301h8.8672zm-8.8672-45.781h8.8672v8.8555h-8.8672zm-18.469-18.453h27.324v8.8438h-27.324zm8.8672 18.453v8.8555h-8.8672v-8.8555zm-13.668 92.316h36.926c2.6523 0 4.8008-2.1602 4.8008-4.8008v-18.457c0-2.6523-2.1484-4.8008-4.8008-4.8008h-36.926c-2.6523 0-4.8008 2.1602-4.8008 4.8008v18.457c0.011719 2.6406 2.1602 4.8008 4.8008 4.8008zm4.8008-18.457h27.324v8.8438h-27.324zm-337.11-101.93h-36.926c-2.6523 0-4.8008 2.1602-4.8008 4.8008v73.836c0 2.6523 2.1484 4.8008 4.8008 4.8008h36.926c2.6523 0 4.8008-2.1602 4.8008-4.8008v-73.836c0-2.6406-2.1484-4.8008-4.8008-4.8008zm-13.656 28.066h8.8555v8.8555h-8.8555zm-18.465-18.453h27.324v8.8438h-27.324zm8.8672 18.453v8.8555h-8.8672v-8.8555zm-8.8672 18.469h8.8672v27.301h-8.8672zm27.324 27.312h-8.8555v-27.301h8.8555zm4.7969 18.469h-36.926c-2.6523 0-4.8008 2.1602-4.8008 4.8008v18.457c0 2.6523 2.1484 4.8008 4.8008 4.8008h36.926c2.6523 0 4.8008-2.1602 4.8008-4.8008v-18.457c0-2.6523-2.1484-4.8008-4.8008-4.8008zm-4.7969 18.453h-27.324v-8.8438h27.324zm-105.96-110.77h-36.926c-2.6523 0-4.8008 2.1602-4.8008 4.8008v73.836c0 2.6523 2.1484 4.8008 4.8008 4.8008l18.457-0.003906h18.469c2.6523 0 4.8008-2.1602 4.8008-4.8008v-73.836c-0.011719-2.6367-2.1602-4.7969-4.8008-4.7969zm-13.668 28.066h8.8672v8.8555h-8.8672zm-18.469-18.453h27.324v8.8438h-27.324zm8.8672 18.453v8.8555h-8.8672v-8.8555zm-8.8672 18.469h8.8672v27.301h-8.8672zm27.336 27.312h-8.8672v-27.301h8.8672zm4.8008 18.469h-36.926c-2.6523 0-4.8008 2.1602-4.8008 4.8008v18.457c0 2.6523 2.1484 4.8008 4.8008 4.8008h36.926c2.6523 0 4.8008-2.1602 4.8008-4.8008v-18.457c-0.011719-2.6523-2.1602-4.8008-4.8008-4.8008zm-4.8008 18.453h-27.324v-8.8438h27.324zm97.105-184.62c-12.828 0-23.258 10.441-23.258 23.27 0 12.816 10.441 23.258 23.258 23.258 12.816 0 23.258-10.441 23.258-23.258-0.003906-12.832-10.43-23.27-23.258-23.27zm12.684 18.469h-7.8828v-7.8828c3.6445 1.3789 6.5 4.2344 7.8828 7.8828zm-17.484-7.8867v7.8828h-7.8945c1.3906-3.6445 4.2461-6.5 7.8945-7.8828zm-7.8984 17.496h7.8945v7.8711c-3.6445-1.3789-6.5-4.2227-7.8945-7.8711zm17.496 7.8711v-7.8711h7.8828c-1.3789 3.6484-4.2344 6.4922-7.8828 7.8711zm-115.57-35.949c-12.828 0-23.258 10.441-23.258 23.27 0 12.816 10.441 23.258 23.258 23.258s23.258-10.441 23.258-23.258c0-12.832-10.43-23.27-23.258-23.27zm12.695 18.469h-7.8945v-7.8828c3.6484 1.3789 6.5039 4.2344 7.8945 7.8828zm-17.496-7.8867v7.8828h-7.8945c1.3906-3.6445 4.2461-6.5 7.8945-7.8828zm-7.8945 17.496h7.8945v7.8711c-3.6484-1.3789-6.5039-4.2227-7.8945-7.8711zm17.496 7.8711v-7.8711h7.8945c-1.3906 3.6484-4.2461 6.4922-7.8945 7.8711zm364.43-35.949c-12.828 0-23.258 10.441-23.258 23.27 0 12.816 10.43 23.258 23.258 23.258 12.828 0 23.258-10.441 23.258-23.258 0.011719-12.832-10.43-23.27-23.258-23.27zm12.699 18.469h-7.8945v-7.8828c3.6445 1.3789 6.5 4.2344 7.8945 7.8828zm-17.496-7.8867v7.8828h-7.8828c1.3789-3.6445 4.2344-6.5 7.8828-7.8828zm-7.8867 17.496h7.8828v7.8711c-3.6445-1.3789-6.5-4.2227-7.8828-7.8711zm17.484 7.8711v-7.8711h7.8945c-1.3906 3.6484-4.2461 6.4922-7.8945 7.8711zm105.97 10.586c12.828 0 23.258-10.441 23.258-23.258 0-12.828-10.441-23.27-23.258-23.27s-23.258 10.441-23.258 23.27c0 12.816 10.43 23.258 23.258 23.258zm-12.695-18.457h7.8945v7.8711c-3.6484-1.3789-6.5039-4.2227-7.8945-7.8711zm17.496 7.8711v-7.8711h7.8945c-1.3906 3.6484-4.2461 6.4922-7.8945 7.8711zm7.8945-17.48h-7.8945v-7.8828c3.6484 1.3789 6.5039 4.2344 7.8945 7.8828zm-17.496-7.8867v7.8828h-7.8945c1.3906-3.6445 4.2461-6.5 7.8945-7.8828zm152.5-176.73h-327.53v-32.125l0.003907-36.922v-120c0-2.6523-2.1484-4.8008-4.8008-4.8008h-15.898l-16.223-24.336v-35.473c0-2.6523-2.1484-4.8008-4.8008-4.8008h-13.645v-50.59c0-2.6523-2.1484-4.8008-4.8008-4.8008s-4.8008 2.1602-4.8008 4.8008v50.578h-13.668c-2.6523 0-4.8008 2.1602-4.8008 4.8008v35.473l-16.234 24.336h-15.887c-2.6523 0-4.8008 2.1602-4.8008 4.8008v189.05h-92.512l-17.938-0.007813h-217.08c-2.6523 0-4.8008 2.1602-4.8008 4.8008l0.011719 55.402v480c0 2.6523 2.1484 4.8008 4.8008 4.8008h775.39c2.6523 0 4.8008-2.1602 4.8008-4.8008l-0.003906-406.15v-129.23c0.011719-2.6523-2.1484-4.8125-4.7891-4.8125zm-770.59 120.38h45.781v8.8555h-45.781zm0-9.6133v-27.312h64.246v27.312zm55.391-64.234h101.19l-0.003906 8.8555h-101.17v-8.8555zm120.94 0h423.36l-0.019531 8.8555h-433.5v-8.8438h10.16zm156.86-9.6016h-8.3633v-27.312h8.3633zm17.578-45.789h8.8672v8.8555h-8.8672zm45.793-28.07h-27.324v-13.645c0-7.5352 6.1328-13.668 13.668-13.668 7.5352 0 13.668 6.1328 13.668 13.668v13.645zm-13.668-36.922c-12.828 0-23.258 10.441-23.258 23.27v13.656h-8.8672v-13.648c0-11.184-7.9336-20.543-18.457-22.766v-9.3594h101.17v9.3594c-10.523 2.2188-18.457 11.578-18.457 22.766v13.656h-8.8672l0.003906-13.656c-0.011719-12.84-10.441-23.277-23.27-23.277zm41.723 23.277c0-5.8438 3.6836-10.848 8.8555-12.793v26.449h-8.8555zm8.8555-60.191h-8.8555v-32.125c0-2.4492 1.9922-4.4297 4.4297-4.4297s4.4297 1.9805 4.4297 4.4297zm0-45.262c-1.4141-0.48047-2.8555-0.89844-4.4297-0.89844-7.7383 0-14.027 6.3008-14.027 14.039v32.125h-18.098v-32.125c0-7.7383-6.2891-14.039-14.027-14.039-7.7383 0-14.027 6.3008-14.027 14.039v32.125h-18.098v-32.125c0-7.7383-6.2891-14.039-14.027-14.039-1.5703 0-3.0234 0.42188-4.4297 0.89844l0.007813-9.7461h101.17v9.7461zm-46.148 45.262h-8.8555v-32.125c0-2.4492 1.9922-4.4297 4.4297-4.4297s4.4297 1.9805 4.4297 4.4297zm-46.152 0h-8.8555v-32.125c0-2.4492 1.9922-4.4297 4.4297-4.4297s4.4297 1.9805 4.4297 4.4297zm4.7969 9.6133h87.504v8.8438h-101.17v-8.8438zm-13.652 37.777c5.1719 1.9453 8.8555 6.9492 8.8555 12.793v13.656h-8.8555zm0 36.059h101.17v8.8438h-101.17zm82.316 36.926h8.3633v27.312h-8.3633zm0.38672-9.6133h-8.8672v-8.8555h8.8672zm-36.312 9.6133h8.3633v27.312h-8.3633zm-4.8008-9.6133h-4.6797v-8.8555h27.324v8.8555zm-13.152 9.6133h8.3633v27.312h-8.3633zm35.918 0h8.3633v27.312h-8.3633zm-53.883 0h8.3633v27.312h-8.3633zm98.172 27.32h-8.3633v-27.312h8.3633zm184.43 9.6016h85.023l-0.003906 8.8555h-101.17v-8.8438h16.152zm108.28 18.457h32.125v8.8438h-64.246l-0.003906-8.8438zm-134.03 64.246h-433.5v-8.8555h433.5zm-92.312 350.76h-8.8555v-8.8555h8.8555zm-8.8594-45.77h8.8555v8.8438h-8.8555zm18.457 0h8.8672v8.8438h-8.8672zm8.8672-9.6094h-8.8672v-8.8555h8.8672zm-18.465 0h-8.8555v-8.8555h8.8555zm-8.8594 28.066h8.8555v8.8438h-8.8555zm18.457 0h8.8672v8.8438h-8.8672zm8.8672-46.535h-8.8672v-8.8438h8.8672zm-18.465 0h-8.8555v-8.8438h8.8555zm9.5977 64.992h8.8672v8.8555h-8.8672zm18.469-4.8008v-73.848c0-2.6523-2.1484-4.8008-4.8008-4.8008h-36.926c-2.6523 0-4.8008 2.1602-4.8008 4.8008v87.508h-8.8672v-32.125l0.003907-295.38v-13.656h64.246v341.16h-8.8672v-13.656zm-138.83 13.656h-27.324v-64.246h27.324zm4.8008-73.848h-36.926c-2.6523 0-4.8008 2.1602-4.8008 4.8008v69.047h-8.8672v-82.703h64.246v82.703h-8.8672l0.003906-69.047c0-2.6406-2.1484-4.8008-4.7891-4.8008zm-50.113-18.457c2.1016-13.848 12.996-24.73 26.844-26.832v13.176c0 2.6523 2.1484 4.8008 4.8008 4.8008s4.8008-2.1602 4.8008-4.8008v-13.176c13.848 2.1016 24.742 12.984 26.844 26.832zm73.367 4.8008c0-21.359-16.199-38.832-36.926-41.242v-14.137c0-2.6523-2.1484-4.8008-4.8008-4.8008s-4.8008 2.1602-4.8008 4.8008v14.137c-20.723 2.4102-36.926 19.883-36.926 41.242v87.504h-8.8555v-32.125l0.007813-295.38v-13.656h101.17v341.16h-8.8555l-0.003906-87.504zm-166.15 4.8125h8.8555v8.8438h-8.8555zm-18.465 36.922h8.8672v8.8438h-8.8672zm18.465 0h8.8555v8.8438h-8.8555zm8.8594-9.6094h-8.8555v-8.8555h8.8555zm-18.457 0h-8.8672v-8.8555h8.8672zm-8.8672 28.066h8.8672v8.8438h-8.8672zm18.465 0h8.8555v8.8438h-8.8555zm-9.5977-46.535h-8.8672v-8.8438h8.8672zm-8.8672 64.992h8.8672v8.8555h-8.8672zm18.465 0h8.8555v8.8555h-8.8555zm18.457-4.8008v-73.848c0-2.6523-2.1484-4.8008-4.8008-4.8008h-36.926c-2.6523 0-4.8008 2.1602-4.8008 4.8008v87.508h-8.8672v-32.125l0.003907-295.38v-13.656h64.246v341.16h-8.8672v-13.656zm-101.9-313.85v327.5h-8.8672v-87.504c0-2.6523-2.1484-4.8008-4.8008-4.8008h-36.926c-2.6523 0-4.8008 2.1602-4.8008 4.8008v87.508h-8.8672v-13.668c0-2.6523-2.1484-4.8008-4.8008-4.8008h-13.656v-8.8438h13.656c2.6523 0 4.8008-2.1602 4.8008-4.8008v-18.461c0-2.6523-2.1484-4.8008-4.8008-4.8008h-13.656v-8.8555h13.656c2.6523 0 4.8008-2.1602 4.8008-4.8008v-18.457c0-2.6523-2.1484-4.8008-4.8008-4.8008h-13.656v-8.8438h13.656c2.6523 0 4.8008-2.1602 4.8008-4.8008v-18.469c0-2.6523-2.1484-4.8008-4.8008-4.8008h-13.656v-8.8438h13.656c2.6523 0 4.8008-2.1602 4.8008-4.8008v-18.469c0-2.6523-2.1484-4.8008-4.8008-4.8008h-13.656v-8.8945h13.656c2.6523 0 4.8008-2.1602 4.8008-4.8008v-18.457c0-2.6523-2.1484-4.8008-4.8008-4.8008h-13.656v-8.8555h13.656c2.6523 0 4.8008-2.1602 4.8008-4.8008v-18.457c0-2.6523-2.1484-4.8008-4.8008-4.8008h-13.656v-8.8555h13.656c2.6523 0 4.8008-2.1602 4.8008-4.8008v-18.457c0-2.6523-2.1484-4.8008-4.8008-4.8008h-13.656v-8.875h13.656c2.6523 0 4.8008-2.1602 4.8008-4.8008v-18.477c0-2.6523-2.1484-4.8008-4.8008-4.8008h-13.656v-8.8438h13.656c2.6523 0 4.8008-2.1602 4.8008-4.8008v-13.656h64.262zm-27.324 244.81h8.8672v8.8438h-8.8672zm-18.469 36.922h8.8672v8.8438h-8.8672zm18.469 0h8.8672v8.8438h-8.8672zm8.8672-9.6094h-8.8672v-8.8555h8.8672zm-18.469 0h-8.8672v-8.8555l8.8672-0.003907zm-8.8672 28.066h8.8672v8.8438h-8.8672zm18.469 0h8.8672v8.8438h-8.8672zm-9.6016-46.535h-8.8672v-8.8438h8.8672zm-8.8672 64.992h8.8672v8.8555h-8.8672zm18.469 0h8.8672v8.8555h-8.8672zm-60.18-28.07h-13.668v-8.8438h27.324v8.8438zm-13.668 9.6133h8.8672v8.8438h-8.8672zm0-28.066v-8.8555h8.8672v8.8555zm13.668-18.469h-13.668v-8.8438h27.324v8.8438zm-13.668-18.457v-8.8438h8.8672v8.8438zm13.668-18.457h-13.668v-8.8555h27.324v8.8555zm-13.668-18.469v-8.8438h8.8672v8.8438zm13.668-18.453h-13.668v-8.8555h27.324v8.8555zm-13.668-18.469v-8.8555h8.8672v8.8438h-8.8672zm13.668-18.457h-13.668v-8.8438h27.324v8.8438zm-13.668-18.457v-8.8555h8.8672v8.8555zm13.668-18.477h-13.668v-8.8438h27.324v8.8438zm-13.668-18.457v-8.8555h8.8672v8.8555zm13.668-18.469h-13.668v-8.8438h27.324v8.8438zm-13.668-18.457v-8.8438h8.8672v8.8438zm13.668-18.453h-13.668v-8.8555h27.324v8.8555zm-4.8008-18.469h-8.8672v-8.8438h8.8672zm-8.8672 304.99h27.324v8.8555h-27.324zm0-387.7h101.17v27.324h-101.17zm618.09-9.6016h-101.17v-8.8555h101.17zm-480 18.469h-27.324v-8.8555h27.324zm-27.324 9.6094h27.324v8.8438h-27.324zm36.926 0h64.262v8.8438h-64.246l-0.003906-8.8438zm73.848 0h27.324v8.8438h-27.324zm0-18.477h27.324v8.8555h-27.324zm36.926 18.477h101.17v8.8438h-101.17zm110.76 0h27.324v8.8438h-27.324zm0-18.477h27.324v8.8555h-27.324zm36.926 18.477h64.262v8.8438h-64.246l-0.003906-8.8438zm73.848 0h27.324v8.8438h-27.324zm0-18.477h27.324v8.8555h-27.324zm27.324-9.6016h-27.324v-8.8555h27.324zm-36.926 4.8008v13.668h-8.8672v-27.324h8.8672zm-18.457 13.668h-8.8672v-27.324h8.8672zm-18.465 0h-8.6758v-27.324h8.6758zm-18.277 0h-9.0469v-27.324h9.0469zm-18.648-18.469h-27.324v-8.8555h27.324zm-36.926 4.8008v13.668h-8.8555v-27.324h8.8555zm-18.453 13.668h-8.8672v-27.324h8.8672zm-18.457 0h-8.8672v-27.324h8.8672zm-18.469 0h-8.8672v-27.324h8.8672zm-18.457 0h-8.8672v-27.324h8.8672zm-18.465 0h-8.8555v-27.324h8.8555zm-18.457-18.469h-27.324v-8.8555h27.324zm-36.926 4.8008v13.668h-8.8672v-27.324h8.8672zm-18.465 13.668h-8.8555l-0.003907-27.324h8.8555zm-18.457 0h-8.8672v-27.324h8.8672zm-18.469 0h-8.8672v-27.324h8.8672zm-18.457-18.469h-27.324v-8.8555h27.324zm-27.324 65.004h27.324v8.8438h-27.324zm138.1 8.8438h-27.324v-8.8438h27.324zm-27.324 304.99h27.324v27.312h-27.324zm0-9.6133v-285.77h27.324v285.77zm175.01-295.38h-27.324v-8.8438h27.324zm-27.324 304.99h27.324v27.312h-27.324zm0-9.6133v-285.77h27.324v285.77zm110.77-285.77h27.324v285.77h-27.324zm27.324-9.6133h-27.324v-8.8438h27.324zm9.5977-36.926v-27.324h101.17v27.312h-101.17zm-429.41-45.777h13.668v8.8438h-101.17v-8.8438zm-105.97 55.391h101.17v8.8555h-101.19l0.003906-8.8555zm45.781 18.469v8.8438h-27.324v-8.8438zm-27.324 350.76h101.18v8.8438h-101.17v-8.8438zm110.77-332.3h27.324v285.77h-27.324zm0 295.38h27.324v27.312h-27.324zm18.457 55.379h359.64v8.8555h-359.64zm359.64-9.6094h-359.64v-8.8438h359.69l-0.015625 8.8438zm-8.8672-18.457v-27.312h27.324v27.312zm36.922-32.113v-309.05h64.262v13.656c0 2.6523 2.1484 4.8008 4.8008 4.8008h13.656v8.8438h-13.656c-2.6523 0-4.8008 2.1602-4.8008 4.8008v18.469c0 2.6523 2.1484 4.8008 4.8008 4.8008h13.656v8.8438h-13.656c-2.6523 0-4.8008 2.1602-4.8008 4.8008v18.457c0 2.6523 2.1484 4.8008 4.8008 4.8008h13.656v8.8555h-13.656c-2.6523 0-4.8008 2.1602-4.8008 4.8008v18.457c0 2.6523 2.1484 4.8008 4.8008 4.8008h13.656v8.8555h-13.656c-2.6523 0-4.8008 2.1602-4.8008 4.8008v18.508c0 2.6523 2.1484 4.8008 4.8008 4.8008h13.656v8.8438h-13.656c-2.6523 0-4.8008 2.1602-4.8008 4.8008v18.469c0 2.6523 2.1484 4.8008 4.8008 4.8008h13.656v8.8438h-13.656c-2.6523 0-4.8008 2.1602-4.8008 4.8008v18.469c0 2.6523 2.1484 4.8008 4.8008 4.8008h13.656v8.8438h-13.656c-2.6523 0-4.8008 2.1602-4.8008 4.8008v18.457c0 2.6523 2.1484 4.8008 4.8008 4.8008h13.656v8.8555h-13.656c-2.6523 0-4.8008 2.1602-4.8008 4.8008v18.457c0 2.6523 2.1484 4.8008 4.8008 4.8008h13.656v8.8438h-13.656c-2.6523 0-4.8008 2.1602-4.8008 4.8008v13.668h-8.8672v-87.453c0-2.6523-2.1484-4.8008-4.8008-4.8008h-36.938c-2.6523 0-4.8008 2.1602-4.8008 4.8008v87.508h-8.8672v-32.117zm101.17-263.27h-27.324v-8.8555h27.324zm-8.8672 9.6094h8.8672v8.8438h-8.8672zm8.8672 18.457v8.8438h-27.324v-8.8438zm-8.8672 18.457h8.8672v8.8555h-8.8672zm8.8672 18.469v8.8438h-27.324v-8.8438zm-8.8672 18.453h8.8672v8.8555h-8.8672zm8.8672 18.469v8.8555h-27.324v-8.8438h27.324zm-8.8672 18.457h8.8672v8.8438h-8.8672zm8.8672 18.457v8.8555h-27.324v-8.8555zm-8.8672 18.477h8.8672v8.8438h-8.8672zm8.8672 18.457v8.8555h-27.324v-8.8555zm-8.8672 18.469h8.8672v8.8438h-8.8672zm8.8672 18.457v8.8438h-27.324v-8.8438zm-8.8672 18.453h8.8672v8.8555h-8.8672zm8.8672 18.469v8.8438h-27.324v-8.8438zm0 27.301h-8.8672v-8.8438h8.8672zm-13.668 9.6133h13.668v8.8555h-27.324v-8.8555zm13.668-304.99h-8.8672v-8.8438h8.8672zm-82.715 268.08h8.8672v8.8438h-8.8672zm18.469 0h8.8672v8.8438h-8.8672zm8.8672-9.6094h-8.8672v-8.8555h8.8672zm-18.469 0h-8.8672v-8.8555l8.8672-0.003907zm-8.8672 28.066h8.8672v8.8438h-8.8672zm18.469 0h8.8672v8.8438h-8.8672zm8.8672-46.535h-8.8672v-8.8438h8.8672zm-18.469 0h-8.8672v-8.8438h8.8672zm-8.8672 64.992h8.8672v8.8555h-8.8672zm18.469 0h8.8672v8.8555h-8.8672zm-36.926 18.469h101.19v8.8438h-101.17l-0.003906-8.8438zm101.17-341.92h-27.324v-8.8438h27.324zm-32.121-18.457h-50.594v-8.8555h101.17v8.8555zm41.723-18.469v-27.312h64.246v27.312zm18.457 9.6133h45.781v8.8555h-45.781zm45.789-64.992h-9.2266v-45.77h9.2266zm-18.828 0h-8.4961v-45.77h8.4961zm-18.094 0h-8.8672v-45.781h8.8672zm-18.469-18.457h-8.3633v-27.312h8.3633zm-17.965 0h-8.3633v-27.312h8.3633zm-17.949 0h-8.3633v-27.312h8.3633zm-17.965 0h-8.3633v-27.312h8.3633zm-17.965 0h-8.3633v-27.312h8.3633zm-17.965 0h-8.3633v-27.312h8.3633zm-17.965 0h-8.3633v-27.312h8.3633zm-17.961 0h-8.3633v-27.312h8.3633zm-17.965 0h-8.3633v-27.312h8.3633zm-17.965 0h-8.3633v-27.312h8.3633zm-17.953 0h-8.3633v-27.312h8.3633zm-17.961 0h-8.3633v-27.312h8.3633zm-17.965 0h-8.3633v-27.312h8.3633zm-17.965 0h-8.375v-27.312h8.3633v27.312zm-17.965 0h-8.3633v-27.312h8.3633zm-31.129-36.934h-3.1797v-8.8555h8.8555v8.8555zm-59.375-214.07c0.51562-0.78125 0.80469-1.7148 0.80469-2.6641v-32.125l13.668 0.003906h13.668v32.125c0 0.94922 0.27734 1.8711 0.80469 2.6641l13.488 20.23h-55.922zm-36.105 29.832h101.16v8.8555h-101.17v-8.8555zm0 175.38h8.8555v8.8555h-8.8555zm-17.09 45.789h-8.3633v-27.312h8.3633zm-17.965 0h-8.375v-27.312h8.3633v27.312zm-17.965 0h-8.3633v-27.312h8.3633zm-17.949 0h-8.3633v-27.312h8.3633zm-17.965 0h-8.3633v-27.312h8.3633zm-17.977 0h-8.3516v-27.312h8.3633v27.312zm-17.953 0h-8.3633v-27.312h8.3633zm-17.961 0h-8.3633v-27.312h8.3633zm-17.965 0h-8.3633v-27.312h8.3633zm-17.965 0h-8.3633v-27.312h8.3633zm-17.965 0h-8.3633v-27.312h8.3633zm-17.949 0h-8.3633v-27.312h8.3633zm-17.977 0h-8.3633v-27.312h8.3633zm-17.965 0h-8.3633v-27.312h8.3633zm-17.953 0h-8.3633v-27.312h8.3633zm-17.965 4.8008v13.656h-8.8672v-45.77h8.8672zm-18.465 13.656h-8.8555v-45.77h8.8555zm-27.324-45.777h8.8672v45.777h-8.8672zm13.668 55.379h50.594v8.8438h-64.246l-0.003906-8.8438zm-13.668 73.859h64.246v396.54h-64.246zm175.02 396.54h-101.17v-27.312h101.17zm18.453-32.125v32.125h-8.8555v-45.781h8.8555zm9.6016 23.27h359.64v8.8555h-359.64zm369.24-4.8008v-32.125h8.8555v45.781h-8.8555zm119.62 13.656h-101.17v-27.312h101.17zm73.848 0h-64.246v-396.55h64.246z"/>
</svg>
