<?xml version="1.0" encoding="UTF-8"?>
<svg width="1200pt" height="1200pt" version="1.1" viewBox="0 0 1200 1200" xmlns="http://www.w3.org/2000/svg">
 <path d="m993.98 243c-55.359-46.969-127.97-68.391-199.97-59.016-77.109 10.266-146.39 52.312-191.02 116.02l-3 2.4844-3-2.4844c-44.625-63.703-113.91-105.75-191.02-116.02-72-9.375-144.61 12.047-199.97 59.016-56.578 47.625-90.516 116.86-93.562 190.74-3.0469 73.879 25.078 145.64 77.531 197.76l369.52 368.48c22.547 21.984 58.453 21.984 81 0l369.52-369.98c52.453-52.125 80.578-123.89 77.531-197.76-3.0469-73.871-36.984-143.11-93.562-190.74zm-36.984 335.48-357 357-357-357c-37.594-37.359-57.703-88.828-55.547-141.74 2.2031-52.969 26.531-102.56 67.031-136.74 33.188-27.891 75.188-43.125 118.5-42.984h23.531c56.203 6.7969 106.92 37.172 139.5 83.484l33.516 47.016h-0.046875c7.4062 9.2812 18.656 14.672 30.516 14.672s23.109-5.3906 30.516-14.672l33.516-47.016h-0.046875c32.578-46.312 83.297-76.688 139.5-83.484 51.328-6.75 103.08 8.9062 142.03 42.984 40.5 34.172 64.828 83.766 67.031 136.74 2.1562 52.922-17.953 104.39-55.547 141.74z"/>
</svg>
