<?xml version="1.0" encoding="UTF-8"?>
<svg width="1200pt" height="1200pt" version="1.1" viewBox="0 0 1200 1200" xmlns="http://www.w3.org/2000/svg">
 <path d="m1121.2 1120.1v-41.398h-46.801v-33.84h-58.801v33.84h-34.801v-109.2h-58.801v75.359h-34.801l0.003906-118.2h-47.16v-42.48h-46.801v-65.281h-46.801v-146.88h-46.801l0.003906-66.238h-46.801v-137.16h-46.801v-152.76h-46.801v-67.199h-58.801v131.04h-46.801l0.003906 350.28h-46.801v154.2h-46.801v15.84h-46.801v50.641h-34.801v-15.961h-58.801v51.84h-46.801v58.32h-46.801v39.238h-46.438v36h-17.039v12h1077.5v-12zm-1029.6 0v-24h34.801v24zm46.801 0v-63.238h34.801v63.238zm46.801 0v-121.56h34.801v121.56zm46.801 0v-173.4h34.801v173.4zm46.801 0v-157.56h34.801l-0.003906 157.56zm46.801 0-0.003906-208.08h34.441v208.08zm46.801 0-0.003906-223.92h34.801v223.92zm46.801 0-0.003906-378.12h34.801v378.12zm46.801 0-0.003906-728.4h34.801v728.4zm46.801 0-0.003906-859.44h34.801l-0.003906 859.44zm46.801 0v-792h34.801v792zm46.801 0-0.007813-639.48h34.801v639.48zm46.801 0-0.007813-502.32h34.801v502.32zm46.801 0-0.007812-436.08h34.801v435.6zm46.801 0-0.007812-289.2h34.801v289.2zm46.801 0-0.011718-223.92h34.441v223.92zm46.801 0-0.011719-181.44h34.801v181.44zm46.801 0-0.011719-63.238h34.801v63.238zm46.801 0-0.011718-138.6h34.801v138.6zm46.801 0-0.011719-29.398h34.801v29.398zm46.801 0-0.015625-63.238h34.801v63.238zm46.801 0-0.015625-29.398h34.801v29.398z"/>
</svg>
