<?xml version="1.0" encoding="UTF-8"?>
<svg width="1200pt" height="1200pt" version="1.1" viewBox="0 0 1200 1200" xmlns="http://www.w3.org/2000/svg">
 <path d="m367.13 360.74c51.516-0.046876 93.281 41.766 93.281 93.281 0 51.562-41.766 93.328-93.328 93.328-51.516 0-93.281-41.766-93.281-93.328 0-51.516 41.766-93.281 93.281-93.281zm-0.046875-46.688c-77.297 0-139.92 62.672-139.92 139.97 0 77.344 62.625 139.97 139.92 139.97 77.344 0 139.97-62.625 139.97-139.97 0-77.297-62.625-139.97-139.92-139.97zm695.68-88.078h0.23438c9.6094 0.28125 17.297 8.2031 17.297 17.859v331.36l-89.859-89.906c-17.906-17.906-41.531-26.812-64.922-26.812h-0.14062c-23.344-0.046875-46.875 8.9531-64.734 26.812l-283.87 283.82-88.969-88.969c-17.906-17.906-41.531-26.859-64.922-26.859-23.344 0-46.969 8.9531-64.875 26.859l-238.31 238.31v-674.63c0-9.6562 7.6875-17.578 17.297-17.906zm-137.21 279.19h0.09375c11.484-0.046875 23.016 4.4062 31.781 13.125l122.86 123v314.72c0 9.7031-7.6875 17.578-17.297 17.906h-926.02c-1.9219-0.046875-3.7969-0.46875-5.5781-1.0781l259.6-259.64c8.8125-8.8125 20.344-13.219 31.875-13.219s23.109 4.4062 31.922 13.219l88.969 88.969c9.0938 9.0938 21.047 13.641 33 13.641s23.906-4.5469 33-13.641c7.875-7.875 283.78-283.74 283.87-283.87 8.7656-8.7656 20.344-13.125 31.875-13.125zm-788.16-325.87h-0.65625c-35.156 0.42188-63.562 28.922-63.75 64.125v713.02c0.1875 35.203 28.594 63.703 63.75 64.125h926.48c35.156-0.42188 63.562-28.922 63.75-64.125v-713.02c-0.1875-35.203-28.594-63.703-63.75-64.125z"/>
</svg>
