<?xml version="1.0" encoding="UTF-8"?>
<svg width="1200pt" height="1200pt" version="1.1" viewBox="0 0 1200 1200" xmlns="http://www.w3.org/2000/svg">
 <path d="m600 1080c127.31 0 249.37-50.578 339.42-140.58 90-90.047 140.58-212.11 140.58-339.42s-50.578-249.37-140.58-339.42c-90.047-90-212.11-140.58-339.42-140.58s-249.37 50.578-339.42 140.58c-90 90.047-140.58 212.11-140.58 339.42 0.14062 127.26 50.766 249.28 140.76 339.24 89.953 90 211.97 140.63 339.24 140.76zm0-902.26c111.98 0 219.37 44.484 298.6 123.66 79.172 79.219 123.66 186.61 123.66 298.6s-44.484 219.37-123.66 298.6c-79.219 79.172-186.61 123.66-298.6 123.66s-219.37-44.484-298.6-123.66c-79.172-79.219-123.66-186.61-123.66-298.6 0.14062-111.94 44.672-219.28 123.79-298.45 79.172-79.125 186.52-123.66 298.45-123.79zm-78.562 347.58c0-15.938 12.938-28.875 28.875-28.875h62.812c7.6406 0 15 3.0469 20.438 8.4844 5.3906 5.3906 8.4375 12.75 8.4375 20.391v366.74c0 15.938-12.938 28.875-28.875 28.875s-28.875-12.938-28.875-28.875v-337.87h-33.938c-15.938 0-28.875-12.938-28.875-28.875zm19.5-158.39c0-23.906 14.391-45.422 36.469-54.562s47.484-4.0781 64.359 12.844c16.875 16.875 21.938 42.281 12.797 64.312-9.1406 22.078-30.656 36.469-54.562 36.469-32.578-0.046875-58.969-26.438-59.062-59.062z"/>
</svg>
