<?xml version="1.0" encoding="UTF-8"?>
<svg width="1200pt" height="1200pt" version="1.1" viewBox="0 0 1200 1200" xmlns="http://www.w3.org/2000/svg">
 <path d="m560.4 801.96 53.039 53.039h0.003906c11.633 12.145 27.828 18.848 44.637 18.48h62.762v53.039c0 19.098 7.5859 37.41 21.09 50.914 13.5 13.5 31.816 21.086 50.91 21.086h53.039v62.641c0.054688 16.52 6.5547 32.363 18.121 44.16l41.641 41.641c11.043 10.945 25.973 17.07 41.52 17.039h165.36c13.676-0.03125 26.781-5.4766 36.453-15.148 9.668-9.668 15.117-22.777 15.148-36.453v-165.36c0.046875-15.668-6.1758-30.703-17.281-41.758l-344.88-344.88c29.574-84.297 29.641-176.14 0.18359-260.48-29.457-84.34-86.688-156.18-162.32-203.73-75.629-47.555-165.17-68.012-253.95-58.016-88.773 9.9961-171.52 49.852-234.68 113.03-63.18 63.16-103.04 145.91-113.03 234.68-9.9961 88.777 10.461 178.32 58.016 253.95 47.555 75.629 119.39 132.86 203.73 162.32 84.34 29.457 176.19 29.391 260.48-0.18359zm-358.2-600c52.848-52.918 122.46-85.801 196.89-93.02 74.438-7.2148 149.07 11.688 211.09 53.469 62.023 41.781 107.59 103.84 128.87 175.54 21.285 71.691 16.965 148.55-12.215 217.41-2.793 6.5977-3.5547 13.879-2.1875 20.914 1.3672 7.0312 4.8047 13.496 9.8672 18.566l357.48 357.6v139.56h-139.56l-35.16-35.16v-84.84c0-12.285-4.8828-24.066-13.566-32.754-8.6875-8.6875-20.469-13.566-32.754-13.566h-78.121v-77.879c0-12.285-4.8789-24.066-13.566-32.754s-20.469-13.566-32.754-13.566h-84.719l-66.961-66.961c-5.0703-5.0625-11.535-8.5-18.566-9.8672-7.0352-1.3672-14.316-0.60547-20.914 2.1875-68.852 29.121-145.68 33.395-217.34 12.09-71.656-21.309-133.67-66.867-175.43-128.88-41.754-62.008-60.645-136.61-53.441-211.01 7.2031-74.41 40.059-144 92.93-196.84zm150.72 283.08c35.008 0 68.582-13.906 93.336-38.66 24.754-24.754 38.664-58.332 38.664-93.34 0-35.008-13.91-68.582-38.664-93.336-24.754-24.758-58.328-38.664-93.336-38.664-35.012 0-68.586 13.906-93.34 38.664-24.754 24.754-38.66 58.328-38.66 93.336 0 35.008 13.906 68.586 38.66 93.34 24.754 24.754 58.328 38.66 93.34 38.66zm0-191.04c15.91 0 31.172 6.3203 42.426 17.574 11.25 11.25 17.574 26.512 17.574 42.426s-6.3242 31.176-17.574 42.426c-11.254 11.254-26.516 17.574-42.426 17.574-15.914 0-31.176-6.3203-42.43-17.574-11.25-11.25-17.57-26.512-17.57-42.426-0.035156-15.934 6.2734-31.227 17.527-42.504 11.258-11.277 26.535-17.617 42.473-17.617z"/>
</svg>
