<?xml version="1.0" encoding="UTF-8"?>
<svg width="1200pt" height="1200pt" version="1.1" viewBox="0 0 1200 1200" xmlns="http://www.w3.org/2000/svg">
 <path d="m696 726c9.9375 0 18 8.0625 18 18s-8.0625 18-18 18h-192c-9.9375 0-18-8.0625-18-18s8.0625-18 18-18z"/>
 <path d="m456.24 630c9.9375 0 18 8.0625 18 18s-8.0625 18-18 18h-0.23438c-9.9375 0-18-8.0625-18-18s8.0625-18 18-18z"/>
 <path d="m552.24 630c9.9375 0 18 8.0625 18 18s-8.0625 18-18 18h-0.23438c-9.9375 0-18-8.0625-18-18s8.0625-18 18-18z"/>
 <path d="m648.24 630c9.9375 0 18 8.0625 18 18s-8.0625 18-18 18h-0.23438c-9.9375 0-18-8.0625-18-18s8.0625-18 18-18z"/>
 <path d="m744.24 630c9.9375 0 18 8.0625 18 18s-8.0625 18-18 18h-0.23438c-9.9375 0-18-8.0625-18-18s8.0625-18 18-18z"/>
 <path d="m456.24 558c9.9375 0 18 8.0625 18 18s-8.0625 18-18 18h-0.23438c-9.9375 0-18-8.0625-18-18s8.0625-18 18-18z"/>
 <path d="m552.24 558c9.9375 0 18 8.0625 18 18s-8.0625 18-18 18h-0.23438c-9.9375 0-18-8.0625-18-18s8.0625-18 18-18z"/>
 <path d="m648.24 558c9.9375 0 18 8.0625 18 18s-8.0625 18-18 18h-0.23438c-9.9375 0-18-8.0625-18-18s8.0625-18 18-18z"/>
 <path d="m744.24 558c9.9375 0 18 8.0625 18 18s-8.0625 18-18 18h-0.23438c-9.9375 0-18-8.0625-18-18s8.0625-18 18-18z"/>
 <path d="m475.64 342.52c9.6094-2.3906 19.406 3.4688 21.844 13.125 5.25 21 12.047 27.797 16.594 30.516 5.3906 3.2344 12.141 3.8438 24.422 3.8438 10.5 0 27-0.60938 41.953 6.7969 16.406 8.0625 27.984 23.719 35.25 48.281 1.6875 5.7656 2.2969 11.531 2.2969 16.828v0.09375h150c49.688 0 90 40.312 90 90v216c0 49.688-40.312 90-90 90h-336c-49.688 0-90-40.312-90-90v-216c0-49.688 40.312-90 90-90h150v-0.09375c0-2.5781-0.32812-4.8281-0.84375-6.6094-5.4844-18.562-12.141-24-16.641-26.203-5.9062-2.9531-13.078-3.0938-26.062-3.0938-11.156 0-27.797 0.09375-42.891-8.9531-15.844-9.5156-26.531-26.719-33.047-52.688-2.3906-9.6094 3.4688-19.406 13.125-21.844zm-43.641 155.48c-29.812 0-54 24.188-54 54v216c0 29.812 24.188 54 54 54h336c29.812 0 54-24.188 54-54v-216c0-29.812-24.188-54-54-54z" fill-rule="evenodd"/>
</svg>
