<?xml version="1.0" encoding="UTF-8"?>
<svg width="1200pt" height="1200pt" version="1.1" viewBox="0 0 1200 1200" xmlns="http://www.w3.org/2000/svg">
 <path d="m600 56.25c-4.9727 0-9.7422 1.9766-13.258 5.4922-3.5156 3.5156-5.4922 8.2852-5.4922 13.258v85.25-0.003906c0 4.9727 1.9766 9.7422 5.4922 13.258 3.5156 3.5195 8.2852 5.4922 13.258 5.4922s9.7422-1.9766 13.258-5.4922c3.5156-3.5156 5.4922-8.2852 5.4883-13.258v-85.25 0.003906c0-4.9727-1.9727-9.7422-5.4883-13.258-3.5156-3.5156-8.2852-5.4922-13.258-5.4922zm-341.71 141.46c-5.1602-0.14063-10.148 1.8477-13.797 5.5039-3.5117 3.5195-5.4805 8.2891-5.4766 13.262 0.003906 4.9727 1.9844 9.7383 5.5039 13.254l60.41 60.281v-0.003907c3.5195 3.5156 8.2891 5.4844 13.262 5.4805 4.9727-0.007812 9.7422-1.9883 13.254-5.5078 3.5117-3.5195 5.4844-8.2891 5.4766-13.262-0.003907-4.9727-1.9844-9.7383-5.5039-13.254l-60.41-60.281v0.003906c-2.3281-2.3242-5.2305-3.9961-8.4102-4.8438-1.4062-0.37891-2.8516-0.59375-4.3086-0.63672zm683.43 0c-1.457 0.046874-2.9023 0.26172-4.3086 0.64062-3.1797 0.84766-6.0781 2.5156-8.4102 4.8398l-60.406 60.281c-3.5195 3.5117-5.5 8.2773-5.5039 13.25-0.007812 4.9727 1.9648 9.7461 5.4766 13.266 3.5117 3.5195 8.2812 5.5 13.254 5.5039 4.9727 0.007812 9.7422-1.9648 13.262-5.4766l60.41-60.281c3.5195-3.5117 5.5-8.2773 5.5039-13.25 0.003907-4.9727-1.9648-9.7461-5.4805-13.266-3.6445-3.6523-8.6367-5.6445-13.797-5.5zm-341.71 41.043c-176.16 0-319.41 142.92-319.42 318.77v0.003906 0.027344c0.14062 115.22 62.582 221.15 162.65 277.4v90.84-0.003906c0.023437 1.8203 0.30859 3.6289 0.85156 5.3672 0.042968 0.21094 0.089843 0.42578 0.14062 0.63672 0.56641 1.6328 1.3555 3.1836 2.3477 4.6016 0.15625 0.23828 0.32422 0.47656 0.49609 0.70703 1.0273 1.3555 2.2344 2.5664 3.5898 3.5938 0.23438 0.17188 0.46875 0.33594 0.71094 0.49609 1.418 0.99219 2.9648 1.7812 4.5977 2.3477 0.21094 0.050781 0.42578 0.097656 0.63672 0.14062 1.7383 0.54297 3.5469 0.82812 5.3672 0.85156h276.03c1.8203-0.023437 3.625-0.30859 5.3633-0.85156 0.21484-0.042969 0.42578-0.089844 0.63672-0.14062 1.6367-0.56641 3.1836-1.3555 4.6016-2.3477 0.23828-0.16016 0.47656-0.32422 0.70703-0.49609 1.3555-1.0273 2.5664-2.2383 3.5938-3.5938 0.17188-0.23047 0.33594-0.46875 0.49609-0.70703 0.98828-1.418 1.7812-2.9688 2.3438-4.6016 0.050781-0.21094 0.10156-0.42578 0.14453-0.63672 0.54297-1.7383 0.82812-3.5469 0.84766-5.3672v-90.602c100.15-56.293 162.62-162.34 162.65-277.66h0.003906v-0.003906-0.003906c0-175.85-143.25-318.76-319.41-318.77zm-0.003906 37.5c155.94 0.007813 281.92 125.73 281.92 281.27-0.03125 105.19-58.809 201.5-152.49 249.81v0.003906c-3.0586 1.5781-5.625 3.9648-7.418 6.9062-1.7891 2.9375-2.7383 6.3125-2.7383 9.7578v83.039h-238.53v-83.273c0-3.4453-0.94922-6.8203-2.7383-9.7578-1.793-2.9414-4.3594-5.332-7.418-6.9102-93.609-48.266-152.35-144.46-152.5-249.57v-0.023438c0.027344-155.53 125.99-281.25 281.92-281.25zm17.168 79.922h0.003907c-4.3945 0.35156-8.5234 2.2383-11.664 5.332-3.1406 3.0898-5.0938 7.1914-5.5117 11.578-0.47266 4.9492 1.043 9.8867 4.207 13.719 3.168 3.8359 7.7266 6.2539 12.676 6.7266 80.691 7.6953 145.47 69.988 157.27 149.7 0.73047 4.918 3.3828 9.3477 7.375 12.309 3.9922 2.9648 9 4.2227 13.918 3.4922 4.918-0.72656 9.3477-3.3789 12.309-7.3711 2.9648-3.9922 4.2227-9 3.4922-13.918-14.297-96.594-92.949-172.2-190.8-181.54h0.003906c-1.0859-0.10547-2.1797-0.11328-3.2695-0.027344zm-501.17 183.03 0.007812 0.003907c-4.9727 0-9.7422 1.9727-13.258 5.4922-3.5195 3.5156-5.4922 8.2852-5.4922 13.258 0 4.9727 1.9727 9.7383 5.4922 13.258 3.5156 3.5156 8.2852 5.4883 13.258 5.4883h85.43c4.9727 0 9.7422-1.9727 13.258-5.4883 3.5156-3.5195 5.4922-8.2852 5.4922-13.258 0-4.9727-1.9766-9.7422-5.4922-13.258-3.5156-3.5195-8.2852-5.4922-13.258-5.4922zm882.56 0 0.007812 0.003907c-4.9727 0-9.7422 1.9727-13.258 5.4922-3.5195 3.5156-5.4922 8.2852-5.4922 13.258 0 4.9727 1.9727 9.7383 5.4922 13.258 3.5156 3.5156 8.2852 5.4883 13.258 5.4883h85.434-0.003906c4.9727 0 9.7422-1.9727 13.258-5.4883 3.5195-3.5156 5.4922-8.2852 5.4922-13.258 0-4.9727-1.9727-9.7422-5.4922-13.262-3.5156-3.5156-8.2852-5.4883-13.258-5.4883zm-536.57 467.44c-4.9727 0-9.7422 1.9766-13.258 5.4922-3.5156 3.5156-5.4922 8.2852-5.4922 13.258 0 4.9727 1.9766 9.7422 5.4922 13.258 3.5156 3.5156 8.2852 5.4922 13.258 5.4922h276.03c4.9727 0 9.7422-1.9766 13.258-5.4922 3.5156-3.5156 5.4922-8.2852 5.4922-13.258 0-4.9727-1.9766-9.7422-5.4922-13.258-3.5156-3.5156-8.2852-5.4922-13.258-5.4922zm32.371 99.602h-0.003907c-4.9727 0-9.7422 1.9766-13.258 5.4922-3.5156 3.5156-5.4922 8.2852-5.4922 13.258s1.9766 9.7422 5.4922 13.258c3.5156 3.5156 8.2852 5.4922 13.258 5.4922h211.29c4.9727 0 9.7422-1.9766 13.258-5.4922 3.5195-3.5156 5.4922-8.2852 5.4922-13.258s-1.9766-9.7422-5.4922-13.258c-3.5156-3.5156-8.2852-5.4922-13.258-5.4922z"/>
</svg>
