<?xml version="1.0" encoding="UTF-8"?>
<svg width="1200pt" height="1200pt" version="1.1" viewBox="0 0 1200 1200" xmlns="http://www.w3.org/2000/svg">
 <path d="m600 251.58c25.129 0 48.77-9.7812 66.539-27.562 17.773-17.773 27.562-41.398 27.562-66.527 0-25.141-9.7812-48.77-27.562-66.539-17.781-17.785-41.41-27.566-66.539-27.566s-48.758 9.793-66.527 27.562c-17.773 17.773-27.562 41.398-27.562 66.539 0 25.129 9.793 48.758 27.562 66.527 17.77 17.777 41.387 27.566 66.527 27.566zm-49.57-143.66c13.246-13.246 30.84-20.531 49.559-20.531s36.336 7.2969 49.57 20.531c13.246 13.246 20.531 30.84 20.531 49.57 0 18.719-7.2852 36.324-20.531 49.559s-30.852 20.531-49.57 20.531-36.324-7.2852-49.559-20.531c-13.234-13.246-20.531-30.84-20.531-49.559-0.003907-18.727 7.293-36.332 20.531-49.57z"/>
 <path d="m1109.1 533.47c-17.773-17.785-41.41-27.574-66.551-27.574-21.07 0-41.051 6.9727-57.457 19.68l-89.375-89.375c12.719-16.391 19.691-36.371 19.68-57.457 0-25.129-9.7812-48.758-27.562-66.539-17.762-17.773-41.387-27.551-66.527-27.551s-48.758 9.793-66.539 27.562c-17.773 17.773-27.562 41.398-27.562 66.527-0.011719 21.07 6.9609 41.051 19.68 57.457l-89.387 89.375c-16.391-12.707-36.359-19.668-57.445-19.668s-41.062 6.9727-57.469 19.691l-89.387-89.387c12.719-16.402 19.68-36.371 19.68-57.457 0-25.141-9.7812-48.77-27.562-66.539-17.773-17.773-41.398-27.562-66.527-27.562-25.141 0-48.77 9.793-66.539 27.562-17.773 17.773-27.551 41.398-27.551 66.527 0 21.07 6.9727 41.051 19.68 57.457l-89.375 89.375c-16.402-12.707-36.371-19.668-57.457-19.668-25.141 0-48.77 9.7812-66.539 27.562-17.793 17.758-27.586 41.387-27.586 66.527s9.7812 48.77 27.551 66.527c17.773 17.773 41.41 27.574 66.551 27.574 25.129 0 48.758-9.793 66.527-27.562 33.805-33.805 36.383-87.121 7.8828-124.01l89.375-89.375c16.402 12.719 36.383 19.68 57.469 19.68 21.07 0 41.051-6.9727 57.445-19.668l89.387 89.387c-12.707 16.391-19.68 36.359-19.68 57.445 0 25.129 9.7812 48.77 27.562 66.527 17.773 17.773 41.398 27.562 66.539 27.562 25.129 0 48.758-9.7812 66.527-27.551 17.773-17.773 27.574-41.398 27.574-66.539 0-21.086-6.9727-41.062-19.691-57.469l89.387-89.375c16.391 12.707 36.371 19.68 57.457 19.68 21.086 0 41.051-6.9727 57.445-19.68l89.387 89.387c-28.5 36.887-25.922 90.191 7.8828 124 17.773 17.773 41.398 27.562 66.539 27.562s48.758-9.7812 66.539-27.551c36.707-36.695 36.707-96.395 0.023438-133.08zm-902.02 116.1c-13.246 13.234-30.84 20.531-49.559 20.531-18.73 0-36.336-7.2969-49.586-20.543-13.234-13.234-20.52-30.828-20.52-49.559s7.2852-36.324 20.52-49.57c13.246-13.246 30.852-20.531 49.57-20.531s36.336 7.2852 49.559 20.52c27.352 27.336 27.352 71.828 0.015625 99.152zm122.12-221.28c-13.234-13.246-20.531-30.84-20.531-49.559s7.2852-36.324 20.52-49.559c13.246-13.246 30.852-20.531 49.57-20.531s36.324 7.2969 49.559 20.531c13.246 13.246 20.531 30.84 20.531 49.57 0 18.719-7.2969 36.324-20.531 49.57-13.234 13.234-30.828 20.52-49.547 20.52s-36.32-7.2969-49.57-20.543zm320.39 221.28c-13.246 13.234-30.84 20.52-49.559 20.52-18.73 0-36.324-7.2852-49.57-20.531-13.246-13.246-20.531-30.84-20.531-49.559s7.2969-36.324 20.531-49.559c13.246-13.246 30.852-20.543 49.57-20.543s36.312 7.2852 49.547 20.52c13.246 13.246 20.543 30.852 20.543 49.586 0.015625 18.727-7.293 36.32-20.531 49.566zm122.14-221.28c-13.246-13.246-20.531-30.84-20.531-49.559s7.2852-36.312 20.531-49.559c13.246-13.246 30.84-20.531 49.57-20.531s36.312 7.2852 49.559 20.52c13.246 13.246 20.531 30.852 20.531 49.57s-7.2852 36.324-20.531 49.559c-13.234 13.234-30.828 20.531-49.559 20.531s-36.332-7.2852-49.57-20.531zm320.4 221.29c-13.246 13.234-30.84 20.52-49.57 20.52-18.73 0-36.324-7.2852-49.57-20.531-27.324-27.324-27.336-71.809-0.011719-99.145 13.246-13.234 30.84-20.531 49.57-20.531s36.336 7.2969 49.586 20.543c27.32 27.324 27.32 71.805-0.003906 99.145z"/>
 <path d="m821.26 727.16c-25.141 0-48.77 9.7812-66.539 27.562-17.773 17.762-27.562 41.387-27.562 66.527s9.793 48.77 27.574 66.539c17.773 17.773 41.398 27.574 66.539 27.574s48.758-9.7812 66.527-27.562c17.773-17.762 27.574-41.398 27.562-66.539 0-25.141-9.7812-48.758-27.562-66.539-17.785-17.781-41.414-27.562-66.539-27.562zm49.57 143.66c-13.234 13.246-30.828 20.531-49.559 20.531s-36.324-7.2969-49.57-20.543c-13.246-13.246-20.543-30.84-20.543-49.57 0-18.73 7.2852-36.312 20.531-49.559s30.84-20.531 49.57-20.531c18.719 0 36.324 7.2852 49.57 20.531s20.531 30.84 20.531 49.57c0 18.73-7.2852 36.336-20.531 49.57z"/>
 <path d="m378.76 727.15c-25.141 0-48.77 9.793-66.539 27.574-17.773 17.773-27.562 41.398-27.562 66.527 0 25.141 9.7812 48.758 27.551 66.539 17.773 17.773 41.41 27.562 66.539 27.562s48.77-9.7812 66.527-27.562c17.773-17.773 27.562-41.398 27.562-66.539s-9.793-48.758-27.562-66.539c-17.773-17.77-41.391-27.562-66.516-27.562zm49.547 143.66c-13.246 13.246-30.84 20.531-49.559 20.531-18.73 0-36.336-7.2852-49.57-20.531s-20.531-30.84-20.531-49.559c0-18.73 7.2969-36.324 20.531-49.57 13.246-13.246 30.852-20.543 49.57-20.543s36.324 7.2969 49.559 20.531c13.246 13.246 20.531 30.84 20.531 49.57 0 18.73-7.2852 36.332-20.531 49.57z"/>
 <path d="m600 948.42c-25.129 0-48.77 9.7812-66.539 27.551-36.695 36.684-36.684 96.383 0 133.09 17.773 17.773 41.41 27.562 66.539 27.562s48.758-9.7812 66.539-27.562c36.695-36.695 36.695-96.395 0-133.09-17.77-17.762-41.398-27.551-66.539-27.551zm49.586 143.68c-13.246 13.234-30.84 20.531-49.57 20.531s-36.336-7.2969-49.57-20.531c-27.336-27.336-27.336-71.82 0-99.156 13.246-13.234 30.84-20.52 49.57-20.52s36.336 7.2852 49.586 20.52c27.32 27.336 27.32 71.805-0.015624 99.156z"/>
</svg>
