<?xml version="1.0" encoding="UTF-8"?>
<svg width="1200pt" height="1200pt" version="1.1" viewBox="0 0 1200 1200" xmlns="http://www.w3.org/2000/svg">
 <path d="m754.8 733.2h-309.6c-7.1992 0-12-4.8008-12-12v-289.2c0-7.1992 4.8008-12 12-12h310.8c7.1992 0 12 4.8008 12 12v290.4c-1.1992 6-6 10.801-13.199 10.801zm-297.6-22.801h286.8v-266.4h-286.8z"/>
 <path d="m723.6 444h-247.2c-7.1992 0-12-4.8008-12-12v-39.602c0-7.1992 4.8008-12 12-12h247.2c7.1992 0 12 4.8008 12 12l0.003906 39.602c0 6-6 12-12 12zm-235.2-24h223.2v-15.602h-223.2z"/>
 <path d="m736.8 789.6h-273.6c-7.1992 0-12-4.8008-12-12v-55.199c0-7.1992 4.8008-12 12-12h273.6c7.1992 0 12 4.8008 12 12v55.199c0 6-4.8008 12-12 12zm-261.6-24h249.6v-31.199l-249.6-0.003906z"/>
 <path d="m717.6 1200h-235.2c-7.1992 0-12-4.8008-12-12v-410.4c0-7.1992 4.8008-12 12-12h235.2c7.1992 0 12 4.8008 12 12l0.003906 410.4c0 7.1992-4.8008 12-12 12zm-223.2-24h211.2l0.003906-386.4h-211.2z"/>
 <path d="m684 307.2h-168c-7.1992 0-12-4.8008-12-12v-49.199c0-7.1992 4.8008-12 12-12h168c7.1992 0 12 4.8008 12 12v49.199c-1.1992 7.1992-6 12-12 12zm-156-24h144v-25.199h-144z"/>
 <path d="m476.4 403.2c-1.1992 0-3.6016 0-4.8008-1.1992-6-2.3984-8.3984-9.6016-6-15.602l39.602-96c2.3984-6 9.6016-8.3984 15.602-6 6 2.3984 8.3984 9.6016 6 15.602l-39.602 96c-1.1992 4.8008-6 7.1992-10.801 7.1992z"/>
 <path d="m723.6 403.2c-4.8008 0-9.6016-2.3984-10.801-7.1992l-40.801-96c-2.3984-6 0-13.199 6-15.602 6-2.3984 13.199 0 15.602 6l39.602 96c2.3984 6 0 13.199-6 15.602-1.2031 1.1992-2.4023 1.1992-3.6016 1.1992z"/>
 <path d="m684 258h-168c-4.8008 0-8.3984-2.3984-10.801-6-2.3984-3.6016-2.3984-8.3984 0-12l84-144c4.8008-7.1992 16.801-7.1992 20.398 0l84 144c2.3984 3.6016 2.3984 8.3984 0 12-2.3984 3.6016-5.9961 6-9.5977 6zm-146.4-24h126l-63.602-108z"/>
 <path d="m600 114c-7.1992 0-12-4.8008-12-12v-90c0-7.1992 4.8008-12 12-12s12 4.8008 12 12v90c0 6-4.8008 12-12 12z"/>
 <path d="m530.4 1153.2c-7.1992 0-12-4.8008-12-12v-321.6c0-7.1992 4.8008-12 12-12 7.1992 0 12 4.8008 12 12v321.6c0 7.1953-6 11.996-12 11.996z"/>
 <path d="m577.2 1153.2c-7.1992 0-12-4.8008-12-12v-321.6c0-7.1992 4.8008-12 12-12s12 4.8008 12 12v321.6c-1.1992 7.1953-6 11.996-12 11.996z"/>
 <path d="m622.8 1153.2c-7.1992 0-12-4.8008-12-12v-321.6c0-7.1992 4.8008-12 12-12s12 4.8008 12 12v321.6c0 7.1953-4.8008 11.996-12 11.996z"/>
 <path d="m669.6 1153.2c-7.1992 0-12-4.8008-12-12v-321.6c0-7.1992 4.8008-12 12-12 7.1992 0 12 4.8008 12 12v321.6c0 7.1953-4.8008 11.996-12 11.996z"/>
 <path d="m600 700.8c-68.398 0-124.8-56.398-124.8-124.8 0-68.398 56.398-124.8 124.8-124.8 68.398 0 124.8 56.398 124.8 124.8 0 69.602-56.402 124.8-124.8 124.8zm0-224.4c-55.199 0-100.8 45.602-100.8 100.8s45.602 100.8 100.8 100.8 100.8-45.602 100.8-100.8c0-56.398-45.602-100.8-100.8-100.8z"/>
 <path d="m670.8 595.2h-70.801c-7.1992 0-12-4.8008-12-12v-78c0-7.1992 4.8008-12 12-12s12 4.8008 12 12v66h58.801c7.1992 0 12 4.8008 12 12 0 6-4.8008 12-12 12z"/>
</svg>
