<?xml version="1.0" encoding="UTF-8"?>
<svg width="1200pt" height="1200pt" version="1.1" viewBox="0 0 1200 1200" xmlns="http://www.w3.org/2000/svg">
 <path d="m1012.5 225c29.859 0 58.453 11.859 79.547 32.953s32.953 49.688 32.953 79.547v525c0 29.859-11.859 58.453-32.953 79.547s-49.688 32.953-79.547 32.953h-825c-29.859 0-58.453-11.859-79.547-32.953s-32.953-49.688-32.953-79.547v-525c0-29.859 11.859-58.453 32.953-79.547s49.688-32.953 79.547-32.953zm-2.0625 75h-820.87l386.34 324.52c13.922 11.719 34.266 11.719 48.188 0zm-860.44 64.734v497.76c0 9.9375 3.9375 19.5 10.969 26.531s16.594 10.969 26.531 10.969h825c9.9375 0 19.5-3.9375 26.531-10.969s10.969-16.594 10.969-26.531v-497.76l-377.63 317.21c-41.859 35.156-102.89 35.156-144.74 0z" fill-rule="evenodd"/>
</svg>
