<?xml version="1.0" encoding="UTF-8"?>
<svg width="1200pt" height="1200pt" version="1.1" viewBox="0 0 1200 1200" xmlns="http://www.w3.org/2000/svg">
 <path d="m406.91 171.9-296.74 63.863c-31.461 6.75-53.926 34.574-53.926 66.75v648.71c0 20.625 9.3359 40.125 25.352 53.102 16.051 12.938 37.086 17.961 57.262 13.648 0 0 285.52-61.312 285.52-61.312l346.95 74.102c1.3516 0.30078 2.7383 0.48828 4.1641 0.48828h0.375c1.3867-0.039062 2.7383-0.1875 4.0117-0.48828l309.9-66.523c31.5-6.75 53.961-34.574 53.961-66.75v-648.71c0-20.625-9.3359-40.125-25.352-53.102-16.051-12.938-37.086-17.961-57.262-13.648l-245.85 52.801c-19.012-101.59-108.23-178.57-215.29-178.57-83.512 0-156.15 46.836-193.09 115.65zm349.95 281.36c-6.7109 12.637-13.688 25.273-20.812 37.727-1.5742 2.7383-3.1133 5.4375-4.6875 8.1367-0.5625 0.9375-1.0859 1.875-1.6484 2.8125-1.9492 3.375-3.9375 6.75-5.8867 10.086l-1.5391 2.5859-1.0859 1.875c-1.4258 2.3242-2.8125 4.6484-4.1992 6.9766l-0.60156 1.0117c-0.52344 0.86328-1.0508 1.7266-1.5742 2.625l-1.3125 2.1758c-7.0508 11.625-14.062 22.914-20.926 33.789-0.78906 1.2734-1.6133 2.5508-2.3984 3.8242-4.3125 6.7891-8.5508 13.352-12.676 19.727l-1.5391 2.3633c-0.75 1.1641-1.5391 2.3633-2.2891 3.5234-9.1484 13.988-17.699 26.812-25.312 37.988-4.0117 5.9258-7.7617 11.363-11.176 16.312l-0.5625 0.78906c-2.5859 3.75-5.0234 7.2383-7.1992 10.352l-1.5 2.1367c-1.1641 1.6484-2.25 3.1875-3.2617 4.6133l-0.71094 1.0508c-0.89844 1.1992-1.6875 2.3633-2.4375 3.4141-0.63672 0.89844-1.2383 1.7266-1.7617 2.4766-3 4.1641-4.6133 6.4141-4.6133 6.4141-0.60156 0.82422-1.2734 1.5742-1.9883 2.2891-3.4883 3.4141-8.2109 5.3984-13.164 5.3984-6 0-11.625-2.8516-15.148-7.6875 0 0-82.086-112.46-141.71-224.77v250.91c5.9609 1.6484 11.961 3.3008 18 4.9141 10.012 2.6641 15.977 12.938 13.312 22.914-2.6641 10.012-12.938 15.977-22.914 13.312-2.8125-0.75-5.625-1.5-8.3984-2.25v179.25l313.73 67.012v-260.21c-11.102 4.7617-21.977 9-32.625 12.711-9.75 3.4141-20.477-1.7266-23.887-11.512-3.4141-9.75 1.7266-20.477 11.512-23.887 10.914-3.8242 22.086-8.2109 33.562-13.199 3.75-1.6484 7.7266-1.9492 11.438-1.1641v-238.8zm37.5 536.02 287.59-61.727c14.176-3.0391 24.301-15.562 24.301-30.074v-648.71c0-9.3008-4.1992-18.074-11.438-23.926-7.2383-5.8516-16.727-8.1016-25.801-6.1484l-250.01 53.664v2.8867c0 8.6992-1.0117 18.227-2.8867 28.426l-0.11328 0.60156c-0.33594 1.9141-0.75 3.8633-1.1641 5.8516l-0.41406 1.8359c-1.3125 6.0391-2.9258 12.301-4.8008 18.711-0.074219 0.26172-0.14844 0.52344-0.22656 0.78906-0.22656 0.71094-0.44922 1.4258-0.63672 2.1758-0.375 1.1992-0.75 2.4375-1.125 3.6758-0.11328 0.33594-0.22656 0.71094-0.33594 1.0508-0.44922 1.3867-0.89844 2.7734-1.3516 4.1641l-0.82422 2.5508-0.26172 0.78906c-3.0742 9.0742-6.5625 18.414-10.387 27.977l-0.11328 0.22656v296.36c1.4258-1.9883 3.2617-3.75 5.4766-5.1016 10.238-6.2617 20.102-12.977 29.551-20.062 8.25-6.2266 20.023-4.5391 26.25 3.75 6.1875 8.2891 4.5 20.062-3.7891 26.25-10.352 7.7617-21.188 15.148-32.438 22.051-8.4375 5.1758-19.387 2.8516-25.051-5.0625v297.04zm-404.66-775.31-271.65 58.426c-14.176 3.0742-24.301 15.602-24.301 30.113v648.71c0 9.3008 4.1992 18.074 11.438 23.926 7.2383 5.8516 16.727 8.1016 25.801 6.1484l274.65-58.949v-193.39c-3.7109-4.5742-5.2109-10.836-3.4883-16.914 0.75-2.5117 1.9492-4.8008 3.4883-6.7109v-331.27c-6.3008-15.637-11.664-30.75-15.711-44.961l-0.26172-1.0117c-0.33594-1.1641-0.67578-2.3633-1.0117-3.5234l-0.375-1.3867c-1.7617-6.6758-3.2266-13.164-4.3867-19.352l-0.375-2.1758c-0.11328-0.71094-0.26172-1.4258-0.375-2.1367-0.375-2.4766-0.75-4.875-1.0117-7.2383l-0.074218-0.52344c-0.71094-5.7734-1.0508-11.289-1.0508-16.5v-1.5c0.14844-20.738 3.1484-40.801 8.6992-59.773zm-255.79 555.3c-1.6875 1.3516-2.6641 4.6484-2.6641 8.1758 0 10.352 8.3984 18.75 18.75 18.75 0 0 10.312 1.1641 16.574-9.9766 1.1641-2.0625 7.5742-12.977 19.648-25.836 7.0508-7.5742 6.6758-19.426-0.89844-26.512-7.5391-7.0508-19.426-6.6758-26.477 0.89844-15.414 16.461-23.512 30.488-24.977 33.113-0.22656 0.41406-0.375 0.67578-0.375 0.67578l0.41406 0.71094zm381.52-9.7109c12.637 2.1016 25.539 3.7891 38.738 4.875 10.312 0.86328 19.387-6.8242 20.25-17.137 0.82422-10.312-6.8242-19.387-17.137-20.211-12.188-1.0117-24.039-2.5859-35.664-4.5391-10.199-1.6875-19.875 5.2109-21.562 15.414-1.7266 10.199 5.1758 19.875 15.375 21.602zm105.56 4.875c12.676-1.0859 25.648-2.8125 39-5.3242 10.164-1.9141 16.875-11.699 14.961-21.863-1.875-10.199-11.699-16.914-21.863-15-12.074 2.25-23.852 3.8242-35.289 4.8008-10.312 0.89844-17.961 9.9766-17.102 20.289 0.89844 10.312 9.9766 17.961 20.289 17.102zm-389.44-38.137c9.3359-4.6133 19.727-8.5508 31.199-11.25 10.051-2.3633 16.312-12.488 13.914-22.539-2.3633-10.086-12.449-16.312-22.539-13.949-14.438 3.4141-27.488 8.3242-39.227 14.137-9.2617 4.6133-13.051 15.863-8.4766 25.125 4.6133 9.3008 15.863 13.086 25.125 8.4766zm87.938-13.914c3.6758 0.44922 7.4258 1.0117 11.25 1.6875 7.9141 1.4258 15.789 3.1133 23.625 4.9141 10.086 2.3242 20.176-3.9375 22.5-14.023 2.3633-10.086-3.9375-20.176-14.023-22.5-8.4375-1.9492-16.914-3.75-25.426-5.2891-4.5391-0.82422-9-1.5-13.352-2.0234-10.273-1.2734-19.648 6.0742-20.887 16.352-1.2734 10.273 6.0391 19.613 16.312 20.887zm582.41-80.738c9.2617-9.2617 18.039-18.824 26.398-28.574 6.75-7.8359 5.8516-19.688-2.0234-26.438-7.8359-6.7109-19.688-5.8125-26.438 2.0234-7.7617 9.0391-15.898 17.926-24.488 26.512-7.3125 7.3516-7.2734 19.199 0.039063 26.512 7.3516 7.3125 19.199 7.3125 26.512-0.039063zm-121.16-372.98c-8.3984-92.438-86.176-164.93-180.75-164.93-72.039 0-134.36 42.074-163.65 102.94-11.023 23.324-17.625 49.387-17.852 77.062v1.5c0 13.574 2.9609 29.363 8.0625 46.613 1.0508 3.6016 2.2109 7.2383 3.4883 10.949l0.75 2.25 0.33594 1.0117c0.1875 0.5625 0.375 1.0859 0.5625 1.6133 0.9375 2.6641 1.9141 5.3242 2.9258 7.9883 0.11328 0.33594 0.22656 0.67578 0.33594 1.0117 0.26172 0.60156 0.48828 1.2383 0.75 1.875 0.44922 1.1992 0.89844 2.3633 1.3516 3.5625l0.71094 1.8359c0.22656 0.48828 0.41406 1.0117 0.63672 1.5 0.30078 0.78906 0.63672 1.6133 0.9375 2.3984l1.0859 2.6641 0.5625 1.3125c0.48828 0.97656 0.9375 2.0234 1.2734 3.1133 0.375 0.89844 0.78906 1.8359 1.1992 2.7734l0.63672 1.5391c2.0234 4.6875 4.125 9.4141 6.3008 14.211l0.86328 1.8359 1.0508 2.3242 1.0117 2.2109c0.82422 1.7266 1.6484 3.4492 2.4766 5.1758l0.75 1.6133 1.0508 2.1758c0.75 1.5742 1.5 3.1133 2.25 4.6484 44.137 90.637 110.55 188.89 140.14 231.15 0.9375-1.3125 1.875-2.6992 2.8867-4.125 30.824-44.289 94.5-139.2 137.25-227.02l1.3516-2.7383 1.3867-2.9258 1.0859-2.2891 1.0859-2.25 1.0508-2.2891 3.1523-6.75 1.0117-2.2109 1.0117-2.25 0.97656-2.2109 1.0117-2.25 0.97656-2.2109 1.875-4.3516 0.22656-0.5625c0.48828-1.0859 0.9375-2.1758 1.3867-3.2266 0.33594-1.0859 0.78906-2.1367 1.2734-3.1133 13.574-32.773 22.426-62.773 22.5-86.289l-0.75-16.875zm187.46 292.09c7.3867-10.875 14.289-21.75 20.738-32.551 5.3242-8.8867 2.4375-20.398-6.4492-25.727-8.8867-5.2891-20.398-2.3984-25.727 6.4883-6.0742 10.199-12.602 20.477-19.574 30.711-5.8125 8.5508-3.5625 20.211 4.9883 26.023 8.5508 5.8125 20.211 3.6016 26.023-4.9492zm51.711-90.148c5.8867-12.188 11.137-23.926 15.824-35.023 4.0508-9.5234-0.41406-20.512-9.9375-24.562-9.5625-4.0508-20.551 0.41406-24.602 9.9766-4.4609 10.539-9.4883 21.711-15.074 33.301-4.4609 9.3359-0.5625 20.551 8.7734 25.051 9.3008 4.5 20.512 0.5625 25.012-8.7383zm-419.93-295.88c-61.012 0-110.51 49.5-110.51 110.51 0 61.012 49.5 110.51 110.51 110.51 61.012 0 110.51-49.5 110.51-110.51 0-61.012-49.5-110.51-110.51-110.51zm431.74 158.59-0.039063-0.039062s-3.2266 12.75-8.6992 29.512c-3.1875 9.8633 2.2109 20.438 12.039 23.625 9.8633 3.2266 20.438-2.1758 23.625-12 5.9609-18.262 9.4492-32.102 9.4492-32.102 9.8242-26.664-25.312-41.438-36.375-9zm-431.74-121.09c40.312 0 73.012 32.699 73.012 73.012s-32.699 73.012-73.012 73.012-73.012-32.699-73.012-73.012 32.699-73.012 73.012-73.012z" fill-rule="evenodd"/>
</svg>
