<?xml version="1.0" encoding="UTF-8"?>
<svg width="1200pt" height="1200pt" version="1.1" viewBox="0 0 1200 1200" xmlns="http://www.w3.org/2000/svg">
 <path d="m225 201.19h-99.984c-13.781 0-24.984 11.203-24.984 24.984v750c0 13.781 11.203 24.984 24.984 24.984h125.02c13.781 0 24.984-11.203 24.984-24.984s-11.203-24.984-24.984-24.984h-99.984v-699.98h75c13.781 0 24.984-11.203 24.984-24.984s-11.203-24.984-24.984-24.984zm750 50.016h75v699.98h-99.984c-13.781 0-24.984 11.203-24.984 24.984s11.203 24.984 24.984 24.984h125.02c13.781 0 24.984-11.203 24.984-24.984v-750c0-13.781-11.203-24.984-24.984-24.984h-99.984c-13.781 0-24.984 11.203-24.984 24.984s11.203 24.984 24.984 24.984zm-525 425.02c0-13.781-11.203-24.984-24.984-24.984h-174.98c-13.781 0-24.984 11.203-24.984 24.984v174.98c0 13.781 11.203 24.984 24.984 24.984h174.98c13.781 0 24.984-11.203 24.984-24.984zm275.02 0c0-13.781-11.203-24.984-24.984-24.984h-174.98c-13.781 0-24.984 11.203-24.984 24.984v174.98c0 13.781 11.203 24.984 24.984 24.984h174.98c13.781 0 24.984-11.203 24.984-24.984zm275.02 0c0-13.781-11.203-24.984-24.984-24.984h-174.98c-13.781 0-24.984 11.203-24.984 24.984v174.98c0 13.781 11.203 24.984 24.984 24.984h174.98c13.781 0 24.984-11.203 24.984-24.984zm-600 24.984v125.02h-125.02v-125.02zm275.02 0v125.02h-125.02v-125.02zm275.02 0v125.02h-125.02v-125.02zm-500.02-375c0-13.781-11.203-24.984-24.984-24.984h-174.98c-13.781 0-24.984 11.203-24.984 24.984v174.98c0 13.781 11.203 24.984 24.984 24.984h174.98c13.781 0 24.984-11.203 24.984-24.984zm275.02 0c0-13.781-11.203-24.984-24.984-24.984h-174.98c-13.781 0-24.984 11.203-24.984 24.984v174.98c0 13.781 11.203 24.984 24.984 24.984h174.98c13.781 0 24.984-11.203 24.984-24.984zm275.02 0c0-13.781-11.203-24.984-24.984-24.984h-174.98c-13.781 0-24.984 11.203-24.984 24.984v174.98c0 13.781 11.203 24.984 24.984 24.984h174.98c13.781 0 24.984-11.203 24.984-24.984zm-600 24.984v125.02h-125.02v-125.02zm275.02 0v125.02h-125.02v-125.02zm275.02 0v125.02h-125.02v-125.02z" fill-rule="evenodd"/>
</svg>
