<?xml version="1.0" encoding="UTF-8"?>
<svg width="1200pt" height="1200pt" version="1.1" viewBox="0 0 1200 1200" xmlns="http://www.w3.org/2000/svg">
 <path d="m1038 468c-73.199 0-132 60-132 133.2s60 132 132 132c73.199 0 132-60 132-132 0-74.398-60-133.2-132-133.2zm0 202.8c-38.398 0-69.602-31.199-69.602-69.602 0-38.398 31.199-69.602 69.602-69.602 38.398 0 69.602 31.199 69.602 69.602 0 38.402-31.203 69.602-69.602 69.602z"/>
 <path d="m724.8 459.6c-12-12-32.398-12-44.398 0s-12 32.398 0 44.398l64.801 64.801h-210l-75.602-254.4c-3.6016-13.199-15.602-22.801-30-22.801h-138c-14.398-58.801-66-102-128.4-102-73.199 0-132 60-132 132 0 73.199 60 133.2 132 133.2 62.398 0 114-43.199 128.4-100.8h114l73.199 246-73.199 244.8h-114c-14.398-57.602-66-100.8-128.4-100.8-73.199 0-132 60-132 133.2s60 132 132 132c62.398 0 115.2-43.199 128.4-100.8h138c14.398 0 26.398-9.6016 30-22.801l75.602-254.4h211.2l-66.004 64.801c-12 12-12 32.398 0 44.398 6 6 14.398 9.6016 21.602 9.6016 7.1992 0 15.602-3.6016 21.602-9.6016l118.8-118.8c6-6 9.6016-14.398 9.6016-21.602 0-8.3984-3.6016-16.801-9.6016-21.602zm-562.8-66c-38.398 0-69.602-31.199-69.602-69.602 0-38.398 31.199-69.602 69.602-69.602 38.398 0 69.602 31.199 69.602 69.602 0 38.398-30 69.602-69.602 69.602zm0 553.2c-38.398 0-69.602-31.199-69.602-69.602 0-38.398 31.199-69.602 69.602-69.602 38.398 0 69.602 31.199 69.602 69.602 1.1992 38.402-30 69.602-69.602 69.602z"/>
</svg>
