<?xml version="1.0" encoding="UTF-8"?>
<svg width="1200pt" height="1200pt" version="1.1" viewBox="0 0 1200 1200" xmlns="http://www.w3.org/2000/svg">
 <path d="m600 750c49.711-0.058594 97.367-19.832 132.52-54.98 35.148-35.152 54.922-82.809 54.98-132.52v-337.5c0-49.727-19.754-97.418-54.918-132.58-35.164-35.164-82.855-54.918-132.58-54.918s-97.418 19.754-132.58 54.918c-35.164 35.164-54.918 82.855-54.918 132.58v337.5c0.058594 49.711 19.832 97.367 54.98 132.52 35.152 35.148 82.809 54.922 132.52 54.98zm-112.5-525c0-40.191 21.441-77.332 56.25-97.43 34.809-20.094 77.691-20.094 112.5 0 34.809 20.098 56.25 57.238 56.25 97.43v337.5c0 40.191-21.441 77.332-56.25 97.43-34.809 20.094-77.691 20.094-112.5 0-34.809-20.098-56.25-57.238-56.25-97.43zm450 300v37.5c-0.11719 82.973-30.758 163-86.082 224.83-55.328 61.836-131.47 101.15-213.92 110.46v189.71h112.5c13.398 0 25.777 7.1484 32.477 18.75 6.6992 11.602 6.6992 25.898 0 37.5-6.6992 11.602-19.078 18.75-32.477 18.75h-300c-13.398 0-25.777-7.1484-32.477-18.75-6.6992-11.602-6.6992-25.898 0-37.5 6.6992-11.602 19.078-18.75 32.477-18.75h112.5v-189.71c-82.449-9.3047-158.59-48.621-213.92-110.46-55.324-61.832-85.965-141.86-86.082-224.83v-37.5c0-13.398 7.1484-25.777 18.75-32.477 11.602-6.6992 25.898-6.6992 37.5 0 11.602 6.6992 18.75 19.078 18.75 32.477v37.5c0 69.621 27.656 136.39 76.883 185.62 49.23 49.227 116 76.883 185.62 76.883s136.39-27.656 185.62-76.883c49.227-49.23 76.883-116 76.883-185.62v-37.5c0-13.398 7.1484-25.777 18.75-32.477 11.602-6.6992 25.898-6.6992 37.5 0 11.602 6.6992 18.75 19.078 18.75 32.477z"/>
</svg>
