<?xml version="1.0" encoding="UTF-8"?>
<svg width="1200pt" height="1200pt" version="1.1" viewBox="0 0 1200 1200" xmlns="http://www.w3.org/2000/svg">
 <path d="m991.38 587.81h-142.88v-13.668c0-2.6523-2.1484-4.8008-4.8008-4.8008h-13.906c-0.070312-3.6719-0.30078-7.2969-0.55078-10.922 0.45703-0.74219 0.79297-1.5586 0.79297-2.4961 0-1.1055-0.43359-2.0742-1.0664-2.8906-0.9375-10.043-2.6289-19.848-4.8359-29.473h1.1055c2.6523 0 4.8008-2.1602 4.8008-4.8008v-18.457c0-2.6523-2.1484-4.8008-4.8008-4.8008h-9.5742c-9.7812-26.258-24.215-50.184-42.434-70.812-0.40625-1.0312-1.1992-1.8477-2.1602-2.375-5.3281-5.8672-10.945-11.461-16.859-16.738-0.52734-0.86328-1.2461-1.6094-2.1953-2.0039-7.1875-6.2539-14.652-12.18-22.586-17.496-0.46875-0.44531-1.0195-0.76953-1.6445-0.99609-19.414-12.793-40.945-22.535-63.887-28.883v-22.043c0-2.6523-2.1484-4.8008-4.8008-4.8008h-110.76c-2.6523 0-4.8008 2.1602-4.8008 4.8008v22.043c-22.945 6.3477-44.473 16.094-63.887 28.883-0.61328 0.22656-1.1758 0.55078-1.6445 0.99609-7.9336 5.3164-15.395 11.258-22.586 17.496-0.94922 0.39453-1.668 1.1289-2.1953 2.0039-5.9141 5.293-11.531 10.871-16.859 16.738-0.97266 0.53906-1.7539 1.3438-2.1602 2.375-18.215 20.629-32.652 44.555-42.434 70.812h-9.5742c-2.6523 0-4.8008 2.1602-4.8008 4.8008v18.457c0 2.6523 2.1484 4.8008 4.8008 4.8008h1.1055c-2.207 9.625-3.8984 19.43-4.8359 29.473-0.63672 0.81641-1.0664 1.7891-1.0664 2.8906 0 0.9375 0.33594 1.7539 0.79297 2.4961-0.25391 3.625-0.48047 7.2461-0.55078 10.922h-13.906c-2.6523 0-4.8008 2.1602-4.8008 4.8008v13.668h-142.93c-2.6523 0-4.8008 2.1602-4.8008 4.8008v535.39c0 2.6523 2.1484 4.8008 4.8008 4.8008h775.39c2.6523 0 4.8008-2.1602 4.8008-4.8008l-0.003906-461.54v-73.836c-0.011718-2.6523-2.1602-4.8125-4.8125-4.8125zm-438.27-248.86h101.17v14.762c-16.297-3.7422-33.18-5.9023-50.578-5.9023-17.398 0-34.297 2.1602-50.578 5.9023l-0.003906-14.762zm50.59 18.469c38.113 0 73.922 9.9727 105.07 27.312l-210.14-0.003906c31.152-17.34 66.945-27.309 105.07-27.309zm-120.88 36.922h241.74c4.1055 2.7617 7.9688 5.8203 11.867 8.8438h-265.47c3.8984-3.0234 7.7734-6.0703 11.867-8.8438zm-23.328 18.457h288.41c3.2539 2.9023 6.5391 5.7617 9.6016 8.8438h-307.61c3.0625-3.0859 6.3477-5.9414 9.6016-8.8438zm-18.336 18.457h325.08c16.57 18.828 29.914 40.5 39.203 64.246h-403.5c9.2969-23.746 22.629-45.406 39.215-64.246zm-54.203 73.859h433.48v8.8438h-433.48zm427.27 18.453c2.1602 9.0117 3.9492 18.156 4.9453 27.562l-430.96 0.003907c0.99609-9.4062 2.7852-18.551 4.9453-27.562zm-426.59 37.176h432.12c0.17969 2.8555 0.37109 5.7109 0.43359 8.6055h-433c0.074219-2.8906 0.26562-5.7461 0.44531-8.6055zm-19.141 18.207h470.4v8.8555h-470.4zm-147.7 18.469h765.79v64.234h-765.79zm747.32 507.32h-728.87v-8.8555h728.89v8.8555zm-73.848-286.29v267.83h-64.246v-32.125l-0.003906-235.7c10.535-2.2188 18.469-11.578 18.469-22.754 0-5.1133-1.7148-9.8047-4.5234-13.656h36.371c-2.8086 3.8398-4.5234 8.543-4.5234 13.656 0 11.172 7.9336 20.531 18.457 22.754zm23.254 240.5h32.137v8.8555h-45.793v-8.8555zm-13.656 18.469h45.793v8.8438h-45.793zm45.793-28.082h-8.8672v-234.93c2.6055 1.9062 5.6055 3.3008 8.8672 3.9844zm-18.469 0h-8.8672v-248.84h8.8672zm-18.457 0h-8.8672v-230.94c3.2656-0.69531 6.2656-2.0742 8.8672-3.9844zm-184.62 36.926h-8.8672v-27.312h8.8672zm9.5977-82.695h8.8555v45.77h-8.8555zm-9.5977 45.77h-8.8672v-45.77h8.8672zm9.5977 9.6133h8.8555v27.312h-8.8555zm18.457-4.8008v-55.391c0-2.6523-2.1484-4.8008-4.8008-4.8008h-36.926c-2.6523 0-4.8008 2.1602-4.8008 4.8008v87.504h-8.8516v-267.82c10.535-2.2188 18.469-11.578 18.469-22.754 0-5.1133-1.7148-9.8047-4.5234-13.656h36.371c-2.8086 3.8398-4.5234 8.543-4.5234 13.656 0 11.172 7.9336 20.531 18.469 22.754v267.83h-8.8672l-0.003906-32.125zm-157.29 32.113h-8.8672v-27.312h8.8672zm9.6016-82.695h8.8672v45.77h-8.8672zm-9.6016 45.77h-8.8672v-45.77h8.8672zm9.6016 9.6133h8.8672v27.312h-8.8672zm18.457-4.8008v-55.391c0-2.6523-2.1484-4.8008-4.8008-4.8008h-36.938c-2.6523 0-4.8008 2.1602-4.8008 4.8008v87.504h-8.8555v-267.82c10.523-2.2188 18.457-11.578 18.457-22.754 0-5.1133-1.7148-9.8047-4.5234-13.656h36.371c-2.8086 3.8398-4.5234 8.543-4.5234 13.656 0 11.172 7.9336 20.531 18.469 22.754v267.83h-8.8672v-32.125zm-157.29 32.113h-8.8672v-27.312h8.8672zm9.5898-82.695h8.8672v45.77h-8.8672zm-9.5898 45.77h-8.8672v-45.77h8.8672zm9.5898 9.6133h8.8672v27.312h-8.8672zm18.465-4.8008v-55.391c0-2.6523-2.1484-4.8008-4.8008-4.8008h-36.922c-2.6523 0-4.8008 2.1602-4.8008 4.8008v87.504h-8.8672v-267.82c10.535-2.2188 18.469-11.578 18.469-22.754 0-5.1133-1.7148-9.8047-4.5234-13.656h36.371c-2.8086 3.8398-4.5234 8.543-4.5234 13.656 0 11.172 7.9336 20.531 18.457 22.754v267.83h-8.8555zm-240-235.75c3.2656-0.69531 6.2539-2.0742 8.8555-3.9844v234.93h-8.8555zm45.781 230.94h-8.8672v-234.93c2.6055 1.9062 5.6055 3.3008 8.8672 3.9844zm-32.125 9.6133h32.137v8.8555h-45.781v-8.8555zm13.668-9.6133h-8.8672v-248.84h8.8672zm-27.324 28.082h45.781v8.8438h-45.781zm55.383-4.8008v-254.17c10.535-2.2188 18.469-11.578 18.469-22.754 0-5.1133-1.7148-9.8047-4.5234-13.656h36.371c-2.8086 3.8398-4.5234 8.543-4.5234 13.656 0 11.172 7.9336 20.531 18.469 22.754v267.83h-64.246l-0.003906-13.656zm138.09-276.93c0 7.5352-6.1328 13.656-13.668 13.656-5.8438 0-10.848-3.6836-12.793-8.8438h12.793c2.6523 0 4.8008-2.1602 4.8008-4.8008s-2.1484-4.8008-4.8008-4.8008h-55.379c-2.6523 0-4.8008 2.1602-4.8008 4.8008s2.1484 4.8008 4.8008 4.8008h12.793c-1.9453 5.1719-6.9492 8.8438-12.793 8.8438-7.5352 0-13.668-6.1211-13.668-13.656 0-7.5352 6.1328-13.656 13.668-13.656h55.379c7.5352 0 13.668 6.1211 13.668 13.656zm-64.246 22.703c3.2656-0.69531 6.2656-2.0742 8.8672-3.9844v234.93h-8.8672zm27.324 230.94h-8.8555v-248.84h8.8555zm-27.324 9.6133h45.793v8.8555h-45.781v-8.8555zm36.922-9.6133v-234.93c2.6055 1.9062 5.6055 3.3008 8.8672 3.9844v230.94zm-36.922 28.082h45.781v8.8438h-45.781zm193.48-281.73c0 7.5352-6.1328 13.656-13.656 13.656-5.8438 0-10.848-3.6836-12.793-8.8438h12.793c2.6523 0 4.8008-2.1602 4.8008-4.8008s-2.1484-4.8008-4.8008-4.8008h-55.391c-2.6523 0-4.8008 2.1602-4.8008 4.8008s2.1484 4.8008 4.8008 4.8008h12.793c-1.9453 5.1719-6.9492 8.8438-12.793 8.8438-7.5234 0-13.656-6.1211-13.656-13.656 0-7.5352 6.1328-13.656 13.656-13.656h55.391c7.5234 0 13.656 6.1211 13.656 13.656zm-64.25 22.703c3.2656-0.69531 6.2656-2.0742 8.8672-3.9844v234.93h-8.8672zm27.324 230.94h-8.8672v-248.84h8.8672zm-27.324 9.6133h45.805v8.8555h-45.793v-8.8555zm36.926-9.6133v-234.93c2.6055 1.9062 5.6055 3.3008 8.8672 3.9844v230.94zm-36.926 28.082h45.793v8.8438h-45.793zm193.49-281.73c0 7.5352-6.1328 13.656-13.668 13.656-5.8438 0-10.848-3.6836-12.793-8.8438h12.793c2.6523 0 4.8008-2.1602 4.8008-4.8008s-2.1484-4.8008-4.8008-4.8008h-55.379c-2.6523 0-4.8008 2.1602-4.8008 4.8008s2.1484 4.8008 4.8008 4.8008h12.793c-1.9453 5.1719-6.9492 8.8438-12.781 8.8438-7.5352 0-13.668-6.1211-13.668-13.656 0-7.5352 6.1328-13.656 13.668-13.656h55.367c7.5352 0 13.668 6.1211 13.668 13.656zm-64.246 22.703c3.2656-0.69531 6.2539-2.0742 8.8555-3.9844v234.93h-8.8555zm27.32 230.94h-8.8672v-248.84h8.8672zm-27.32 9.6133h45.777v8.8555h-45.781zm36.91-9.6133v-234.93c2.6055 1.9062 5.6055 3.3008 8.8672 3.9844v230.94zm-36.91 28.082h45.777v8.8438h-45.781zm193.47-281.73c0 7.5352-6.1328 13.656-13.668 13.656-5.8438 0-10.836-3.6836-12.781-8.8438h12.793c2.6523 0 4.8008-2.1602 4.8008-4.8008s-2.1484-4.8008-4.8008-4.8008h-55.379c-2.6523 0-4.8008 2.1602-4.8008 4.8008s2.1484 4.8008 4.8008 4.8008h12.793c-1.9453 5.1719-6.9492 8.8438-12.793 8.8438-7.5352 0-13.668-6.1211-13.668-13.656 0-7.5352 6.1328-13.656 13.668-13.656h55.379c7.5273 0 13.656 6.1211 13.656 13.656zm-64.246 22.703c3.2656-0.69531 6.2656-2.0742 8.8672-3.9844v234.93h-8.8672zm27.324 230.94h-8.8672v-248.84h8.8672zm-27.324 9.6133h45.793v8.8555h-45.781v-8.8555zm36.922-9.6133v-234.93c2.6055 1.9062 5.5938 3.2891 8.8555 3.9844v230.94zm-36.922 28.082h45.781v8.8438h-45.781zm50.578-304.99h-567.5v-8.8555h691.95v8.8555zm-535.38-82.695h87.531v8.8438h-101.17v-8.8438zm105.97 0v8.8438h-8.8672v-8.8438zm23.254 0h87.52v8.8438h-101.17v-8.8438zm105.97 0v8.8438h-8.8672v-8.8438zm23.258 0h124.46v8.8438h-138.11v-8.8438zm142.89 0v8.8438h-8.8672v-8.8438zm23.27 0h87.531v8.8438h-101.2v-8.8438zm105.96 0v8.8438h-8.8555v-8.8438zm23.266 0h87.504v8.8438h-101.17v-8.8438zm105.97 64.227h-691.95v-8.8438h691.95zm0-18.457h-691.95v-27.312h691.95zm-683.09-36.926h-8.8555v-8.8438h8.8555zm683.09 0h-8.8672v-8.8438h8.8672zm-18.469-18.453h-8.8672v-8.8555h8.8672zm-18.457 0h-8.8672v-8.8555h8.8672zm-18.465 0h-8.8555v-8.8555h8.8555zm-18.457 0h-8.8672v-8.8555h8.8672zm-18.469 0h-8.8672v-8.8555h8.8672zm-18.457 0h-8.8672v-8.8555h8.8672zm-18.465 0h-8.8555v-8.8555h8.8555zm-18.457 0h-8.8672v-8.8555h8.8672zm-18.469 0h-8.8672v-8.8555h8.8672zm-18.457 0h-8.8672v-8.8555h8.8672zm-18.469 0h-8.8555v-8.8555h8.8555zm-18.453 0h-8.8672v-8.8555h8.8672zm-18.457 0h-8.8672v-8.8555h8.8672zm-18.469 0h-8.8672v-8.8555h8.8672zm-18.457 0h-8.8672v-8.8555h8.8672zm-18.465 0h-8.8555v-8.8555h8.8555zm-18.457 0h-8.8672v-8.8555h8.8672zm-18.469 0h-8.8672v-8.8555h8.8672zm-18.457 0h-8.8672v-8.8555h8.8672zm-18.465 0h-8.8555v-8.8555h8.8555zm-18.457 0h-8.8672v-8.8555h8.8672zm-18.469 0h-8.8672v-8.8555h8.8672zm-18.457 0h-8.8672v-8.8555h8.8672zm-18.469 0h-8.8555v-8.8555h8.8555zm-18.453 0h-8.8672v-8.8555h8.8672zm-18.457 0h-8.8672v-8.8555h8.8672zm-18.469 0h-8.8672v-8.8555h8.8672zm-18.457 0h-8.8672v-8.8555h8.8672zm-18.465 0h-8.8555v-8.8555h8.8555zm-18.457 0h-8.8672v-8.8555h8.8672zm-18.469 0h-8.8672v-8.8555h8.8672zm-18.457 0h-8.8672v-8.8555h8.8672zm-18.465 0h-8.8555v-8.8555h8.8555zm-18.457 0h-8.8672v-8.8555h8.8672zm-18.469 0h-8.8672v-8.8555h8.8672zm-18.457 0h-8.8672v-8.8555h8.8672zm-18.469 0h-8.8555v-8.8555h8.8555zm-13.652 101.91h55.379c7.5352 0 13.668 6.1211 13.668 13.656 0 7.5352-6.1328 13.656-13.668 13.656-5.8438 0-10.848-3.6836-12.793-8.8438h12.793c2.6523 0 4.8008-2.1602 4.8008-4.8008s-2.1484-4.8008-4.8008-4.8008h-55.379c-2.6523 0-4.8008 2.1602-4.8008 4.8008s2.1484 4.8008 4.8008 4.8008h12.793c-1.9453 5.1719-6.9492 8.8438-12.781 8.8438-7.5352 0-13.668-6.1211-13.668-13.656 0-7.5352 6.1172-13.656 13.656-13.656zm688.75 18.457h12.793c2.6523 0 4.8008-2.1602 4.8008-4.8008 0-2.6406-2.1484-4.8008-4.8008-4.8008h-55.391c-2.6523 0-4.8008 2.1602-4.8008 4.8008 0 2.6406 2.1484 4.8008 4.8008 4.8008h12.793c-1.9453 5.1719-6.9492 8.8438-12.793 8.8438-7.5234 0-13.656-6.1211-13.656-13.656s6.1328-13.656 13.656-13.656h55.391c7.5352 0 13.668 6.1211 13.668 13.656s-6.1328 13.656-13.668 13.656c-5.8555 0-10.848-3.6719-12.793-8.8438zm7.9922-120.37h-8.8672v-8.8555h8.8672zm-728.87-8.8672h27.324v101.68c-10.535 2.2188-18.469 11.578-18.469 22.754 0 11.172 7.9336 20.531 18.469 22.754v267.83h-13.668c-2.6523 0-4.8008 2.1602-4.8008 4.8008v32.125h-8.8555zm747.32 451.94h-728.87v-8.8438h728.87zm18.453 0h-8.8555v-32.125c0-2.6523-2.1484-4.8008-4.8008-4.8008h-13.668v-32.125l0.003906-235.7c10.535-2.2188 18.469-11.578 18.469-22.754 0-11.172-7.9336-20.531-18.469-22.754v-101.69h27.324z"/>
</svg>
