<?xml version="1.0" encoding="UTF-8"?>
<svg width="1200pt" height="1200pt" version="1.1" viewBox="0 0 1200 1200" xmlns="http://www.w3.org/2000/svg">
 <path d="m615.61 1034.1c-240.98 0-437.02-196.08-437.02-437.02 0-214.13 153.1-395.29 363.98-430.82 10.359-1.7812 20.672 3.4688 25.406 12.844s2.8125 20.766-4.7812 28.078c-66.938 64.547-103.83 151.22-103.83 244.03 0 186.94 152.06 339 339 339 66.328 0 130.64-19.219 185.95-55.594 8.8125-5.7656 20.344-5.1562 28.453 1.5469 8.1094 6.7031 10.922 17.906 6.8906 27.656-67.828 164.21-226.4 270.32-404.02 270.32zm-136.82-801.37c-149.72 55.734-252.24 198.98-252.24 364.36 0 214.5 174.52 389.02 389.02 389.02 132.98 0 253.92-66.797 324.98-174.98-45 17.812-93.141 27.047-142.26 27.047-213.37 0-387-173.63-387-387 0-79.312 23.578-154.69 67.453-218.48z"/>
</svg>
