<svg xmlns="http://www.w3.org/2000/svg" viewBox="0 0 200 200" width="200" height="200">
<g transform="translate(0,200) scale(0.1,-0.1)" fill="#000000" stroke="none">
<path d="M1577 1750 c-47 -15 -94 -57 -117 -106 -43 -88 -9 -202 77 -255 30
-19 52 -24 103 -24 56 0 71 4 109 30 50 34 81 87 88 150 8 64 -32 145 -87 180
-46 29 -125 41 -173 25z M970 1478 c-49 -68 -146 -199 -214 -291 l-124 -169
-67 92 c-53 71 -72 90 -88 88 -15 -2 -67 -67 -169 -213 l-147 -210 -1 -256 c0
-204 3 -259 14 -268 10 -8 235 -10 831 -9 766 3 819 4 829 21 8 12 8 22 0 35
-10 15 -38 18 -274 22 l-262 5 -137 195 c-75 107 -144 196 -154 198 -9 2 -36
-10 -61 -27 -25 -17 -48 -31 -53 -31 -4 0 -36 40 -70 88 -34 48 -80 112 -102
143 l-40 57 199 272 199 272 186 -281 c101 -155 192 -284 200 -287 9 -4 47 2
85 12 38 10 71 16 73 13 2 -2 36 -62 77 -132 40 -71 79 -131 88 -134 18 -8 46
9 50 30 4 19 -165 317 -185 324 -7 3 -45 -3 -83 -13 -44 -11 -73 -14 -79 -8
-5 5 -95 138 -200 297 -142 213 -196 287 -211 287 -13 0 -48 -39 -110 -122z"/>
</g>
</svg>