<?xml version="1.0" encoding="UTF-8"?>
<svg width="1200pt" height="1200pt" version="1.1" viewBox="0 0 1200 1200" xmlns="http://www.w3.org/2000/svg">
 <defs>
  <clipPath id="a">
   <path d="m222.14 353h755.71v494h-755.71z"/>
  </clipPath>
 </defs>
 <g clip-path="url(#a)">
  <path d="m593.13 846.23c-7.6094-1.3125-14.879-5.0117-20.543-10.449-6.9297-6.6523-11.117-15.383-12.059-25.152-0.39453-4.0859 0.085938-9.7773 1.1406-13.555 0.48047-1.7227 0.47266-1.9414-0.023437-0.64844-0.28906 0.75-0.46875 0.98828-0.69922 0.92578-0.17188-0.046874-26.285-9.9258-58.031-21.953-92.488-35.043-111.3-42.188-111.41-42.301-0.058594-0.058594 0.03125-0.45312 0.19922-0.875 0.55469-1.3906 0.3125-1.0742-0.78906 1.0352-3.043 5.8047-7.8594 11.066-13.449 14.691-4.5977 2.9805-10.719 5.25-16.25 6.0195-2.5312 0.35547-8.6523 0.30469-11.121-0.085938-10.105-1.6055-18.555-6.4688-25.125-14.453-6.3047-7.668-9.5508-18.547-8.5195-28.59 0.75781-7.4141 3.5977-14.602 8.0859-20.473 1.2461-1.6328 4.1992-4.6523 6.1211-6.2578 6.0391-5.0547 13.387-8.1055 21.586-8.9727 2.4375-0.25781 6.8672-0.11719 9.6367 0.30469 4.8438 0.73828 10.266 2.6445 14.172 4.9844 1.0352 0.62109 1.1836 0.67578 0.68359 0.25-0.46875-0.39844-0.59375-0.62109-0.47266-0.82422 0.09375-0.15234 5.832-7.8008 12.754-16.988s15.789-20.957 19.699-26.156c3.9141-5.1953 10.441-13.867 14.512-19.266 4.0703-5.4023 7.3984-9.9102 7.3984-10.016 0-0.10938-3.2266-4.1484-7.1719-8.9805-3.9453-4.832-15.922-19.488-26.609-32.578l-19.438-23.793 0.83594-0.73438c0.76172-0.67188 0.69531-0.64453-0.76953 0.29688-14.441 9.2695-33.164 8.2695-46.5-2.4844-1.8281-1.4727-5.2969-5.0469-6.6328-6.832-5.8438-7.8086-8.6719-17.395-7.9336-26.879 0.85938-10.969 5.8398-20.637 14.258-27.66 9.6211-8.0273 22.711-11 34.859-7.9219 5.3711 1.3633 10.004 3.5703 14.406 6.8672 3.1523 2.3594 7.2305 6.7734 9.3438 10.109 0.91016 1.4336 1.3594 1.8594 0.77734 0.72656-0.27734-0.53516-0.27344-0.58984 0.035157-0.75391 0.18359-0.097656 4.625-2.2148 9.875-4.707 14.109-6.7031 156.77-74.672 159.27-75.879 0.56641-0.27344 1.0898-0.49609 1.1641-0.49609s0.28516 0.38281 0.46484 0.85547c0.57812 1.5117 0.45703 0.80469-0.19922-1.1797-0.81641-2.457-1.5234-5.6562-1.8086-8.1641-0.28906-2.5391-0.13281-8.6016 0.28125-10.879 2.0195-11.148 7.9844-20.355 17.188-26.531 4.7266-3.1719 10.246-5.3008 16.273-6.2773 2.0547-0.33203 9.3359-0.33203 11.43 0 17.609 2.8008 31.047 16.375 33.535 33.887 0.32422 2.2852 0.37109 7.8594 0.085937 10.172-0.39062 3.1484-0.80859 4.8594-2.332 9.5352-0.066406 0.20703 0.082031-0.03125 0.32812-0.52734 0.25-0.5 0.5-0.95313 0.55469-1.0078 0.058594-0.058594 4.0859 1.7656 8.9492 4.0547 8.2188 3.8633 32.809 15.406 82.062 38.531 11.066 5.1953 31.984 15.016 46.48 21.824 14.496 6.8047 28.566 13.41 31.27 14.676 2.7031 1.2656 4.9844 2.3711 5.0703 2.457 0.085937 0.085937-0.019532 0.50391-0.23438 0.92969-0.69922 1.3711-0.41797 1.082 0.69141-0.71094 2.2617-3.6445 6.3242-8.0977 9.7227-10.645 5.2695-3.9531 11.504-6.6016 17.902-7.5977 9.8359-1.5352 20.316 0.85156 28.445 6.4766 9.707 6.7148 15.887 17.152 17.082 28.852l0.15625 1.5117 0.046876-2.3594 75.078-0.09375-3.957-2.9648c-2.1758-1.6289-4.1445-3.2148-4.3672-3.5195-0.61328-0.83203-1.0625-2.3789-0.95703-3.3086 0.36719-3.2695 3.9258-5.2148 6.8008-3.7188 1.3594 0.70703 20.262 15.062 20.688 15.715 0.66016 1.0039 0.91797 2.4258 0.64844 3.5898-0.125 0.53516-0.40625 1.2695-0.625 1.625-0.26562 0.42969-3.7227 3.1406-10.207 8.0039-5.3945 4.0469-10.129 7.5273-10.527 7.7344-1.7891 0.93359-3.9883 0.56641-5.4336-0.91016-1.6094-1.6445-1.8086-4.0234-0.5-5.9492 0.28125-0.41406 2.125-1.9375 4.457-3.6836l3.9805-2.9805-75.078-0.09375-0.054688-2.3594-0.15234 1.5742c-0.35547 3.6992-1.4922 8.0664-3.043 11.73-4.1211 9.7227-12.629 17.824-22.531 21.465-9.9648 3.6641-20.523 3.3164-30.242-0.99609-1.6289-0.72266-4.1406-2.1211-5.9531-3.3125l-0.85156-0.55859 1.6719 1.4844-14.809 18.129c-8.1445 9.9688-20.277 24.824-26.965 33.008-7.8516 9.6094-12.109 14.965-12.016 15.117 0.078125 0.12891 5.2109 6.8672 11.406 14.973 6.1953 8.1055 18.434 24.133 27.199 35.617 8.7617 11.484 16.02 20.988 16.125 21.121 0.13672 0.17578 0.089844 0.31641-0.16797 0.49609-1.2266 0.85938-1.0703 0.91016 0.30078 0.089843 10.512-6.2695 23.602-7.3594 34.871-2.9023 12.508 4.9453 21.723 15.879 24.367 28.91 0.25391 1.2539 0.53516 2.9961 0.62891 3.875 0.15625 1.4883 0.16797 1.5234 0.19141 0.51172l0.023438-1.0859 75.078-0.09375-3.957-2.9648c-2.1758-1.6289-4.1445-3.2148-4.3672-3.5195-0.61328-0.83203-1.0625-2.3789-0.95703-3.3086 0.36719-3.2695 3.9258-5.2148 6.8008-3.7188 1.3594 0.70703 20.262 15.062 20.688 15.715 0.66016 1.0039 0.91797 2.4258 0.64844 3.5898-0.125 0.53516-0.40625 1.2695-0.625 1.625-0.26562 0.42969-3.7227 3.1406-10.207 8.0039-5.3945 4.0469-10.129 7.5273-10.527 7.7344-1.7891 0.93359-3.9883 0.56641-5.4336-0.91016-1.6094-1.6445-1.8086-4.0234-0.5-5.9492 0.28125-0.41406 2.125-1.9375 4.457-3.6836l3.9805-2.9805-75.078-0.09375-0.027344-1.1797c-0.023438-1.1445-0.03125-1.1328-0.18359 0.48047-1.2578 13.066-9.5742 25.234-21.332 31.211-1.3281 0.67578-3.0781 1.4844-3.8828 1.793-8.4141 3.2383-17.875 3.4688-26.688 0.64453-2.9258-0.9375-7.5625-3.2734-10.328-5.2031-4.9844-3.4766-9.6914-8.8594-12.453-14.234-0.90234-1.7578-1.0977-1.9844-0.56641-0.65625 0.16797 0.42187 0.26562 0.80859 0.21094 0.86328-0.13672 0.13672-2.9141 1.1992-29.617 11.32-13.25 5.0195-46.793 17.734-74.539 28.25-56.984 21.598-64.867 24.578-65.309 24.699-0.23047 0.0625-0.41016-0.17188-0.69922-0.92188-0.49219-1.2852-0.50781-1.0781-0.039063 0.61328 0.86719 3.1289 1.2109 5.9375 1.2188 9.9961 0.011719 4.3008-0.25391 6.5469-1.1953 10.125-3.2383 12.309-12.094 22.293-23.914 26.969-2.4961 0.98828-4.7617 1.6016-7.8086 2.1211-2.3281 0.39844-3.2812 0.46094-6.8008 0.44922-3.4297-0.011718-4.5234-0.089843-6.7383-0.47266zm12.613-9.3477c6.1836-1.2617 11.625-4.25 16.023-8.8008 3.1211-3.2305 5.3047-6.7383 6.7461-10.836 5.6211-16.004-2.8984-33.359-19.016-38.742-2.9609-0.98828-5.0273-1.3359-8.6172-1.4492-7.793-0.24609-14.887 2.2812-20.73 7.3906-13.301 11.629-13.836 32.094-1.1602 44.336 6.2422 6.0312 13.672 8.8672 22.438 8.5703 1.3633-0.046874 3.2656-0.25391 4.3203-0.46484zm-39.078-51.195c0.97266-1.5352 2.7891-3.8398 4.5312-5.7578 0.98438-1.082 1.3945-1.625 0.96484-1.2734-0.41406 0.33594-0.80859 0.60938-0.87891 0.60938-0.13281 0-3.5508-4.1758-60.723-74.16-18.676-22.863-34.055-41.539-34.172-41.508-0.22656 0.0625-50.785 23.656-70.312 32.809-6.3398 2.9727-11.707 5.4492-11.93 5.5078-0.33984 0.085938-0.45703-0.035156-0.73438-0.76562-0.58984-1.543-0.46094-0.81641 0.21484 1.2227 1.1875 3.5781 1.9648 8.3867 1.9648 12.156 0 3.2344-0.36328 5.9883-1.4023 10.703-0.058594 0.26172 0.035156 0.14844 0.20703-0.24609 0.23047-0.52734 0.39062-0.68359 0.61328-0.59766 1.1328 0.45703 79.227 30.062 130.58 49.5 21.355 8.0859 38.859 14.723 38.898 14.754 0.039063 0.027344-0.015625 0.28906-0.12109 0.58203-0.10547 0.29297-0.25 0.69922-0.32422 0.90625-0.074219 0.20703 0.36719-0.51562 0.98047-1.6055 0.61328-1.0898 1.3555-2.3672 1.6523-2.8359zm69.133 3.8086c-0.17188-0.43359-0.27734-0.82031-0.23438-0.85156 0.042969-0.035156 3.5195-1.3594 7.7305-2.9453 9.1055-3.4297 152.55-57.781 158.14-59.918l3.875-1.4805 0.33594 0.69922c0.18359 0.38281 0.28906 0.53516 0.23047 0.33984-0.35547-1.2305-1.0547-5.2539-1.2227-7.0117-0.50391-5.3555 0.125-11.016 1.7734-15.957 0.67188-2.0156 0.80469-2.7891 0.21484-1.2383-0.17969 0.46875-0.41797 0.85547-0.53516 0.85547-0.11328 0-1.2773-0.5-2.582-1.1133-6.8516-3.2109-54.113-25.301-65.953-30.832-7.5352-3.5195-13.797-6.4219-13.914-6.4531-0.19141-0.046875-5.7344 6.6484-19.824 23.941-2.2852 2.8047-14.82 18.152-27.855 34.105s-28.832 35.293-35.113 42.984c-6.2773 7.6914-11.57 14.148-11.766 14.348-0.34375 0.36328-0.35938 0.35938-1.1602-0.27734-0.57812-0.45703-0.34766-0.14062 0.79688 1.1133 2.8203 3.082 4.5625 5.5156 6.3672 8.875 0.5 0.93359 0.92969 1.6758 0.95312 1.6484 0.023438-0.023437-0.09375-0.39844-0.26562-0.83594zm-62.32-11.746c0.1875-0.20703 0.30078-0.37891 0.24609-0.37891-0.050781 0-0.25 0.17188-0.4375 0.37891s-0.30078 0.37891-0.24609 0.37891c0.050781 0 0.25-0.17188 0.4375-0.37891zm3.1406-2.5977c0.23438-0.30078 0.22656-0.30469-0.070313-0.070313-0.31641 0.24609-0.41406 0.40234-0.25781 0.40234 0.039062 0 0.1875-0.14844 0.33203-0.33203zm5.9258-3.5352c3.6758-1.8086 7.0078-2.875 11.344-3.625 2.7344-0.47266 9.4414-0.47266 12.273 0 5.5977 0.9375 10.363 2.7305 15.117 5.6836 1.332 0.82812 1.5391 0.91797 0.94922 0.40625-0.69531-0.60547-0.73047-0.67188-0.45312-0.99219 0.16406-0.1875 7.7227-9.4414 16.801-20.559 9.0742-11.121 26.535-32.504 38.797-47.52s25.523-31.254 29.469-36.09c3.9453-4.832 7.332-8.9609 7.5234-9.1797 0.35156-0.39453 0.35156-0.39453-4.3281-2.582-56.648-26.48-75.891-35.488-75.969-35.566-0.035156-0.035156 0.070313-0.32031 0.23438-0.63672 0.64062-1.2383 0.23828-0.78906-0.99219 1.1055-3.2812 5.0625-8.043 9.6172-13.355 12.766-3.9883 2.3633-8.4375 3.9453-13.664 4.8477-3.4414 0.59766-9.293 0.58594-12.75-0.019531-5.5664-0.97656-10.016-2.6836-14.719-5.6445-2.6992-1.6992-4.5742-3.2109-6.8984-5.5586-2.3398-2.3633-3.4961-3.7891-5.1914-6.3789-1.2422-1.9023-1.6133-2.3203-0.99219-1.1172 0.16406 0.31641 0.26562 0.60547 0.23047 0.64453-0.11719 0.11719-19.797 9.3359-67.359 31.543l-13.266 6.1953 1.5664 1.9102c0.85938 1.0508 8.2305 10.07 16.379 20.047 8.1484 9.9766 24.258 29.703 35.801 43.836 11.543 14.133 25.012 30.629 29.934 36.656 4.918 6.0273 9.0781 11.113 9.2422 11.297 0.27344 0.31641 0.23438 0.39453-0.54688 1.082-0.76562 0.67578-0.69531 0.64844 0.76562-0.30078 0.88281-0.57422 2.7109-1.5859 4.0625-2.25zm-221.42-27.199c10.047-1.7773 18.605-8.5664 22.535-17.871 4.0156-9.5039 3.0547-20.141-2.5859-28.625-7.6992-11.57-22.301-16.395-35.43-11.699-7.4883 2.6758-13.812 8.4609-17.148 15.684-3.3242 7.1914-3.6914 15.465-1.0234 22.941 2.582 7.2422 8.0898 13.438 14.93 16.801 3.4961 1.7188 6.6484 2.6562 10.203 3.043 1.9961 0.21484 6.6055 0.070313 8.5195-0.26953zm486.42 0.25781c9.7305-1.207 17.949-6.6172 22.816-15.012 4.8984-8.4492 5.2812-19.211 1-28.109-7.1914-14.941-24.988-21.258-40.137-14.246-6.1875 2.8633-11.598 8.3086-14.504 14.594-3.3242 7.1914-3.6914 15.465-1.0234 22.941 2.582 7.2422 8.0898 13.438 14.93 16.801 4.5273 2.2227 8.3438 3.1289 13.516 3.2031 0.98828 0.015625 2.5195-0.0625 3.4023-0.17188zm-457.34-50.438c-0.17188-0.33203-0.28516-0.62891-0.25-0.66406 0.035157-0.035157 6.1406-2.9062 13.57-6.3828 13.918-6.5117 57.387-26.84 63.344-29.621 1.8438-0.85937 3.3555-1.6328 3.3555-1.7188 0-0.18359-33.047-40.664-33.266-40.75-0.085938-0.03125-2.0859 2.5195-4.4492 5.668-2.3633 3.1484-8.4297 11.211-13.484 17.914-5.0508 6.7031-15.039 19.965-22.191 29.477-7.1523 9.5078-13.074 17.363-13.156 17.457-0.082032 0.09375-0.51172-0.11328-0.96484-0.46094-0.44922-0.34375 0.097656 0.30078 1.2109 1.4375 2.3047 2.3516 4.0039 4.457 5.4688 6.7695 1 1.582 1.4141 2.0234 0.82031 0.87109zm422.53-3.8594c0.48047-0.63281 1.8984-2.207 3.1484-3.5039 1.2969-1.3438 1.8828-2.043 1.3633-1.6289-0.50391 0.39844-0.98047 0.65234-1.0625 0.55859-0.082032-0.089844-3.918-5.0977-8.5195-11.125-10.062-13.176-41.375-54.16-43.555-57.004l-1.5469-2.0234-16.316 19.965c-8.9766 10.98-16.344 20.055-16.371 20.168-0.03125 0.11328 4.5625 2.3594 10.203 4.9961 11.648 5.4375 61.16 28.594 66.461 31.082 1.9219 0.90234 3.5195 1.668 3.5547 1.7031s-0.066406 0.32422-0.23047 0.64062c-0.61328 1.1875-0.26172 0.80859 0.85156-0.91016 0.63281-0.97656 1.543-2.293 2.0234-2.9219zm-316.54-46.516c9.2539-4.3242 27.801-12.996 41.219-19.273 13.418-6.2734 24.484-11.406 24.594-11.406 0.10938 0 0.34766 0.38281 0.52734 0.85547 0.58984 1.5469 0.45703 0.77344-0.21484-1.2383-1.6328-4.8906-2.2734-10.656-1.7734-15.957 0.16016-1.6914 0.84375-5.6055 1.2383-7.0547 0.046875-0.17187-0.050781-0.015624-0.21875 0.34766-0.16797 0.36328-0.32812 0.6875-0.35547 0.71484-0.027344 0.03125-18.648-6.9727-41.375-15.562-39.074-14.77-41.336-15.598-41.57-15.266-0.13672 0.19531-8.1641 10.852-17.84 23.688-9.6758 12.832-17.555 23.43-17.512 23.547 0.042969 0.11719 6.5625 8.1523 14.488 17.855 7.9258 9.7031 16.062 19.66 18.078 22.129s3.7148 4.4883 3.7773 4.4883 7.6836-3.5391 16.938-7.8633zm240.09-10.957c8.4531-10.352 16.234-19.875 17.293-21.164 1.0586-1.2891 2.1836-2.6719 2.5039-3.0742l0.58203-0.73438-2.3164-3.0273c-1.2734-1.6641-9.457-12.387-18.188-23.828-12.887-16.891-15.941-20.789-16.25-20.734-0.20703 0.039062-18.52 6.9297-40.695 15.312-22.176 8.3828-40.34 15.223-40.367 15.191s-0.1875-0.35156-0.35547-0.71484c-0.16797-0.36328-0.25781-0.5-0.20313-0.30469 0.34375 1.207 1.043 5.2461 1.2148 6.9961 0.50781 5.2227-0.070312 10.598-1.6836 15.629-0.75 2.3359-0.90625 3.168-0.30078 1.582 0.17969-0.46875 0.42188-0.85547 0.53516-0.85547 0.11719 0 3.8711 1.7109 8.3438 3.8008 24.07 11.25 58.855 27.52 66.047 30.887 4.5195 2.1172 8.2734 3.8516 8.3398 3.8516s7.0391-8.4648 15.492-18.82zm-130.35-2.7148c10.797-2.2812 19.328-9.8477 22.809-20.234 2.7656-8.2617 1.6406-17.82-2.9844-25.27-1.4375-2.3125-2.5469-3.6992-4.5859-5.7031-9.0312-8.8906-22.438-11.172-34.055-5.793-6.0898 2.8203-11.605 8.3242-14.398 14.363-5.5156 11.934-3.0859 25.387 6.25 34.602 4.7109 4.6523 11.141 7.6992 17.75 8.4102 2.4258 0.26172 7.0977 0.070313 9.2148-0.375zm175.49-52.527c9.8008-12.004 21.383-26.203 25.746-31.555 4.3594-5.3516 7.9961-9.8047 8.0781-9.8984 0.082032-0.09375 0.64453 0.24609 1.25 0.75391 0.84766 0.71094 0.64453 0.44531-0.88672-1.1562-2.9219-3.0625-4.9961-5.9336-6.6953-9.2734-0.88281-1.7344-1.0898-1.9727-0.55469-0.63672 0.16797 0.42187 0.27344 0.79687 0.23437 0.83594-0.039062 0.035156-17.797 6.7617-39.465 14.945-21.668 8.1836-39.457 14.93-39.531 15-0.074219 0.066406 1.1602 1.8203 2.7461 3.8945 1.5859 2.0742 9.0781 11.879 16.648 21.785l13.766 18.012 0.42578-0.44141c0.23438-0.24219 8.4414-10.262 18.242-22.266zm-342.73 19.215c1.1055-1.4766 8.4414-11.223 16.301-21.66 9.6719-12.848 14.211-19.02 14.047-19.105-0.13281-0.070312-17.652-6.7031-38.938-14.742-30.461-11.508-38.68-14.68-38.613-14.906 0.046875-0.15625 0.14453-0.45703 0.21484-0.66406 0.074218-0.20703-0.14062 0.089844-0.47266 0.66016-1.8789 3.2266-2.4688 4.1523-3.5781 5.6367-0.67187 0.90234-2.0742 2.5273-3.1172 3.6133-1.3672 1.4258-1.6172 1.75-0.89453 1.1562 0.55078-0.44922 1.0273-0.78906 1.0664-0.75 0.12891 0.14062 34.34 42.043 42.977 52.637 4.8438 5.9453 8.8516 10.809 8.9023 10.809 0.050782 0 1-1.207 2.1055-2.6836zm128.42-18.504c2.9883-4.4141 7.4414-8.6992 11.977-11.516 13.012-8.0859 29.758-7.9375 42.477 0.375 2.5391 1.6602 4.0078 2.8438 6.2148 5.0078 2.8242 2.7695 4.8164 5.3672 6.9805 9.1094 0.66016 1.1445 1.1406 1.9102 1.0664 1.6992-0.074219-0.20703-0.17188-0.50781-0.21875-0.66797-0.085938-0.30078 0.66016-0.58594 56.906-21.828 11.742-4.4336 21.41-8.1172 21.48-8.1836 0.070313-0.066406-1.8867-2.7539-4.3516-5.9766-2.4648-3.2227-12.34-16.145-21.945-28.719s-29.055-38.02-43.215-56.543c-14.16-18.523-25.75-33.738-25.75-33.809 0-0.070313 0.27734-0.37109 0.61328-0.67578 0.46484-0.42188 0.5-0.48828 0.14062-0.27734-5.7148 3.3281-9.9258 4.8789-15.523 5.7188-2.4688 0.37109-8.8477 0.36719-11.48-0.007813-4.9062-0.69531-10.992-2.8906-14.965-5.3906-1.0898-0.68359-1.0273-0.55078 0.17578 0.39844l0.4375 0.34375-9.2344 12.246c-5.0781 6.7344-19.895 26.402-32.922 43.703-13.027 17.301-29.879 39.684-37.449 49.73-7.5703 10.051-13.805 18.383-13.855 18.516-0.066407 0.17188 11.531 4.6367 39.871 15.344 21.98 8.3047 39.965 15.16 39.965 15.234s-0.12891 0.4375-0.28516 0.80859c-0.56641 1.3594-0.25 0.92969 0.8125-1.1055 0.59766-1.1445 1.5352-2.7383 2.0781-3.543zm166.13-33.223c5.2422-1.9805 22.793-8.6055 39.004-14.723 16.211-6.1133 30.273-11.426 31.25-11.801 0.97656-0.375 1.7969-0.65625 1.8242-0.62891s0.1875 0.34766 0.35156 0.71094c0.20312 0.4375 0.26562 0.5 0.19531 0.1875-1.2578-5.5156-1.5977-9.1484-1.2578-13.461 0.25781-3.3242 0.93359-6.7969 1.8477-9.4844 0.67578-1.9922 0.75-2.5312 0.16797-1.1914-0.19141 0.44141-0.36719 0.83203-0.39062 0.86719-0.054688 0.085938-2.7656-1.1836-67.434-31.562-6.8594-3.2227-17.273-8.1133-23.145-10.867-5.8711-2.7539-25.426-11.938-43.457-20.406s-34.414-16.164-36.41-17.102l-3.6289-1.7031 0.36719-0.72266c0.66797-1.3125 0.38672-1.0352-0.76562 0.74609-1.8047 2.7891-3.332 4.6914-5.5625 6.9258-1.1406 1.1445-1.8242 1.8828-1.5156 1.6484 0.98438-0.75391 1.4219-1.0391 1.4883-0.96484 0.070312 0.082031 17.398 22.762 54.621 71.492 13.492 17.668 28.578 37.414 33.523 43.883 4.9453 6.4688 9.082 11.762 9.1914 11.762 0.11328 0 4.4922-1.6211 9.7305-3.6055zm-243.36-16.234c7.9336-10.547 19.07-25.344 24.746-32.875 5.6758-7.5352 18.512-24.582 28.527-37.883 25.652-34.074 27.391-36.371 27.582-36.371 0.09375 0 0.21875 0.082032 0.28125 0.17969s0.38672 0.37109 0.71875 0.60938c0.33594 0.23438-0.28516-0.46094-1.3789-1.5508-2.125-2.1133-3.9062-4.3047-5.4023-6.6289-0.50781-0.79297-1.0312-1.5977-1.1602-1.7969-0.12891-0.19531-0.046875 0.046876 0.17969 0.54297 0.25781 0.5625 0.34766 0.96094 0.23438 1.0703-0.097656 0.09375-19.055 9.1602-42.125 20.148-23.07 10.984-45.77 21.797-50.449 24.031-4.6758 2.2305-19.172 9.1406-32.215 15.355s-28.633 13.645-34.645 16.512c-6.0117 2.8672-10.953 5.2148-10.977 5.2148-0.027344 0-0.19922-0.33984-0.38672-0.75781-0.38672-0.85547-0.59766-0.91016-0.26953-0.070312 0.11719 0.30078 0.49609 1.4961 0.83984 2.6523 1.7773 5.9727 2.0391 12.691 0.75 19.074-0.25391 1.2578-0.50781 2.4492-0.5625 2.6445-0.054687 0.19531 0.035157 0.058594 0.20312-0.30469 0.16797-0.36328 0.32812-0.68359 0.35156-0.71094 0.027343-0.027344 3.9922 1.4453 8.8164 3.2734 4.8203 1.8281 22.414 8.4727 39.09 14.766 16.68 6.293 30.836 11.633 31.457 11.871 0.625 0.23828 1.1836 0.375 1.2461 0.30859 0.0625-0.070312 6.6055-8.7539 14.539-19.305zm-128.75 9.1797c8.6055-1.5234 16.059-6.6367 20.672-14.184 7.5234-12.305 5-28.66-5.8984-38.25-9.0469-7.9609-21.867-9.7812-32.895-4.6758-6.0898 2.8203-11.605 8.3242-14.398 14.363-5.5156 11.934-3.0859 25.387 6.25 34.602 4.7109 4.6523 11.137 7.6953 17.75 8.4102 1.9961 0.21484 6.6055 0.070313 8.5195-0.26953zm486.42 0.25781c9.5156-1.1836 17.512-6.3164 22.477-14.441 7.5234-12.305 5-28.66-5.8984-38.25-9.0352-7.9492-21.879-9.7773-32.895-4.6758-6.0898 2.8203-11.605 8.3242-14.398 14.363-5.5156 11.934-3.0859 25.387 6.25 34.602 4.9102 4.8477 11.617 7.918 18.508 8.4727 1.7852 0.14453 4.4727 0.10938 5.957-0.074219zm-243.69-115.81c6.7305-1.3281 12.496-4.625 17-9.7227 3.9219-4.4414 6.5-10.004 7.3203-15.793 0.30859-2.1797 0.27344-6.707-0.070313-8.793-1.125-6.8477-4.0352-12.391-9.0273-17.188-4.1016-3.9414-8.75-6.4297-14.523-7.7773-2.7578-0.64453-7.7344-0.8125-10.582-0.35938-3.7148 0.59375-6.1133 1.3633-9.4727 3.0469-6.2031 3.1094-11.52 8.8477-14.16 15.293-0.89062 2.168-1.7422 5.3164-2.0742 7.6602-0.33594 2.3633-0.13281 7.6953 0.37891 10.074 2.2031 10.191 9.3867 18.574 18.953 22.117 5.2109 1.9297 11.113 2.4492 16.254 1.4375zm-312.95 315.38c-1.6328-0.62891-3.0234-2.6055-3.0234-4.2812 0-0.89453 0.35938-2.0195 0.88672-2.7969 0.28125-0.41406 2.125-1.9375 4.457-3.6836l3.9805-2.9805-75.078-0.09375v-9.4453l75.078-0.09375-3.957-2.9648c-2.1758-1.6289-4.1445-3.2148-4.3672-3.5195-0.61328-0.83203-1.0625-2.3789-0.95703-3.3086 0.36719-3.2695 3.9258-5.2148 6.8008-3.7188 1.3594 0.70703 20.262 15.062 20.688 15.715 0.66016 1.0039 0.91797 2.4258 0.64844 3.5898-0.125 0.53516-0.40625 1.2695-0.625 1.625-0.26562 0.42969-3.7227 3.1406-10.207 8.0039-5.3945 4.0469-10.141 7.5312-10.551 7.7461-1.0234 0.53516-2.6953 0.625-3.7734 0.21094zm0-206.32c-1.6328-0.62891-3.0234-2.6055-3.0234-4.2812 0-0.89453 0.35938-2.0195 0.88672-2.7969 0.28125-0.41406 2.125-1.9375 4.457-3.6836l3.9805-2.9805-75.078-0.09375v-9.4453l75.078-0.09375-3.957-2.9648c-2.1758-1.6289-4.1445-3.2148-4.3672-3.5195-0.61328-0.83203-1.0625-2.3789-0.95703-3.3086 0.36719-3.2695 3.9258-5.2148 6.8008-3.7188 1.3594 0.70703 20.262 15.062 20.688 15.715 0.66016 1.0039 0.91797 2.4258 0.64844 3.5898-0.125 0.53516-0.40625 1.2695-0.625 1.625-0.26562 0.42969-3.7227 3.1406-10.207 8.0039-5.3945 4.0469-10.141 7.5312-10.551 7.7461-1.0234 0.53516-2.6953 0.625-3.7734 0.21094z"/>
 </g>
</svg>
