<?xml version="1.0" encoding="UTF-8"?>
<svg width="1200pt" height="1200pt" version="1.1" viewBox="0 0 1200 1200" xmlns="http://www.w3.org/2000/svg">
 <path d="m286.2 90c-54.535 0-99.434 44.664-99.434 99.199v821.37c0 54.535 44.898 99.434 99.434 99.434h196c7.957-0.03125 15.574-3.2227 21.18-8.8711 5.6055-5.6484 8.7344-13.289 8.7031-21.246-0.03125-7.918-3.1875-15.5-8.7852-21.098s-13.18-8.7539-21.098-8.7852h-196c-22.332 0-39.434-17.102-39.434-39.434v-821.37c0-22.332 17.102-39.199 39.434-39.199h547.44c22.332 0 39.434 16.867 39.434 39.199v399.08c-0.03125 7.957 3.1016 15.598 8.7031 21.246 5.6055 5.6484 13.223 8.8398 21.18 8.8711 8 0.03125 15.676-3.1328 21.332-8.7852 5.6562-5.6562 8.8164-13.336 8.7852-21.332v-399.08c0-54.535-44.898-99.199-99.434-99.199zm89.473 166.76c-7.957-0.03125-15.598 3.0977-21.246 8.7031-5.6484 5.6055-8.8398 13.223-8.8711 21.18-0.03125 7.9961 3.1328 15.676 8.7891 21.332 5.6523 5.6523 13.332 8.8164 21.328 8.7852h368.5c7.9961 0.03125 15.676-3.1328 21.332-8.7852 5.6562-5.6562 8.8164-13.336 8.7852-21.332-0.03125-7.957-3.2188-15.574-8.8672-21.18-5.6484-5.6055-13.293-8.7344-21.25-8.7031zm0 160.55c-7.9961-0.03125-15.676 3.1328-21.328 8.7852-5.6562 5.6562-8.8203 13.336-8.7891 21.332 0.03125 7.957 3.2227 15.574 8.8711 21.18 5.6484 5.6016 13.289 8.7344 21.246 8.7031h368.5c7.957 0.03125 15.602-3.1016 21.25-8.7031 5.6484-5.6055 8.8359-13.223 8.8672-21.18 0.03125-7.9961-3.1289-15.676-8.7852-21.332-5.6562-5.6523-13.336-8.8164-21.332-8.7852zm0 160.78c-7.957-0.03125-15.598 3.0977-21.246 8.7031-5.6484 5.6055-8.8398 13.223-8.8711 21.18-0.03125 7.9961 3.1328 15.676 8.7891 21.332 5.6523 5.6523 13.332 8.8164 21.328 8.7852h368.5c7.9961 0.03125 15.676-3.1328 21.332-8.7852 5.6562-5.6562 8.8164-13.336 8.7852-21.332-0.03125-7.957-3.2188-15.574-8.8672-21.18-5.6484-5.6055-13.293-8.7344-21.25-8.7031zm512.11 83.379c-7.9258 0-15.531 3.1406-21.152 8.7305l-255.76 256c-3.6562 3.6211-6.3164 8.1211-7.7344 13.066l-37.207 132.66c-1.918 6.8633-1.332 14.188 1.6602 20.66 2.9883 6.4688 8.1836 11.664 14.652 14.656 6.4727 2.9883 13.797 3.5742 20.66 1.6562l132.66-37.207c4.9492-1.4141 9.4453-4.0781 13.066-7.7344l255.76-255.76c5.6602-5.6328 8.8438-13.285 8.8438-21.27 0-7.9844-3.1836-15.641-8.8438-21.27l-95.449-95.449c-5.6211-5.5898-13.223-8.7305-21.152-8.7305zm0.12109 72.539 52.91 52.91-31.875 31.875-52.91-52.91zm-74.297 74.238 53.027 52.91-154.8 154.98-73.711 20.566 20.566-73.711z"/>
</svg>
