<?xml version="1.0" encoding="UTF-8"?>
<svg width="1200pt" height="1200pt" version="1.1" viewBox="0 0 1200 1200" xmlns="http://www.w3.org/2000/svg">
 <path d="m524.02 729c22.359 13.078 48.281 20.578 75.984 20.578 27.516 0 53.25-7.4062 75.469-20.297l20.953-12.141 144.84 255.66-20.578 11.859c-67.406 39-143.76 59.484-221.48 59.344-77.719-0.14062-154.03-20.906-221.29-60.141l-20.531-12 145.74-255.1zm-101.02 224.76c54.656 27.609 114.98 42.141 176.29 42.234 61.266 0.09375 121.64-14.156 176.39-41.578l-97.875-172.74c-23.906 10.172-50.203 15.891-77.812 15.891-27.844 0-54.422-5.8125-78.516-16.219z" fill-rule="evenodd"/>
 <path d="m600 492c59.625 0 108 48.375 108 108s-48.375 108-108 108-108-48.375-108-108 48.375-108 108-108zm0 48c-33.141 0-60 26.859-60 60s26.859 60 60 60 60-26.859 60-60-26.859-60-60-60z" fill-rule="evenodd"/>
 <path d="m823.5 208.08c67.125 39.516 122.81 96.094 161.48 164.06 38.672 68.016 59.016 145.03 59.016 223.45v24h-291.89v-24c0-56.906-30.422-106.5-75.703-133.22l-20.438-12.047 146.68-254.53zm-102.94 226.31c42.375 32.297 71.578 81.234 78.141 137.21h196.6c-3.6562-61.781-21.422-121.92-52.031-175.74-30.516-53.625-72.891-99.281-123.61-133.5z" fill-rule="evenodd"/>
 <path d="m544.55 450.14-20.531 12c-45.328 26.484-75.938 76.031-76.125 132.84l-0.09375 24-291.89-1.0781 0.09375-24c0.28125-78.375 20.906-155.34 59.812-223.18 38.953-67.828 94.828-124.22 162.1-163.45l20.906-12.188zm-162.98-188.58c-50.859 34.031-93.375 79.547-124.08 133.08-30.797 53.672-48.797 113.72-52.688 175.45l196.6 0.75c6.75-55.875 36.094-104.72 78.609-136.92z" fill-rule="evenodd"/>
 <path d="m600 60c298.22 0 540 241.78 540 540s-241.78 540-540 540-540-241.78-540-540 241.78-540 540-540zm0 48c-271.74 0-492 220.26-492 492s220.26 492 492 492 492-220.26 492-492-220.26-492-492-492z" fill-rule="evenodd"/>
</svg>
