<?xml version="1.0" encoding="UTF-8"?>
<svg width="1200pt" height="1200pt" version="1.1" viewBox="0 0 1200 1200" xmlns="http://www.w3.org/2000/svg">
 <path d="m730.8 751.2h19.199v60h-19.199z"/>
 <path d="m730.8 834h19.199v60h-19.199z"/>
 <path d="m733.2 998.4h19.199v60h-19.199z"/>
 <path d="m776.4 998.4h19.199v60h-19.199z"/>
 <path d="m609.6 668.4h19.199v60h-19.199z"/>
 <path d="m567.6 668.4h19.199v60h-19.199z"/>
 <path d="m609.6 751.2h19.199v60h-19.199z"/>
 <path d="m691.2 751.2h19.199v60h-19.199z"/>
 <path d="m691.2 834h19.199v60h-19.199z"/>
 <path d="m567.6 751.2h19.199v60h-19.199z"/>
 <path d="m609.6 834h19.199v60h-19.199z"/>
 <path d="m567.6 834h19.199v60h-19.199z"/>
 <path d="m609.6 916.8h19.199v60h-19.199z"/>
 <path d="m567.6 916.8h19.199v60h-19.199z"/>
 <path d="m609.6 999.6h19.199v60h-19.199z"/>
 <path d="m567.6 999.6h19.199v60h-19.199z"/>
 <path d="m487.2 751.2h19.199v60h-19.199z"/>
 <path d="m445.2 751.2h19.199v60h-19.199z"/>
 <path d="m487.2 834h19.199v60h-19.199z"/>
 <path d="m445.2 834h19.199v60h-19.199z"/>
 <path d="m444 998.4h19.199v60h-19.199z"/>
 <path d="m402 998.4h19.199v60h-19.199z"/>
 <path d="m487.2 998.4h19.199v60h-19.199z"/>
 <path d="m691.2 998.4h19.199v60h-19.199z"/>
 <path d="m831.6 1132.8v-171.6h-43.199l-0.003906-247.2h-34.801v-91.199h-24v-60h-37.199v-37.199h-30v-33.602h-22.801v-44.398h-12l0.003906-201.6h-18v-213.6h-19.199v212.4h-18v201.6h-10.801v44.398l-22.801 0.003906v33.602h-30v37.199h-37.199v60h-26.398v91.199h-34.801v247.2h-45.602v171.6h-37.199v20.398h549.6v-19.199zm-62.402-399.6v228h-18v-44.398h-20.398v44.398h-21.602v-44.398h-19.199v44.398h-21.602v-228zm-188.4-267.6h39.602v25.199h-39.602zm10.801-200.4h16.801v26.398h-16.801zm0 44.402h16.801v22.801h-16.801zm0 43.199h16.801v93.602h-16.801zm-33.602 157.2h84v14.398h-84zm-30 34.801h144v18h-144zm-38.398 37.199h219.6v40.801h-20.398l-0.003907-22.801h-19.199v21.602h-33.602v-21.602h-19.199v21.602h-33.602v-21.602h-19.199v21.602h-33.602v-21.602h-19.199v21.602h-21.602zm36 550.8h-19.199v-50.398h-19.199v50.398h-24v-50.398l-20.402-0.003906v50.398h-22.801v-50.398h-19.199v50.398l-16.801 0.003906v-152.4h141.6zm0-171.6h-18v-43.199h-19.199v43.199h-22.801v-43.199h-19.199v43.199h-16.801v-228h97.199v228zm124.8 171.6h-21.602v-49.199h-19.199v49.199h-22.801v-49.199h-19.199v49.199h-22.801l0.003906-464.4h-19.199v45.602h-21.602v-44.398h-19.199v44.398h-20.398v-72h270v72h-20.398v-44.398h-19.199v44.398h-24v-45.602h-19.199l-0.003907 464.4zm160.8 0h-15.602v-50.398h-19.199v50.398h-24v-50.398h-19.199v50.398h-22.801v-50.398h-19.199v50.398h-21.602l0.003906-152.4h141.6z"/>
</svg>
