<?xml version="1.0" encoding="UTF-8"?>
<svg width="1200pt" height="1200pt" version="1.1" viewBox="0 0 1200 1200" xmlns="http://www.w3.org/2000/svg">
 <path d="m1074.2 204.89c7.3594 0 13.312-5.9531 13.312-13.312v-65.719c0-7.3594-5.9531-13.312-13.312-13.312l-948.37-0.046875c-7.3594 0-13.312 5.9531-13.312 13.312v65.719c0 7.3594 5.9531 13.312 13.312 13.312h52.828v225.66h-52.828c-7.3594 0-13.312 5.9531-13.312 13.312v65.719c0 7.3594 5.9531 13.312 13.312 13.312h52.828v551.26c0 7.3594 5.9531 13.312 13.312 13.312h268.03c7.3594 0 13.312-5.9531 13.312-13.312v-344.68c0-53.297 43.359-96.609 96.609-96.609h60c53.297 0 96.609 43.359 96.609 96.609v344.68c0 7.3594 5.9531 13.312 13.312 13.312h268.03c7.3594 0 13.312-5.9531 13.312-13.312v-551.26h52.828c7.3594 0 13.312-5.9531 13.312-13.312v-65.719c0-7.3594-5.9531-13.312-13.312-13.312h-52.828v-225.66h52.828zm-935.02-65.719h921.66v39.047h-921.66zm220.4 603.71v233.34h-67.125v-233.34zm87.141 0v233.34h-60.469v-233.34zm-180.89 233.34h-60.469v-233.34h60.469zm180.89 84.656h-241.36v-57.984h241.36zm460.82-318v233.34h-67.125v-233.34zm87.141 0v233.34h-60.469v-233.34zm-180.89 233.34h-60.469v-233.34h60.469zm180.89 84.656h-241.36v-57.984h241.36zm0-344.68h-242.06c-6.6562-61.734-59.109-109.97-122.58-109.97h-60c-63.469 0-115.92 48.234-122.58 109.97h-242.06v-193.26h789.32v193.26zm66.188-219.94h-921.71v-39.047h921.66v39.047zm-66.188-65.719h-789.37v-225.66h789.32v225.66zm-741.71-34.266h694.13c7.3594 0 13.312-5.9531 13.312-13.312v-130.45c0-7.3594-5.9531-13.312-13.312-13.312l-694.18-0.046875c-7.3594 0-13.312 5.9531-13.312 13.312v130.45c0 7.3594 5.9531 13.312 13.312 13.312zm13.312-130.45h667.45v103.78h-667.5v-103.78zm59.766 420.84c35.156 0 63.797-28.594 63.797-63.797 0-35.156-28.594-63.797-63.797-63.797-35.156 0-63.797 28.594-63.797 63.797 0 35.156 28.594 63.797 63.797 63.797zm0-100.92c20.484 0 37.125 16.641 37.125 37.125s-16.641 37.125-37.125 37.125c-20.484 0-37.125-16.641-37.125-37.125s16.641-37.125 37.125-37.125zm547.97 100.92c35.156 0 63.797-28.594 63.797-63.797 0-35.156-28.594-63.797-63.797-63.797-35.156 0-63.797 28.594-63.797 63.797 0 35.156 28.594 63.797 63.797 63.797zm0-100.92c20.484 0 37.125 16.641 37.125 37.125s-16.641 37.125-37.125 37.125c-20.484 0-37.125-16.641-37.125-37.125s16.641-37.125 37.125-37.125z"/>
</svg>
