<?xml version="1.0" encoding="UTF-8"?>
<svg width="1200pt" height="1200pt" version="1.1" viewBox="0 0 1200 1200" xmlns="http://www.w3.org/2000/svg">
 <path d="m394.22 760.26c19.734 75.891 71.859 137.63 139.45 165.19 64.078 26.109 192.61 34.594 244.78 34.594h313.5c26.531 0 48-21.516 48-48 0-26.531-21.516-48-48-48h-313.5c-58.922 0-166.78-10.453-208.55-27.469-39.656-16.172-70.641-53.719-82.781-100.45-17.391-66.75 3.4219-143.11 58.453-216.1 35.25-6.2344 72.938-3.0938 112.03 13.125 134.48 55.922 253.31 47.438 317.81-22.734 53.391-58.125 56.438-144.56 8.3438-237.19-71.344-137.34-261.89-226.31-453.28-211.64-209.95 16.125-370.92 145.5-441.61 354.98-58.266 172.6-28.031 339.47 87.469 482.58 123.56 153.1 311.86 240.84 516.61 240.84h399c26.531 0 48-21.516 48-48 0-26.531-21.516-48-48-48h-399c-154.64 0-303.1-61.312-406.87-166.08 3.6094-74.438 28.641-151.08 70.5-215.9 11.25-17.438 24.094-34.406 38.344-50.344-12.609 50.391-13.172 100.69-0.70312 148.6zm-118.36-150.32c-32.016 49.594-55.922 105-70.359 161.95-56.016-100.12-64.688-209.02-25.641-324.61 57.797-171.24 188.29-276.94 357.98-289.97 11.297-0.89062 22.594-1.3125 33.844-1.3125 140.72 0 277.31 66.094 326.86 161.44 28.406 54.703 30.656 101.34 6.1406 128.02-26.531 28.828-97.5 45.891-210.19-0.98438-149.39-62.109-313.69 2.8594-418.64 165.47zm360 74.062h456.14c26.531 0 48 21.516 48 48 0 26.531-21.516 48-48 48h-456.14c-26.531 0-48-21.516-48-48 0-26.531 21.516-48 48-48z"/>
</svg>
