<?xml version="1.0" encoding="UTF-8"?>
<svg width="1200pt" height="1200pt" version="1.1" viewBox="0 0 1200 1200" xmlns="http://www.w3.org/2000/svg">
 <path d="m450 302.62 276-159.38c0.1875 0 0.1875-0.1875 0.375-0.1875-10.875-21.75-25.125-41.438-42.188-58.5-40.688-40.688-96.938-65.812-159.19-65.812-124.12 0-224.81 100.5-225 224.62v0.375 318.75l149.44 86.625z"/>
 <path d="m141.49 681.68 276.04 159.38 149.74-86.102-299.79-173.74-0.023437-318.71c0.09375-0.16797-0.074219-0.26172 0.019531-0.41406-24.281-1.4609-48.449 1.0312-71.758 7.293-55.574 14.887-105.47 51.039-136.59 104.96-62.062 107.49-25.367 244.95 82.031 307.16 0.17187 0.078125 0.17187 0.078125 0.33984 0.17188z"/>
 <path d="m717.82 705.82-300.36 172.76-276.02-159.34c-0.09375-0.16797-0.26172-0.074219-0.35547-0.22656-13.406 20.289-23.324 42.488-29.57 65.793-14.887 55.574-8.5312 116.85 22.594 170.77 62.062 107.49 199.45 144.45 307.03 82.539 0.16797-0.09375 0.16797-0.09375 0.32031-0.1875l276.04-159.38z"/>
 <path d="m750 897.38-276 159.38c-0.1875 0-0.1875 0.1875-0.375 0.1875 10.875 21.75 25.125 41.438 42.188 58.5 40.688 40.688 96.938 65.812 159.19 65.812 124.12 0 224.81-100.5 225-224.62v-0.375-318.75l-149.44-86.625z"/>
 <path d="m1058.9 518.51c-0.16797-0.09375-0.16797-0.09375-0.32031-0.1875l-276.04-159.38-149.74 86.102 299.79 173.74 0.003906 318.71c-0.09375 0.16797 0.074219 0.26172-0.019531 0.41406 24.281 1.4609 48.449-1.0312 71.758-7.293 55.574-14.887 105.47-51.039 136.59-104.96 62.062-107.48 25.367-244.93-82.031-307.15z"/>
 <path d="m1058.6 480.75c0.09375 0.16797 0.26172 0.074219 0.35547 0.22656 13.406-20.289 23.324-42.469 29.57-65.793 14.887-55.574 8.5312-116.85-22.594-170.77-62.062-107.49-199.45-144.45-307.03-82.539-0.16797 0.09375-0.16797 0.09375-0.32031 0.1875l-276.04 159.38-0.30078 172.73 300.36-172.76z"/>
</svg>
