<svg xmlns="http://www.w3.org/2000/svg" width="24" height="24" viewBox="52 0 45 40" fill="currentColor" stroke="none">
<path d="M77.3615 8.62784C77.3615 5.0582 80.2553 2.16446 83.8249 2.16446H87.3984V0H83.8249C79.0599 0 75.1971 3.86283 75.1971 8.62784V30.3904H77.3615V8.62784Z"/>
<path d="M77.3622 32.5085V25.0673C77.3622 21.4977 80.2559 18.6039 83.8255 18.6039H91.0938V16.4395H83.8255C79.0606 16.4395 75.1978 20.3023 75.1978 25.0673V32.5085C75.1978 36.1036 78.1121 39.0179 81.7071 39.0179V36.8536C79.3075 36.8536 77.3622 34.9082 77.3622 32.5085Z"/>
<path d="M71.022 32.2222V17.3485C71.022 13.7789 68.1282 10.8852 64.5586 10.8852H58.3965V8.7207H64.5586C69.3236 8.72072 73.1864 12.5835 73.1864 17.3485V32.2222C73.1864 35.9752 70.144 39.0176 66.3911 39.0176V36.8532C68.9487 36.8532 71.022 34.7798 71.022 32.2222Z"/>
<path d="M84.655 4.90707C84.655 3.39235 85.8829 2.16446 87.3977 2.16446C88.9123 2.16448 90.1402 3.39236 90.1402 4.90707C90.1402 6.42179 88.9124 7.64975 87.3977 7.64978C85.8829 7.64978 84.655 6.4218 84.655 4.90707ZM82.4905 4.90707C82.4905 7.61717 84.6876 9.81423 87.3977 9.81423C90.1077 9.81421 92.3047 7.61716 92.3047 4.90707C92.3047 2.19699 90.1077 2.21202e-05 87.3977 0C84.6876 0 82.4905 2.19698 82.4905 4.90707Z"/>
<path d="M88.3503 21.3465C88.3503 19.8318 89.5783 18.6039 91.093 18.6039C92.6077 18.6039 93.8355 19.8318 93.8356 21.3465C93.8356 22.8612 92.6077 24.0892 91.093 24.0892C89.5782 24.0892 88.3503 22.8613 88.3503 21.3465ZM86.1858 21.3465C86.1858 24.0566 88.3829 26.2537 91.093 26.2537C93.803 26.2537 96 24.0566 96 21.3465C96 18.6364 93.803 16.4395 91.093 16.4395C88.3829 16.4395 86.1858 18.6364 86.1858 21.3465Z"/>
<path d="M55.2292 13.6278C55.2292 12.1131 56.4572 10.8852 57.9719 10.8852C59.4866 10.8852 60.7144 12.1131 60.7145 13.6278C60.7145 15.1425 59.4866 16.3705 57.9719 16.3705C56.4571 16.3705 55.2292 15.1425 55.2292 13.6278ZM53.0647 13.6278C53.0647 16.3379 55.2618 18.5349 57.9719 18.5349C60.6819 18.5349 62.8789 16.3379 62.8789 13.6278C62.8789 10.9177 60.6819 8.72073 57.9719 8.7207C55.2618 8.7207 53.0648 10.9177 53.0647 13.6278Z"/>
</svg>
