<?xml version="1.0" encoding="UTF-8"?>
<svg width="1200pt" height="1200pt" version="1.1" viewBox="0 0 1200 1200" xmlns="http://www.w3.org/2000/svg">
 <path d="m1109.2 277.78c-4.3594-17.297-21.047-30.234-40.969-30.234l-936.37 0.046875c-19.922 0-36.656 12.938-40.969 30.234-30.469 2.4375-54.562 28.031-54.562 59.156v499.87c0 32.719 26.625 59.344 59.344 59.344h41.578v36.047c0 11.109 9.0469 20.156 20.156 20.156h81.328c11.109 0 20.156-9.0469 20.156-20.156v-36.047h682.26v36.047c0 11.109 9.0469 20.156 20.156 20.156h81.328c11.109 0 20.156-9.0469 20.156-20.156v-36.047h41.578c32.719 0 59.344-26.625 59.344-59.344l0.046875-499.92c0-31.125-24.047-56.719-54.562-59.156zm-977.34-12.094h936.42c9.5156 0 17.719 4.875 21.609 11.906h-979.64c3.8906-7.0312 12.094-11.906 21.609-11.906zm108.94 666.61c0 1.0781-0.9375 2.0156-2.0156 2.0156h-81.328c-1.0781 0-2.0156-0.9375-2.0156-2.0156v-36.047h85.406zm803.9 0c0 1.0781-0.9375 2.0156-2.0156 2.0156h-81.328c-1.0781 0-2.0156-0.9375-2.0156-2.0156v-36.047h85.406zm100.97-95.438c0 22.734-18.516 41.25-41.25 41.25h-1008.7c-22.734 0-41.25-18.516-41.25-41.25v-499.92c0-22.734 18.516-41.25 41.25-41.25h1008.8c22.734 0 41.25 18.516 41.25 41.25zm-498.28-510.47h-535.45c-11.531 0-20.906 9.375-20.906 20.906v405.28c0 11.531 9.375 20.906 20.906 20.906h535.45c11.531 0 20.906-9.375 20.906-20.906l-0.046874-405.28c0-11.531-9.375-20.906-20.859-20.906zm-535.45 18.094h535.45c1.5 0 2.7656 1.2656 2.7656 2.7656v201.89c-12.094 75.703-21.797 93.516-25.406 97.688-3.7031-4.1719-13.641-22.031-26.484-98.484-15.984-95.203-28.828-114.42-44.344-114.42h-0.09375c-15.516 0.046875-28.219 19.266-43.359 114.52-12.141 76.266-21.891 94.219-25.547 98.391-3.7031-4.1719-13.641-22.031-26.484-98.484-15.984-95.203-28.828-114.42-44.344-114.42h-0.09375c-15.516 0.046875-28.219 19.266-43.359 114.52-12.141 76.266-21.891 94.219-25.547 98.391-3.7031-4.1719-13.641-22.031-26.484-98.484-15.984-95.203-28.828-114.42-44.344-114.42h-0.09375c-15.516 0.046875-28.219 19.266-43.359 114.52-12.141 76.266-21.891 94.219-25.547 98.391-3.7031-4.1719-13.641-22.031-26.484-98.484-15.984-95.203-28.828-114.42-44.344-114.42h-0.09375c-9.0938 0.046875-17.156 6.6562-25.359 31.078v-117.8c0.14063-1.4062 1.4531-2.7188 2.9531-2.7188zm535.45 410.86h-535.45c-1.5 0-2.7656-1.2656-2.7656-2.7656v-201.94c12.094-75.703 21.797-93.516 25.406-97.688 3.7031 4.1719 13.641 22.031 26.484 98.484 15.984 95.203 28.828 114.42 44.344 114.42h0.09375c15.516-0.046875 28.219-19.266 43.359-114.52 12.141-76.266 21.891-94.219 25.547-98.391 3.7031 4.1719 13.641 22.031 26.484 98.484 15.984 95.203 28.828 114.42 44.344 114.42h0.09375c15.516-0.046875 28.219-19.266 43.359-114.52 12.141-76.266 21.891-94.219 25.547-98.391 3.7031 4.1719 13.641 22.031 26.484 98.484 15.984 95.203 28.828 114.42 44.344 114.42h0.09375c15.516-0.046875 28.219-19.266 43.359-114.52 12.141-76.266 21.891-94.219 25.547-98.391 3.7031 4.1719 13.641 22.031 26.484 98.484 15.984 95.203 28.828 114.42 44.344 114.42h0.09375c9.0938-0.046875 17.156-6.6562 25.359-31.078v117.8c-0.1875 1.5-1.4531 2.7656-2.9531 2.7656zm124.97-403.82c-28.219 0-51.234 22.969-51.234 51.234 0 28.219 22.969 51.234 51.234 51.234 28.219 0 51.234-22.969 51.234-51.234 0-28.219-22.969-51.234-51.234-51.234zm0 84.328c-18.234 0-33.094-14.859-33.094-33.094s14.859-33.094 33.094-33.094c18.234 0 33.094 14.859 33.094 33.094s-14.812 33.094-33.094 33.094zm0 344.63c-17.203 0-31.266 14.016-31.266 31.219s14.016 31.266 31.266 31.266c17.203 0 31.219-14.016 31.219-31.266 0.046876-17.203-13.969-31.219-31.219-31.219zm0 44.391c-7.2188 0-13.125-5.9062-13.125-13.125s5.9062-13.125 13.125-13.125 13.125 5.9062 13.125 13.125-5.8594 13.125-13.125 13.125zm141.28-44.391c-17.203 0-31.219 14.016-31.219 31.219s14.016 31.266 31.219 31.266 31.219-14.016 31.219-31.266c0-17.203-14.016-31.219-31.219-31.219zm0 44.391c-7.2188 0-13.125-5.9062-13.125-13.125s5.9062-13.125 13.125-13.125 13.125 5.9062 13.125 13.125-5.9062 13.125-13.125 13.125zm152.34-44.391c-17.203 0-31.266 14.016-31.266 31.219s14.016 31.266 31.266 31.266 31.219-14.016 31.219-31.266c0-17.203-14.016-31.219-31.219-31.219zm0 44.391c-7.2188 0-13.125-5.9062-13.125-13.125s5.9062-13.125 13.125-13.125c7.2656 0 13.125 5.9062 13.125 13.125s-5.9062 13.125-13.125 13.125zm-865.45-29.578h-75.094c-6.0938 0-11.109 4.9688-11.109 11.109v29.953c0 6.0938 4.9688 11.109 11.109 11.109h75.094c6.0938 0 11.109-4.9688 11.109-11.109v-29.953c-0.046875-6.1406-5.0156-11.109-11.109-11.109zm-7.0312 34.031h-61.031v-15.891h61.031zm115.36-34.031h-75.094c-6.0938 0-11.109 4.9688-11.109 11.109v29.953c0 6.0938 4.9688 11.109 11.109 11.109h75.094c6.0938 0 11.109-4.9688 11.109-11.109v-29.953c0-6.1406-5.0156-11.109-11.109-11.109zm-7.0312 34.031h-61.031v-15.891h61.031zm115.36-34.031h-75.094c-6.0938 0-11.109 4.9688-11.109 11.109v29.953c0 6.0938 4.9688 11.109 11.109 11.109h75.094c6.0938 0 11.109-4.9688 11.109-11.109v-29.953c0-6.1406-4.9688-11.109-11.109-11.109zm-6.9844 34.031h-61.031v-15.891h61.031zm115.36-34.031h-75.094c-6.0938 0-11.109 4.9688-11.109 11.109v29.953c0 6.0938 4.9688 11.109 11.109 11.109h75.094c6.0938 0 11.109-4.9688 11.109-11.109v-29.953c-0.046875-6.1406-5.0156-11.109-11.109-11.109zm-7.0312 34.031h-61.031v-15.891h61.031zm115.36-34.031h-75.094c-6.0938 0-11.109 4.9688-11.109 11.109v29.953c0 6.0938 4.9688 11.109 11.109 11.109h75.094c6.0938 0 11.109-4.9688 11.109-11.109v-29.953c-0.046875-6.1406-5.0156-11.109-11.109-11.109zm-7.0312 34.031h-61.031v-15.891h61.031zm145.5-321c-28.219 0-51.234 22.969-51.234 51.234 0 28.219 22.969 51.234 51.234 51.234 28.219 0 51.234-22.969 51.234-51.234s-22.969-51.234-51.234-51.234zm0 84.328c-18.234 0-33.094-14.859-33.094-33.094s14.859-33.094 33.094-33.094 33.094 14.859 33.094 33.094-14.812 33.094-33.094 33.094zm141.28-84.328c-28.219 0-51.234 22.969-51.234 51.234 0 28.219 22.969 51.234 51.234 51.234 28.219 0 51.234-22.969 51.234-51.234-0.046875-28.266-23.016-51.234-51.234-51.234zm0 84.328c-18.234 0-33.094-14.859-33.094-33.094s14.859-33.094 33.094-33.094 33.094 14.859 33.094 33.094-14.859 33.094-33.094 33.094zm-47.344-206.72h49.547c6.0938 0 11.109-4.9688 11.109-11.109v-29.953c0-6.0938-4.9688-11.109-11.109-11.109h-49.547c-6.0938 0-11.109 4.9688-11.109 11.109v29.953c0 6.1406 4.9688 11.109 11.109 11.109zm7.0312-34.031h35.531v15.891h-35.531zm-76.172 280.69h-49.547c-6.0938 0-11.109 4.9688-11.109 11.109v29.953c0 6.0938 4.9688 11.109 11.109 11.109h49.547c6.0938 0 11.109-4.9688 11.109-11.109v-29.953c-0.046875-6.1406-5.0156-11.109-11.109-11.109zm-7.0312 34.031h-35.531v-15.891h35.531zm7.0312 31.781h-49.547c-6.0938 0-11.109 4.9688-11.109 11.109v29.953c0 6.0938 4.9688 11.109 11.109 11.109h49.547c6.0938 0 11.109-4.9688 11.109-11.109v-29.953c-0.046875-6.1406-5.0156-11.109-11.109-11.109zm-7.0312 34.031h-35.531v-15.938h35.531zm148.26-99.844h-49.547c-6.0938 0-11.109 4.9688-11.109 11.109v29.953c0 6.0938 4.9688 11.109 11.109 11.109h49.547c6.0938 0 11.109-4.9688 11.109-11.109v-29.953c0-6.1406-4.9688-11.109-11.109-11.109zm-6.9844 34.031h-35.531v-15.891h35.531zm6.9844 31.781h-49.547c-6.0938 0-11.109 4.9688-11.109 11.109v29.953c0 6.0938 4.9688 11.109 11.109 11.109h49.547c6.0938 0 11.109-4.9688 11.109-11.109v-29.953c0-6.1406-4.9688-11.109-11.109-11.109zm-6.9844 34.031h-35.531v-15.938h35.531zm-15.562-279.19c6.0938 0 11.109-4.9688 11.109-11.109v-29.953c0-6.0938-4.9688-11.109-11.109-11.109h-49.547c-6.0938 0-11.109 4.9688-11.109 11.109v29.953c0 6.0938 4.9688 11.109 11.109 11.109zm-42.516-34.031h35.531v15.891h-35.531zm173.39-33.281h49.594c6.0938 0 11.109-4.9688 11.109-11.109l-0.046875-29.953c0-6.0938-4.9688-11.109-11.109-11.109h-49.547c-6.0938 0-11.109 4.9688-11.109 11.109v29.953c0.046875 6.1406 5.0156 11.109 11.109 11.109zm7.0312-34.031h35.531v15.891h-35.531zm-7.0312 101.34h49.594c6.0938 0 11.109-4.9688 11.109-11.109v-29.953c0-6.0938-4.9688-11.109-11.109-11.109h-49.547c-6.0938 0-11.109 4.9688-11.109 11.109v29.953c0 6.0938 4.9688 11.109 11.062 11.109zm7.0312-34.031h35.531v15.891h-35.531zm-97.219-33.281h49.547c6.0938 0 11.109-4.9688 11.109-11.109l-0.046875-29.953c0-6.0938-4.9688-11.109-11.109-11.109h-49.547c-6.0938 0-11.109 4.9688-11.109 11.109v29.953c0.046875 6.1406 5.0156 11.109 11.156 11.109zm6.9844-34.031h35.531v15.891h-35.531zm-6.9844 101.34h49.547c6.0938 0 11.109-4.9688 11.109-11.109v-29.953c0-6.0938-4.9688-11.109-11.109-11.109h-49.547c-6.0938 0-11.109 4.9688-11.109 11.109v29.953c0 6.0938 4.9688 11.109 11.109 11.109zm6.9844-34.031h35.531v15.891h-35.531zm149.63 79.688h-40.406c-5.9062 0-10.734 4.8281-10.734 10.734v24.422c0 5.9062 4.8281 10.734 10.734 10.734h40.406c5.9062 0 10.734-4.8281 10.734-10.734v-24.422c0-5.9062-4.8281-10.734-10.734-10.734zm-7.4062 27.75h-25.641v-9.6094h25.641zm7.4062 40.828h-40.406c-5.9062 0-10.734 4.8281-10.734 10.734v24.422c0 5.9062 4.8281 10.734 10.734 10.734h40.406c5.9062 0 10.734-4.8281 10.734-10.734v-24.422c0-5.9062-4.8281-10.734-10.734-10.734zm-7.4062 27.75h-25.641v-9.6094h25.641zm-56.672-85.594c0-5.9062-4.8281-10.734-10.734-10.734h-40.406c-5.9062 0-10.734 4.8281-10.734 10.734v24.422c0 5.9062 4.8281 10.734 10.734 10.734h40.406c5.9062 0 10.734-4.8281 10.734-10.734zm-18.094 17.016h-25.641v-9.6094h25.641zm18.094 51.562c0-5.9062-4.8281-10.734-10.734-10.734h-40.406c-5.9062 0-10.734 4.8281-10.734 10.734v24.422c0 5.9062 4.8281 10.734 10.734 10.734h40.406c5.9062 0 10.734-4.8281 10.734-10.734zm-18.094 17.016h-25.641v-9.6094h25.641zm82.172 40.875h-40.406c-5.9062 0-10.734 4.8281-10.734 10.734v24.422c0 5.9062 4.8281 10.734 10.734 10.734h40.406c5.9062 0 10.734-4.8281 10.734-10.734v-24.422c0-5.9531-4.8281-10.734-10.734-10.734zm-7.4062 27.75h-25.641v-9.6094h25.641zm7.4062 40.828h-40.406c-5.9062 0-10.734 4.8281-10.734 10.734v24.422c0 5.9062 4.8281 10.734 10.734 10.734h40.406c5.9062 0 10.734-4.8281 10.734-10.734v-24.422c0-5.9531-4.8281-10.734-10.734-10.734zm-7.4062 27.75h-25.641v-9.6094h25.641zm-67.359-96.328h-40.406c-5.9062 0-10.734 4.8281-10.734 10.734v24.422c0 5.9062 4.8281 10.734 10.734 10.734h40.406c5.9062 0 10.734-4.8281 10.734-10.734v-24.422c-0.046876-5.9531-4.8281-10.734-10.734-10.734zm-7.4062 27.75h-25.641v-9.6094h25.641zm18.094 75.984v-24.422c0-5.9062-4.8281-10.734-10.734-10.734h-40.406c-5.9062 0-10.734 4.8281-10.734 10.734v24.422c0 5.9062 4.8281 10.734 10.734 10.734h40.406c5.9531-0.046875 10.734-4.8281 10.734-10.734zm-18.094-7.4062h-25.641v-9.6094h25.641z"/>
</svg>
