<?xml version="1.0" encoding="UTF-8"?>
<svg width="1200pt" height="1200pt" version="1.1" viewBox="0 0 1200 1200" xmlns="http://www.w3.org/2000/svg">
 <path d="m687.32 387.89c9.5625 3.5625 20.297-1.3594 23.812-10.969 3.5625-9.6094-1.3594-20.297-10.969-23.812-95.391-35.297-201.28-31.359-314.86 11.625-192.1 72.844-250.78 210.61-266.21 313.4-27.281 181.78 58.5 360.61 127.08 413.76 39.609 36.281 113.02 83.25 183.52 83.25 35.203 0 69.703-11.719 98.906-42.375 0.70312-0.75 1.3125-1.5 1.875-2.3438 1.4062-2.0625 34.594-51.328 38.25-104.16 3.0469-43.781 40.312-97.969 64.875-104.95 0.65625-0.1875 1.3125-0.42188 1.9219-0.65625 0.84375-0.32812 84.562-33.328 167.63 0.046875 102.23 40.781 165.94-25.031 169.08-28.406 2.1562-2.4375 52.219-61.219 32.719-170.44-8.1094-45-40.922-126.84-93.844-200.26-5.9531-8.2969-17.578-10.172-25.922-4.1719-8.2969 6-10.172 17.578-4.1719 25.922 57 79.078 82.078 155.68 87.375 185.11 16.219 90.656-22.5 137.58-23.531 138.84-1.9688 2.0625-49.781 50.156-127.92 18.984-93.281-37.5-183.56-4.5938-194.44-0.32812-46.031 13.922-87.188 86.391-90.75 137.81-2.6719 38.625-26.484 77.391-31.125 84.656-84.562 86.438-227.9-42.469-230.48-44.766-64.031-49.734-138.52-218.34-114.28-379.92 13.922-92.953 67.359-217.74 242.68-284.21 104.86-39.891 202.08-43.734 288.79-11.672z"/>
 <path d="m360.37 1026.8c43.219 0 78.469-35.062 78.469-78.469 0-43.219-35.25-78.469-78.469-78.469-43.406 0-78.656 35.25-78.656 78.469 0 43.406 35.25 78.469 78.656 78.469z"/>
 <path d="m369.66 740.16c0-43.219-35.25-78.469-78.469-78.469s-78.469 35.25-78.469 78.469c0 43.406 35.25 78.469 78.469 78.469s78.469-35.062 78.469-78.469z"/>
 <path d="m502.13 555.32c0-43.219-35.25-78.469-78.469-78.469-43.406 0-78.469 35.25-78.469 78.469s35.062 78.469 78.469 78.469c43.219 0.046875 78.469-35.203 78.469-78.469z"/>
 <path d="m925.87 760.18c0-43.219-35.062-78.469-78.469-78.469-43.219 0-78.469 35.25-78.469 78.469s35.25 78.469 78.469 78.469c43.406 0.046875 78.469-35.203 78.469-78.469z"/>
 <path d="m1059.8 34.359c-47.859-31.359-108.38 14.297-195.56 148.26l-4.4531 6.8438c-56.766 87-142.31 218.21-171.42 296.86l-48.422 74.391c-65.484 13.172-82.359 82.031-92.766 123.74-6.8438 28.219-38.766 55.828-50.484 64.219-5.3906 3.7031-8.3438 10.406-7.7812 16.875 0.75 6.7031 4.8281 12.422 10.969 15.234 31.547 13.922 59.203 19.5 83.484 19.5 63.281 0 103.17-37.828 124.13-65.859 32.109-43.219 37.688-85.359 38.766-100.73l50.109-77.016c60.469-58.641 146.39-190.18 203.16-277.55l3.8906-5.7656c44.156-67.922 70.125-119.48 79.031-157.87 8.9062-38.297 1.3125-65.578-22.641-81.141zm-337.5 567.74-45.656-29.859 33.75-51.938 45.844 29.859z"/>
</svg>
