<?xml version="1.0" encoding="UTF-8"?>
<svg width="1200pt" height="1200pt" version="1.1" viewBox="0 0 1200 1200" xmlns="http://www.w3.org/2000/svg">
 <path d="m457.25 899.2c-4.4336-0.007813-8.6914 1.7422-11.832 4.8672-3.1406 3.125-4.9023 7.3672-4.9023 11.793 0 4.4219 1.7617 8.6641 4.9023 11.789 3.1406 3.125 7.3984 4.875 11.832 4.8672h302.77c5.9609-0.011719 11.469-3.1875 14.445-8.3359 2.9766-5.1523 2.9766-11.492 0-16.641-2.9766-5.1523-8.4844-8.3281-14.445-8.3398z" fill-rule="evenodd"/>
 <path d="m477.48 281.26-26.887 155.37-97.363 41.121c-5.9961 2.5391-10.184 8.8516-10.176 15.352l1.3047 418.48c-0.082031 15.695 13.141 23.184 27.668 15.094l363.08-207.94c5.6641-3.2031 9.0977-9.9453 8.3516-16.395l-12.789-104.62 118.5-98.375c12.16-10.965 8.9453-24.949-2.0898-31.23l-344.81-198.57c-11.656-5.6055-22.66 0.83594-24.797 11.711zm28.973 29.148 305.66 176.19-100.75 83.801-227.35-130.64zm-42.285 156.67 233.35 133.77 11.484 94.469-303.83 173.85 97.363-167.08c22.602 4.8906 47.148-4.8047 59.25-25.766 15.066-25.965 5.8711-59.656-20.098-74.691-8.1094-4.6406-17.023-7.0859-25.84-7.2891-19.363-0.44531-38.531 9.5312-48.812 27.328-12.113 20.875-8.5508 46.625 6.7852 63.762l-96.316 165.26-0.78516-346.66zm50.637 160.57h0.25781c3.3203 0.12109 6.8438 1.1211 9.918 2.8633 10.703 6.1992 14.012 18.531 7.832 29.148-5.7812 10.043-18.824 13.605-28.973 7.8086-10.645-6.2109-13.996-18.555-7.832-29.148 3.9297-6.832 11.34-10.766 18.793-10.672z" fill-rule="evenodd"/>
</svg>
