<?xml version="1.0" encoding="UTF-8"?>
<svg width="1200pt" height="1200pt" version="1.1" viewBox="0 0 1200 1200" xmlns="http://www.w3.org/2000/svg">
 <path d="m264 288c-66.281 0-120 53.719-120 120s53.719 120 120 120 120-53.719 120-120-53.719-120-120-120zm672 0c-66.281 0-120 53.719-120 120s53.719 120 120 120 120-53.719 120-120-53.719-120-120-120zm-348 48c-66.281 0-120 53.719-120 120s53.719 120 120 120 120-53.719 120-120-53.719-120-120-120zm-236.76 240-145.55 0.51562c-40.359 0.14062-145.64 0-145.64 142.64v144.84l288 0.375v-97.219c0-49.125 13.594-137.86 108.05-160.97-34.078-30.141-80.859-30.328-104.86-30.234zm497.58 0c-25.312-0.09375-76.078 0.14062-110.39 35.578 33.469 12.891 89.156 50.156 89.391 155.68l0.1875 97.172 312.1-0.42188v-144.84c0-142.64-105.33-142.5-145.64-142.64zm-188.9 48-143.86 0.51562c-39.891 0.14062-144 0-144 142.64v144.84l432-0.32812-0.28125-144.37c-0.28125-142.78-103.97-143.48-143.86-143.34z"/>
</svg>
