<?xml version="1.0" encoding="UTF-8"?>
<svg width="1200pt" height="1200pt" version="1.1" viewBox="0 0 1200 1200" xmlns="http://www.w3.org/2000/svg">
 <path d="m937.5 787.5c-103.38 0-187.5-84.121-187.5-187.5s84.121-187.5 187.5-187.5 187.5 84.121 187.5 187.5-84.121 187.5-187.5 187.5zm0-300c-62.035 0-112.5 50.465-112.5 112.5s50.465 112.5 112.5 112.5 112.5-50.465 112.5-112.5-50.465-112.5-112.5-112.5z"/>
 <path d="m187.5 300c-62.035 0-112.5-50.465-112.5-112.5s50.465-112.5 112.5-112.5 112.5 50.465 112.5 112.5-50.465 112.5-112.5 112.5zm0-150c-20.672 0-37.5 16.809-37.5 37.5s16.828 37.5 37.5 37.5 37.5-16.809 37.5-37.5-16.828-37.5-37.5-37.5z"/>
 <path d="m187.5 712.5c-62.035 0-112.5-50.465-112.5-112.5s50.465-112.5 112.5-112.5 112.5 50.465 112.5 112.5-50.465 112.5-112.5 112.5zm0-150c-20.672 0-37.5 16.809-37.5 37.5s16.828 37.5 37.5 37.5 37.5-16.809 37.5-37.5-16.828-37.5-37.5-37.5z"/>
 <path d="m187.5 1125c-62.035 0-112.5-50.465-112.5-112.5s50.465-112.5 112.5-112.5 112.5 50.465 112.5 112.5-50.465 112.5-112.5 112.5zm0-150c-20.672 0-37.5 16.809-37.5 37.5s16.828 37.5 37.5 37.5 37.5-16.809 37.5-37.5-16.828-37.5-37.5-37.5z"/>
 <path d="m787.46 525c-6.3008 0-12.707-1.5742-18.566-4.9414l-525-300c-17.98-10.289-24.227-33.18-13.953-51.16 10.27-17.945 33.199-24.242 51.16-13.953l525 300c17.98 10.289 24.227 33.18 13.953 51.16-6.918 12.117-19.57 18.895-32.594 18.895z"/>
 <path d="m262.54 1050c-13.02 0-25.672-6.7773-32.59-18.895-10.27-17.98-4.0273-40.867 13.953-51.16l525-300c18-10.289 40.906-4.0273 51.16 13.953 10.27 17.98 4.0273 40.867-13.953 51.16l-525 300c-5.8672 3.3672-12.277 4.9414-18.57 4.9414z"/>
 <path d="m750 637.5h-487.5c-20.707 0-37.5-16.773-37.5-37.5s16.793-37.5 37.5-37.5h487.5c20.707 0 37.5 16.773 37.5 37.5s-16.793 37.5-37.5 37.5z"/>
</svg>
