<?xml version="1.0" encoding="UTF-8"?>
<svg width="1200pt" height="1200pt" version="1.1" viewBox="0 0 1200 1200" xmlns="http://www.w3.org/2000/svg">
 <path d="m337.5 337.5c0-69.621 27.656-136.39 76.883-185.62 49.23-49.227 116-76.883 185.62-76.883s136.39 27.656 185.62 76.883c49.227 49.23 76.883 116 76.883 185.62s-27.656 136.39-76.883 185.62c-49.23 49.227-116 76.883-185.62 76.883s-136.39-27.656-185.62-76.883c-49.227-49.23-76.883-116-76.883-185.62zm709.5 656.62c-48.375-187.88-232.12-319.12-447-319.12s-398.62 131.25-447 319.12c-7.5117 30.34-0.59375 62.449 18.75 87 22.074 27.574 55.43 43.699 90.75 43.875h675c35.848 0.28125 69.844-15.891 92.25-43.875 18.82-24.805 25.184-56.891 17.25-87z"/>
</svg>
