<?xml version="1.0" encoding="UTF-8"?>
<svg width="1200pt" height="1200pt" version="1.1" viewBox="0 0 1200 1200" xmlns="http://www.w3.org/2000/svg">
 <path d="m934.44 936.6-120-216c-1.6797-3-4.5586-5.1602-8.0391-5.8789-3.3594-0.71875-6.9609 0-9.7188 2.1602l-42.719 31.922-30.961-86.398c-1.6797-4.6797-6.1211-7.8008-11.039-7.9219-5.2812 0-9.4805 2.8789-11.398 7.4414l-52.559 129v-243.72l99.719-57.602c11.039-6.3594 18-18.359 18-31.199v-149.76c0-12.84-6.9609-24.719-18-31.199l-129.72-74.879c-11.16-6.3594-24.84-6.3594-36 0l-129.72 74.879c-11.039 6.3594-18 18.359-18 31.199v149.76c0 12.84 6.9609 24.719 18 31.199l99.719 57.602v241.2l-49.199-126.12c-1.8008-4.6797-6.3594-7.9219-11.52-7.6797-5.0391 0.12109-9.4805 3.3594-11.039 8.1602l-29.762 89.52-47.281-35.398c-2.7617-2.0391-6.3594-2.8789-9.7188-2.1602s-6.3594 2.8789-8.0391 5.8789l-120 216c-3.2383 5.7617-1.0781 13.078 4.6797 16.32 1.8008 1.0781 3.8398 1.5586 5.7617 1.5586 4.1992 0 8.2812-2.2812 10.559-6.1211l113.28-204 42.719 31.922-69.84 210.48c-2.0391 6.2383 1.3203 13.078 7.5586 15.121 1.1992 0.35938 2.5195 0.60156 3.8398 0.60156 5.0391 0 9.7188-3.2383 11.398-8.2812l67.32-202.92c1.1992 0.96094 91.922 69 94.559 70.559 0.83984 0.48047 1.8008 0.96094 2.7617 1.3203 2.8789 1.0781 6.1211 0.83984 9.1211 0.83984h63.84c2.5195 0 5.1602-0.23828 7.5586-1.1992 2.0391-0.71875 3.6016-1.9219 5.2812-3.2383 1.3203-0.96094 94.801-70.801 96.602-72.121l74.281 207c1.8008 4.9219 6.3594 7.9219 11.281 7.9219 1.3203 0 2.7617-0.23828 4.0781-0.71875 6.2383-2.2812 9.4805-9.1211 7.1992-15.359l-76.801-213.96 37.68-28.199 113.28 204c2.1602 3.9609 6.2383 6.1211 10.559 6.1211 1.9219 0 3.9609-0.48047 5.7617-1.5586 5.7617-3.2383 7.9219-10.559 4.6797-16.32zm-198.72-467.88-112.92 65.16 118.92-205.92v130.44c0 4.3203-2.2812 8.2812-6 10.441zm-135.72 56.762-123.24-213.36h246.48l-123.24 213.36zm-6-302.16c1.8008-1.0781 3.9609-1.5586 6-1.5586 2.0391 0 4.1992 0.48047 6 1.5586l112.2 64.801h-236.52l112.2-64.801zm-135.72 235.08v-130.44l118.92 205.92-112.92-65.16c-3.7188-2.1602-6-6.1211-6-10.441zm117.72 105.72h5.3984l0.71875 0.35938c5.5195 3.2383 11.762 4.8008 18 4.8008 6.2383 0 12.48-1.5586 18-4.8008l0.71875-0.35938h5.2812v276h-48v-276zm-83.52 137.76 45.121 115.56-66.84-49.922 21.719-65.52zm170.88 114.72 47.52-116.52 22.922 63.84z"/>
</svg>
