<?xml version="1.0" encoding="UTF-8"?>
<svg width="1200pt" height="1200pt" version="1.1" viewBox="0 0 1200 1200" xmlns="http://www.w3.org/2000/svg">
 <path d="m126.74 394.08c-3.0938-55.734 32.578-137.11 76.875-194.16 17.578-22.641 36.797-41.906 55.828-54.797 22.219-15.047 44.859-21.938 65.953-16.922 14.766 3.5156 27.844 12.469 38.391 27.984l0.32813 0.46875 0.046874-0.046875 0.65625 0.98438 117.89 189.71c1.125 1.8281 6.1875 11.25 10.031 18.984h0.046874c3.0469 6.1406 5.7188 12.281 6.4219 15.891 8.9531 47.672-21.422 88.078-54.281 131.86-8.4844 11.297-17.203 22.875-24.938 34.266l-0.046876 0.046875 0.046876 0.046875c-0.70313 1.0781-1.4062 2.2969-1.8281 3.5156 15.141 26.156 29.531 47.344 45.188 67.031 16.219 20.438 34.266 39.75 56.156 61.641 21.891 21.891 41.203 39.938 61.641 56.156 19.688 15.656 40.922 30.047 67.031 45.188 1.2188-0.42188 2.4844-1.0781 3.5156-1.8281 0.42188-0.28125 0.84375-0.5625 1.2656-0.79688 10.969-7.5469 22.125-15.891 33.047-24.094 43.781-32.906 84.188-63.234 131.86-54.281 3.6094 0.65625 9.7031 3.3281 15.891 6.4219 0.42188 0.23438 0.79688 0.42188 1.2188 0.65625 7.4531 3.75 16.031 8.3438 17.766 9.4219l189.71 117.89 0.98438 0.65625c0.70312 0.46875 1.3594 0.9375 2.0156 1.4531 14.531 10.359 23.016 23.016 26.391 37.266 5.0156 21.094-1.8281 43.734-16.922 65.953-12.891 19.031-32.156 38.25-54.797 55.828-57.047 44.297-138.42 79.969-194.16 76.875-75.328-4.1719-153.24-28.406-228.24-67.078-78.844-40.641-154.55-97.266-220.55-163.31-66-66-122.63-141.71-163.31-220.55-38.672-75.094-62.906-153-67.125-228.32zm113.39-165.98c-38.578 49.734-69.797 118.5-67.312 163.45 3.7969 68.578 26.203 140.16 62.016 209.63 38.344 74.344 92.109 146.11 154.97 208.97 62.953 62.906 134.68 116.62 209.02 154.97 69.422 35.812 141.05 58.219 209.63 62.062 44.953 2.4844 113.77-28.734 163.45-67.312 19.031-14.766 34.828-30.328 44.859-45.141 7.875-11.625 11.812-21.938 10.031-29.484-0.84375-3.4688-3.3281-6.9375-7.8281-10.219l-0.5625-0.32812-0.42188-0.28125-189.71-117.89c-1.1719-0.70312-7.8281-4.2656-13.969-7.3594-0.42188-0.1875-0.79688-0.32812-1.2188-0.5625-3.0938-1.5469-2.4844-2.2031-3.7969-2.4375-27.797-5.2031-60.422 19.266-95.719 45.797-11.156 8.3906-22.547 16.922-34.734 25.312-0.375 0.28125-0.79688 0.60938-1.2188 0.89062-6 4.0781-14.391 7.9219-22.828 9.4219-9 1.6406-18.375 0.84375-26.672-3.8906-29.438-16.875-53.344-33.047-75.797-50.859-22.453-17.812-42.891-36.844-65.625-59.578-22.734-22.734-41.719-43.172-59.578-65.625-17.812-22.453-33.984-46.359-50.859-75.797-4.7812-8.3438-5.5312-17.719-3.8906-26.672 1.5469-8.4375 5.3438-16.828 9.4219-22.828l0.046876 0.046875c8.625-12.703 17.484-24.469 26.156-36 26.531-35.297 51-67.875 45.797-95.672-0.51562-0.65625-1.0312-1.4062-1.4531-2.1562-0.28125-0.375-0.60938-0.9375-0.98438-1.6875l0.046876-0.046875-0.046876-0.09375c-3.1875-6.4219-7.125-13.875-7.875-15.094l-117.89-189.71-0.28125-0.46875 0.046874-0.046875c-3.375-4.8281-6.9844-7.5-10.594-8.3438-7.5469-1.7812-17.859 2.1562-29.484 10.031-14.812 10.172-30.375 25.969-45.141 45z" fill-rule="evenodd"/>
</svg>
