<?xml version="1.0" encoding="UTF-8"?>
<svg width="1200pt" height="1200pt" version="1.1" viewBox="0 0 1200 1200" xmlns="http://www.w3.org/2000/svg">
 <path d="m194.76 947.86c58.922 0 133.69-13.312 219.94-40.031 53.625 32.016 116.25 50.438 183.1 50.438 190.74 0 347.11-149.9 357.61-338.06 151.18-121.82 220.31-233.9 185.06-300.32-34.594-65.156-162.94-71.672-343.69-17.625-56.953-38.203-125.44-60.516-198.98-60.516-196.64 0-356.76 159.32-358.18 355.64-147.61 120.19-214.92 230.76-180.14 296.34 19.125 36 66.422 54.141 135.28 54.141zm131.29-114.7c-72.703 13.125-123 6.8438-135.89-17.438-12.938-24.328 10.078-69.562 61.781-122.48 14.062 52.312 39.75 99.938 74.109 139.92zm543.94-465.79c70.219-11.953 117.14-5.3906 129.84 18.516 12.656 23.859-8.0625 66.281-57.047 117.52-14.25-50.766-39.422-97.031-72.797-136.03zm66.797 232.64c0 3.5625-0.09375 7.125-0.1875 10.641-71.391 56.719-157.4 112.36-249.1 161.02-90.703 48.141-183.98 87.938-270.19 115.22-19.312-12.188-37.312-26.297-53.766-42 87.844-20.812 192.94-62.438 298.18-118.31 108.23-57.469 203.34-122.76 269.95-185.26 3.375 19.078 5.1094 38.672 5.1094 58.688zm-339 339.1c-57.094 0-110.91-14.203-158.16-39.234 82.594-27.375 170.95-65.625 256.87-111.23 86.906-46.125 168.84-98.484 238.31-152.21-18.188 169.92-162.37 302.68-337.03 302.68zm525.74-610.22c18.562 34.922-4.0312 82.875-26.25 116.95-29.859 45.797-78.516 97.125-141.37 149.16-0.32812-23.812-3-47.109-7.7812-69.609 62.953-63.188 86.672-114.47 68.578-148.5-18.094-34.125-74.109-43.172-162.05-26.25-11.906-12.234-24.656-23.672-38.156-34.125 161.48-46.125 278.34-41.672 307.03 12.375zm-525.74-67.969c159.1 0 292.92 110.2 329.26 258.28-64.875 62.906-164.44 132.05-274.31 190.4-108.47 57.562-216.47 99.75-304.92 119.16-55.266-60.328-89.016-140.68-89.016-228.74 0-186.98 152.11-339.1 339-339.1zm-357.52 360.84c1.0312 16.828 3.1875 33.375 6.4688 49.5-66.703 65.438-92.156 118.41-73.547 153.42 12.188 22.969 41.484 34.594 86.062 34.594 23.25 0 50.672-3.1875 81.984-9.5156 15.984 16.406 33.469 31.266 52.312 44.391-79.031 23.297-149.44 35.156-204.66 34.359-41.016-0.60938-93.797-8.6719-112.45-43.828-28.875-54.375 33.703-154.31 163.82-262.92z"/>
 <path d="m371.86 506.16c1.0781 0.375 2.1562 0.5625 3.1875 0.5625 3.9375 0 7.6406-2.4844 9.0469-6.4219 25.219-71.484 70.688-113.3 139.08-127.82 5.2031-1.125 8.4844-6.1875 7.4062-11.391-1.125-5.2031-6.1875-8.4844-11.391-7.4062-75.469 16.031-125.63 61.922-153.24 140.21-1.7344 5.0625 0.89063 10.547 5.9062 12.281z"/>
 <path d="m371.44 709.45c1.9219 0 3.8906-0.5625 5.5781-1.7812 4.3125-3.0938 5.3438-9.0469 2.25-13.406-26.062-36.656-31.453-85.172-14.391-129.79 1.875-4.9688-0.60938-10.5-5.5312-12.375-4.9688-1.875-10.5 0.60938-12.375 5.5312-19.359 50.625-13.125 105.84 16.688 147.74 1.7812 2.6719 4.7812 4.0781 7.7812 4.0781z"/>
</svg>
