<?xml version="1.0" encoding="UTF-8"?>
<svg width="1200pt" height="1200pt" version="1.1" viewBox="0 0 1200 1200" xmlns="http://www.w3.org/2000/svg">
 <path d="m770.96 888v-55.391c0-2.6523-2.1602-4.8008-4.8008-4.8008h-55.391c-2.6523 0-4.8008 2.1602-4.8008 4.8008v55.391c0 2.6523 2.1602 4.8008 4.8008 4.8008h55.391c2.6406 0 4.8008-2.1484 4.8008-4.8008zm-9.6133-32.496h-18.07v-18.086h18.086l-0.003907 18.086zm-45.766-18.082h18.086v18.086h-18.086zm0 27.695h18.086l-0.003906 18.082h-18.086zm45.766 18.082h-18.07v-18.086h18.086l-0.003907 18.086z"/>
 <path d="m489.24 827.81h-55.391c-2.6523 0-4.8008 2.1602-4.8008 4.8008v55.391c0 2.6523 2.1602 4.8008 4.8008 4.8008h55.391c2.6523 0 4.8008-2.1602 4.8008-4.8008v-55.391c0-2.6406-2.1602-4.8008-4.8008-4.8008zm-4.8086 27.695h-18.086v-18.086h18.086zm-45.77-18.082h18.086v18.086h-18.086zm0 27.695h18.086l-0.003906 18.082h-18.086zm45.77 18.082h-18.086v-18.086h18.086z"/>
 <path d="m498.47 680.12h-73.852c-2.6523 0-4.8008 2.1602-4.8008 4.8008v73.848c0 2.6523 2.1602 4.8008 4.8008 4.8008h73.852c2.6523 0 4.8008-2.1602 4.8008-4.8008v-73.848c0.011719-2.6523-2.1484-4.8008-4.8008-4.8008zm-32.125 9.6094h27.312v18.086h-27.312zm-36.922 0h27.312v18.086h-27.312zm0 27.688h27.312v36.539h-27.312zm64.246 36.539h-27.312v-36.539h27.312z"/>
 <path d="m775.38 680.12h-73.836c-2.6523 0-4.8008 2.1602-4.8008 4.8008v73.848c0 2.6523 2.1602 4.8008 4.8008 4.8008h73.836c2.6523 0 4.8008-2.1602 4.8008-4.8008v-73.848c0.011718-2.6523-2.1484-4.8008-4.8008-4.8008zm-32.098 9.6094h27.301v18.086h-27.301zm-36.938 0h27.312v18.086h-27.312zm0 27.688h27.312v36.539h-27.312zm64.234 36.539h-27.297v-36.539h27.301z"/>
 <path d="m618.47 790.88h-36.926c-2.6523 0-4.8008 2.1602-4.8008 4.8008v36.926c0 2.6523 2.1602 4.8008 4.8008 4.8008h36.926c2.6523 0 4.8008-2.1602 4.8008-4.8008v-36.926c0.011719-2.6406-2.1484-4.8008-4.8008-4.8008zm-4.8008 36.926h-27.312v-27.312h27.312z"/>
 <path d="m600 606.66c28.105 0 50.965-22.859 50.965-50.965 0-28.094-22.859-50.953-50.965-50.953-28.094 0-50.953 22.859-50.953 50.953s22.859 50.965 50.953 50.965zm14.473-68.555c-1.6445-0.50391-3.5039-0.16797-4.8125 1.1289l-3.3945 3.3945-6.2656 6.2734-9.6602-9.6602c-1.3086-1.3086-3.168-1.6445-4.8125-1.1289 3.9609-3.2617 8.9531-5.3125 14.473-5.3125s10.512 2.0508 14.473 5.3047zm-30.926 7.9297 13.055 13.055c0.9375 0.9375 2.1719 1.4023 3.3945 1.4023s2.4609-0.46875 3.3945-1.4023l13.055-13.055c1.3086-1.3086 1.6445-3.168 1.1289-4.8125 3.2656 3.9609 5.3047 8.9531 5.3047 14.473 0 12.625-10.262 22.883-22.883 22.883-12.625 0-22.883-10.262-22.883-22.883 0-5.5195 2.0391-10.512 5.3047-14.473-0.51562 1.6445-0.17969 3.5039 1.1289 4.8125zm21.254 50.52v-8.8555c14.051-2.1133 25.094-13.152 27.203-27.203h8.8555c-2.2188 18.926-17.125 33.84-36.059 36.059zm36.07-45.672h-8.8555c-2.1133-14.051-13.152-25.105-27.203-27.203v-8.8438c18.91 2.2188 33.828 17.125 36.059 36.047zm-45.672-36.047v8.8438c-14.051 2.1133-25.105 13.152-27.203 27.203h-8.8438c2.2188-18.922 17.125-33.828 36.047-36.047zm-27.215 45.66c2.1133 14.051 13.152 25.105 27.203 27.203v8.8555c-18.926-2.2305-33.828-17.137-36.059-36.059z"/>
 <path d="m987.7 292.43h-36.926c-2.6523 0-4.8008 2.1602-4.8008 4.8008v22.883h-18.086v-9.0469l0.003907-13.828c0-2.6523-2.1602-4.8008-4.8008-4.8008h-46.164c-2.6523 0-4.8008 2.1602-4.8008 4.8008v22.883h-18.086v-9.0469l0.003906-13.836c0-2.6523-2.1602-4.8008-4.8008-4.8008h-46.164c-0.64844 0-1.2734 0.13281-1.8477 0.37109-0.085937 0.035156-0.13281 0.097656-0.20312 0.13281-0.48047 0.22656-0.94922 0.50391-1.3438 0.88672-0.19141 0.19141-0.30078 0.45703-0.45703 0.68359-0.085937 0.12109-0.15625 0.22656-0.23828 0.35938-0.42188 0.71875-0.71875 1.5117-0.71875 2.3633l0.011719 73.656h-4.4297c-2.6523 0-4.8008 2.1602-4.8008 4.8008v9.0469h-27.492c-2.6523 0-4.8008 2.1602-4.8008 4.8008v18.266h-18.07v-18.266c0-2.6523-2.1602-4.8008-4.8008-4.8008h-46.176c-2.6523 0-4.8008 2.1602-4.8008 4.8008v18.266l-18.105 0.003906v-18.266c0-2.6523-2.1602-4.8008-4.8008-4.8008h-46.164c-2.6523 0-4.8008 2.1602-4.8008 4.8008v18.266h-18.086l0.003906-4.3672 0.011719-0.058594v-13.836c0-2.6523-2.1602-4.8008-4.8008-4.8008h-0.011718l-46.152-0.003906h-0.011719c-2.6523 0-4.8008 2.1602-4.8008 4.8008v18.266h-18.098v-4.3086c0-0.035156 0.023437-0.070312 0.023437-0.070312v-13.883c0-2.6523-2.1602-4.8008-4.8008-4.8008l-0.03125-0.003906h-46.164c-2.6523 0-4.8008 2.1602-4.8008 4.8008v18.266h-18.07v-4.3086c0-0.035156 0.023437-0.070312 0.023437-0.070312v-13.883c0-2.6523-2.1602-4.8008-4.8008-4.8008h-27.504v-9.0469c0-2.6523-2.1602-4.8008-4.8008-4.8008h-4.4297l0.011719-73.656c0-2.6523-2.1602-4.8008-4.8008-4.8008h-46.164c-2.6523 0-4.8008 2.1602-4.8008 4.8008v22.883h-18.086v-9.0469l0.003907-13.84c0-2.6523-2.1602-4.8008-4.8008-4.8008h-46.164c-2.6523 0-4.8008 2.1602-4.8008 4.8008v22.883l-18.094 0.003906v-22.887c0-2.6523-2.1602-4.8008-4.8008-4.8008h-36.926c-2.6523 0-4.8008 2.1602-4.8008 4.8008v756.91l0.003906 73.852c0 2.6523 2.1602 4.8008 4.8008 4.8008h775.38c2.6523 0 4.8008-2.1602 4.8008-4.8008v-830.76c0-2.6484-2.1602-4.8086-4.8008-4.8086zm-235.2 772.94 6.4219-6.4219h21.48l-27.898 27.898zm0 35.078 41.496-41.496h21.48l-62.988 62.988v-21.492zm-535.38-35.078 6.4219-6.4219h21.48l-27.898 27.898zm0 35.078 41.496-41.496h21.48l-62.977 62.988zm765.77-572.64h-64.246v-22.883c0-2.6523-2.1602-4.8008-4.8008-4.8008h-13.656v-27.324h13.656c2.6523 0 4.8008-2.1602 4.8008-4.8008v-36.926c0-2.6523-2.1602-4.8008-4.8008-4.8008h-13.656v-27.312h82.703zm0 156.93h-82.703v-27.312h13.656c2.6523 0 4.8008-2.1602 4.8008-4.8008v-4.4297h32.125c2.6523 0 4.8008-2.1602 4.8008-4.8008v-41.531l-0.003906-13.867c0-2.6523-2.1602-4.8008-4.8008-4.8008h-35.074c1.7383-0.73047 2.9531-2.4375 2.9531-4.4297v-24.77h64.246zm0 156.91h-64.246v-22.895c0-2.6523-2.1602-4.8008-4.8008-4.8008h-13.656v-27.301h8.8438v13.656c0 2.6523 2.1602 4.8008 4.8008 4.8008h36.926c2.6523 0 4.8008-2.1602 4.8008-4.8008v-13.848l-0.003906-27.707v-13.836c0-2.6523-2.1602-4.8008-4.8008-4.8008h-50.582v-29.219h82.703l0.003906 130.75zm0 147.68h-27.312v-50.578c0-2.6523-2.1602-4.8008-4.8008-4.8008h-32.125v-32.113c0-2.6523-2.1602-4.8008-4.8008-4.8008h-13.656v-27.312h82.703l0.003906 119.61zm-124.43-18.457h-13.656v-27.312h13.656c2.6523 0 4.8008-2.1602 4.8008-4.8008v-69.043h27.312v32.125c0 2.6523 2.1602 4.8008 4.8008 4.8008h13.656v27.301h-13.656c-2.6523 0-4.8008 2.1602-4.8008 4.8008v36.926c0 2.6523 2.1602 4.8008 4.8008 4.8008h13.656v8.8438h-45.77v-13.656c0.011719-2.625-2.1484-4.7852-4.8008-4.7852zm-4.8008-69.227h-27.312v-18.086h27.312zm0-27.695h-27.312v-4.2344l18.457-0.003906h8.8438v4.2383zm-27.324 37.297h27.312v4.2461h-27.312zm119.63 36.551h-27.312v-4.2461h27.312zm-36.926 23.074h-8.8438v-27.312h8.8438zm9.6133-13.461h27.312v18.086h-27.312zm0 27.695h27.312v4.2344h-27.312zm-60.191-171.16h-13.656v-27.301h13.656c2.6523 0 4.8008-2.1602 4.8008-4.8008v-36.926c0-2.6523-2.1602-4.8008-4.8008-4.8008l-13.656 0.003907v-27.336h45.77v32.125c0 2.6523 2.1602 4.8008 4.8008 4.8008h13.656v27.312h-13.656c-2.6523 0-4.8008 2.1602-4.8008 4.8008v36.91c0 2.6523 2.1602 4.8008 4.8008 4.8008h13.656v18.086h-45.77v-22.875c0.011719-2.6406-2.1484-4.8008-4.8008-4.8008zm60.191-22.703h27.312v4.2461h-27.312zm0-9.6016v-18.086h27.312v18.086zm27.312-27.695h-27.312v-4.2344h27.312zm-313.84 18.469h-8.8438v-73.477h8.8438zm-36.926 0h-8.8438v-91.934h8.8438zm-36.922 0h-8.8555v-73.477h8.8555zm92.301-83.09h-27.297v-4.4141c0-7.5352 6.1211-13.668 13.656-13.668s13.656 6.1328 13.656 13.668v4.4141zm-36.91-18.457h-27.312v-4.4297c0-7.5352 6.1211-13.656 13.656-13.656 7.5352 0 13.668 6.1211 13.668 13.656v4.4297zm-36.926 18.457h-27.312v-4.4141c0-7.5352 6.1328-13.668 13.668-13.668s13.656 6.1328 13.656 13.668l0.003906 4.4141zm-8.8555 9.6133h8.8438v73.477h-8.8438zm36.914-18.457h8.8555v91.934h-8.8555zm36.934 18.457h8.8438v73.477h-8.8438zm18.457-4.8008v-9.2266c0-12.828-10.441-23.27-23.258-23.27-5.125 0-9.8281 1.7266-13.68 4.5469-0.15234-12.707-10.512-23.004-23.254-23.004-12.73 0-23.09 10.309-23.23 23.004-3.8516-2.8203-8.5547-4.5469-13.68-4.5469-12.828 0-23.27 10.441-23.27 23.27v87.504h-18.086v-147.31h156.56v147.31h-18.098l0.003906-78.277zm-166.52-78.648h-8.8672v-45.77h8.8555v45.77zm-36.926 0h-8.8438v-45.77h8.8438zm0-55.379h-8.8438v-44.797c5.1484 1.957 8.8438 6.8516 8.8438 12.684zm9.6016 9.6094h8.8555v45.77h-8.8438v-45.77zm0-9.6094v-32.125c0-5.832 3.6953-10.727 8.8438-12.684v44.797h-8.8438zm-4.8008-46.117c-4.2461-5.5938-10.906-9.2656-18.457-9.2656-12.828 0-23.27 10.441-23.27 23.258v87.504h-18.086v-61.512h4.4297c2.6523 0 4.8008-2.1602 4.8008-4.8008v-16.57c0-2.6523-2.1602-4.8008-4.8008-4.8008h-4.4297v-50.387h128.84v31.836c-3.8516-2.8086-8.543-4.5234-13.656-4.5234-7.5469 0-14.207 3.6719-18.457 9.2656-4.2617-5.5938-10.906-9.2656-18.469-9.2656-7.5391-0.003906-14.199 3.668-18.449 9.2617zm-32.121 55.727h8.8555v45.77h-8.8555zm0-9.6094v-32.125c0-5.832 3.707-10.727 8.8555-12.684v44.797h-8.8555zm-87.879 226.54h13.656v27.301h-13.656c-2.6523 0-4.8008 2.1602-4.8008 4.8008v22.883h-45.77v-18.086h13.656c2.6523 0 4.8008-2.1602 4.8008-4.8008v-36.91c0-2.6523-2.1602-4.8008-4.8008-4.8008h-13.656l0.003906-18.285v-9.0352h13.656c2.6523 0 4.8008-2.1602 4.8008-4.8008v-32.125h45.766v27.312h-13.656c-2.6523 0-4.8008 2.1602-4.8008 4.8008v36.926c0 2.6602 2.1484 4.8203 4.8008 4.8203zm-60.191-32.699h-27.312v-4.2344h27.312zm0 9.6094v18.086h-27.312v-18.086zm-27.312 27.688h27.312v4.2461h-27.312zm45.77-51.133h-50.57c-2.6523 0-4.8008 2.1602-4.8008 4.8008v55.379c0 2.6523 2.1602 4.8008 4.8008 4.8008h36.926c2.6523 0 4.8008-2.1602 4.8008-4.8008v-13.656h8.8438v27.301h-13.656c-2.6523 0-4.8008 2.1602-4.8008 4.8008v22.883h-64.246v-130.73h82.703zm46.535 171.13h27.312v4.2461h-27.312zm0-9.6016v-18.086h27.312v18.086zm27.324-27.695h-27.312v-4.2344l8.8438-0.003906h18.469zm-36.926 4.8008v60.004c0 2.6523 2.1602 4.8008 4.8008 4.8008l13.656-0.007812v27.312h-13.656c-2.6523 0-4.8008 2.1602-4.8008 4.8008v13.656h-45.77v-8.8438h13.656c2.6523 0 4.8008-2.1602 4.8008-4.8008l0.003906-36.922c0-2.6523-2.1602-4.8008-4.8008-4.8008h-13.656v-27.301h13.656c2.6523 0 4.8008-2.1602 4.8008-4.8008v-32.125h27.312zm-45.777 73.859v-9.0469h8.8438v27.312h-8.8438zm-9.6133-4.8125h-27.312v-4.2461h27.312zm0 9.6133v18.086l-27.312-0.003906v-18.086zm-27.312 27.695h27.312v4.2344h-27.312zm45.77-88.07h-13.656c-2.6523 0-4.8008 2.1602-4.8008 4.8008v32.113h-32.113c-2.6523 0-4.8008 2.1602-4.8008 4.8008v50.578h-27.312v-119.62h82.703l0.003906 27.324zm-82.691-343.05h64.246v24.77c0 1.9922 1.2227 3.707 2.9531 4.4297l-35.078-0.003906c-2.6523 0-4.8008 2.1602-4.8008 4.8008v55.379c0 2.6523 2.1602 4.8008 4.8008 4.8008h32.125v4.4297c0 2.6523 2.1602 4.8008 4.8008 4.8008h13.656v27.312h-82.703zm0-155.04h82.703v27.312h-13.656c-2.6523 0-4.8008 2.1602-4.8008 4.8008v36.934c0 2.6523 2.1602 4.8008 4.8008 4.8008h13.656v27.312h-13.656c-2.6523 0-4.8008 2.1602-4.8008 4.8008v22.883h-64.246zm124.43 73.848h13.656v27.312h-13.656c-2.6523 0-4.8008 2.1602-4.8008 4.8008v22.883h-45.77v-18.086h13.656c2.6523 0 4.8008-2.1602 4.8008-4.8008l0.003906-36.91c0-2.6523-2.1602-4.8008-4.8008-4.8008h-13.656v-27.312h13.656c2.6523 0 4.8008-2.1602 4.8008-4.8008v-32.125l45.766 0.003906v27.312h-13.656c-2.6523 0-4.8008 2.1602-4.8008 4.8008v36.922c0 2.6523 2.1484 4.8008 4.8008 4.8008zm59.809 64.621v6.9609h-4.4414l-179.79-0.003906v-6.9609h179.79zm-59.809 120h13.656v27.312h-45.77v-32.125c0-2.6523-2.1602-4.8008-4.8008-4.8008h-13.656v-27.312h13.656c2.6523 0 4.8008-2.1602 4.8008-4.8008l0.003906-36.934c0-2.6523-2.1602-4.8008-4.8008-4.8008h-13.656v-18.086h45.77v22.883c0 2.6523 2.1602 4.8008 4.8008 4.8008h13.652v27.312h-13.656c-2.6523 0-4.8008 2.1602-4.8008 4.8008v36.926c0 2.6641 2.1484 4.8242 4.8008 4.8242zm-60.191-32.68h-27.312v-18.086h27.312zm9.6133-22.895v-13.848c0-1.9922-1.2227-3.707-2.9531-4.4297h11.797v27.312h-8.8438zm-9.6133-4.8008h-27.312v-4.2461h27.312zm-27.312 37.297h27.312v4.2344h-27.312zm-36.922 66.949v-6.9492h184.23v6.9492zm147.68-16.551v-32.125c0-2.6523-2.1602-4.8008-4.8008-4.8008h-13.656v-27.312l13.656 0.003906c2.6523 0 4.8008-2.1602 4.8008-4.8008v-36.945c0-2.6523-2.1602-4.8008-4.8008-4.8008h-13.656v-19.969h45.758v130.75zm331.94-69.238h-8.8438v-45.77h8.8438zm9.6016-45.77h8.8555v45.77h-8.8438v-45.77zm8.8555-9.6094h-8.8438v-32.125c0-5.832 3.6953-10.727 8.8438-12.684zm-18.457 0h-8.8438v-44.797c5.1484 1.957 8.8438 6.8516 8.8438 12.684zm-27.32 9.6094h8.8555v45.77h-8.8555zm8.8555-9.6094h-8.8555v-32.125c0-5.832 3.707-10.727 8.8555-12.684zm-18.469-32.125v87.504h-119.63v-138.08h119.63zm-129.23 32.125h-8.8438v-44.797c5.1484 1.957 8.8438 6.8516 8.8438 12.684zm-8.8438 9.6094h8.8438v45.77h-8.8438zm-36.934-54.418c5.1484 1.957 8.8555 6.8516 8.8555 12.684v32.125h-8.8555zm27.324 44.809h-8.8438v-32.125c0-5.832 3.6953-10.727 8.8438-12.684zm-8.8438 9.6094h8.8438v45.77h-8.8438zm184.61 55.383h110.39v59.629h-4.4414c-2.6523 0-4.8008 2.1602-4.8008 4.8008v16.559c0 2.6523 2.1602 4.8008 4.8008 4.8008h4.4414v61.523h-110.39zm45.781-9.6133h-8.8672v-45.77h8.8555v45.77zm9.6133-45.77h8.8438v45.77h-8.8438zm8.8438-9.6094h-8.8438v-32.125c0-5.832 3.6953-10.727 8.8438-12.684zm-18.457 0h-8.8672v-44.797c5.1484 1.957 8.8555 6.8516 8.8555 12.684v32.113zm36.91 0h-8.8438v-44.797c5.1484 1.957 8.8438 6.8516 8.8438 12.684zm0 9.6094v45.77h-8.8438v-45.77zm87.879-69.609h-13.656v-27.324h13.656c2.6523 0 4.8008-2.1602 4.8008-4.8008v-36.926c0-2.6523-2.1602-4.8008-4.8008-4.8008l-13.656 0.003906v-27.312h45.77v32.125c0 2.6523 2.1602 4.8008 4.8008 4.8008h13.656l-0.003906 27.309h-13.656c-2.6523 0-4.8008 2.1602-4.8008 4.8008v36.926c0 2.6523 2.1602 4.8008 4.8008 4.8008h13.656v18.086h-45.77v-22.883c0.015625-2.6562-2.1445-4.8047-4.7969-4.8047zm55.379 37.297h69.047v6.9609l-179.79-0.003906h-4.4414v-6.9609h59.809zm-105.95 82.883v-66.312h45.758v19.969h-13.645c-2.6523 0-4.8008 2.1602-4.8008 4.8008v36.926c0 2.6523 2.1602 4.8008 4.8008 4.8008h13.656v27.312l-13.656-0.003906c-2.6523 0-4.8008 2.1602-4.8008 4.8008v32.125h-27.301v-64.418zm82.691 32.316v32.125l-45.777-0.003906v-27.312h13.656c2.6523 0 4.8008-2.1602 4.8008-4.8008v-36.926c0-2.6523-2.1602-4.8008-4.8008-4.8008l-13.656 0.003906v-27.312h13.656c2.6523 0 4.8008-2.1602 4.8008-4.8008v-22.883h45.77v18.086h-13.656c-2.6523 0-4.8008 2.1602-4.8008 4.8008v36.926c0 2.6523 2.1602 4.8008 4.8008 4.8008h13.656v27.312h-13.656c-2.6328-0.027344-4.793 2.1328-4.793 4.7852zm18.457-64.621v22.883h-8.8438v-27.312h11.797c-1.7266 0.72266-2.9531 2.4375-2.9531 4.4297zm9.6133 46.344h27.312v4.2344h-27.312zm0-9.6016v-18.082h27.312v18.086zm27.312-27.695h-27.312v-4.2461h27.312zm-147.31 104.25v-6.9492h184.23v6.9492zm184.23-311.95h-184.23v-8.8438h184.24zm-175 83.281v-73.668h27.312v32.125c0 2.6523 2.1602 4.8008 4.8008 4.8008h13.656v27.32h-13.656c-2.6523 0-4.8008 2.1602-4.8008 4.8008v36.926c0 2.6523 2.1602 4.8008 4.8008 4.8008h13.656v18.086h-45.758v-55.191zm-14.051 81.371h4.4414v61.512h-18.098v-87.504c0-12.816-10.441-23.258-23.258-23.258-7.5469 0-14.207 3.6719-18.457 9.2656-4.2617-5.5938-10.906-9.2656-18.469-9.2656-7.5469 0-14.207 3.6719-18.457 9.2656-4.2461-5.5938-10.906-9.2656-18.457-9.2656-5.125 0-9.8164 1.7148-13.668 4.5234v-31.848h128.86v50.387h-4.4414c-2.6523 0-4.8008 2.1602-4.8008 4.8008v16.57c0.007812 2.6562 2.168 4.8164 4.8086 4.8164zm4.4414-86.184h-396.54v-4.2461h396.55l0.003906 4.2461zm-406.16 60h-45.758v-18.086h13.645c2.6523 0 4.8008-2.1602 4.8008-4.8008v-36.922c0-2.6523-2.1602-4.8008-4.8008-4.8008h-13.656v-27.312h13.656c2.6523 0 4.8008-2.1602 4.8008-4.8008v-32.125h27.301v128.85zm9.2383-138.47h-184.23v-8.8438h184.24zm0 655.4h-184.23v-6.9609h184.25v6.9609zm-9.2383-16.57h-175v-10.754h175zm9.2383-20.363h-184.23v-8.8555h184.25l-0.003907 8.8555zm-9.2383-18.469h-45.758v-8.8438h13.645c2.6523 0 4.8008-2.1602 4.8008-4.8008v-36.934c0-2.6523-2.1602-4.8008-4.8008-4.8008h-13.656v-8.8438h32.125c2.6523 0 4.8008-2.1602 4.8008-4.8008v-50.59h8.832v119.61zm9.2383-129.21h-184.24v-8.8555h184.23zm-9.2383-64.43v45.961h-45.758v-18.086h13.645c2.6523 0 4.8008-2.1602 4.8008-4.8008v-36.91c0-2.6523-2.1602-4.8008-4.8008-4.8008h-13.656v-27.312h13.656c2.6523 0 4.8008-2.1602 4.8008-4.8008v-34.02h27.301v84.77zm9.6211-84.793h4.4297c2.6523 0 4.8008-2.1602 4.8008-4.8008v-16.559c0-2.6523-2.1602-4.8008-4.8008-4.8008h-4.4297v-59.629h59.809l18.457 0.003907h32.125v147.31h-110.39zm0 71.137h156.56v8.8438h-156.56zm166.15 0h64.238v64.234h-64.234zm73.848 0h156.56v8.8438h-156.56zm166.15 13.656v-84.781h27.312v34.02c0 2.6523 2.1602 4.8008 4.8008 4.8008h13.656v27.312h-13.656c-2.6523 0-4.8008 2.1602-4.8008 4.8008v36.91c0 2.6523 2.1602 4.8008 4.8008 4.8008h13.656v18.086h-45.758v-45.949zm-9.2383 55.562h184.23v8.8555h-184.24zm9.2383 18.477h8.832v50.578c0 2.6523 2.1602 4.8008 4.8008 4.8008h32.125v8.8438l-13.645 0.003907c-2.6523 0-4.8008 2.1602-4.8008 4.8008v36.926c0 2.6523 2.1602 4.8008 4.8008 4.8008h13.656v8.8438h-45.758v-119.6zm-9.2383 129.22h184.25v8.8555h-184.25zm9.2383 18.469h175v10.754l-175-0.003906zm-9.2383 20.352h184.25v6.9609l-184.25-0.003906zm156.92-735.73h27.312v4.2344h-27.312zm-9.6094 27.695v4.2344h-18.086v-4.2344zm-64.238-27.695h36.551v4.2344h-36.551zm-9.6094 27.695v4.2344h-18.086v-4.2344zm-64.238-27.695h36.539v4.2344h-36.539zm-0.011719 13.836h36.551v22.883c0 2.6523 2.1602 4.8008 4.8008 4.8008h27.695c2.6523 0 4.8008-2.1602 4.8008-4.8008v-22.883h36.551v22.883c0 2.6523 2.1602 4.8008 4.8008 4.8008h27.695c2.6523 0 4.8008-2.1602 4.8008-4.8008v-22.883h27.312v55.008h-175.01zm-41.508 78.469h22.715c0.085938 1.9062 1.2461 3.5273 2.9141 4.2344h-25.633zm-9.6133 23.078v4.2344h-18.082v-4.2344zm-64.246-23.078h36.551v4.2344h-36.551zm-9.6133 23.078v4.2344h-18.082v-4.2344zm-64.223-23.078h36.539v4.2344h-36.539zm-27.695 23.078h18.086v4.2344h-18.082zm-46.164-23.078h36.551v4.2344h-36.551zm-27.684 23.078h18.082v4.2344h-18.082zm-46.152-23.078h36.539v4.2344h-36.539zm-27.684 23.078h18.086v4.2344h-18.086zm22.848 13.836h0.035156c2.6523 0 4.8008-2.1602 4.8008-4.8008v-13.836s-0.035156-0.10938-0.035156-0.16797v-4.2617h36.562v18.266c0 2.6523 2.1602 4.8008 4.8008 4.8008h27.707c2.6523 0 4.8008-2.1602 4.8008-4.8008v-13.836l-0.011719-0.058594v-4.3672h36.551v18.266c0 2.6523 2.1602 4.8008 4.8008 4.8008h27.707c2.6523 0 4.8008-2.1602 4.8008-4.8008v-13.836l-0.011719-0.058594v-4.3672l36.562-0.007813v18.266c0 2.6523 2.1602 4.8008 4.8008 4.8008h27.695c2.6523 0 4.8008-2.1602 4.8008-4.8008v-18.266h36.562v4.3672l-0.011719 0.058594v13.836c0 2.6523 2.1602 4.8008 4.8008 4.8008h27.695c2.6523 0 4.8008-2.1602 4.8008-4.8008v-18.266h31.934v45.77l-396.54 0.003907v-45.77h31.906v18.266c0 2.6523 2.1602 4.8008 4.8008 4.8008zm-55.199-36.914h22.738v4.2344h-25.656c1.668-0.70703 2.832-2.3242 2.918-4.2344zm-55.344-92.305h36.539v4.2344h-36.539zm-9.6133 27.695v4.2344h-18.086v-4.2344zm-64.238-27.695h36.551v4.2344h-36.551zm-9.6094 27.695v4.2344l-18.086 0.003906v-4.2344zm-55.008-27.695h27.312v4.2344h-27.312zm27.312 13.836v22.883c0 2.6523 2.1602 4.8008 4.8008 4.8008h27.695c2.6523 0 4.8008-2.1602 4.8008-4.8008v-22.883h36.551v22.883c0 2.6523 2.1602 4.8008 4.8008 4.8008h27.695c2.6523 0 4.8008-2.1602 4.8008-4.8008v-22.883h36.551l-0.011719 55.008h-175v-55.008zm49.258 743.08h21.48l-64.234 64.246h-21.48zm35.078 0h21.48l-64.238 64.246h-21.48zm35.074 0h21.48l-64.234 64.246h-21.48zm35.074 0h21.48l-64.234 64.246h-21.48zm35.078 0h13.512v7.9805l-56.27 56.266h-21.48zm13.512 21.562v21.48l-21.191 21.203h-21.48zm0 42.684h-7.5977l7.5977-7.5977zm18.469-69.047v69.047h-8.8555v-101.16h8.8555zm240-4.8125h-8.8555v-115.29c0-1.2109-0.45703-2.3516-1.2617-3.2539-9.168-9.9727-44.328-23.148-94.309-39.828-0.98438-0.34766-2.0625-0.33594-3.0469-0.011718-49.992 16.703-85.164 29.855-94.32 39.84-0.80469 0.88672-1.2617 2.0391-1.2617 3.2539v115.29h-8.8789v-117.9c0-14.82 58.285-34.414 105.96-50.316 47.594 15.863 105.97 35.484 105.97 50.316zm-36.926 0h-138.08v-103.11c8.6055-4.2969 27.527-12.156 69.047-26.184 34.32 11.605 57.516 20.398 69.035 26.219zm7.1289-110.16c-11.113-6.1211-36.215-15.781-74.629-28.727-1.0078-0.32422-2.0625-0.32422-3.0703 0-38.461 12.949-63.562 22.609-74.629 28.68-1.5352 0.83984-2.4961 2.4609-2.4961 4.2109v106.01h-8.8438v-113.24c12.086-10.211 63.48-27.492 87.504-35.52 24.023 8.0273 75.406 25.32 87.492 35.52v113.24h-8.8438v-105.96c0-1.75-0.96094-3.3711-2.4844-4.2109zm-168.47 119.77h216.73v8.8555h-248.86v-8.8555zm216.72 18.469v8.8438h-248.84v-8.8438zm0 18.453v8.8555h-248.84v-8.8555zm0 18.469v8.8555h-248.84v-8.8438h248.84zm0-97.105v32.113h-8.8438v-117.91c0-20.426-43.043-36.254-114.06-59.941-1.0078-0.3125-2.1602-0.26562-3.1562 0.035156-70.883 23.652-113.94 39.48-113.94 59.902v117.9h-8.8438v-32.098c0-2.6523-2.1602-4.8008-4.8008-4.8008h-18.469c-2.6523 0-4.8008 2.1602-4.8008 4.8008v32.113h-36.539v-16.367c0-2.6523-2.1602-4.8008-4.8008-4.8008h-4.4414v-10.754h4.4414c2.6523 0 4.8008-2.1602 4.8008-4.8008v-18.469c0-2.6523-2.1602-4.8008-4.8008-4.8008h-4.4414v-119.62h4.4414c2.6523 0 4.8008-2.1602 4.8008-4.8008v-18.469c0-2.6523-2.1602-4.8008-4.8008-4.8008h-4.4414v-41.16h156.56v50.578c0 2.6523 2.1602 4.8008 4.8008 4.8008h73.836c2.6523 0 4.8008-2.1602 4.8008-4.8008v-50.578h156.55v41.16h-4.4414c-2.6523 0-4.8008 2.1602-4.8008 4.8008v18.469c0 2.6523 2.1602 4.8008 4.8008 4.8008h4.4414v119.62h-4.4414c-2.6523 0-4.8008 2.1602-4.8008 4.8008v18.469c0 2.6523 2.1602 4.8008 4.8008 4.8008h4.4414v10.754h-4.4414c-2.6523 0-4.8008 2.1602-4.8008 4.8008v16.367h-36.539l0.003906-32.113c0-2.6523-2.1602-4.8008-4.8008-4.8008l-18.469 0.003906c-2.6484-0.011718-4.8086 2.1484-4.8086 4.7969zm9.6094 92.305v-87.504h8.8438v101.16h-8.8438zm95.027-50.59h21.48l-64.234 64.246h-21.48zm-29.16 64.246 64.246-64.246h21.48l-64.234 64.246zm99.324-64.246h21.48l-64.234 64.246h-21.48zm35.078 0h21.48l-64.238 64.246h-21.48zm35.074 0h13.5v7.9805l-56.254 56.266h-21.48zm13.5 21.574v21.492l-21.18 21.18h-21.48zm0 42.672h-7.5859l7.5859-7.5859z"/>
</svg>
