<?xml version="1.0" encoding="UTF-8"?>
<svg width="1200pt" height="1200pt" version="1.1" viewBox="0 0 1200 1200" xmlns="http://www.w3.org/2000/svg">
 <path d="m530.76 925.97c-8.4375-17.156-65.016-26.062-121.4-34.922-11.672-1.8281-23.344-3.6562-34.688-5.625-23.344 3.375-44.766 7.3125-60.562 12.797-12.516 4.3125-21 9.0938-22.828 14.625l-1.0312 70.031c27.234-13.875 72.609-19.641 118.12-25.453 56.672-7.2188 113.53-14.484 122.39-31.406zm-147.74-415.31c-0.79688 0.1875-1.5938 0.32812-2.4375 0.32812-43.359 6.1875-79.641 13.688-83.906 27.469l-0.046875 3.6094c5.1094 17.766 62.766 26.859 120.66 35.953 5.3438 0.84375 10.734 1.6875 16.078 2.5312 27.516-3.6562 53.859-7.6406 73.922-13.641 16.266-4.8281 27.469-10.359 29.672-17.156l1.0312-69.797c-27.562 14.203-73.641 20.109-119.62 25.969-11.906 1.5469-23.859 3.0469-35.297 4.6406zm-85.547-56.016c0.32812-1.0781 0.46875-2.1562 0.46875-3.3281l0.9375-64.969c26.812 14.672 72 21.75 117.33 28.875 5.7656 0.89062 11.484 1.8281 17.203 2.7188 0.32812 0.09375 0.70312 0.14062 1.0781 0.1875 49.828 7.9688 95.625 16.734 103.17 32.016-8.8594 16.922-65.719 24.188-122.39 31.406-11.719 1.5-23.438 3-34.828 4.6406-23.203-4.0781-44.438-8.625-60.141-14.531-12.984-4.9219-21.516-10.219-22.594-16.078-0.046876-0.32812-0.14063-0.60938-0.1875-0.9375zm88.266-131.16c-0.79688 0.1875-1.5938 0.32812-2.4375 0.32812-43.359 6.1875-79.641 13.688-83.906 27.469l-0.046875 3.6094c5.1094 17.812 62.766 26.859 120.66 35.953 5.3438 0.84375 10.734 1.6875 16.078 2.5312 27.516-3.6562 53.859-7.6406 73.922-13.641 16.266-4.8281 27.469-10.359 29.672-17.156l1.0312-69.797c-27.562 14.203-73.641 20.109-119.62 25.969-11.906 1.5469-23.859 3.0469-35.297 4.6406zm511.4 714.19c-8.4375-17.156-65.016-26.062-121.4-34.922-11.672-1.8281-23.344-3.6562-34.688-5.625-23.344 3.375-44.766 7.3125-60.562 12.797-12.516 4.3125-21 9.0938-22.828 14.625l-1.0312 70.031c27.234-13.875 72.609-19.641 118.12-25.453 56.672-7.2188 113.53-14.484 122.39-31.406zm-238.74-96.984c0.09375-0.32812 0.1875-0.65625 0.23438-0.9375 3.8906-18.281 62.766-25.781 121.87-33.328 5.3906-0.70312 10.781-1.3594 16.125-2.0625 27.375 4.4062 53.578 9.1875 73.5 15.75 16.078 5.2969 27.094 11.156 29.156 17.906l-1.0312 69.844c-27.094-15-73.031-22.219-118.83-29.391-11.906-1.875-23.766-3.75-35.203-5.6719-0.75-0.1875-1.5469-0.32812-2.3438-0.375-44.062-7.5938-80.672-16.359-83.344-30.797-0.046874-0.28125-0.14062-0.60938-0.1875-0.89062zm88.266-131.21c-0.79688 0.1875-1.6406 0.32812-2.4375 0.32812-43.359 6.1875-79.594 13.688-83.906 27.469l-1.0312 70.078c27.234-13.875 72.609-19.641 118.12-25.453 5.7656-0.75 11.531-1.4531 17.297-2.2031 0.375-0.046875 0.75-0.09375 1.0781-0.14062 52.078-6.7969 99.797-14.531 104.77-30.891l1.0312-69.797c-27.562 14.203-73.641 20.109-119.62 25.969-11.906 1.5469-23.859 3.0469-35.297 4.6406zm-85.547-56.016c0.32812-1.0781 0.46875-2.1562 0.46875-3.3281l0.9375-64.969c26.812 14.672 72 21.75 117.33 28.875 5.7656 0.89062 11.531 1.8281 17.203 2.7188 0.32812 0.09375 0.70312 0.14062 1.0781 0.1875 49.828 7.9688 95.625 16.734 103.17 32.016-8.8594 16.922-65.719 24.188-122.39 31.406-11.719 1.5-23.438 3-34.828 4.6406-23.203-4.0781-44.438-8.625-60.141-14.531-12.984-4.9219-21.516-10.219-22.594-16.078-0.046875-0.32812-0.14062-0.60938-0.1875-0.9375zm4.5938-286.87c5.1094 17.812 62.766 26.859 120.66 35.953 5.3438 0.84375 10.734 1.6875 16.078 2.5312 27.516-3.6562 53.859-7.6406 73.922-13.641 16.266-4.8281 27.469-10.359 29.672-17.156l1.0312-69.797c-27.562 14.203-73.641 20.109-119.62 25.969-58.172 7.4062-116.16 14.812-121.64 32.484l-0.046875 3.6094zm-1.9219 99.703c0.32812-1.0781 0.46875-2.1562 0.46875-3.3281l0.9375-64.969c26.812 14.672 72 21.75 117.33 28.875 5.7656 0.89062 11.484 1.8281 17.203 2.7188 0.32812 0.09375 0.70312 0.14062 1.0781 0.1875 49.828 7.9688 95.625 16.734 103.17 32.016-8.8594 16.922-65.719 24.188-122.39 31.406-11.719 1.5-23.438 3-34.828 4.6406-23.203-4.0781-44.438-8.625-60.141-14.531-12.984-4.9219-21.516-10.219-22.594-16.078-0.046875-0.32812-0.14062-0.60938-0.1875-0.9375zm-129.1-297.28c-17.766 12.75-67.312 19.078-116.72 25.359-11.719 1.5-23.438 3-34.828 4.6406-23.203-4.0781-44.438-8.625-60.141-14.531-12.984-4.9219-21.516-10.219-22.594-16.078-0.046874-0.32812-0.14062-0.60937-0.1875-0.9375 0.32813-1.0781 0.46875-2.1562 0.46875-3.3281l1.0781-72.609c24.797 12.891 66.891 27.844 117.8 43.734 1.875 1.2188 4.0781 1.9219 6.375 1.9688 33.469 10.312 70.453 21 108.8 31.781zm133.69 11.391c47.953 13.172 94.078 26.016 133.97 37.922 0.32812-0.09375 0.70312-0.14063 1.0312-0.1875 28.125-3.7031 55.219-7.7344 75.656-13.828 16.266-4.8281 27.469-10.359 29.672-17.156l1.0312-69.797c-27.562 14.203-73.641 20.109-119.62 25.969-58.172 7.4062-116.16 14.812-121.64 32.484l-0.09375 4.5469zm-366.32-112.97c3.7969 7.5938 53.812 24.422 123.84 45.094 31.031-4.125 64.219-10.5 88.172-19.406 15.422-5.7188 26.25-11.766 28.312-17.672l1.0312-69.75c-27.562 14.203-73.641 20.109-119.62 25.969-58.172 7.4062-116.16 14.812-121.64 32.484l-0.046876 3.2812zm262.36 185.16 1.0781-74.953c23.484 6.5156 47.203 13.031 70.688 19.453l16.125 4.4062 0.09375 0.046875 0.5625 0.1875c124.69 34.219 237.84 65.484 252.89 74.203-10.969 16.031-66.375 23.109-121.64 30.141-6.7031 0.84375-13.406 1.7344-20.062 2.5781-0.46875-0.1875-0.9375-0.375-1.4062-0.51562-37.453-10.688-69.891-19.688-103.97-29.156-26.906-7.4531-54.938-15.234-94.453-26.438zm-4.125 286.13v-0.23438c0.046875-0.32812 0.046875-0.65625 0-1.0312v-0.1875c0.046875-1.7812-0.32812-3.4219-0.98438-4.9688-5.5312-18.469-28.031-29.953-58.172-38.25 4.5938-1.0781 9-2.25 13.172-3.4688 23.812-7.125 40.922-17.391 46.125-33.234 0.75-1.6406 1.1719-3.4219 1.125-5.2969v-1.1719l1.4531-99.562v-0.46875c0.14062-2.0625-0.23438-4.0781-1.0312-5.8594-5.625-18.375-28.078-29.766-58.125-38.016 4.5938-1.0781 9-2.25 13.172-3.4688 20.25-6.0469 35.625-14.344 42.984-26.438 34.875 9.8438 64.172 17.953 92.297 25.781 17.672 4.9219 34.875 9.6562 54.891 15.281-34.969 7.7344-61.266 19.359-65.812 40.641-0.23438 1.0781-0.32812 2.1562-0.23438 3.1875l-0.09375 5.3438c0 0.32812-0.046875 0.60938 0 0.9375l-1.3594 94.5c0 1.125 0.14062 2.25 0.375 3.2812-0.5625 1.7812-0.65625 3.75-0.28125 5.7188 2.9062 15.844 17.156 26.766 38.156 34.734 2.9531 1.125 6.0938 2.2031 9.3281 3.2344-9.8906 2.9062-18.703 6.2812-26.062 10.312-34.312 6.2812-68.203 12.609-100.92 18.844zm-182.11 34.688c-23.391-4.0781-44.812-8.6719-60.656-14.625-12.984-4.9219-21.516-10.219-22.594-16.078-0.046876-0.32812-0.14063-0.60938-0.1875-0.9375 0.32812-1.0781 0.46875-2.1562 0.46875-3.3281l0.9375-64.969c26.812 14.672 72 21.75 117.33 28.875 5.7656 0.89062 11.484 1.8281 17.203 2.7188 0.32812 0.09375 0.70312 0.14062 1.0781 0.1875 51.75 8.2969 99.188 17.391 103.88 33.844l-0.046874 4.3125c-21 3.9844-41.391 7.9219-60.938 11.672-31.969 6.1406-61.875 11.859-84.281 16.078-4.6406 0.89062-8.625 1.5938-12.141 2.25zm295.64-33.562c-1.5469 1.7812-3.6094 3.1875-5.9531 3.8438-2.4375 1.9688-4.0781 4.125-4.7812 6.4688l-0.046875 3.6094c5.1094 17.766 62.766 26.859 120.66 35.953 5.3438 0.84375 10.734 1.6875 16.078 2.5312 27.516-3.6562 53.859-7.6406 73.922-13.641 16.266-4.8281 27.469-10.359 29.672-17.156l1.0312-69.797c-27.562 14.203-73.641 20.109-119.62 25.969-11.906 1.5469-23.859 3.0469-35.297 4.6406-0.79688 0.1875-1.5938 0.32812-2.4375 0.32812-31.078 4.4062-58.5 9.5625-73.125 17.156zm-245.11 153 1.5938-0.1875c27.375 4.4062 53.578 9.1875 73.453 15.75 16.078 5.2969 27.094 11.156 29.156 17.906l-1.0312 69.844c-27.094-15-73.031-22.219-118.83-29.391-11.906-1.875-23.766-3.75-35.203-5.6719-0.75-0.1875-1.5469-0.32812-2.3438-0.375-44.062-7.5938-80.672-16.359-83.344-30.797-0.046874-0.28125-0.14062-0.60938-0.1875-0.89062 0.09375-0.32812 0.1875-0.65625 0.23438-0.9375 3.8906-18.281 62.766-25.781 121.87-33.328 4.875-0.60938 9.7031-1.2188 13.5-1.7344 0.375-0.046875 0.70312-0.09375 1.0781-0.14062zm208.26-43.875c-44.25 8.2969-76.734 15.656-108.52 22.828-11.672 2.625-23.25 5.25-35.297 7.875 6.5156 1.6406 12.656 3.375 18.328 5.25 23.672 7.8281 40.5 18.609 45.141 34.688 0.65625 1.5938 0.98438 3.2812 0.9375 5.0625v0.98438l-1.4531 99.609c0.046875 0.46875 0.046875 0.98438 0 1.4531-0.046875 1.7344-0.42188 3.375-1.125 4.9219-10.922 33.328-77.391 41.766-143.58 50.25-59.109 7.5469-117.98 15.047-121.87 33.328-1.4062 6.6562-7.9688 10.922-14.625 9.5156-6.1406-1.3125-10.266-6.9844-9.75-13.078l1.4531-99.891c-0.046876-1.0781 0.046874-2.1094 0.23437-3.1875 3.375-15.75 17.906-26.25 39.188-33.562 3-1.0312 6.1875-2.0156 9.4688-2.9531-25.922-8.3906-44.297-19.922-47.531-37.641-0.375-1.9688-0.23437-3.8906 0.28125-5.6719-0.375-1.3125-0.46875-2.7188-0.375-4.1719l1.4062-98.859v-0.79688c0.98438-21.703 19.828-32.016 49.266-39.562-3.375-1.0781-6.6562-2.2031-9.7031-3.3281-21.047-7.9688-35.25-18.844-38.156-34.734-0.375-1.9688-0.23437-3.9375 0.28125-5.7188-0.28125-1.0312-0.42187-2.1562-0.375-3.2812l1.3594-94.453v-0.9375l0.09375-5.2969c-0.046876-1.0781 0.046874-2.1094 0.23437-3.1875 3.75-17.625 22.406-28.594 48.609-36.281-3.2344-1.0312-6.375-2.1094-9.3281-3.2344-21.047-7.9688-35.25-18.844-38.156-34.734-0.375-1.9688-0.23437-3.9375 0.28125-5.7188-0.28125-1.0312-0.42187-2.1562-0.375-3.2812l1.3594-94.5v-0.9375l0.09375-5.3438c-0.046876-1.0781 0.046874-2.1094 0.23437-3.1875 3.75-17.625 22.406-28.594 48.609-36.281-3.2344-1.0312-6.375-2.1094-9.3281-3.2344-21.047-7.9688-35.25-18.844-38.156-34.734-0.375-1.9688-0.23437-3.9375 0.28125-5.7188-0.28125-1.0312-0.42187-2.1562-0.375-3.2812l1.3594-94.5v-0.9375l0.09375-5.3438c-0.046876-1.0781 0.046874-2.1094 0.23437-3.1875 7.5469-35.391 75.094-44.016 142.92-52.641 59.578-7.5938 119.34-15.234 123.37-34.125 1.4062-6.6562 7.9688-10.922 14.625-9.5156 6.1406 1.3125 10.266 6.9844 9.75 13.078l-1.4531 99.891c0.046875 0.5625 0.046875 1.125-0.046875 1.6875-0.046875 1.7344-0.46875 3.375-1.1719 4.8281-4.875 14.109-21.094 24.938-43.172 33.141-12.469 4.6406-27.141 8.625-42.562 12 50.859 14.438 107.44 30 162.56 45.141l1.1719 0.32812c0.046875-0.70312 0.09375-1.4062 0.28125-2.1094 7.5469-35.391 75.094-44.016 142.92-52.641 59.578-7.5938 119.34-15.234 123.37-34.078 1.4062-6.6562 7.9688-10.922 14.625-9.5156 6.1406 1.3125 10.266 6.9844 9.75 13.078l-1.4531 99.891c0.046875 0.5625 0.046875 1.125-0.046875 1.6875-0.046875 1.6406-0.42188 3.1875-1.0312 4.5938-5.0625 15.984-22.266 26.297-46.172 33.469-9.1406 2.7188-19.406 5.0625-30.422 7.125 30.281 10.125 53.344 19.359 65.859 27.234 0.28125 0.046875 0.51562 0.09375 0.79688 0.14062 6.0938 1.3125 10.172 6.8438 9.75 12.891v0.46875l-1.4531 99.609c0.046875 0.5625 0.046875 1.125-0.046875 1.6875-0.046875 1.6406-0.42188 3.1875-1.0312 4.5938-5.0625 15.984-22.266 26.297-46.172 33.422-4.1719 1.2656-8.5781 2.3906-13.172 3.4688 30 8.25 52.453 19.688 58.125 38.016 0.79688 1.7812 1.1719 3.7969 1.0312 5.8594v0.46875l-1.4531 99.609c0.046875 0.375 0.046875 0.75 0 1.1719 0.046875 1.875-0.375 3.7031-1.125 5.2969-5.1562 15.844-22.266 26.109-46.125 33.234-4.1719 1.2656-8.5781 2.3906-13.172 3.4688 30 8.25 52.453 19.641 58.125 38.016 0.79688 1.7812 1.1719 3.7969 1.0781 5.8594v0.46875l-1.4531 99.562c0.046875 0.375 0.046875 0.75 0 1.1719 0.046875 1.9219-0.375 3.75-1.1719 5.3906-6.0938 18.234-28.922 29.016-59.203 36.422 4.5469 1.2188 8.9062 2.5312 13.031 3.8438 23.672 7.8281 40.5 18.609 45.141 34.688 0.65625 1.5938 0.98438 3.2812 0.9375 5.0625v0.98438l-1.4531 99.562c0.046875 0.46875 0.046875 0.98438 0 1.5-0.046875 1.7344-0.42188 3.375-1.125 4.9219-10.969 33.281-77.391 41.766-143.58 50.25-59.109 7.5469-117.98 15.047-121.87 33.328-1.4062 6.6562-7.9688 10.922-14.625 9.5156-6.1406-1.3125-10.266-6.9844-9.75-13.078l1.4531-99.891c-0.046875-1.0781 0.046875-2.1094 0.23438-3.1875 3.375-15.75 17.906-26.25 39.188-33.562 3-1.0312 6.1875-2.0156 9.4688-2.9531-25.922-8.3906-44.297-19.922-47.531-37.641-0.375-1.9688-0.23438-3.8906 0.28125-5.6719-0.375-1.3125-0.46875-2.7188-0.375-4.1719l1.4531-99.891c-0.046875-1.0781 0.046875-2.1094 0.23438-3.1875 3.75-17.625 22.406-28.594 48.609-36.281-3.2344-1.0312-6.375-2.1094-9.3281-3.2344-21.047-7.9688-35.25-18.844-38.156-34.734-0.375-1.9688-0.23438-3.9375 0.28125-5.7188-0.28125-1.0312-0.42188-2.1562-0.375-3.2812v-0.89062zm-1.2188-24.844c0.51562-0.09375 1.0781-0.14062 1.5938-0.1875l0.98438-68.578v-0.9375l0.09375-5.25c-53.297 9.8906-108.84 20.531-159.14 30.141-29.016 5.5781-56.203 10.781-84.375 16.078-6 1.125-14.719 2.7188-23.109 4.2188-44.812 8.0625-77.203 13.875-77.766 26.25v0.1875l-1.0312 69.703c27.234-13.875 72.609-19.641 118.12-25.453 3.9844-0.51562 7.9688-1.0312 13.406-1.7344 38.859-7.3125 68.391-13.969 98.578-20.812 32.719-7.3594 66.141-14.906 112.69-23.625z" fill-rule="evenodd"/>
</svg>
