<?xml version="1.0" encoding="UTF-8"?>
<svg width="1200pt" height="1200pt" version="1.1" viewBox="0 0 1200 1200" xmlns="http://www.w3.org/2000/svg">
 <path d="m1119.3 249.89-10.547-10.641-158.39-158.29c-13.453-13.453-31.266-20.859-50.156-20.906-17.719 0.51562-36.703 7.3125-50.062 20.672l-769.5 769.45c-13.359 13.359-20.719 31.125-20.672 50.062 0.046875 18.891 7.4531 36.703 20.906 50.156l168.94 168.98c13.781 13.781 31.875 20.672 49.969 20.672s36.234-6.8906 49.969-20.672l769.55-769.55c27.562-27.562 27.562-72.375 0-99.984zm-1029.3 650.26c0-10.875 4.2188-21.094 11.906-28.781l42.703-42.703 53.859 53.859c2.9531 2.9531 6.75 4.4062 10.594 4.4062s7.6875-1.4531 10.594-4.4062c5.8594-5.8594 5.8594-15.375 0-21.234l-53.859-53.859 89.297-89.297 30.469 30.422c2.9531 2.9531 6.75 4.4062 10.594 4.4062s7.6875-1.4531 10.594-4.4062c5.8594-5.8594 5.8594-15.375 0-21.234l-30.469-30.422 89.297-89.297 30.469 30.469c2.9062 2.9062 6.75 4.4062 10.594 4.4062s7.6875-1.4531 10.594-4.4062c5.8594-5.8594 5.8594-15.375 0-21.234l-30.469-30.469 89.297-89.297 53.859 53.906c2.9531 2.9531 6.75 4.4062 10.594 4.4062s7.6875-1.4531 10.594-4.4062c5.8594-5.8594 5.8594-15.375 0-21.234l-53.859-53.906 89.297-89.297 30.469 30.469c2.9531 2.9531 6.75 4.4062 10.594 4.4062s7.6875-1.4531 10.594-4.4062c5.8594-5.8594 5.8594-15.375 0-21.234l-30.469-30.469 89.297-89.297 30.469 30.469c2.9531 2.9531 6.75 4.4062 10.594 4.4062s7.6875-1.4531 10.594-4.4062c5.8594-5.8594 5.8594-15.375 0-21.234l-30.469-30.469 89.297-89.297 53.906 53.906c2.9531 2.9531 6.75 4.4062 10.594 4.4062s7.6875-1.4531 10.594-4.4062c5.8594-5.8594 5.8594-15.375 0-21.234l-53.906-53.906 42.656-42.656c7.6875-7.6875 17.859-11.906 28.688-11.906h0.09375c10.922 0.046875 21.234 4.3594 29.016 12.141l123.74 123.74-827.02 827.34-123.74-123.74c-7.7812-7.7812-12.094-18.094-12.141-29.016zm1008.1-571.5-769.5 769.5c-15.844 15.844-41.672 15.891-57.562 0l-23.953-23.953 827.06-827.06 23.953 23.953c15.844 15.844 15.844 41.672 0 57.562z"/>
</svg>
