<?xml version="1.0" encoding="UTF-8"?>
<svg width="1200pt" height="1200pt" version="1.1" viewBox="0 0 1200 1200" xmlns="http://www.w3.org/2000/svg">
 <path d="m1076.5 243.79-103.31-108.84c-17.812-18.422-47.203-20.016-66.891-3.7031l-447.24 370.5c-16.594-4.8281-35.016-1.6406-49.312 10.125l-273.05 225.74c-12.797 10.594-18.656 26.672-15.656 43.031s14.156 29.297 29.859 34.688l10.219 3.5156c14.344 4.9219 26.203 15.609 32.531 29.344l89.297 193.69c8.5312 18.469 24.75 31.734 44.531 36.422 5.0625 1.2188 10.172 1.7812 15.234 1.7812 14.719 0 29.062-4.9688 40.875-14.438l166.26-133.08c12.094-9.6562 19.406-23.953 20.672-39.094l85.359-70.219c3.3281-2.7656 4.9219-7.0312 4.2188-11.297l-7.8281-45.938 41.25-6.6094c6.3281-1.0312 10.781-6.8438 10.031-13.219l-4.8281-42.141 41.859-6.7031c6.3281-1.0312 10.781-6.8438 10.031-13.219l-4.8281-42.094 41.812-6.6562c6.3281-1.0312 10.781-6.8438 10.031-13.219l-4.8281-42.094 41.859-6.6562c6.3281-1.0312 10.781-6.8438 10.031-13.219l-4.8281-42.094 41.812-6.6562c6.3281-1.0312 10.781-6.8438 10.031-13.219l-4.8281-42.094 41.812-6.6562c6.3281-1.0312 10.781-6.8438 10.031-13.219l-4.8281-42.047 41.812-6.6562c6.375-1.0312 10.781-6.8438 10.031-13.219l-4.8281-42.047 41.812-6.6094c6.375-0.98438 10.781-6.8438 10.031-13.219l-4.875-42 41.766-6.6562c4.4062-0.70313 8.0625-3.7969 9.5156-8.0156 1.4531-4.2188 0.42187-8.9062-2.6719-12.141zm-541.6 669.98-166.26 133.08c-10.078 8.0625-23.062 11.016-35.625 8.0156-12.562-2.9531-22.828-11.391-28.266-23.109l-89.297-193.64c-9.0469-19.688-26.016-35.016-46.547-42l-10.219-3.5156c-7.3594-2.5312-12.609-8.625-14.016-16.266-1.4062-7.6875 1.3594-15.234 7.3594-20.203l273.05-225.74c5.5781-4.5938 12.375-6.8906 19.078-6.8906 7.6406 0 15.281 2.9531 21.094 8.7656l86.625 86.156c8.0625 8.0156 10.875 20.109 7.2188 30.844l-31.031 91.453c-0.60938 1.7812-0.79688 3.6562-0.51562 5.4844l19.031 138.42c1.5469 11.062-2.9531 22.219-11.672 29.203zm477.84-665.16c-6.375 1.0312-10.781 6.8438-10.031 13.219l4.875 42-41.766 6.6094c-6.375 0.98438-10.781 6.8438-10.031 13.219l4.8281 42.047-41.812 6.6562c-6.375 1.0312-10.781 6.8438-10.031 13.219l4.8281 42.047-41.812 6.6562c-6.3281 1.0312-10.781 6.8438-10.031 13.219l4.8281 42.094-41.812 6.6562c-6.3281 1.0312-10.781 6.8438-10.031 13.219l4.8281 42.094-41.859 6.6562c-6.3281 1.0312-10.781 6.8438-10.031 13.219l4.8281 42.094-41.812 6.6562c-6.3281 1.0312-10.781 6.8438-10.031 13.219l4.8281 42.094-41.859 6.7031c-6.3281 1.0312-10.781 6.8438-10.031 13.219l4.8281 42.141-41.906 6.7031c-3.1875 0.51562-6 2.25-7.875 4.875s-2.625 5.8594-2.0625 9l8.7188 51.047-67.266 55.312-16.312-118.78 30.141-88.734c6.5625-19.359 1.4531-41.156-13.031-55.547l-86.625-86.156c-0.28125-0.28125-0.60937-0.46875-0.84375-0.70312l440.29-364.74c10.125-8.3906 25.219-7.5938 34.266 1.8281l87.516 92.203-30.609 4.875zm-555.32 496.6c-0.75-5.4844-3.3281-10.688-7.3125-14.625l-63.422-63.094c-9.5156-9.5156-24.891-9.9375-34.969-1.0312l-66.938 59.25c-10.172 9.0469-11.484 24.422-3 35.109l54.094 67.781 39.094 121.69c2.6719 8.3438 9.3281 14.625 17.766 16.875 2.2031 0.5625 4.4062 0.84375 6.6094 0.84375 6.2812 0 12.422-2.3438 17.203-6.7031l52.734-48.328c6.1875-5.6719 9.2344-14.016 8.0625-22.312l-19.969-145.5zm-4.2656 150.1-52.781 48.328c-0.14062 0.14062-0.65625 0.5625-1.4531 0.375-0.84375-0.23438-1.0312-0.84375-1.0781-1.0312l-39.094-121.69c-0.9375-2.9531-2.4375-5.7188-4.3594-8.1094l-53.812-67.312c-0.51562-0.65625-0.46875-1.5938 0.1875-2.1562l66.938-59.25c0.28125-0.28125 0.65625-0.375 1.0312-0.375 0.42188 0 0.79688 0.14062 1.125 0.46875l63.844 63.984 19.969 145.5c0.09375 0.51562-0.14062 1.0312-0.51562 1.3594zm-10.172-264.1c8.0156 0 16.031-2.8125 22.5-8.5312 6.7969-6 10.828-14.344 11.391-23.391s-2.4844-17.812-8.4844-24.609c-12.422-14.016-33.938-15.375-48-2.9062-6.7969 6-10.828 14.344-11.391 23.391s2.4844 17.812 8.4844 24.609c6.7031 7.5938 16.078 11.438 25.5 11.438zm-6.6562-41.438c1.9219-1.6875 4.2656-2.4844 6.6094-2.4844 2.7656 0 5.5312 1.125 7.5 3.375 3.6562 4.125 3.2812 10.453-0.84375 14.109s-10.453 3.2812-14.109-0.89062c-1.7812-2.0156-2.6719-4.5469-2.4844-7.2188s1.3594-5.1094 3.3281-6.8906zm476.86-397.64c-14.016 12.422-15.328 33.938-2.9531 48 6.0469 6.7969 14.344 10.828 23.391 11.391 0.70313 0.046874 1.4062 0.09375 2.1094 0.09375 8.2969 0 16.219-3 22.5-8.5781 6.7969-6 10.828-14.297 11.391-23.391 0.5625-9.0469-2.4375-17.812-8.4844-24.609-12.469-14.016-33.938-15.375-48-2.9531zm32.484 26.062c-0.1875 2.6719-1.3594 5.1094-3.3281 6.8906-2.0156 1.7812-4.5938 2.625-7.2188 2.4844-2.6719-0.1875-5.1094-1.3594-6.8906-3.3281-3.6562-4.125-3.2812-10.453 0.89062-14.109 1.875-1.6875 4.2656-2.5312 6.6094-2.5312 2.7656 0 5.5312 1.1719 7.5 3.375 1.7812 2.0156 2.6719 4.5469 2.4844 7.2188z"/>
</svg>
