<?xml version="1.0" encoding="UTF-8"?>
<svg width="1200pt" height="1200pt" version="1.1" viewBox="0 0 1200 1200" xmlns="http://www.w3.org/2000/svg">
 <path d="m224.95 1087.2v-862.22c-15.656 11.766-35.156 18.75-56.25 18.75-51.75 0-93.703-41.953-93.703-93.703v-37.5c0-51.75 41.953-93.703 93.703-93.703h712.26c51.75 0 93.703 41.953 93.703 93.703v843.47h56.25c51.75 0 93.703 41.953 93.703 93.703v37.5c0 51.75-41.953 93.703-93.703 93.703h-712.26c-51.75 0-93.703-41.953-93.703-93.703zm168.71 56.25h637.31c31.078 0 56.25-25.172 56.25-56.25v-37.5c0-31.078-25.172-56.25-56.25-56.25h-637.31c11.766 15.656 18.75 35.156 18.75 56.25v37.5c0 21.094-6.9844 40.547-18.75 56.25zm-224.95-1087.2c-31.078 0-56.25 25.172-56.25 56.25v37.5c0 31.078 25.172 56.25 56.25 56.25s56.25-25.172 56.25-56.25v-37.5c0-31.078-25.172-56.25-56.25-56.25zm149.95 899.72h618.56v-843.47c0-31.078-25.172-56.25-56.25-56.25h-637.31c11.766 15.656 18.75 35.156 18.75 56.25v862.22c15.656-11.766 35.156-18.75 56.25-18.75zm56.25-281.16c-10.359 0-18.75-8.3906-18.75-18.75s8.3906-18.75 18.75-18.75h449.86c10.359 0 18.75 8.3906 18.75 18.75s-8.3906 18.75-18.75 18.75zm0-149.95c-10.359 0-18.75-8.3906-18.75-18.75s8.3906-18.75 18.75-18.75h449.86c10.359 0 18.75 8.3906 18.75 18.75s-8.3906 18.75-18.75 18.75zm0-149.95c-10.359 0-18.75-8.3906-18.75-18.75s8.3906-18.75 18.75-18.75h449.86c10.359 0 18.75 8.3906 18.75 18.75s-8.3906 18.75-18.75 18.75zm0-149.95c-10.359 0-18.75-8.3906-18.75-18.75s8.3906-18.75 18.75-18.75h449.86c10.359 0 18.75 8.3906 18.75 18.75s-8.3906 18.75-18.75 18.75zm0 599.81c-10.359 0-18.75-8.3906-18.75-18.75s8.3906-18.75 18.75-18.75h449.86c10.359 0 18.75 8.3906 18.75 18.75s-8.3906 18.75-18.75 18.75zm-112.45 224.95v37.5c0 31.078 25.172 56.25 56.25 56.25s56.25-25.172 56.25-56.25v-37.5c0-31.078-25.172-56.25-56.25-56.25s-56.25 25.172-56.25 56.25z" fill-rule="evenodd"/>
</svg>
