<?xml version="1.0" encoding="UTF-8"?>
<svg width="1200pt" height="1200pt" version="1.1" viewBox="0 0 1200 1200" xmlns="http://www.w3.org/2000/svg">
 <path d="m678.9 278.83c-61.98-0.023437-123.96 23.516-171.14 70.699-80.602 80.605-92.324 204.45-35.238 297.67l-169.85 146.2h0.003907c-0.33203 0.30859-0.65234 0.62891-0.96094 0.96094-29.082 29.082-30.469 76.391-1.6992 105.16 28.801 28.801 78.359 29.781 106.27-2.6562l146.02-169.78c93.223 57.207 217.12 45.422 297.79-35.238 94.367-94.371 94.367-247.84 0-342.21-47.184-47.188-109.2-70.785-171.18-70.812zm0 37.527c52.23 0.023437 104.46 20.035 144.43 60 79.93 79.93 80.039 208.92 0.11328 288.86-79.93 79.93-209 79.93-288.93 0-8.1484-8.1484-15.469-16.801-21.957-25.867-57.145-79.867-49.824-191.28 21.957-263.06 39.965-39.965 92.16-59.949 144.39-59.926zm0.62891 43.875c-9.0859-0.027344-18.148 0.71875-27.086 2.2148-31.77 5.3203-62.016 20.195-86.051 43.801h0.003906c-3.5898 3.5078-5.6328 8.3008-5.6797 13.32-0.050782 5.0195 1.9023 9.8516 5.4219 13.43 3.5234 3.5742 8.3242 5.5977 13.344 5.625 5.0195 0.03125 9.8438-1.9414 13.406-5.4727 36.84-36.18 92.168-45.344 138.78-23.137 4.5312 2.1719 9.7383 2.4492 14.477 0.77344 4.7344-1.6758 8.6094-5.168 10.762-9.707 2.1758-4.5273 2.4531-9.7383 0.77734-14.473-1.6758-4.7383-5.168-8.6133-9.707-10.766-21.859-10.414-45.234-15.535-68.449-15.609zm-184.76 317.64c4.1211 4.8242 8.4258 9.5352 12.988 14.098 4.5156 4.5195 9.1719 8.793 13.949 12.879l-144.13 167.34c-13.039 15.152-36.98 14.492-50.773 0.69922-13.785-13.785-13.652-36.41 1.5508-51.734z" fill-rule="evenodd"/>
</svg>
