<?xml version="1.0" encoding="UTF-8"?>
<svg width="1200pt" height="1200pt" version="1.1" viewBox="0 0 1200 1200" xmlns="http://www.w3.org/2000/svg">
 <path d="m241.75 713h-229.25c-6.9023 0-12.5-5.5977-12.5-12.5v-61c0-6.9023 5.5977-12.5 12.5-12.5h228.75c6.9023 0 12.5 5.5977 12.5 12.5s-5.5977 12.5-12.5 12.5h-216.25v36h216.25c6.9023 0 12.5 5.5977 12.5 12.5s-5.5977 12.5-12.5 12.5z"/>
 <path d="m1187.5 713h-235.25c-6.9023 0-12.5-5.5977-12.5-12.5s5.5977-12.5 12.5-12.5h222.75v-36h-222.75c-6.9023 0-12.5-5.5977-12.5-12.5s5.5977-12.5 12.5-12.5h235.25c3.3164 0 6.4961 1.3164 8.8398 3.6602s3.6602 5.5234 3.6602 8.8398v61c0 3.3164-1.3164 6.4961-3.6602 8.8398s-5.5234 3.6602-8.8398 3.6602z"/>
 <path d="m888.5 713h-583c-6.9023 0-12.5-5.5977-12.5-12.5s5.5977-12.5 12.5-12.5h583c6.9023 0 12.5 5.5977 12.5 12.5s-5.5977 12.5-12.5 12.5z"/>
 <path d="m888.5 652h-583c-6.9023 0-12.5-5.5977-12.5-12.5s5.5977-12.5 12.5-12.5h583c6.9023 0 12.5 5.5977 12.5 12.5s-5.5977 12.5-12.5 12.5z"/>
 <path d="m888.5 652h-583c-6.9023 0-12.5-5.5977-12.5-12.5s5.5977-12.5 12.5-12.5h583c6.9023 0 12.5 5.5977 12.5 12.5s-5.5977 12.5-12.5 12.5z"/>
 <path d="m1187.5 652h-235.25c-6.9023 0-12.5-5.5977-12.5-12.5s5.5977-12.5 12.5-12.5h222.75v-47.125c-37.5-5.625-155.25-36-234-197-2.7734-6.1719-0.13281-13.434 5.9609-16.379 6.0938-2.9453 13.426-0.50391 16.539 5.5039 45 92 103.62 137.5 144.88 158.88 24.605 13.566 51.68 22.066 79.625 25 3.3164 0 6.4961 1.3164 8.8398 3.6602s3.6602 5.5234 3.6602 8.8398v70.875c0.070312 3.4453-1.2852 6.7695-3.7461 9.1836-2.4609 2.4141-5.8086 3.7031-9.2539 3.5664z"/>
 <path d="m241.75 652h-229.25c-6.9023 0-12.5-5.5977-12.5-12.5v-70.875c0-6.9023 5.5977-12.5 12.5-12.5 1.25 0 132.5-7.75 218.75-172.75 1.4961-3.0156 4.1445-5.3008 7.3477-6.3398 3.1992-1.0352 6.6836-0.73828 9.6641 0.82812 2.9805 1.5664 5.2031 4.2656 6.1641 7.4922 0.96484 3.2266 0.58594 6.7031-1.0508 9.6445-79.125 150.5-190.88 179.38-228.38 184.88v47.125h216.75c6.9023 0 12.5 5.5977 12.5 12.5s-5.5977 12.5-12.5 12.5z"/>
 <path d="m952.25 897.12h-63.75c-6.9023 0-12.5-5.5977-12.5-12.5v-625.88c0-6.9023 5.5977-12.5 12.5-12.5h63.75c3.3164 0 6.4961 1.3164 8.8398 3.6602s3.6602 5.5234 3.6602 8.8398v625.88c0 3.3164-1.3164 6.4961-3.6602 8.8398s-5.5234 3.6602-8.8398 3.6602zm-51.25-25h38.75v-600.88h-38.75z"/>
 <path d="m977.5 953.75h-114.12c-6.9023 0-12.5-5.5977-12.5-12.5v-56.625c0-6.9023 5.5977-12.5 12.5-12.5h114.12c3.3164 0 6.4961 1.3164 8.8398 3.6602s3.6602 5.5234 3.6602 8.8398v56.625c0 3.3164-1.3164 6.4961-3.6602 8.8398s-5.5234 3.6602-8.8398 3.6602zm-101.62-25h89.125v-31.625h-89.125z"/>
 <path d="m305.5 897.12h-63.75c-6.9023 0-12.5-5.5977-12.5-12.5v-625.88c0-6.9023 5.5977-12.5 12.5-12.5h63.75c3.3164 0 6.4961 1.3164 8.8398 3.6602s3.6602 5.5234 3.6602 8.8398v625.88c0 3.3164-1.3164 6.4961-3.6602 8.8398s-5.5234 3.6602-8.8398 3.6602zm-51.25-25h38.75v-600.88h-38.75z"/>
 <path d="m330.75 953.75h-114.12c-6.9023 0-12.5-5.5977-12.5-12.5v-56.625c0-6.9023 5.5977-12.5 12.5-12.5h114.12c3.3164 0 6.4961 1.3164 8.8398 3.6602s3.6602 5.5234 3.6602 8.8398v56.625c0 3.3164-1.3164 6.4961-3.6602 8.8398s-5.5234 3.6602-8.8398 3.6602zm-101.62-25h89.125v-31.625h-89.125z"/>
 <path d="m601.88 558.75h-3.75c-118.75 0-194.88-48.125-237.5-88.625-27.754-25.5-50.219-56.207-66.125-90.375-2.5898-6.3516 0.42188-13.602 6.75-16.25 3.0664-1.2812 6.5156-1.293 9.5898-0.027344 3.0703 1.2695 5.5156 3.707 6.7852 6.7773 2.25 6.5 69.875 163.5 280.5 163.5h3.625c210.75 0 273.25-154.25 275.12-160.88 2.4844-6.4531 9.7344-9.6719 16.188-7.1875s9.6719 9.7344 7.1875 16.188c-0.25 1.875-69.875 176.88-298.38 176.88z"/>
 <path d="m808.25 652c-6.9023 0-12.5-5.5977-12.5-12.5v-160c0-6.9023 5.5977-12.5 12.5-12.5s12.5 5.5977 12.5 12.5v160c0 3.3164-1.3164 6.4961-3.6602 8.8398s-5.5234 3.6602-8.8398 3.6602z"/>
 <path d="m704.25 652c-6.9023 0-12.5-5.5977-12.5-12.5v-107.25c0-6.9023 5.5977-12.5 12.5-12.5s12.5 5.5977 12.5 12.5v107.25c0 3.3164-1.3164 6.4961-3.6602 8.8398s-5.5234 3.6602-8.8398 3.6602z"/>
 <path d="m600 652c-6.9023 0-12.5-5.5977-12.5-12.5v-93.25c0-6.9023 5.5977-12.5 12.5-12.5s12.5 5.5977 12.5 12.5v93.5c-0.13672 6.8047-5.6914 12.25-12.5 12.25z"/>
 <path d="m495.88 652c-6.9023 0-12.5-5.5977-12.5-12.5v-107.12c0-6.9023 5.5977-12.5 12.5-12.5s12.5 5.5977 12.5 12.5v107.12c0 3.3164-1.3164 6.4961-3.6602 8.8398s-5.5234 3.6602-8.8398 3.6602z"/>
 <path d="m391.75 652c-6.9023 0-12.5-5.5977-12.5-12.5v-159.25c0-6.9023 5.5977-12.5 12.5-12.5s12.5 5.5977 12.5 12.5v159.25c0 3.3164-1.3164 6.4961-3.6602 8.8398s-5.5234 3.6602-8.8398 3.6602z"/>
 <path d="m1105.2 652c-6.9023 0-12.5-5.5977-12.5-12.5v-93.25c0-6.9023 5.5977-12.5 12.5-12.5s12.5 5.5977 12.5 12.5v93.5c-0.13672 6.8047-5.6914 12.25-12.5 12.25z"/>
 <path d="m1026 652c-6.9023 0-12.5-5.5977-12.5-12.5v-157.38c0-6.9023 5.5977-12.5 12.5-12.5s12.5 5.5977 12.5 12.5v157.38c0 3.3164-1.3164 6.4961-3.6602 8.8398s-5.5234 3.6602-8.8398 3.6602z"/>
 <path d="m95.125 652c-6.9023 0-12.5-5.5977-12.5-12.5v-96.375c0-6.9023 5.5977-12.5 12.5-12.5s12.5 5.5977 12.5 12.5v96.375c0 6.9023-5.5977 12.5-12.5 12.5z"/>
 <path d="m172.75 652c-6.9023 0-12.5-5.5977-12.5-12.5v-154c0-6.9023 5.5977-12.5 12.5-12.5s12.5 5.5977 12.5 12.5v154c0 3.3164-1.3164 6.4961-3.6602 8.8398s-5.5234 3.6602-8.8398 3.6602z"/>
</svg>
