<?xml version="1.0" encoding="UTF-8"?>
<svg width="1200pt" height="1200pt" version="1.1" viewBox="0 0 1200 1200" xmlns="http://www.w3.org/2000/svg">
 <path d="m600.63 337.85h-0.47266c-29.016 0.52344-56.652 12.469-76.91 33.242-20.262 20.773-31.512 48.703-31.305 77.719-0.035156 4.9727 1.9062 9.7539 5.3984 13.297 3.4922 3.5391 8.2461 5.5469 13.219 5.582h0.13672c4.9492-0.003906 9.6953-1.9609 13.207-5.4492 3.5117-3.4883 5.5039-8.2227 5.5391-13.172-0.28906-19.121 6.9727-37.582 20.211-51.383 13.234-13.801 31.379-21.824 50.492-22.336h0.30469c18.258 0.12891 35.703 7.5586 48.445 20.637 14.043 14.285 21.781 33.602 21.48 53.633-0.03125 4.9727 1.9102 9.7539 5.4023 13.293 3.4922 3.5391 8.25 5.5469 13.223 5.582h0.13281-0.003906c4.9531 0 9.6992-1.957 13.211-5.4453 3.5117-3.4922 5.5039-8.2266 5.5352-13.176 0.39453-29.992-11.242-58.895-32.309-80.246-19.723-20.188-46.715-31.633-74.938-31.777z"/>
 <path d="m599.9 310.15c4.9727 0 9.7422-1.9766 13.258-5.4922s5.4922-8.2852 5.4922-13.258v-47.652c0-6.6992-3.5742-12.887-9.375-16.238-5.8008-3.3477-12.949-3.3477-18.75 0-5.8008 3.3516-9.375 9.5391-9.375 16.238v47.652c0 4.9727 1.9766 9.7422 5.4922 13.258s8.2852 5.4922 13.258 5.4922z"/>
 <path d="m526.52 313.12c1.8594 4.5898 5.4414 8.2695 9.9805 10.258 4.5391 1.9844 9.6719 2.1172 14.309 0.37109 4.6328-1.8125 8.3555-5.3867 10.352-9.9414 1.9922-4.5547 2.0977-9.7188 0.28516-14.348l-19.566-50.051 0.003906-0.003906c-2.4414-6.2383-8.0234-10.699-14.648-11.707-6.6211-1.0078-13.281 1.5977-17.465 6.8281-4.1797 5.2344-5.2539 12.301-2.8164 18.539 0 0 19.547 50.008 19.566 50.055z"/>
 <path d="m407.49 385.85 47.945 20.922c6.1406 2.6797 13.242 1.8789 18.633-2.0977 5.3867-3.9805 8.2461-10.531 7.4961-17.188s-4.9922-12.406-11.133-15.086l-47.945-20.922v0.003907c-6.1406-2.6797-13.242-1.8789-18.633 2.0977-5.3906 3.9766-8.2461 10.527-7.4961 17.184s4.9922 12.41 11.133 15.086z"/>
 <path d="m720.43 398.14c1.9961 4.5312 5.6836 8.1055 10.277 9.9609 4.5938 1.8516 9.7305 1.8398 14.312-0.035157l48.219-20.488v-0.003906c6.1523-2.6289 10.438-8.3359 11.246-14.977 0.80859-6.6406-1.9844-13.207-7.3242-17.234-5.3398-4.0273-12.426-4.9062-18.586-2.3047l-48.223 20.488v0.003907c-4.5742 1.9453-8.1914 5.6289-10.055 10.238-1.8594 4.6133-1.8125 9.7734 0.13281 14.352z"/>
 <path d="m650.74 324.19c4.6133 1.8242 9.7578 1.7656 14.324-0.16406 4.5703-1.9336 8.1992-5.582 10.102-10.164l20.262-49.906v0.003906c1.875-4.6094 1.8398-9.7734-0.097656-14.355-1.9336-4.582-5.6094-8.2109-10.219-10.082-4.6094-1.8672-9.7734-1.832-14.355 0.10938-4.582 1.9375-8.207 5.6172-10.074 10.227l-20.262 49.906h0.003906c-1.8711 4.6094-1.8359 9.7695 0.097656 14.352 1.9375 4.5781 5.6133 8.2031 10.219 10.074z"/>
 <path d="m482.58 353.14c3.625 3.3828 8.4297 5.207 13.387 5.0898 4.9531-0.12109 9.668-2.1758 13.125-5.7305 3.4297-3.6016 5.2852-8.418 5.1641-13.387-0.12109-4.9727-2.2109-9.6953-5.8086-13.125l-36.902-35.156c-3.5938-3.4609-8.4219-5.3438-13.41-5.2383-4.9883 0.10938-9.7305 2.2031-13.172 5.8164-3.4414 3.6133-5.3008 8.4492-5.1641 13.438 0.13281 4.9883 2.25 9.7148 5.8828 13.137z"/>
 <path d="m393.65 468.06h0.21094l57.551-0.63281v0.003906c6.6719-0.074219 12.805-3.6914 16.102-9.4922 3.293-5.8047 3.2539-12.922-0.10156-18.691-3.3594-5.7695-9.5273-9.3164-16.203-9.3164h-0.21094l-57.551 0.63281 0.003907-0.003906c-6.6758 0.074219-12.805 3.6875-16.102 9.4922-3.2969 5.8047-3.2578 12.922 0.10156 18.691 3.3555 5.7656 9.5273 9.3164 16.199 9.3164z"/>
 <path d="m729.84 450.19c0.050781 4.9375 2.0469 9.6602 5.5586 13.133 3.5117 3.4766 8.25 5.4258 13.188 5.4258h0.19531l57.559-0.59375h0.003906c6.6875-0.085938 12.828-3.7266 16.109-9.5547 3.2773-5.8281 3.207-12.965-0.19531-18.727-3.3984-5.7617-9.6094-9.2734-16.301-9.2188l-57.559 0.59375c-4.9727 0.050781-9.7227 2.0781-13.199 5.6289-3.4805 3.5508-5.4102 8.3398-5.3594 13.312z"/>
 <path d="m692.56 353.8c3.5508 3.4648 8.3125 5.3984 13.273 5.3867 4.957-0.007812 9.7109-1.9648 13.246-5.4414l41.461-41.621c4.7266-4.7461 6.5625-11.652 4.8125-18.117-1.7461-6.4648-6.8086-11.508-13.285-13.23-6.4727-1.7188-13.371 0.14453-18.098 4.8906l-41.461 41.621h0.003906c-3.5117 3.5234-5.4766 8.293-5.4648 13.266 0.007813 4.9727 1.9922 9.7383 5.5117 13.246z"/>
 <path d="m703.03 862.5h-46.875v-56.25h300.19c3.0781 0.26172 6.1602-0.37891 8.8789-1.8398 2.7188-1.4609 4.9531-3.6797 6.4297-6.3906 3.3242-5.2461 4.082-11.715 2.0664-17.586l-64.992-259.98h-0.003906c-1.0156-4.0547-3.3555-7.6562-6.6523-10.23-3.2969-2.5703-7.3555-3.9688-11.539-3.9688h-581.25c-4.1797 0-8.2422 1.3984-11.535 3.9727-3.2969 2.5703-5.6406 6.1719-6.6562 10.227l-65.625 262.5c-1.3945 5.6016-0.13672 11.535 3.4141 16.086 3.5547 4.5508 9.0039 7.2109 14.777 7.2148h300v56.25h-46.875c-6.6992 0-12.887 3.5742-16.238 9.375-3.3477 5.8008-3.3477 12.949 0 18.75 3.3516 5.8008 9.5391 9.375 16.238 9.375h206.25c6.6992 0 12.891-3.5742 16.238-9.375 3.3516-5.8008 3.3516-12.949 0-18.75-3.3477-5.8008-9.5391-9.375-16.238-9.375zm-276.8-93.75 20.086-93.75h134.84v93.75zm154.93-225v93.75h-126.8l20.086-93.75zm144.22 0 20.086 93.75h-126.8v-93.75zm-106.72 131.25h134.84l20.086 93.75h-154.93zm193.28 93.75-20.086-93.75h116.85l23.438 93.75zm87.391-131.25h-115.52l-20.086-93.75h112.16zm-575.41-93.75h112.16l-20.086 93.75h-115.52zm-32.812 131.25h116.85l-20.086 93.75h-120.2zm290.05 187.5v-56.25h37.5v56.25z"/>
 <path d="m337.5 862.5v-18.75h-37.5v18.75h-133.39l61.355-243.75h-149.21c-4.1953 0-8.2695 1.4062-11.57 3.9922-3.2969 2.5898-5.6367 6.207-6.6367 10.281l-60 243.75c-1.375 5.5938-0.10156 11.512 3.4531 16.043 3.5508 4.5352 8.9922 7.1836 14.754 7.1836h243.75v37.5h-46.875c-6.6992 0-12.887 3.5742-16.238 9.375-3.3477 5.8008-3.3477 12.949 0 18.75 3.3516 5.8008 9.5391 9.375 16.238 9.375h206.25c6.6992 0 12.887-3.5742 16.238-9.375 3.3477-5.8008 3.3477-12.949 0-18.75-3.3516-5.8008-9.5391-9.375-16.238-9.375h-46.875v-37.5h68.895c-4.3594-12.121-4.3594-25.379 0-37.5zm-244.05-206.25h86.824l-21.418 84.375h-86.176zm-30.004 121.88h85.891l-21.418 84.375h-85.242zm274.06 159.38h-37.5v-37.5h37.5z"/>
 <path d="m1198.6 874.25-59.387-241.23h0.003906c-1.0039-4.0742-3.3438-7.6914-6.6406-10.277-3.3008-2.5859-7.375-3.9883-11.566-3.9883h-149.2l61.348 243.75h-133.4l0.003906-18.75h-37.5v18.75h-106.39c4.3594 12.121 4.3594 25.379 0 37.5h68.895v37.5h-46.875c-6.6992 0-12.887 3.5742-16.238 9.375-3.3477 5.8008-3.3477 12.949 0 18.75 3.3516 5.8008 9.5391 9.375 16.238 9.375h206.25c6.6992 0 12.887-3.5742 16.238-9.375 3.3477-5.8008 3.3477-12.949 0-18.75-3.3516-5.8008-9.5391-9.375-16.238-9.375h-46.875v-37.5h243.75c0.0625-0.007812 0.125-0.007812 0.1875 0 4.7969 0.35938 9.5273-1.2734 13.078-4.5195 3.5508-3.2422 5.6016-7.8086 5.6719-12.617 0-2.9258-0.45312-5.832-1.3516-8.6172zm-71.516-133.62h-86.18l-21.418-84.375h86.828zm-227.32 196.88h-37.5v-37.5h37.5zm172.08-75-21.418-84.375h85.891l20.77 84.375z"/>
</svg>
