<?xml version="1.0" encoding="UTF-8"?>
<svg width="1200pt" height="1200pt" version="1.1" viewBox="0 0 1200 1200" xmlns="http://www.w3.org/2000/svg">
 <path d="m386.72 297.98c-4.7344-1.2656-9.7969-0.60938-14.016 1.875-4.2656 2.4375-7.3594 6.4688-8.625 11.203-2.6719 9.8906 3.1875 20.062 13.078 22.688 33.703 9.0469 96.422 58.266 127.26 121.08 30.844 62.859 35.344 135.66-36.141 207.14-45.422 45.422-71.953 86.766-79.5 126.79-7.5938 40.031 6.375 77.625 35.578 106.83 28.359 28.359 64.219 41.719 102.47 47.766s79.547 5.2969 122.81 5.2969h-0.046875c10.219 0 18.516-8.2969 18.516-18.516s-8.2969-18.516-18.516-18.516c-43.594 0-83.391 0.46875-117.05-4.8281-33.609-5.2969-60.422-15.75-82.031-37.359-22.828-22.828-30.797-45.047-25.359-73.734s26.859-65.062 69.328-107.48c81.469-81.469 78.938-176.86 43.219-249.66-35.719-72.797-99.188-126.71-150.94-140.53z"/>
 <path d="m255.94 164.58c-5.1562 0-10.219 0.14062-15.281 0.42188h0.046875c-9.4688 0.51562-17.016 8.0625-17.531 17.484-4.3125 79.828 20.578 171.19 90.328 240.98 36.047 36.047 79.828 53.016 117.8 57.938 18.984 2.4844 36.609 1.9688 51.797-0.89062 15.141-2.8594 28.078-7.4531 38.062-17.391 10.406-10.406 14.438-23.766 16.875-39.234 2.4375-15.516 2.4844-33.422-0.28125-52.594-5.4844-38.344-22.078-81.891-56.156-115.92-61.406-61.5-148.64-90.938-225.71-90.797zm3.8906 37.172c66.422 1.0312 143.63 27.75 195.61 79.828v-0.046875 0.046875c27.047 27.047 41.156 63.281 45.656 94.969 2.25 15.844 2.1094 30.516 0.32812 41.578-1.7344 11.062-5.9062 18.281-6.4688 18.844-1.0312 1.0312-8.0625 5.1562-18.75 7.1719s-24.75 2.5312-40.172 0.5625c-30.844-3.9844-66.844-17.859-96.375-47.391-56.484-56.484-79.5-129.24-79.875-195.56z"/>
 <path d="m672.66 813.32c-37.641 0-80.203 11.766-115.31 30.328-17.531 9.2812-33.234 20.297-45.281 33.375-12.047 13.125-20.906 29.109-20.906 47.297s8.8594 34.172 20.906 47.297 27.703 24.094 45.234 33.375c35.109 18.562 77.672 30.375 115.36 30.375 37.406 0 71.578-11.391 97.219-30.844 25.641-19.5 42.938-48.047 42.938-80.156 0-32.156-17.297-60.656-42.938-80.156s-59.812-30.891-97.219-30.891zm0 37.031c29.766 0 56.391 9.3281 74.812 23.344s28.312 31.688 28.312 50.672-9.9375 36.703-28.312 50.672c-18.422 13.969-45 23.297-74.812 23.297-29.531 0-68.438-10.406-98.016-26.062-14.812-7.8281-27.281-16.969-35.297-25.688-8.0156-8.7656-11.156-16.359-11.156-22.266s3.1406-13.5 11.156-22.266 20.484-17.859 35.297-25.688c29.578-15.656 68.484-26.062 97.969-26.016z"/>
 <path d="m732.14 395.48c-48 0.46875-106.73 17.344-157.26 51.234-16.781 11.297-32.625 24.609-46.359 40.172-3.2812 3.6562-4.9219 8.4844-4.6406 13.406 0.28125 4.875 2.5312 9.4688 6.1875 12.703 7.6406 6.7969 19.359 6.0938 26.156-1.5469 11.438-12.891 24.797-24.234 39.328-33.984 58.172-39 137.11-50.25 170.76-41.203 9.8438 2.625 20.016-3.2344 22.688-13.078 1.2656-4.7812 0.5625-9.7969-1.875-14.062s-6.5156-7.3594-11.25-8.625c-12.938-3.4688-27.75-5.1094-43.734-4.9688z"/>
 <path d="m782.95 306.37c-22.734 0.60938-45.562 3.75-67.922 9.75-46.5 12.469-82.688 41.859-106.59 72.328-11.953 15.234-20.906 30.75-26.531 45.375s-8.8125 28.219-5.0156 42.422c3.6562 13.594 12.562 24 24.234 34.078 11.719 10.078 26.719 19.266 44.391 26.672 35.391 14.719 81.75 21.938 131.02 8.7188 95.297-25.547 162.52-92.25 198.71-163.55l0.046875 0.046875c4.2656-8.3906 1.5-18.703-6.4219-23.859-50.719-33.047-117.8-53.766-185.95-51.938zm1.0312 37.219c53.719-1.1719 107.67 13.453 149.95 36.984-33.469 57.234-89.766 108.75-166.92 129.42-40.359 10.828-78.469 4.8281-107.16-7.1719-14.344-6-26.297-13.5-34.5-20.531-8.25-7.0781-12.234-14.203-12.609-15.609h-0.09375c-0.23438-0.79688-0.23438-9.0938 3.7969-19.547s11.203-23.25 21.094-35.812c19.781-25.219 50.109-49.547 87.047-59.438 19.312-5.2031 39.328-7.8281 59.391-8.25z"/>
</svg>
