<?xml version="1.0" encoding="UTF-8"?>
<svg width="1200pt" height="1200pt" version="1.1" viewBox="0 0 1200 1200" xmlns="http://www.w3.org/2000/svg">
 <path d="m987.7 624.74h-224.88l-160.44-91.68c-1.4023-0.80469-3.1562-0.82812-4.6094-0.085938l-175.18 91.754h-210.29c-2.6523 0-4.8008 2.1602-4.8008 4.8008v226.99s0.070313 0.16797 0.085938 0.26562c0-0.097656-0.085938-0.16797-0.085938-0.16797v271.38c0 2.6523 2.1484 4.8008 4.8008 4.8008h775.38c2.6523 0 4.8008-2.1602 4.8008-4.8008v-271.41s-0.070313 0.070312-0.085937 0.16797c0-0.097657 0.085937-0.26562 0.085937-0.26562v-226.95c0.011719-2.6523-2.1484-4.8008-4.7891-4.8008zm-300.19 466.33v13.668h-175.01v-13.668c0-2.6523-2.1484-4.8008-4.8008-4.8008h-13.656v-82.703h13.656c2.6523 0 4.8008-2.1602 4.8008-4.8008v-18.457c0-2.6523-2.1484-4.8008-4.8008-4.8008l-13.414 0.003906c2.543-56.195 48.91-101.16 105.72-101.16s103.19 44.965 105.73 101.16h-13.414c-2.6523 0-4.8008 2.1602-4.8008 4.8008v18.457c0 2.6523 2.1484 4.8008 4.8008 4.8008h13.668v82.703h-13.668c-2.6523-0.011719-4.8125 2.1484-4.8125 4.7969zm-276.93 0v13.668h-193.47v-124.44c0-58.43 47.531-105.96 105.97-105.96 56.809 0 103.19 44.965 105.72 101.16h-13.414c-2.6523 0-4.8008 2.1602-4.8008 4.8008v18.457c0 2.6523 2.1484 4.8008 4.8008 4.8008h13.668v82.703h-13.668c-2.6445 0-4.8047 2.1602-4.8047 4.8086zm92.316-105.96v8.8438h-82.73v-8.8438zm-27.082-9.6133c2.5547-66.371 57.203-119.63 124.19-119.63 66.996 0 121.64 53.242 124.19 119.63h-8.8672c-2.543-61.488-53.219-110.76-115.33-110.76-62.102 0-112.78 49.273-115.32 110.76zm-28.309 110.76h-8.8672v-82.703h8.8672zm9.6016-82.695h8.8672v82.703h-8.8672zm27.336 82.695h-8.8672v-82.703h8.8672zm-64.262 9.6094h82.73v8.8555h-82.715l-0.003906-8.8555zm313.85-92.305h8.8555v82.703h-8.8555zm-9.5859 82.695h-8.8672v-82.703h8.8672zm-27.336 9.6094h82.73v8.8555h-82.715l-0.003906-8.8555zm55.391-9.6094v-82.703h8.8672v82.703zm13.656-92.305h-69.051v-8.8438h82.707v8.8438zm-32.195-18.457c-2.5312-71.688-61.656-129.24-133.96-129.24s-131.41 57.551-133.95 129.24h-9.0234c-2.5312-71.688-61.645-129.24-133.95-129.24-42.156 0-80.688 19.355-105.97 52.332v-39.84c29.398-25.645 66.926-39.816 105.97-39.816 54.156 0 104.43 26.977 134.46 72.191 0.88672 1.332 2.3867 2.1484 3.9961 2.1484s3.1094-0.80469 3.9961-2.1484c30.035-45.215 80.305-72.191 134.47-72.191s104.43 26.977 134.47 72.191c0.88672 1.332 2.3867 2.1484 3.9961 2.1484s3.1094-0.80469 3.9961-2.1484c30.035-45.215 80.305-72.191 134.47-72.191 39.047 0 76.559 14.16 105.97 39.816v39.84c-25.285-32.977-63.816-52.332-105.97-52.332-72.301 0-131.41 57.551-133.96 129.24zm-516.85-299.81c0-2.4492 1.9922-4.4297 4.4297-4.4297s4.4414 1.9805 4.4414 4.4297v5.3281c-1.4141-0.48047-2.8672-0.89844-4.4414-0.89844-1.5703 0-3.0234 0.42188-4.4297 0.89844zm18.465-22.895h8.8672v9.7422c-1.4141-0.48047-2.8672-0.89844-4.4414-0.89844-1.5703 0-3.0234 0.42188-4.4297 0.89844zm18.457 0h8.8555v9.7422c-1.4141-0.48047-2.8555-0.89844-4.4297-0.89844-1.5703 0-3.0234 0.42188-4.4297 0.89844zm36.926 0h8.8672v9.7422c-1.4141-0.48047-2.8672-0.89844-4.4414-0.89844-1.5703 0-3.0234 0.42188-4.4297 0.89844zm18.469 0h8.8672v9.7422c-1.4141-0.48047-2.8672-0.89844-4.4414-0.89844-1.5703 0-3.0234 0.42188-4.4297 0.89844zm18.453 0h8.8555v9.7422c-1.4141-0.48047-2.8555-0.89844-4.4297-0.89844-1.5703 0-3.0234 0.42188-4.4297 0.89844zm36.926 0h4.2109l-4.2109 2.207zm-9.6016 7.2344-3.457 1.8125c-0.33594-0.023437-0.625-0.20312-0.97266-0.20312-1.5703 0-3.0234 0.42188-4.4414 0.89844l0.003906-9.7422h8.8672zm461.54-4.4883-4.8008-2.7461h4.8008zm9.5898-2.7461h8.8672v9.7422c-1.4141-0.48047-2.8555-0.89844-4.4297-0.89844-0.875 0-1.6445 0.34766-2.4727 0.50391l-1.957-1.1172 0.003906-8.2305zm36.926 0h8.8672v9.7422c-1.4141-0.48047-2.8672-0.89844-4.4414-0.89844-1.5703 0-3.0234 0.42188-4.4297 0.89844zm18.465 0h8.8555v9.7422c-1.4141-0.48047-2.8555-0.89844-4.4297-0.89844-1.5703 0-3.0234 0.42188-4.4297 0.89844zm55.383 0h8.8672v9.7422c-1.4141-0.48047-2.8672-0.89844-4.4414-0.89844-1.5703 0-3.0234 0.42188-4.4297 0.89844zm18.465 0h8.8672v9.7422c-1.4141-0.48047-2.8672-0.89844-4.4414-0.89844-1.5703 0-3.0234 0.42188-4.4297 0.89844zm-92.312 22.895c0-2.4492 1.9922-4.4297 4.4297-4.4297s4.4414 1.9805 4.4414 4.4297v5.3281c-1.4141-0.48047-2.8672-0.89844-4.4414-0.89844-1.5703 0-3.0234 0.42188-4.4297 0.89844zm18.465 0c0-2.4492 1.9922-4.4297 4.4297-4.4297s4.4297 1.9805 4.4297 4.4297v5.3281c-1.4141-0.48047-2.8555-0.89844-4.4297-0.89844-1.5703 0-3.0234 0.42188-4.4297 0.89844zm55.383 18.457c0-2.4375 1.9922-4.4141 4.4297-4.4141s4.4414 1.9805 4.4414 4.4141v5.3281c-1.4141-0.48047-2.8672-0.89844-4.4414-0.89844-1.5703 0-3.0234 0.42188-4.4297 0.89844zm18.465 0c0-2.4375 1.9922-4.4141 4.4297-4.4141s4.4414 1.9805 4.4414 4.4141v5.3281c-1.4141-0.48047-2.8672-0.89844-4.4414-0.89844-1.5703 0-3.0234 0.42188-4.4297 0.89844zm8.8711-13.141c-1.4141-0.48047-2.8672-0.89844-4.4414-0.89844-1.5703 0-3.0234 0.42188-4.4297 0.89844v-5.3281c0-2.4492 1.9922-4.4297 4.4297-4.4297s4.4414 1.9805 4.4414 4.4297zm-18.469 0c-1.4141-0.48047-2.8672-0.89844-4.4414-0.89844-1.5703 0-3.0234 0.42188-4.4297 0.89844v-5.3281c0-2.4492 1.9922-4.4297 4.4297-4.4297s4.4414 1.9805 4.4414 4.4297zm-18.469 0c-1.4141-0.48047-2.8555-0.89844-4.4297-0.89844-1.5703 0-3.0234 0.42188-4.4414 0.89844v-5.3281c0-2.4492 1.9922-4.4297 4.4414-4.4297s4.4297 1.9805 4.4297 4.4297zm-18.457 0c-1.4141-0.48047-2.8555-0.89844-4.4297-0.89844-1.5703 0-3.0234 0.42188-4.4414 0.89844v-5.3281c0-2.4492 1.9922-4.4297 4.4414-4.4297 2.4492 0 4.4297 1.9805 4.4297 4.4297zm-8.8672 13.141c0-2.4375 1.9922-4.4141 4.4414-4.4141 2.4492 0 4.4297 1.9805 4.4297 4.4141v5.3281c-1.4141-0.48047-2.8555-0.89844-4.4297-0.89844-1.5703 0-3.0234 0.42188-4.4414 0.89844zm18.469 0c0-2.4375 1.9922-4.4141 4.4414-4.4141 2.4492 0 4.4297 1.9805 4.4297 4.4141v5.3281c-1.4141-0.48047-2.8555-0.89844-4.4297-0.89844-1.5703 0-3.0234 0.42188-4.4414 0.89844zm18.457 18.469c0-2.4492 1.9922-4.4297 4.4297-4.4297s4.4414 1.9805 4.4414 4.4297v5.3281c-1.4141-0.48047-2.8672-0.89844-4.4414-0.89844-1.5703 0-3.0234 0.42188-4.4297 0.89844zm18.465 0c0-2.4492 1.9922-4.4297 4.4297-4.4297s4.4414 1.9805 4.4414 4.4297v5.3281c-1.4141-0.48047-2.8672-0.89844-4.4414-0.89844-1.5703 0-3.0234 0.42188-4.4297 0.89844zm-28.066-50.078c-1.4141-0.48047-2.8555-0.89844-4.4297-0.89844-1.5703 0-3.0234 0.42188-4.4414 0.89844l0.003907-9.7422h8.8672zm-18.457 0c-1.4141-0.48047-2.8555-0.89844-4.4297-0.89844-1.5703 0-3.0234 0.42188-4.4414 0.89844l0.003907-9.7422h8.8672zm-55.379 0c-1.4141-0.48047-2.8555-0.89844-4.4297-0.89844-1.5703 0-3.0234 0.42188-4.4414 0.89844l0.003906-9.7422h8.8672zm-4.4297 8.7148c2.4492 0 4.4297 1.9805 4.4297 4.4297v0.96094l-7.3789-4.2109c0.77734-0.71484 1.8008-1.1797 2.9492-1.1797zm36.914 18.477c2.4492 0 4.4297 1.9805 4.4297 4.4141v3.6016l-8.5938-4.9062c0.57422-1.8008 2.1836-3.1094 4.1641-3.1094zm32.496 22.887c0-2.4492 1.9922-4.4297 4.4414-4.4297 2.4492 0 4.4297 1.9805 4.4297 4.4297v5.3281c-0.78125-0.26562-1.6094-0.37109-2.4492-0.49219l-6.4219-3.6719zm22.883 14.039c1.7148 0 3.1797 1.0078 3.9102 2.4375l-4.1758-2.3867c0.097656-0.003907 0.18359-0.050782 0.26562-0.050782zm14.039 4.4141c0-2.4375 1.9922-4.4141 4.4297-4.4141s4.4414 1.9805 4.4414 4.4141v5.3281c-1.4141-0.48047-2.8672-0.89844-4.4414-0.89844-0.875 0-1.6328 0.34766-2.4609 0.50391l-1.9688-1.1289zm27.324 19.418-7.3672-4.2109c0.78125-0.70703 1.8008-1.1641 2.9414-1.1641 2.4492 0 4.4297 1.9805 4.4297 4.4297zm-256.98 114.25c-9.6133-10.488-20.438-19.621-32.16-27.312h67.609v17.258c-3.5273 3.2539-7.0781 6.4922-10.344 10.055zm17.234 9.6016c-1.5352 1.9336-3.2266 3.707-4.6797 5.7227-1.4531-2.0039-3.1445-3.7812-4.6797-5.7227zm27.805-36.922h12.215c-4.2344 2.7852-8.2422 5.8906-12.215 9.0469zm-93.684-9.6133c-22.188-11.258-46.871-17.473-72.469-18.18v-9.1328h104.5c5.2578 10.871 16.309 18.457 29.172 18.457s23.914-7.5859 29.172-18.457h215.26v27.312h-28.883c-1.5234-0.76953-3.0586-1.5-4.6094-2.2188-2.5547-1.1992-5.1484-2.3047-7.7539-3.3711-1.9922-0.81641-3.9961-1.6445-6.0234-2.375-2.6875-0.98438-5.4258-1.8594-8.1602-2.6992-2.0039-0.625-4.0078-1.2734-6.0469-1.8242-2.8906-0.78125-5.8086-1.4023-8.7344-2.0391-1.9453-0.42188-3.8633-0.88672-5.8203-1.2344-3.2773-0.58984-6.5898-0.98438-9.8984-1.3672-1.6562-0.19141-3.2891-0.48047-4.957-0.625-4.9922-0.44531-10.02-0.69531-15.086-0.69531-27.324 0-53.688 6.5039-77.27 18.469l-122.39-0.007813zm-228.28 36.934c-3.2656-3.5625-6.8164-6.8047-10.344-10.055v-17.258h67.609c-11.723 7.7031-22.547 16.824-32.16 27.312zm17.23 9.6016c-1.5352 1.9336-3.2266 3.707-4.6797 5.7227-1.4531-2.0039-3.1445-3.7812-4.6797-5.7227zm-37.176-27.875c-3.9844-3.1562-7.9805-6.2656-12.215-9.0469h12.215zm-28.703-18.66c-23.578-11.965-49.945-18.469-77.27-18.469-5.0625 0-10.094 0.25391-15.086 0.69531-1.6562 0.14453-3.2891 0.43359-4.9336 0.625-3.3242 0.39453-6.6484 0.79297-9.9375 1.3789-1.9453 0.34766-3.8516 0.81641-5.7852 1.2344-2.9414 0.63672-5.8906 1.2617-8.7852 2.0508-2.0156 0.53906-4.0078 1.1875-6 1.8125-2.7617 0.85156-5.4961 1.7266-8.207 2.7227-2.0156 0.74219-3.9961 1.5469-5.9883 2.3633-2.6172 1.0781-5.2188 2.1836-7.7891 3.3945-1.5352 0.71875-3.0703 1.4414-4.5977 2.207h-28.883v-27.312l215.28 0.007812c5.2578 10.871 16.309 18.457 29.172 18.457s23.914-7.5859 29.172-18.457h104.5v9.1328c-25.598 0.71875-50.281 6.9375-72.469 18.18h-122.39zm306.07-36.926h-46.234v-27.312h55.262c-5.8438 5.8789-9.457 13.969-9.457 22.883-0.011719 1.5273 0.23828 2.9688 0.42969 4.4297zm-156.99 0v-27.312h101.18v27.312zm-64.852-27.312h55.25v27.312h-46.234c0.20312-1.4648 0.44531-2.9141 0.44531-4.4297-0.003906-8.9141-3.6172-17-9.4609-22.883zm-55.523 27.312h-101.17v-27.312h101.17zm32.484-27.312c12.625 0 22.895 10.262 22.895 22.883 0 12.625-10.273 22.883-22.895 22.883-12.625 0-22.895-10.262-22.895-22.883s10.285-22.883 22.895-22.883zm-22.883-73.836h91.945v27.312h-91.945zm211.93-73.859v27.324h-101.16v-27.312h101.16zm110.77 101.17h-91.945v-27.312h91.945zm-55.379-36.922h-36.551v-13.668c0-2.6523-2.1484-4.8008-4.8008-4.8008h-18.469c-2.6523 0-4.8008 2.1602-4.8008 4.8008v13.668h-27.324v-27.324h91.945zm-46.152 73.836h-8.8672v-82.703h8.8672zm-45.793-64.227h27.324v27.312h-27.324zm0 36.926h27.324v27.301h-27.324zm-9.5859-73.859v101.16h-8.8672l-0.003907-101.16zm-18.469 73.859v27.301h-27.324v-27.301zm-27.324-9.6133v-27.312h27.324v27.312zm27.324-64.246v27.312h-27.324v-13.668c0-2.6523-2.1484-4.8008-4.8008-4.8008h-18.469c-2.6523 0-4.8008 2.1602-4.8008 4.8008v13.668h-36.551v-27.312zm-36.926 101.16h-8.8672v-82.703h8.8672zm189.42 9.6094c12.625 0 22.895 10.262 22.895 22.883 0 12.625-10.273 22.883-22.895 22.883-12.625 0-22.895-10.262-22.895-22.883-0.003907-12.621 10.27-22.883 22.895-22.883zm32.484 22.887v-22.883h101.17v27.312h-101.17zm110.77-22.887h40.078l47.809 27.312h-87.875v-27.312zm-143.25-9.6094h-69.047v-27.301h187.79l47.785 27.301zm32.484-36.914v-27.312h21.637l47.809 27.312zm-55.383-36.922v-27.324h12.395l47.809 27.312h-60.203zm-55.391-36.926v-27.312h3.168l47.809 27.312zm-55.379-36.934v-23.844l41.734 23.844zm-9.6016 0h-46.176l46.176-24.191zm-55.379 9.6094v27.324h-61.285l52.152-27.312h9.1328zm-55.379 36.926v27.312h-76.391l52.152-27.312zm-55.395 36.934v27.312h-91.488l52.152-27.312zm101.53 36.926v27.301h-263.49l52.129-27.301zm-212.3 36.91v27.312h-101.17v-10.754l31.633-16.57h69.539zm-101.17 73.852h12.18c-1.5977 1.043-3.1211 2.2188-4.6797 3.3242-1.7383 1.2344-3.4922 2.4609-5.1836 3.7695-0.75781 0.57422-1.5586 1.0781-2.3164 1.6797zm765.79 0v8.7617c-0.74219-0.58984-1.5586-1.0938-2.3164-1.6797-1.7031-1.2969-3.4453-2.5312-5.1953-3.7695-1.5586-1.1055-3.0859-2.2695-4.6797-3.3242l12.191-0.003906zm0-50.008-380.51-217.44c-1.4023-0.80469-3.1562-0.82812-4.6094-0.085937l-380.67 199.41v-7.6328l382.79-200.51 382.99 218.86-0.003907 7.4023zm-765.79-56.34c0-2.4375 1.9922-4.4141 4.4297-4.4141 1.3672 0 2.5547 0.66016 3.3594 1.6328l-7.8008 4.0781v-1.2969zm82.715-50.062c-1.4141-0.48047-2.8672-0.89844-4.4414-0.89844-1.5703 0-3.0234 0.42188-4.4297 0.89844v-5.3281c0-2.4492 1.9922-4.4297 4.4297-4.4297s4.4414 1.9805 4.4414 4.4297zm-18.469 0c-1.4141-0.48047-2.8555-0.89844-4.4297-0.89844-1.5703 0-3.0234 0.42188-4.4414 0.89844v-5.3281c0-2.4492 1.9922-4.4297 4.4414-4.4297s4.4297 1.9805 4.4297 4.4297zm-36.91 36.938c-1.4141-0.48047-2.8672-0.89844-4.4414-0.89844-1.5703 0-3.0234 0.42188-4.4297 0.89844v-5.3281c0-2.4492 1.9922-4.4297 4.4297-4.4297s4.4414 1.9805 4.4414 4.4297zm-8.8711-23.797c0-2.4375 1.9922-4.4141 4.4297-4.4141s4.4414 1.9805 4.4414 4.4141v5.3281c-1.4141-0.48047-2.8672-0.89844-4.4414-0.89844-1.5703 0-3.0234 0.42188-4.4297 0.89844zm18.457 0c0-2.4375 1.9922-4.4141 4.4297-4.4141s4.4297 1.9805 4.4297 4.4141v5.3281c-1.4141-0.48047-2.8555-0.89844-4.4297-0.89844-1.5703 0-3.0234 0.42188-4.4297 0.89844zm8.8672-13.141c-1.4141-0.48047-2.8555-0.89844-4.4297-0.89844-1.5703 0-3.0234 0.42188-4.4297 0.89844v-5.3281c0-2.4492 1.9922-4.4297 4.4297-4.4297s4.4297 1.9805 4.4297 4.4297zm-18.453 0c-1.4141-0.48047-2.8672-0.89844-4.4414-0.89844-1.5703 0-3.0234 0.42188-4.4297 0.89844v-5.3281c0-2.4492 1.9922-4.4297 4.4297-4.4297s4.4414 1.9805 4.4414 4.4297zm9.5859 31.609c0-2.4492 1.9922-4.4297 4.4297-4.4297 1.0664 0 2.0156 0.43359 2.7852 1.0664l-7.2109 3.7812zm22.898-14.043c-1.5703 0-3.0234 0.42188-4.4414 0.89844v-5.3281c0-2.4375 1.9922-4.4141 4.4414-4.4141s4.4297 1.9805 4.4297 4.4141v4.5703l-1.043 0.53906c-1.1094-0.28125-2.1875-0.67969-3.3867-0.67969zm18.453-8.8438c0.75781 0 1.4297 0.23828 2.0508 0.5625l-6.3828 3.3359c0.27734-2.1797 2.0781-3.8984 4.332-3.8984zm18.469-9.6094c-1.5703 0-3.0234 0.42188-4.4297 0.89844v-5.3281c0-2.4492 1.9922-4.4297 4.4297-4.4297s4.4414 1.9805 4.4414 4.4297v3.6836l-2.2578 1.1758c-0.74219-0.10547-1.4141-0.42969-2.1836-0.42969zm19.523-8.6523-5.1836 2.7227c0.625-1.7031 2.2188-2.9297 4.1289-2.9297 0.37109-0.007813 0.70703 0.12109 1.0547 0.20703zm-52.02-8.9297c-1.4141-0.48047-2.8555-0.89844-4.4297-0.89844-1.5703 0-3.0234 0.42188-4.4414 0.89844l0.003906-9.7422h8.8672zm-64.246 31.609c0-2.4375 1.9922-4.4141 4.4297-4.4141s4.4414 1.9805 4.4414 4.4141v5.3281c-1.4141-0.48047-2.8672-0.89844-4.4414-0.89844-1.5703 0-3.0234 0.42188-4.4297 0.89844zm0 18.469c0-2.4492 1.9922-4.4297 4.4297-4.4297s4.4414 1.9805 4.4414 4.4297v5.3281c-1.4141-0.48047-2.8672-0.89844-4.4414-0.89844-1.5703 0-3.0234 0.42188-4.4297 0.89844zm761.36 22.883c-1.5703 0-3.0234 0.42188-4.4297 0.89844v-5.3281c0-2.4375 1.9922-4.4141 4.4297-4.4141s4.4297 1.9805 4.4297 4.4141v5.3281c-1.418-0.47656-2.8711-0.89844-4.4297-0.89844zm0-18.457c-1.5703 0-3.0234 0.42188-4.4297 0.89844v-5.3281c0-2.4492 1.9922-4.4297 4.4297-4.4297s4.4297 1.9805 4.4297 4.4297v5.3281c-1.418-0.47656-2.8711-0.89844-4.4297-0.89844zm0-18.469c-1.5703 0-3.0234 0.42188-4.4297 0.89844v-5.3281c0-2.4375 1.9922-4.4141 4.4297-4.4141s4.4297 1.9805 4.4297 4.4141v5.3281c-1.418-0.47656-2.8711-0.89844-4.4297-0.89844zm0-18.453c-1.5703 0-3.0234 0.42188-4.4297 0.89844v-5.3281c0-2.4492 1.9922-4.4297 4.4297-4.4297s4.4297 1.9805 4.4297 4.4297v5.3281c-1.418-0.48047-2.8711-0.89844-4.4297-0.89844zm0-18.469c-1.5703 0-3.0234 0.42188-4.4297 0.89844v-9.7539h8.8555v9.7422c-1.4141-0.46875-2.8672-0.88672-4.4258-0.88672zm4.4258-27.312v8.8555h-187.77l-15.48-8.8438h203.25zm-382.99-91.633 382.99 218.84v7.4023l-380.52-217.44c-1.4023-0.80469-3.1562-0.81641-4.6094-0.085937l-380.66 199.39v-7.6211zm-382.8 91.633h187.14l-16.887 8.8555h-170.26zm8.8672 18.457v9.7422c-1.4141-0.48047-2.8672-0.89844-4.4414-0.89844-1.5703 0-3.0234 0.42188-4.4297 0.89844l0.003907-9.7422zm-8.8672 262.67c22.871-37.32 62.363-59.594 105.97-59.594 66.984 0 121.63 53.242 124.19 119.63h-8.8672c-2.543-61.488-53.219-110.76-115.32-110.76-47.387 0-88.152 28.691-105.97 69.59zm765.79 207.73h-765.79v-8.8438h765.79l-0.007813 8.8438zm-193.47-18.457v-13.668c0-2.6523-2.1484-4.8008-4.8008-4.8008h-13.668v-82.703h13.668c2.6523 0 4.8008-2.1602 4.8008-4.8008v-18.457c0-2.6523-2.1484-4.8008-4.8008-4.8008h-13.414c2.543-56.195 48.91-101.16 105.73-101.16 58.43 0 105.97 47.531 105.97 105.96v124.43zm87.504-240c-62.102 0-112.78 49.273-115.33 110.76h-8.8672c2.5547-66.371 57.203-119.63 124.19-119.63 43.609 0 83.102 22.273 105.97 59.594v18.852c-17.812-40.895-58.574-69.578-105.96-69.578zm-415.39-64.246c7.7383 0 14.027-6.3008 14.027-14.039s-6.2891-14.027-14.027-14.027-14.027 6.2891-14.027 14.027 6.3008 14.039 14.027 14.039zm0-18.457c2.4492 0 4.4414 1.9805 4.4414 4.4141 0 2.4492-1.9922 4.4297-4.4414 4.4297s-4.4297-1.9805-4.4297-4.4297c0.003907-2.4336 1.9961-4.4141 4.4297-4.4141zm276.94 18.457c7.7383 0 14.027-6.3008 14.027-14.039s-6.2891-14.027-14.027-14.027-14.027 6.2891-14.027 14.027 6.2852 14.039 14.027 14.039zm0-18.457c2.4492 0 4.4297 1.9805 4.4297 4.4141 0 2.4492-1.9922 4.4297-4.4297 4.4297s-4.4297-1.9805-4.4297-4.4297c-0.011718-2.4336 1.9805-4.4141 4.4297-4.4141z"/>
</svg>
