<?xml version="1.0" encoding="UTF-8"?>
<svg width="1200pt" height="1200pt" version="1.1" viewBox="0 0 1200 1200" xmlns="http://www.w3.org/2000/svg">
 <path d="m919.22 691.78c59.062-47.578 118.12-95.203 176.29-143.68 22.031-18.516 32.625-43.172 22.922-73.172-8.8125-29.062-27.328-50.25-58.172-51.984-89.016-7.0312-178.92-12.328-267.94-15.844-18.516-0.89062-26.438-6.1875-32.625-22.031-29.953-76.688-60.797-152.48-91.688-227.39-15-37.922-37.031-53.766-71.391-52.875-33.516 0.89062-54.656 16.734-68.766 53.766-29.109 76.688-57.281 153.37-84.609 230.06-4.4062 9.7031-6.1875 17.625-19.406 18.516-65.203 2.625-129.56 6.1875-193.92 9.7031-30.844 1.7812-60.797 5.2969-91.688 6.1875-28.219 0-48.469 20.25-57.281 50.25-10.594 34.359 7.9219 58.172 32.625 78.469 66.094 53.766 132.24 107.53 198.32 160.4 10.594 8.8125 13.219 15 8.8125 27.328-14.109 50.25-27.328 101.39-41.438 151.6-11.438 44.062-22.922 88.125-35.25 132.24 0.89062 20.25 7.9219 37.031 22.031 51.141 26.438 26.438 62.578 28.219 99.609 3.5156 73.172-47.578 146.34-94.312 218.58-143.68 15-10.594 24.656-7.9219 37.922 0 71.391 47.578 142.78 95.203 214.18 141.89 33.516 22.031 59.953 22.922 89.016 2.625 26.438-18.516 33.516-44.953 23.812-83.719-19.406-73.172-38.766-147.19-57.281-220.36-14.062-51.234-13.219-50.391 27.328-82.969zm-91.641 56.391c22.031 83.719 44.953 166.6 66.984 249.47 0.89062 5.2969 1.7812 9.7031 2.625 15 1.7812 9.7031 2.625 18.516-7.0312 24.656-10.594 7.0312-16.734-0.89062-22.922-5.2969-58.172-37.922-115.45-76.688-173.63-114.61-18.516-12.328-37.922-22.922-55.547-36.141-23.812-18.516-44.953-16.734-69.609-0.89062-74.062 50.25-148.08 97.828-222.98 147.19-3.5156 1.7812-6.1875 5.2969-10.594 7.0312-7.9219 5.2969-16.734 11.438-27.328 2.625-10.594-7.9219-7.9219-15.844-4.4062-26.438 24.656-89.906 47.578-179.81 73.172-268.82 8.8125-27.328 1.7812-46.734-20.25-64.359-67.875-53.766-135.74-108.42-202.74-163.08-7.9219-7.0312-23.812-12.328-18.516-27.328s20.297-13.219 33.516-14.109c83.719-3.5156 168.37-7.9219 252.1-10.594 38.766-1.7812 60.797-17.625 74.062-56.391 23.812-74.062 52.875-147.19 80.203-220.36 4.4062-12.328 8.8125-23.812 24.703-24.703 13.219 0.89062 17.625 10.594 22.031 21.141 31.734 81.094 64.359 161.29 96.094 242.39 8.8125 23.812 22.922 34.359 48.469 35.25 88.125 4.4062 177.19 8.8125 265.31 13.219 13.219 0.89062 27.328 0 33.469 13.219 7.0312 16.734-7.0312 24.703-17.625 33.516-64.359 51.984-129.56 104.02-194.81 156-30.047 24.844-34.453 35.391-24.75 72.422z"/>
</svg>
