<?xml version="1.0" encoding="UTF-8"?>
<svg width="1200pt" height="1200pt" version="1.1" viewBox="0 0 1200 1200" xmlns="http://www.w3.org/2000/svg">
 <path d="m600 126.84c-15.234 0-27.703 12.375-27.703 27.703v119.16c0 15.234 12.375 27.703 27.703 27.703 7.3125 0 14.391-2.8594 19.547-8.1562 5.1562-5.1562 8.1562-12.234 8.1562-19.547v-119.16c0-7.3125-2.8594-14.391-8.1562-19.547-5.1562-5.1562-12.234-8.1562-19.547-8.1562zm-300 107.86c-4.7812 0.84375-9.2344 2.8594-12.938 6-11.766 9.8438-13.219 27.234-3.375 39l76.547 91.219c4.6875 5.625 11.531 9.1406 18.844 9.8438 7.3125 0.60938 14.531-1.6875 20.156-6.375s9.1406-11.531 9.7031-18.844c0.60938-7.3125-1.6875-14.625-6.375-20.156l-76.547-91.219c-6.375-7.5469-16.312-11.156-26.062-9.4688zm600 0c-9.7031-1.6875-19.688 1.9219-26.062 9.4688l-76.547 91.219c-4.6875 5.625-6.9375 12.844-6.375 20.156 0.60938 7.3125 4.2188 14.062 9.7031 18.844 11.766 9.8438 29.156 8.2969 39-3.375l76.547-91.219c9.8438-11.766 8.2969-29.156-3.375-39-3.7031-3.1406-8.1562-5.1562-12.938-6zm-300 118.83c-135.84 0-246.47 110.62-246.47 246.47s110.62 246.47 246.47 246.47 246.47-110.62 246.47-246.47-110.62-246.47-246.47-246.47zm0 55.312c105.84 0 191.16 85.219 191.16 191.16s-85.219 191.16-191.16 191.16-191.16-85.219-191.16-191.16c0-105.84 85.219-191.16 191.16-191.16zm-447.47 98.016c-7.2188-1.3125-14.625 0.375-20.625 4.5469-6 4.2188-10.078 10.688-11.391 17.859-2.625 15 7.4531 29.391 22.453 32.062l117.23 20.625c7.2188 1.3125 14.625-0.375 20.625-4.5469 6-4.2188 10.078-10.688 11.391-17.859 1.3125-7.2188-0.375-14.625-4.5469-20.625-4.2188-6-10.688-10.078-17.859-11.391l-117.23-20.625zm894.94 0-117.23 20.625c-7.2188 1.3125-13.688 5.3906-17.859 11.391-4.2188 6-5.8594 13.453-4.5469 20.625 2.625 15 17.062 25.078 32.062 22.453l117.23-20.625c15-2.625 25.078-17.062 22.453-32.062-1.3125-7.2188-5.3906-13.688-11.391-17.859-6-4.2188-13.453-5.8594-20.625-4.5469zm-742.08 249.37c-4.7812 0-9.6094 1.3125-13.781 3.7031l-103.22 59.531c-6.375 3.7031-11.062 9.7031-12.844 16.781-1.9219 7.0781-0.9375 14.625 2.7656 21 7.6875 13.219 24.609 17.766 37.781 10.078l103.22-59.531c6.375-3.7031 11.062-9.7031 12.844-16.781 1.9219-7.0781 0.9375-14.625-2.7656-21-4.9219-8.5312-14.062-13.781-24-13.781zm589.22 0c-9.8438 0-19.078 5.2969-24 13.781-3.7031 6.375-4.6875 13.922-2.7656 21 1.9219 7.0781 6.4688 13.078 12.844 16.781l103.22 59.531c6.375 3.7031 13.922 4.6875 21 2.7656 7.0781-1.9219 13.078-6.4688 16.781-12.844s4.6875-13.922 2.7656-21c-1.9219-7.0781-6.4688-13.078-12.844-16.781l-103.22-59.531c-4.2188-2.3906-9-3.7031-13.781-3.7031zm-415.82 150c-9.7031 1.6875-17.766 8.5312-21.234 17.766l-40.688 111.94c-5.2969 14.391 2.1562 30.234 16.547 35.531 6.8438 2.5312 14.531 2.1562 21.141-0.9375 6.6094-3.1406 11.766-8.7656 14.297-15.609l40.688-111.94c5.2969-14.391-2.1562-30.234-16.547-35.531-4.5469-1.6875-9.4688-2.0625-14.297-1.2188zm242.44 0c-4.7812-0.84375-9.7031-0.375-14.297 1.2188-14.391 5.2969-21.703 21.141-16.547 35.531l40.688 111.94c5.2969 14.391 21.141 21.703 35.531 16.547 14.391-5.2969 21.703-21.141 16.547-35.531l-40.688-111.94c-3.375-9.2344-11.531-16.078-21.234-17.766z"/>
</svg>
