<?xml version="1.0" encoding="UTF-8"?>
<svg width="1200pt" height="1200pt" version="1.1" viewBox="0 0 1200 1200" xmlns="http://www.w3.org/2000/svg">
 <path d="m1144.4 799.31c35.344-65.016 41.344-159.71-29.062-213.84h0.046875c-26.297-19.734-58.406-30.141-91.266-29.578-15.984 0.1875-31.875 2.2031-47.438 5.9531l6-45.516c0.60938-2.7188 0.89062-5.5312 0.89062-8.3438 0-82.734-238.74-112.78-399.19-112.78-160.45 0-399.19 30.047-399.19 112.78 0 2.6719 0.28125 5.3438 0.79688 7.9688l30.656 253.82v-0.046875c2.3438 19.781 6.7031 39.281 12.938 58.219-128.81 35.062-199.55 86.484-199.55 145.82 0 121.82 285.61 187.6 554.29 187.6 268.78 0 554.44-65.719 554.44-187.6 0-24.75-12.938-59.766-69.703-94.078 31.219-20.344 57.047-47.906 75.328-80.391zm-175.69-108.05c2.4844-1.1719 4.9688-2.25 7.4531-3.3281 2.0156-0.84375 4.0312-1.6875 6-2.4375 2.4375-0.9375 4.875-1.7812 7.2656-2.5781 1.9219-0.65625 3.7969-1.2656 5.6719-1.8281 2.3906-0.70312 4.6875-1.2656 6.9375-1.8281 1.7344-0.42188 3.4688-0.89062 5.1562-1.2188 2.25-0.46875 4.3594-0.75 6.5156-1.0312 1.5-0.1875 3.0938-0.46875 4.5469-0.60938 2.1094-0.1875 4.0312-0.14062 5.9531-0.14062 1.2188 0 2.5781-0.09375 3.75 0h-0.046874c1.8281 0.14062 3.6562 0.46875 5.4375 0.89062 0.84375 0.1875 1.8281 0.23438 2.625 0.51562 2.2031 0.60938 4.2656 1.6406 6.1406 3 1.5469 1.2188 2.8594 2.7188 3.7969 4.4531 7.2188 12.422 2.9531 38.297-7.1719 56.906-1.9688 3.5625-4.2188 6.9844-6.6562 10.219-0.51562 0.70312-1.0312 1.4062-1.5469 2.0625-2.5312 3.1875-5.25 6.2344-8.1094 9.0938-0.51562 0.51562-1.0781 1.0312-1.5938 1.5469-2.7656 2.6719-5.7188 5.25-8.7656 7.6875-0.51563 0.42188-0.98438 0.79688-1.5 1.2188-3.4219 2.625-6.9844 5.1562-10.688 7.5469-0.79688 0.51562-1.6406 1.0312-2.4375 1.5469-3.7969 2.3438-7.6875 4.6406-11.719 6.7031-0.23438 0.14062-0.51563 0.23438-0.75 0.375-3.8906 2.0156-7.9219 3.8438-11.953 5.625-0.84375 0.375-1.6406 0.70312-2.4844 1.0781-4.1719 1.7344-8.3438 3.3281-12.562 4.7812-0.75 0.28125-1.5469 0.51562-2.2969 0.75-4.0781 1.3594-8.1094 2.5781-12.188 3.6094-0.28125 0.09375-0.5625 0.1875-0.89062 0.23438 0.046874-0.23438 0.09375-0.51562 0.1875-0.79688 0.84375-3.4688 1.5469-6.9375 2.2969-10.406 0.375-1.875 0.84375-3.75 1.2188-5.625 1.0312-5.3438 1.875-10.734 2.625-16.125l10.172-76.969c1.1719-0.60938 2.3438-1.2656 3.5156-1.875 1.9688-1.0781 4.0312-2.0625 6.0938-3.0469zm-270.42-110.86c-3.2812 0.23438-6.5156 0.51562-9.8438 0.75-5.9062 0.42188-11.859 0.79688-17.906 1.1719-6.0469 0.32812-12.094 0.65625-18.234 0.9375-2.5312 0.09375-5.0156 0.23438-7.5938 0.32812-8.5781 0.32812-17.25 0.60938-25.969 0.79688-2.0625 0.046875-4.125 0.09375-6.2344 0.14062-9.2812 0.1875-18.656 0.28125-28.078 0.28125h-0.09375c-9.5625 0-19.078-0.14062-28.5-0.28125-1.8281-0.046875-3.7031-0.046875-5.5312-0.09375-9.0469-0.1875-18.047-0.46875-27-0.84375-1.7812-0.09375-3.5156-0.14062-5.25-0.23438-7.5469-0.32812-15-0.70312-22.359-1.1719-2.2031-0.14062-4.4062-0.23438-6.5625-0.375-7.0781-0.46875-14.062-0.98438-21-1.5469-4.2188-0.32812-8.4844-0.70312-12.609-1.0781l-5.625-0.5625c-31.734-3.0469-60.703-7.0781-86.578-11.766l-0.75-0.14062c-2.8594-0.51562-5.5781-1.0781-8.3438-1.5938v-0.046875c75.75-15.375 152.9-22.734 230.16-21.984 77.25-0.75 154.31 6.6094 230.02 21.938-38.391 7.2656-77.156 12.375-116.11 15.375zm-113.91-149.21c234.98 0 363.19 50.719 363.19 76.781 0 0.5625-0.09375 1.0781-0.23438 1.5938-1.2656 3.9375-3.6094 7.5-6.7969 10.172-17.203 12.891-36.656 22.359-57.375 27.938-66.797-25.453-177.52-40.594-298.74-40.594-121.22 0-231.94 15.141-298.74 40.594-30.984-10.172-51.047-20.906-59.625-30.141h-0.046875c-2.1094-2.25-3.7031-4.9688-4.5938-7.9219-0.09375-0.5625-0.1875-1.0781-0.23438-1.6406 0-26.062 128.21-76.781 363.19-76.781zm-193.22 176.68c3.0938 0.46875 6.1875 0.89062 9.3281 1.3125 2.3438 0.32812 4.6875 0.65625 7.0781 0.9375v74.203h-33.047c-9.9375 0-18 8.0625-18 18v132.1c0 9.9375 8.0625 18 18 18h102.14c9.9375 0 18-8.0625 18-18v-132.1c0-9.9375-8.0625-18-18-18h-33.094v-70.172c20.203 1.9688 41.109 3.5156 62.531 4.5938l1.5938 0.09375c7.5469 0.375 15.188 0.70312 22.828 0.98438 1.2188 0.046875 2.4375 0.09375 3.6094 0.14062 6.9375 0.23438 13.875 0.42188 20.859 0.51562 1.5469 0.046875 3.1406 0.09375 4.6875 0.09375 2.1094 0.046875 4.2188 0.046875 6.3281 0.09375 6.1875 0.09375 12.281 0.14062 18.281 0.14062s12.094-0.046875 18.281-0.14062c2.1094-0.046875 4.2188-0.046875 6.375-0.09375 1.2656 0 2.5781-0.046875 3.8438-0.09375 7.3594-0.14062 14.672-0.32812 21.938-0.5625 0.79688-0.046875 1.5469-0.046875 2.3438-0.09375 43.031-1.4531 84.328-4.6875 122.53-9.5625 2.0625-0.28125 4.0781-0.51562 6.1406-0.79688 4.7812-0.65625 9.5156-1.3125 14.203-1.9688 3.2344-0.46875 6.4688-0.9375 9.6562-1.4062 2.1562-0.32812 4.2188-0.70312 6.3281-1.0312h0.14062c30.703-4.7344 60.984-11.578 90.75-20.531 0.51562-0.14062 1.0781-0.28125 1.5469-0.46875l0.046875-0.046875v0.046875c17.953-5.4375 35.344-12.562 51.891-21.375l-27.141 205.74c-2.5312 18.656-6.9375 37.031-13.266 54.75-1.0781 3.1406-2.25 6.2344-3.75 9.75-9.6562 24.281-22.969 46.969-39.469 67.266-50.25 62.672-126.28 99.094-206.63 98.906h-134.26c-6.7969 0-13.547-0.23438-20.25-0.75h0.046874c-46.547-3.375-91.359-19.078-129.84-45.469-38.484-26.438-69.281-62.578-89.203-104.77-2.25-4.7812-4.5-9.6094-6.5156-14.578l-0.046875-0.09375c-8.9062-21.75-14.859-44.625-17.625-67.969l-24.516-203.11c37.359 20.953 96.188 35.953 163.31 45.516zm67.5 112.45v96.094h-66.141v-96.094zm644.11 253.45c0 71.719-212.9 151.6-518.44 151.6-305.44 0-518.29-79.875-518.29-151.6 0-40.406 67.359-82.875 176.95-112.22 0.51562 1.125 1.125 2.1562 1.6875 3.2812 1.5 3.1406 3.0938 6.1406 4.6875 9.1875 1.8281 3.5156 3.7031 7.0312 5.6719 10.453 1.7344 3 3.5156 5.9062 5.3438 8.8594 2.0625 3.3281 4.125 6.6094 6.3281 9.8438 1.9219 2.8594 3.9375 5.625 5.9062 8.3906 2.25 3.1406 4.5938 6.2344 6.9375 9.2344 2.1094 2.6719 4.2656 5.3438 6.4688 7.9219 2.4844 2.9062 4.9688 5.8125 7.5469 8.625 2.2969 2.5312 4.6406 5.0156 7.0312 7.4531 2.6719 2.7188 5.3438 5.3906 8.1094 7.9688 2.4844 2.3438 4.9688 4.6406 7.5 6.8906 2.8594 2.5312 5.7656 4.9688 8.7188 7.4062 2.625 2.1562 5.2031 4.2656 7.9219 6.2812 3.0469 2.2969 6.1406 4.5469 9.2344 6.75 2.7656 1.9219 5.4844 3.8438 8.2969 5.7188 3.1875 2.1094 6.4688 4.0781 9.75 6.0469 2.8594 1.7344 5.7188 3.4688 8.625 5.0625 3.375 1.875 6.7969 3.6094 10.266 5.3906 2.9531 1.5 5.9062 3.0469 8.9062 4.4531 3.5625 1.6406 7.1719 3.1406 10.828 4.6875 3.0469 1.2656 6 2.5781 9.0938 3.75 3.75 1.4062 7.5469 2.6719 11.391 3.9375 3.0469 1.0312 6.0938 2.1094 9.1875 3.0469 3.9844 1.1719 8.0156 2.1562 12.047 3.1875 3.0469 0.79688 6.0469 1.6406 9.0938 2.3438 4.2656 0.9375 8.625 1.6875 12.938 2.4375 2.9062 0.51562 5.7656 1.125 8.7188 1.5938 4.8281 0.70312 9.75 1.1719 14.672 1.6406 2.4844 0.23438 4.9219 0.60938 7.4531 0.79688 7.4531 0.5625 14.953 0.84375 22.5 0.84375l134.21 0.046875c5.625 0 11.203-0.14062 16.781-0.46875 1.875-0.09375 3.75-0.32812 5.625-0.46875 3.6562-0.28125 7.3594-0.51562 10.969-0.9375 2.2031-0.23438 4.4062-0.60938 6.6094-0.89062 3.2812-0.42188 6.5625-0.84375 9.7969-1.3594 2.3906-0.375 4.6875-0.89062 7.0781-1.3594 3.0469-0.5625 6.0938-1.125 9.0938-1.7812 2.4375-0.5625 4.8281-1.1719 7.2656-1.7812 2.9062-0.70312 5.7656-1.4062 8.625-2.2031 2.4844-0.70312 4.875-1.5 7.3125-2.25 2.7656-0.84375 5.5312-1.6875 8.2969-2.625 2.4844-0.84375 4.875-1.7812 7.3125-2.6719 2.6719-0.98438 5.3438-1.9688 7.9688-3.0469 2.4375-0.98438 4.875-2.0625 7.2656-3.0938 2.5781-1.125 5.1094-2.2031 7.6875-3.4219 2.4375-1.125 4.8281-2.3438 7.2188-3.5156 2.4844-1.2188 4.9219-2.4844 7.3594-3.7969 2.3906-1.2656 4.7344-2.625 7.0781-3.9375 2.3906-1.3594 4.7344-2.7188 7.0781-4.1719 2.3438-1.4062 4.6406-2.9062 6.8906-4.3594 2.2969-1.5 4.5469-2.9531 6.7969-4.5s4.5-3.1406 6.7031-4.7344 4.4062-3.2344 6.5625-4.9219 4.3125-3.375 6.4219-5.1094 4.2188-3.5156 6.3281-5.2969c2.0625-1.7812 4.125-3.6094 6.1406-5.4375 2.0625-1.875 4.0781-3.7969 6.0938-5.7188 1.9688-1.875 3.8906-3.7969 5.8125-5.7656 2.0156-2.0156 3.9375-4.0781 5.9062-6.1875 1.8281-1.9688 3.6562-3.9375 5.4375-5.9531 0.75-0.84375 1.5469-1.6875 2.3438-2.5312 0.75 0.09375 1.5938 0.046875 2.2969 0.14062l0.14062-0.046875c7.0312 0.75 14.062 1.1719 21.141 1.1719 5.4844 0 11.062-0.1875 16.688-0.5625 1.9219-0.14062 3.8438-0.375 5.7656-0.5625 3.75-0.32812 7.4531-0.65625 11.25-1.125 2.3438-0.28125 4.6875-0.70312 7.0312-1.0781 3.375-0.51562 6.7969-1.0312 10.172-1.6875 2.5312-0.46875 5.0625-1.0781 7.5938-1.5938 3.2344-0.70312 6.4688-1.3594 9.7031-2.2031 2.625-0.65625 5.2031-1.4062 7.8281-2.1094 3.1406-0.84375 6.2812-1.7344 9.4219-2.6719 2.625-0.79688 5.25-1.6875 7.875-2.5781 3.0938-1.0312 6.1406-2.0625 9.1875-3.1875 2.625-0.9375 5.2031-1.9688 7.7812-3 3-1.1719 6-2.4375 8.9531-3.7031 2.5312-1.0781 5.0625-2.25 7.5469-3.375 1.4531-0.65625 2.9531-1.2656 4.4062-1.9688 45.281 23.109 70.078 48.891 70.078 73.125zm-78.422-109.17c-4.7344 2.4844-9.6094 4.8281-14.531 7.0312-1.6406 0.75-3.3281 1.3594-5.0156 2.0625-3.3281 1.4062-6.6094 2.8594-9.9844 4.125-2.0625 0.79688-4.125 1.4531-6.1875 2.2031-3 1.0781-6.0469 2.2031-9.0938 3.1875-2.25 0.70312-4.5469 1.3125-6.8438 2.0156-2.8594 0.84375-5.7656 1.7344-8.625 2.4844-2.3438 0.60938-4.7344 1.0781-7.0781 1.6406-2.8125 0.65625-5.6719 1.3594-8.4844 1.9219-2.3906 0.46875-4.7344 0.79688-7.125 1.2188-2.8125 0.46875-5.625 0.98438-8.3906 1.4062-2.3438 0.32812-4.6406 0.51562-6.9844 0.79688-2.7656 0.28125-5.5781 0.65625-8.2969 0.84375-2.25 0.1875-4.5 0.23438-6.75 0.32812-2.2969 0.09375-4.6406 0.23438-6.8906 0.23438 0.79687-1.2188 1.4062-2.5781 2.2031-3.7969 3.1875-5.1562 6.1875-10.359 9.0469-15.703 1.2188-2.25 2.4844-4.5 3.6562-6.75 3.7969-7.5938 7.4062-15.234 10.5-23.062 0.1875-0.375 0.32812-0.79688 0.51562-1.1719 2.1094-0.32812 4.2656-0.75 6.4219-1.1719 1.0781-0.1875 2.1562-0.375 3.2344-0.60938 3.375-0.70312 6.75-1.4531 10.172-2.3438 1.2656-0.32812 2.5312-0.70312 3.7969-1.0312 2.25-0.60938 4.4531-1.1719 6.7031-1.875 1.4531-0.42188 2.9062-0.9375 4.3594-1.4062 2.0625-0.65625 4.125-1.3125 6.1875-2.0156 1.5-0.51562 3-1.125 4.5-1.6406 2.0156-0.75 4.0312-1.5 6.0469-2.2969 1.5-0.60938 3-1.2656 4.5-1.875 1.9688-0.84375 3.9844-1.6875 5.9531-2.5781 1.4531-0.65625 2.9531-1.4062 4.4062-2.1094 1.9688-0.9375 3.9375-1.9219 5.9062-2.9062l4.2188-2.25c1.9688-1.0781 3.8906-2.1562 5.8125-3.2812 1.3594-0.79688 2.7188-1.5938 4.0312-2.4375 1.9219-1.1719 3.7969-2.3906 5.6719-3.6562 1.2656-0.84375 2.5312-1.6875 3.7969-2.5781 1.875-1.3125 3.7031-2.6719 5.5312-4.0312 1.1719-0.89062 2.3438-1.7812 3.5156-2.7188 1.8281-1.4531 3.5625-2.9531 5.2969-4.4531 1.0781-0.9375 2.1562-1.875 3.1875-2.8125 1.7344-1.5938 3.4219-3.2812 5.1094-4.9219 0.9375-0.9375 1.9219-1.875 2.8125-2.8125 1.6875-1.8281 3.3281-3.7031 4.9219-5.5781 0.79688-0.89062 1.5938-1.7812 2.3438-2.7188 1.6875-2.1094 3.2812-4.3125 4.8281-6.5156 0.51562-0.75 1.125-1.5 1.6406-2.25 2.0156-3 3.9375-6.0938 5.625-9.2812 0.98438-1.8281 1.9688-3.7031 2.9062-5.7188 0.09375-0.1875 0.1875-0.42188 0.28125-0.65625l-0.14062-0.23438c3.8906-8.3438 6.9375-17.109 9.0938-26.109l0.28125-1.4062c0.42187-1.9688 0.84375-3.9375 1.2188-5.9062 0.046874-0.375 0.09375-0.70312 0.14062-1.0781l-0.046874-0.046875c3.4219-16.594 1.3594-33.844-5.8594-49.219-0.375-0.65625-0.84375-1.3125-1.2188-1.9688-0.84375-1.4062-1.6406-2.8594-2.625-4.1719h0.046876c-3-4.0781-6.5156-7.7344-10.547-10.828-2.2969-1.6875-4.6875-3.2344-7.2656-4.5938-0.60938-0.32812-1.2188-0.65625-1.875-0.9375h0.046874c-5.1094-2.4844-10.547-4.2188-16.125-5.2031-0.70312-0.14062-1.3594-0.23438-2.0625-0.32812h0.046876c-5.7656-0.84375-11.625-1.125-17.438-0.79688-0.70313 0.046875-1.4531 0.09375-2.1562 0.14062-2.9531 0.1875-5.9062 0.46875-8.8594 0.89062h-0.046874c-2.9531 0.42188-5.9062 0.98438-8.8594 1.5938-0.70312 0.14062-1.4062 0.28125-2.1094 0.46875-5.9062 1.3125-11.719 2.9531-17.25 4.7812-0.5625 0.1875-1.1719 0.375-1.7344 0.5625-4.7812 1.5938-9.375 3.3281-13.734 5.1094l7.0781-53.625c16.969-5.2031 34.641-8.0156 52.406-8.2969 24.891-0.51562 49.266 7.2656 69.281 22.125 53.672 41.297 47.672 116.11 19.406 168.14v-0.046875c-20.672 35.672-51.469 64.359-88.453 82.5zm-518.21-538.18c-11.484-31.312-4.7812-66.422 17.438-91.312l25.875-29.062c15-16.688 18.188-40.875 8.0156-60.844l-18.891-37.641c-2.1562-4.2656-2.5312-9.2344-1.0312-13.734 1.5-4.5469 4.7344-8.2969 9-10.453 8.9062-4.4531 19.734-0.89062 24.188 8.0156l18.938 37.641c16.828 33.141 11.531 73.266-13.312 100.97l-25.875 29.016c-13.406 15.047-17.438 36.188-10.547 55.078l11.672 31.969c3.4219 9.3281-1.3594 19.641-10.688 23.062-9.375 3.4219-19.688-1.4062-23.109-10.734zm112.69-5.3906c-13.031-35.578-5.3906-75.469 19.828-103.78l30.281-33.984c18.328-20.438 22.219-50.016 9.7969-74.531l-22.125-44.016c-4.4531-8.9062-0.84375-19.688 8.0156-24.141 8.8594-4.5 19.688-0.89063 24.141 7.9688l22.125 44.016c19.125 37.688 13.125 83.203-15.094 114.66l-30.281 33.984c-16.406 18.422-21.328 44.344-12.844 67.453l13.641 37.359v0.046874c3.375 9.3281-1.4062 19.641-10.734 23.062-9.3281 3.375-19.688-1.4062-23.109-10.734z"/>
</svg>
