<?xml version="1.0" encoding="UTF-8"?>
<svg width="1200pt" height="1200pt" version="1.1" viewBox="0 0 1200 1200" xmlns="http://www.w3.org/2000/svg">
 <path d="m337.92 516.89 262.87 152.21 260.16-150.61c-10.266-30.703 1.9688-64.453 29.484-81.469 27.562-17.016 63.188-12.844 86.109 10.031 26.859 26.859 27.281 70.266 0.89062 97.641l-0.9375 1.0312h0.046875c-27.094 27.047-70.969 27.234-98.297 0.42188l-261.05 151.18v300.28c12.141 3.0938 23.203 9.4219 32.062 18.281h0.09375c13.078 13.078 20.438 30.844 20.438 49.312 0 18.516-7.3594 36.234-20.438 49.312h-0.09375c-13.031 13.078-30.797 20.438-49.266 20.438-18.516 0-36.234-7.3594-49.312-20.438h-0.046875c-13.078-13.078-20.484-30.797-20.484-49.312s7.4062-36.234 20.484-49.312h0.046875c9.2812-9.2812 21-15.75 33.75-18.656v-299.9l-263.16-152.34-0.75 0.79688c-19.922 19.969-49.969 26.016-76.078 15.234-26.109-10.828-43.125-36.281-43.172-64.5 0-28.266 16.969-53.719 43.078-64.547s56.109-4.875 76.125 15.094l0.09375 0.046875h-0.046875c18.234 18.281 24.938 45.094 17.391 69.797zm335.39 222h-0.09375v251.53c-0.046875 6.4688 3.75 12.281 9.5625 14.953l214.36 123.37c5.6719 4.0312 13.266 4.0312 18.938 0l215.68-124.18c5.0625-2.9062 8.2031-8.2969 8.1562-14.156h0.09375v-251.53c0-6.4219-3.75-12.234-9.6094-14.906l-215.68-124.18c-5.0625-2.9062-11.391-2.8594-16.453 0.14062l-216.61 124.74c-1.2656 0.70312-2.4375 1.5469-3.4219 2.5781l-0.28125 0.28125v-0.046875c-1.2656 1.2656-2.2969 2.7656-3.0469 4.3594l-0.28125 0.60938c-0.89062 2.0156-1.3125 4.2188-1.3125 6.4219zm48.938 0 184.36 106.17 184.36-106.17-184.36-106.12zm168 134.34-184.31-106.12v213.98l184.31 106.12zm217.03-106.12-184.31 106.12v213.98l184.26-106.12zm-588.89-42.422-216.66-124.69c-5.0625-3-11.391-3.0469-16.453-0.14062l-215.68 124.13c-5.8594 2.6719-9.6094 8.4844-9.6094 14.906v251.53h0.09375c-0.046876 5.8594 3.0938 11.25 8.1562 14.156l215.63 124.18c5.7188 4.0312 13.312 4.0312 18.984 0l214.36-123.37c5.8125-2.6719 9.6094-8.4844 9.5625-14.953v-251.53h-0.09375 0.046874c0-2.2031-0.46875-4.3594-1.3125-6.4219l-0.28125-0.60938c-0.79687-1.5938-1.8281-3.0938-3.0469-4.3594l-0.28125-0.28125v0.046875c-1.0312-1.0312-2.1562-1.875-3.4219-2.5781zm-24.328 42.422-184.31 106.12v213.98l184.26-106.12v-213.98zm-200.68 77.953 184.36-106.17-184.36-106.12-184.36 106.12zm-16.359 28.172-184.31-106.12v213.98l184.31 106.12zm333-275.34 216-126c5.0625-2.9531 8.1562-8.3438 8.1562-14.156v-249.84c0-6.2812-3.5625-11.953-9.1406-14.719l-216-126c-5.1562-2.9531-11.484-2.9531-16.594 0.09375l-217.69 126c-2.8125 1.4531-5.2031 3.7031-6.7969 6.4688-1.4062 2.4844-2.1562 5.2969-2.1562 8.1094v249.94c0 6.2344 3.5625 11.953 9.2344 14.719l216.56 125.39c5.5312 3.7969 12.844 3.7969 18.422 0zm-25.594-41.859v-213.74l-185.9-106.22v212.29l185.9 107.62zm32.719-213.84v213.71l184.26-107.48 0.046876-212.29-184.26 106.08zm-202.26-134.39 185.9-107.62 184.55 107.67-184.45 106.22-185.95-106.31zm-106.64 288.61c0-17.719-12.516-32.906-29.906-36.328-17.344-3.4219-34.688 5.9062-41.438 22.266-6.75 16.359-0.98438 35.203 13.734 45 14.719 9.7969 34.312 7.8281 46.828-4.7344 6.9375-6.9375 10.781-16.406 10.781-26.203zm328.78 568.78h0.046875c-0.09375-17.625-12.562-32.719-29.859-36.141-17.297-3.375-34.594 5.9062-41.297 22.219s-0.98438 35.062 13.688 44.859c14.672 9.75 34.219 7.7812 46.641-4.6875 6.9375-6.9375 10.828-16.406 10.828-26.25zm327.19-568.78c0.046875-9.8438-3.8438-19.266-10.781-26.25-10.594-10.594-26.578-13.781-40.406-8.0625-13.875 5.7656-22.922 19.266-22.922 34.266s9.0469 28.547 22.922 34.266c13.828 5.7656 29.812 2.5781 40.406-8.0156l0.70312-0.65625v-0.046876c6.5156-6.8906 10.125-16.031 10.078-25.5z" fill-rule="evenodd"/>
</svg>
