<?xml version="1.0" encoding="UTF-8"?>
<svg width="1200pt" height="1200pt" version="1.1" viewBox="0 0 1200 1200" xmlns="http://www.w3.org/2000/svg">
 <defs>
  <clipPath id="a">
   <path d="m247 222.14h730.86v579.86h-730.86z"/>
  </clipPath>
 </defs>
 <g clip-path="url(#a)">
  <path d="m873.9 425.89c1.9648-8.8672 3.1992-17.961 3.1992-27.406 0-69.574-56.402-125.95-125.95-125.95-19.348 0-37.434 4.6602-53.832 12.496-27.434-38.09-72.02-62.879-122.5-62.879-66.125 0-122.17 42.445-142.68 101.59-2.8477-0.20312-5.5664-0.83203-8.4648-0.83203-69.551 0-125.95 56.375-125.95 125.95 0 8.1133 0.93359 16.047 2.418 23.754-31.867 22.824-52.801 59.98-52.801 102.15 0 69.625 56.375 126 125.95 126 28.516 0 54.512-9.8477 75.621-25.82 22.973 30.809 59.324 51.012 100.71 51.012 20.379 0 39.371-5.3164 56.375-13.93 15.719 51.664 63.176 89.5 119.96 89.5 69.574 0 125.95-56.375 125.95-125.95 69.574 0 125.95-56.375 125.95-126 0.003906-61.992-44.91-113.26-103.96-123.68z"/>
 </g>
 <path d="m549.62 814.12c0 34.781-28.195 62.977-62.977 62.977s-62.977-28.195-62.977-62.977 28.195-62.977 62.977-62.977 62.977 28.195 62.977 62.977z"/>
 <path d="m398.48 889.69c0 20.871-16.914 37.785-37.785 37.785-20.867 0-37.785-16.914-37.785-37.785 0-20.867 16.918-37.785 37.785-37.785 20.871 0 37.785 16.918 37.785 37.785z"/>
</svg>
