<?xml version="1.0" encoding="UTF-8"?>
<svg width="1200pt" height="1200pt" version="1.1" viewBox="0 0 1200 1200" xmlns="http://www.w3.org/2000/svg">
 <path d="m230.16 647.34c12.938-31.312 29.766-60.656 49.828-87.328-48.562-36.516-79.969-94.594-79.969-160.03 0-110.44 89.531-199.97 199.97-199.97 17.25 0 33.984 2.1562 49.969 6.2812 17.109-30.891 38.203-59.297 62.625-84.469-34.781-14.062-72.75-21.844-112.59-21.844-165.66 0-300 134.34-300 300 0 102.66 51.562 193.26 130.18 247.36z"/>
 <path d="m400.03 399.98c0-27.516 2.7656-54.422 8.0625-80.391l-8.0625-8.1094-88.406 88.406 88.406 88.406 8.0156-8.0625c-5.25-25.922-8.0156-52.734-8.0156-80.25z"/>
 <path d="m717.66 474.98h164.72l17.625-26.438-82.359-123.56h-35.297l-82.359 123.56z"/>
 <path d="m800.02 200.02c-110.48 0-200.02 89.531-200.02 199.97-34.453 0-67.875 4.3594-99.75 12.562-0.1875-4.1719-0.23438-8.3438-0.23438-12.562 0-165.66 134.29-300 300-300 165.66 0 300 134.34 300 300 0 102.66-51.562 193.26-130.18 247.36-12.938-31.312-29.766-60.656-49.828-87.328 48.562-36.516 79.969-94.594 79.969-160.03 0-110.44-89.531-199.97-199.97-199.97z"/>
 <path d="m686.63 750-86.625-50.016-86.578 50.016v99.984l86.578 50.016 86.625-50.016z"/>
 <path d="m300 800.02c0-165.71 134.29-300 300-300s300 134.29 300 300c0 165.66-134.29 300-300 300s-300-134.34-300-300zm300-200.02c-110.44 0-200.02 89.531-200.02 200.02 0 110.44 89.578 199.97 200.02 199.97s200.02-89.531 200.02-199.97c0-110.48-89.578-200.02-200.02-200.02z" fill-rule="evenodd"/>
</svg>
