<?xml version="1.0" encoding="UTF-8"?>
<svg width="1200pt" height="1200pt" version="1.1" viewBox="0 0 1200 1200" xmlns="http://www.w3.org/2000/svg">
 <path d="m168.75 337.5h39.188l70.312 773.81c1.2656 14.023 7.75 27.062 18.164 36.539 10.414 9.4805 24.004 14.707 38.086 14.648h531.19c14.082 0.058594 27.672-5.168 38.086-14.648 10.414-9.4766 16.898-22.516 18.164-36.539l70.125-773.81h39.188c4.9727 0 9.7422-1.9766 13.258-5.4922 3.5156-3.5156 5.4922-8.2852 5.4922-13.258v-75c0-24.863-9.8789-48.711-27.457-66.293-17.582-17.578-41.43-27.457-66.293-27.457h-168.75v-56.25c0-14.918-5.9258-29.227-16.477-39.773-10.547-10.551-24.855-16.477-39.773-16.477h-262.5c-14.918 0-29.227 5.9258-39.773 16.477-10.551 10.547-16.477 24.855-16.477 39.773v56.25h-168.75c-24.863 0-48.711 9.8789-66.293 27.457-17.578 17.582-27.457 41.43-27.457 66.293v75c0 4.9727 1.9766 9.7422 5.4922 13.258 3.5156 3.5156 8.2852 5.4922 13.258 5.4922zm715.69 770.44c-0.42188 4.6758-2.582 9.0195-6.0547 12.18-3.4727 3.1602-8 4.9023-12.695 4.8828h-531.38c-4.6953 0.019531-9.2227-1.7227-12.695-4.8828-3.4727-3.1602-5.6328-7.5039-6.0547-12.18l-69.938-770.44h708.75zm-434.44-1014.2c0-4.9727 1.9766-9.7422 5.4922-13.258 3.5156-3.5156 8.2852-5.4922 13.258-5.4922h262.5c4.9727 0 9.7422 1.9766 13.258 5.4922 3.5156 3.5156 5.4922 8.2852 5.4922 13.258v56.25h-300zm-262.5 150c0-14.918 5.9258-29.227 16.477-39.773 10.547-10.551 24.855-16.477 39.773-16.477h712.5c14.918 0 29.227 5.9258 39.773 16.477 10.551 10.547 16.477 24.855 16.477 39.773v56.25h-825z"/>
 <path d="m656.25 412.5h37.5v637.5h-37.5z"/>
 <path d="m506.25 412.5h37.5v637.5h-37.5z"/>
 <path d="m806.25 412.5h37.5v637.5h-37.5z"/>
 <path d="m356.25 412.5h37.5v562.5h-37.5z"/>
 <path d="m356.25 1012.5h37.5v37.5h-37.5z"/>
</svg>
