<?xml version="1.0" encoding="UTF-8"?>
<svg width="1200pt" height="1200pt" version="1.1" viewBox="0 0 1200 1200" xmlns="http://www.w3.org/2000/svg">
 <path d="m557.82 56.25c-97.094 0-175.97 78.27-175.97 174.92 0 22.281 4.3164 43.59 11.941 63.242-73.348 21.066-126.98 88.125-126.98 167.84 0 22.812 4.5156 44.594 12.496 64.594-71.02 22.484-122.42 88.422-122.42 166.48 0 96.648 78.871 174.92 175.96 174.92h248.39v256.75l0.003906 0.003906c0 4.9727 1.9727 9.7383 5.4883 13.258 3.5156 3.5156 8.2852 5.4922 13.258 5.4922s9.7422-1.9766 13.258-5.4922c3.5156-3.5156 5.4922-8.2852 5.4922-13.258v-256.75h248.39c97.094 0 175.96-78.27 175.96-174.92 0-78.059-51.398-143.99-122.42-166.48 7.9766-20 12.496-41.789 12.496-64.598 0-79.715-53.629-146.77-126.98-167.84 7.6211-19.648 11.941-40.961 11.941-63.242 0-96.648-78.875-174.92-175.97-174.92zm0 37.496h84.355c77.102 0 138.46 61.035 138.46 137.42 0 24.57-6.3633 47.445-17.555 67.285v0.003906c-3.0469 5.4023-3.2227 11.961-0.47266 17.523 2.75 5.5586 8.0703 9.3984 14.215 10.258 67.48 9.4219 118.85 66.258 118.85 136.01 0 24.812-6.5391 47.895-17.98 67.91-3.0391 5.3203-3.2891 11.785-0.66797 17.32 2.6172 5.5352 7.7734 9.4453 13.812 10.469 65.441 11.102 114.76 67.035 114.76 135.38 0 76.387-61.359 137.42-138.46 137.42h-248.39v-89.324l111.63-95.844c3.7734-3.2383 6.1016-7.8438 6.4805-12.801s-1.2305-9.8633-4.4688-13.637c-3.2383-3.7734-7.8438-6.1094-12.805-6.4883-4.957-0.375-9.8672 1.2344-13.637 4.4727l-87.199 74.863v-277.3 0.003906c0-4.9727-1.9766-9.7422-5.4922-13.262-3.5156-3.5156-8.2852-5.4922-13.258-5.4922-4.9727 0.003906-9.7422 1.9805-13.258 5.4961-3.5156 3.5156-5.4883 8.2852-5.4883 13.258v86.086l-87.203-74.867c-3.7695-3.2422-8.6758-4.8516-13.637-4.4766-4.957 0.37891-9.5625 2.7148-12.801 6.4883-3.2383 3.7734-4.8477 8.6797-4.4688 13.637 0.375 4.957 2.707 9.5625 6.4805 12.805l111.63 95.84v182.47 0.070313 97.969h-248.39c-77.102 0-138.46-61.035-138.46-137.42 0-68.348 49.32-124.28 114.76-135.38v0.003906c6.0391-1.0234 11.195-4.9336 13.812-10.469 2.6172-5.5352 2.3672-12-0.66797-17.316-11.438-20.016-17.98-43.098-17.98-67.91 0-69.754 51.363-126.59 118.84-136.01l0.003906-0.003906c6.1406-0.85547 11.465-4.6992 14.215-10.258 2.7461-5.5625 2.5703-12.121-0.47656-17.523-11.184-19.84-17.551-42.715-17.551-67.285 0-76.387 61.363-137.42 138.46-137.42z" fill-rule="evenodd"/>
</svg>
