<?xml version="1.0" encoding="UTF-8"?>
<svg width="1200pt" height="1200pt" version="1.1" viewBox="0 0 1200 1200" xmlns="http://www.w3.org/2000/svg">
 <path d="m1027.5 56.25h-855c-64.219 0-116.25 52.031-116.25 116.25v855c0 30.844 12.234 60.422 34.031 82.219s51.375 34.031 82.219 34.031h855c30.844 0 60.422-12.234 82.219-34.031s34.031-51.375 34.031-82.219v-855c0-30.844-12.234-60.422-34.031-82.219s-51.375-34.031-82.219-34.031zm-855 37.5h855c20.906 0 40.922 8.2969 55.688 23.062s23.062 34.781 23.062 55.688v108.75h-1012.5v-108.75c0-43.5 35.25-78.75 78.75-78.75zm855 1012.5h-855c-43.5 0-78.75-35.25-78.75-78.75v-708.74h1012.5v708.74c0 20.906-8.2969 40.922-23.062 55.688s-34.781 23.062-55.688 23.062zm-821.26-862.5c15.094 0.51562 29.672-5.25 40.359-15.891 10.641-10.688 16.406-25.266 15.891-40.359 0-31.078-25.172-56.25-56.25-56.25-31.078 0-56.25 25.172-56.25 56.25-0.51563 15.094 5.25 29.672 15.891 40.359 10.688 10.641 25.266 16.406 40.359 15.891zm0-75c5.1562-0.60938 10.266 1.1719 13.922 4.8281s5.4375 8.7656 4.8281 13.922c0.60937 5.1562-1.1719 10.266-4.8281 13.922s-8.7656 5.4375-13.922 4.8281c-5.1562 0.60938-10.266-1.1719-13.922-4.8281s-5.4375-8.7656-4.8281-13.922c-0.60938-5.1562 1.1719-10.266 4.8281-13.922s8.7656-5.4375 13.922-4.8281zm150 75c15.094 0.51562 29.672-5.25 40.359-15.891 10.641-10.688 16.406-25.266 15.891-40.359 0-31.078-25.172-56.25-56.25-56.25-31.078 0-56.25 25.172-56.25 56.25-0.51563 15.094 5.25 29.672 15.891 40.359 10.688 10.641 25.266 16.406 40.359 15.891zm0-75c5.1562-0.60938 10.266 1.1719 13.922 4.8281s5.4375 8.7656 4.8281 13.922c0 10.359-8.3906 18.75-18.75 18.75-10.359 0-18.75-8.3906-18.75-18.75-0.60938-5.1562 1.1719-10.266 4.8281-13.922s8.7656-5.4375 13.922-4.8281zm150 75c15.094 0.51562 29.672-5.25 40.359-15.891 10.641-10.688 16.406-25.266 15.891-40.359 0-31.078-25.172-56.25-56.25-56.25-31.078 0-56.25 25.172-56.25 56.25-0.51563 15.094 5.25 29.672 15.891 40.359 10.688 10.641 25.266 16.406 40.359 15.891zm0-75c5.1562-0.60938 10.266 1.1719 13.922 4.8281s5.4375 8.7656 4.8281 13.922c0 10.359-8.3906 18.75-18.75 18.75-10.359 0-18.75-8.3906-18.75-18.75-0.60938-5.1562 1.1719-10.266 4.8281-13.922s8.7656-5.4375 13.922-4.8281zm150 18.75c-0.60938-5.1562 1.1719-10.266 4.8281-13.922s8.7656-5.4375 13.922-4.8281h337.5c5.1562-0.60938 10.266 1.1719 13.922 4.8281s5.4375 8.7656 4.8281 13.922c0.60937 5.1562-1.1719 10.266-4.8281 13.922s-8.7656 5.4375-13.922 4.8281h-337.5c-5.1562 0.60938-10.266-1.1719-13.922-4.8281s-5.4375-8.7656-4.8281-13.922zm-281.26 206.26h-150c-15.094-0.51562-29.672 5.25-40.359 15.891-10.641 10.688-16.406 25.266-15.891 40.359v525c-0.51562 15.094 5.25 29.672 15.891 40.359 10.688 10.641 25.266 16.406 40.359 15.891h150c15.094 0.51563 29.672-5.25 40.359-15.891 10.641-10.688 16.406-25.266 15.891-40.359v-525c0.51562-15.094-5.25-29.672-15.891-40.359-10.688-10.641-25.266-16.406-40.359-15.891zm18.75 581.26c0.60938 5.1562-1.1719 10.266-4.8281 13.922s-8.7656 5.4375-13.922 4.8281h-150c-5.1562 0.60938-10.266-1.1719-13.922-4.8281s-5.4375-8.7656-4.8281-13.922v-525c-0.60938-5.1562 1.1719-10.266 4.8281-13.922s8.7656-5.4375 13.922-4.8281h150c5.1562-0.60938 10.266 1.1719 13.922 4.8281s5.4375 8.7656 4.8281 13.922zm581.26-375h-412.5c-15.094-0.51562-29.672 5.25-40.359 15.891-10.641 10.688-16.406 25.266-15.891 40.359v18.75c-0.51563 15.094 5.25 29.672 15.891 40.359 10.688 10.641 25.266 16.406 40.359 15.891h412.5c15.094 0.51562 29.672-5.25 40.359-15.891 10.641-10.688 16.406-25.266 15.891-40.359v-18.75c0.51562-15.094-5.25-29.672-15.891-40.359-10.688-10.641-25.266-16.406-40.359-15.891zm18.75 75c0.60937 5.1562-1.1719 10.266-4.8281 13.922s-8.7656 5.4375-13.922 4.8281h-412.5c-5.1562 0.60938-10.266-1.1719-13.922-4.8281s-5.4375-8.7656-4.8281-13.922v-18.75c-0.60938-5.1562 1.1719-10.266 4.8281-13.922s8.7656-5.4375 13.922-4.8281h412.5c5.1562-0.60938 10.266 1.1719 13.922 4.8281s5.4375 8.7656 4.8281 13.922zm-18.75-281.26h-412.5c-15.094-0.51562-29.672 5.25-40.359 15.891-10.641 10.688-16.406 25.266-15.891 40.359v18.75c-0.51563 15.094 5.25 29.672 15.891 40.359 10.688 10.641 25.266 16.406 40.359 15.891h412.5c15.094 0.51563 29.672-5.25 40.359-15.891 10.641-10.688 16.406-25.266 15.891-40.359v-18.75c0.51562-15.094-5.25-29.672-15.891-40.359-10.688-10.641-25.266-16.406-40.359-15.891zm18.75 75c0.60937 5.1562-1.1719 10.266-4.8281 13.922s-8.7656 5.4375-13.922 4.8281h-412.5c-5.1562 0.60938-10.266-1.1719-13.922-4.8281s-5.4375-8.7656-4.8281-13.922v-18.75c-0.60938-5.1562 1.1719-10.266 4.8281-13.922s8.7656-5.4375 13.922-4.8281h412.5c5.1562-0.60937 10.266 1.1719 13.922 4.8281s5.4375 8.7656 4.8281 13.922zm-318.74 337.5h-112.5c-15.094-0.51562-29.672 5.25-40.359 15.891-10.641 10.688-16.406 25.266-15.891 40.359v112.5c-0.51562 15.094 5.25 29.672 15.891 40.359 10.688 10.641 25.266 16.406 40.359 15.891h112.5c15.094 0.51563 29.672-5.25 40.359-15.891 10.641-10.688 16.406-25.266 15.891-40.359v-112.5c0.51562-15.094-5.25-29.672-15.891-40.359-10.688-10.641-25.266-16.406-40.359-15.891zm18.75 168.74c0.60938 5.1562-1.1719 10.266-4.8281 13.922s-8.7656 5.4375-13.922 4.8281h-112.5c-5.1562 0.60938-10.266-1.1719-13.922-4.8281s-5.4375-8.7656-4.8281-13.922v-112.5c-0.60938-5.1562 1.1719-10.266 4.8281-13.922s8.7656-5.4375 13.922-4.8281h112.5c5.1562-0.60938 10.266 1.1719 13.922 4.8281s5.4375 8.7656 4.8281 13.922zm281.26-168.74h-112.5c-15.094-0.51562-29.672 5.25-40.359 15.891-10.641 10.688-16.406 25.266-15.891 40.359v112.5c-0.51562 15.094 5.25 29.672 15.891 40.359 10.688 10.641 25.266 16.406 40.359 15.891h112.5c15.094 0.51563 29.672-5.25 40.359-15.891 10.641-10.688 16.406-25.266 15.891-40.359v-112.5c0.51563-15.094-5.25-29.672-15.891-40.359-10.688-10.641-25.266-16.406-40.359-15.891zm18.75 168.74c0.60938 5.1562-1.1719 10.266-4.8281 13.922s-8.7656 5.4375-13.922 4.8281h-112.5c-5.1562 0.60938-10.266-1.1719-13.922-4.8281s-5.4375-8.7656-4.8281-13.922v-112.5c-0.60937-5.1562 1.1719-10.266 4.8281-13.922s8.7656-5.4375 13.922-4.8281h112.5c5.1562-0.60938 10.266 1.1719 13.922 4.8281s5.4375 8.7656 4.8281 13.922z"/>
</svg>
