<?xml version="1.0" encoding="UTF-8"?>
<svg width="1200pt" height="1200pt" version="1.1" viewBox="0 0 1200 1200" xmlns="http://www.w3.org/2000/svg">
 <path d="m892.37 290.06-264.26 263.89-131.78-67.07 17.945-2.3398c6.6133-0.84766 11.102-6.7773 10.156-13.246-0.70703-6.4492-6.6133-11.008-13.223-10.18l-53.375 6.9922c-3.543 0.46875-6.8477 2.6211-8.5 5.832-1.8906 3.2109-2.125 7.0859-0.71094 10.484l21.02 49.57c2.5977 6 9.4453 8.7852 15.352 6.2578 6.1406-2.5508 8.9727-9.4922 6.375-15.492l-7.5547-17.758 126.82 64.52-316.46 316.15 115.96-384.59 5.9023 16.602c2.3633 6.1406 9.2109 9.3047 15.352 7.0625 5.9023-2.2188 9.2109-8.9961 6.8477-15.113l-18.184-50.539c-1.418-3.4727-4.25-6.1641-7.793-7.25-3.543-1.0859-7.3203-0.47266-10.156 1.6758l-43.926 31.27c-5.4297 3.7773-6.6094 11.168-2.832 16.484 3.7773 5.2891 11.336 6.5156 16.531 2.7383l16.059-11.5-129.89 431.27c-1.4141 4.3711 0 9.1172 3.3086 12.164 3.3047 3.0703 8.2656 3.8984 12.516 2.1484l508.45-211.18-9.6797 17.148c-3.3086 5.668-1.1836 12.867 4.4844 16.105 5.668 3.2109 12.754 1.25 16.059-4.418l26.688-47.137c1.8906-3.1641 2.125-6.9922 0.70703-10.344-1.4141-3.3789-4.25-5.9062-7.793-6.8711l-51.008-14.172c-6.3789-1.7461-12.754 1.9375-14.645 8.2188-1.6523 6.2812 1.8906 12.801 8.2656 14.547l18.184 5.0078-453.66 188.43 312.91-312.66 208.77 106.25c5.9062 2.9531 12.988 0.63672 15.824-5.1719 3.0703-5.8086 0.70703-12.918-5.1953-15.895l-201.92-102.75 260.01-259.85-4.7227 20.098c-1.418 6.332 2.5977 12.707 8.7383 14.195 6.375 1.4883 12.754-2.457 14.406-8.7852l13.461-57.34c0.94531-3.8984-0.23828-7.9844-3.0703-10.887-2.5977-2.8828-6.8477-4.1797-10.629-3.4258l-58.332 11.004c-6.375 1.207-10.625 7.3945-9.4453 13.793 1.1797 6.4023 7.3203 10.629 13.699 9.3984zm-26.684 342.86 11.336-55.145c1.1797-6.4023-2.8359-12.637-9.2109-13.957-6.3789-1.3242-12.754 2.8086-13.934 9.1875l-11.574 55.141c-1.1797 6.4023 2.8359 12.637 9.2109 13.957 6.3789 1.3242 12.754-2.8086 14.172-9.1836zm20.543-101.22 10.395-52.289c1.4141-6.3984-2.8359-12.633-9.2109-13.91-6.3789-1.2969-12.516 2.8594-13.934 9.2344l-10.391 52.312c-1.418 6.375 2.832 12.609 9.2109 13.91 6.375 1.2734 12.516-2.8594 13.93-9.2578zm-388.25-127.55-60.93 21.891c-6.1406 2.1953-9.4453 8.9727-7.0859 15.09 2.125 6.1406 8.9766 9.3281 15.117 7.1328l60.926-21.891c6.1406-2.1992 9.4492-8.9766 7.0859-15.117-2.125-6.1133-8.9727-9.3281-15.113-7.1055zm408.56 25.668 10.863-49.852c1.418-6.375-2.5977-12.66-8.9766-14.051-6.375-1.3945-12.75 2.6445-13.934 9.0195l-10.863 49.832c-1.4141 6.375 2.5977 12.68 8.9766 14.051 6.375 1.3945 12.516-2.6445 13.934-9zm-301.34-64.094-59.746 21.422c-6.1406 2.1953-9.4453 8.9492-7.0859 15.09 2.125 6.1406 8.9727 9.3281 15.113 7.1328l59.516-21.422c6.1367-2.1953 9.4453-8.9727 7.3203-15.09-2.3633-6.1406-8.9766-9.3281-15.117-7.1328zm106.27-38.211-58.094 20.879c-6.1406 2.1953-9.2109 8.9492-7.0859 15.09s8.9727 9.3281 15.113 7.1328l58.098-20.855c6.1406-2.1953 9.4453-8.9727 7.082-15.113-2.125-6.1406-8.9727-9.3281-15.113-7.1328zm109.34-39.227-59.75 21.492c-6.1406 2.1953-9.2109 8.9492-7.0859 15.09 2.1289 6.1406 8.9766 9.3281 15.117 7.1328l59.746-21.465c6.1406-2.1992 9.4492-8.9766 7.0859-15.117-2.125-6.1172-8.9727-9.3281-15.113-7.1328z" fill-rule="evenodd"/>
</svg>
