<?xml version="1.0" encoding="UTF-8"?>
<svg width="1200pt" height="1200pt" version="1.1" viewBox="0 0 1200 1200" xmlns="http://www.w3.org/2000/svg">
 <path d="m1069.6 494.66c-12.59 0.015625-24.797 4.3086-34.625 12.18-9.8281 7.8672-16.688 18.844-19.453 31.125h-55.996c-9.1914-53.379-30.188-104.04-61.457-148.26l39.633-39.641c15.504 9.5117 34.684 10.824 51.34 3.5117s28.672-22.32 32.164-40.172c3.4922-17.852-1.9844-36.281-14.66-49.328l-70.594-70.605c-13.043-12.715-31.492-18.219-49.371-14.734-17.875 3.4883-32.906 15.523-40.215 32.203-7.3125 16.684-5.9727 35.895 3.5859 51.398l-39.625 39.621-0.003906 0.003907c-44.227-31.273-94.879-52.273-148.26-61.469v-55.996c17.742-4.1875 32.293-16.82 38.934-33.797 6.6367-16.977 4.5156-36.133-5.6797-51.246-10.195-15.109-27.16-24.25-45.387-24.453h-99.828c-18.207 0.23828-35.137 9.3906-45.309 24.492-10.172 15.102-12.289 34.23-5.668 51.191 6.6172 16.961 21.137 29.594 38.848 33.812l-0.003906 55.992v0.003907c-53.379 9.1953-104.03 30.195-148.26 61.469l-39.625-39.625c9.5312-15.508 10.855-34.703 3.543-51.371-7.3125-16.668-22.332-28.695-40.195-32.184-17.867-3.4922-36.309 2-49.355 14.691l-70.594 70.602c-12.699 13.043-18.191 31.484-14.707 49.352 3.4883 17.863 15.516 32.883 32.188 40.195 16.672 7.3086 35.867 5.9766 51.371-3.5625l39.629 39.645c-31.27 44.227-52.266 94.883-61.457 148.26h-55.996c-4.1797-17.75-16.812-32.309-33.789-38.953-16.98-6.6445-36.141-4.5234-51.254 5.6758-15.117 10.195-24.258 27.168-24.453 45.398v99.828c0.17969 18.242 9.3164 35.23 24.438 45.438 15.121 10.207 34.293 12.328 51.277 5.6758s29.617-21.23 33.781-38.992h55.996c9.1914 53.379 30.188 104.04 61.457 148.26l-39.613 39.625c-15.508-9.5898-34.734-10.949-51.438-3.6406-16.699 7.3086-28.75 22.355-32.227 40.25-3.4805 17.898 2.0508 36.359 14.801 49.395l70.594 70.605c13.043 12.711 31.492 18.219 49.367 14.73 17.879-3.4883 32.906-15.52 40.215-32.203 7.3125-16.684 5.9727-35.887-3.582-51.395l39.625-39.621h0.003906c44.223 31.273 94.879 52.273 148.26 61.469v55.992c-17.742 4.1875-32.293 16.82-38.934 33.797-6.6406 16.977-4.5156 36.133 5.6797 51.246 10.195 15.109 27.16 24.25 45.387 24.453h99.828c18.242-0.18359 35.223-9.3203 45.43-24.438s12.328-34.285 5.6797-51.273c-6.6484-16.984-21.223-29.617-38.98-33.785v-55.992l0.003906-0.003907c53.379-9.1914 104.03-30.191 148.26-61.469l39.625 39.625c-9.8203 15.504-11.332 34.859-4.0391 51.699 7.2969 16.84 22.453 28.977 40.48 32.414 18.027 3.4336 36.586-2.2734 49.562-15.246l70.598-70.605c45.746-45.734-13.719-121.29-68.867-86.004l-39.613-39.625c31.27-44.227 52.266-94.883 61.457-148.26h55.996c4.1797 17.746 16.812 32.309 33.793 38.949 16.977 6.6445 36.137 4.5234 51.25-5.6719 15.113-10.199 24.254-27.168 24.453-45.398v-99.828c-0.015625-14.695-5.8594-28.781-16.246-39.172-10.391-10.391-24.477-16.238-39.172-16.254zm17.918 155.25c-2.8984 27.957-40.324 21.387-35.832-6.6289 0-4.9727-1.9766-9.7422-5.4922-13.258s-8.2852-5.4922-13.258-5.4922h-89.578c-4.5703 0.003906-8.9805 1.6719-12.406 4.6953-3.4258 3.0273-5.6289 7.1953-6.1953 11.73-7.3086 58.203-30.172 113.36-66.184 159.67-2.8047 3.6055-4.1953 8.1133-3.9102 12.672 0.28516 4.5586 2.2266 8.8555 5.457 12.086l63.375 63.371c3.5156 3.5156 8.2812 5.4922 13.254 5.4922 4.9727 0 9.7422-1.9766 13.258-5.4922 16.398-22.984 47.816-1.0977 30.031 20.656l-70.598 70.605c-21.922 17.809-43.555-13.68-20.652-30.027v-0.003907c3.5156-3.5156 5.4922-8.2852 5.4922-13.258 0-4.9727-1.9766-9.7422-5.4961-13.258l-63.371-63.371c-3.2305-3.2344-7.5273-5.1758-12.09-5.4609-4.5586-0.28906-9.0664 1.1016-12.676 3.9062-46.297 36.02-101.45 58.887-159.66 66.191-4.5312 0.56641-8.7031 2.7695-11.73 6.1953-3.0234 3.4258-4.6914 7.8398-4.6953 12.406v89.578c0 4.9727 1.9766 9.7422 5.4922 13.258s8.2852 5.4922 13.258 5.4922c27.98-4.5508 34.523 33.023 6.6172 35.836l-99.824-0.003906c-4.75-0.003906-9.3008-1.8945-12.66-5.25s-5.25-7.9102-5.2578-12.656c0.3125-5.8867 3.2539-11.316 8.0117-14.793 4.7578-3.4766 10.824-4.625 16.523-3.1328 4.9766 0 9.7461-1.9766 13.262-5.4922s5.4922-8.2852 5.4883-13.258v-89.578c0-4.5703-1.668-8.9805-4.6914-12.406-3.0273-3.4258-7.1992-5.6289-11.73-6.1953-58.207-7.3047-113.36-30.172-159.66-66.195-3.6094-2.8008-8.1172-4.1914-12.676-3.9023-4.5625 0.28516-8.8594 2.2266-12.09 5.4609l-63.371 63.375c-3.5195 3.5156-5.4922 8.2812-5.4922 13.254 0 4.9727 1.9727 9.7422 5.4922 13.258 5.7578 3.9922 9.4062 10.371 9.9336 17.359-0.070313 4.7188-1.9883 9.2227-5.3438 12.547-3.3516 3.3203-7.875 5.1953-12.598 5.2188-4.7188 0.023438-9.2617-1.8086-12.648-5.0977l-70.594-70.602c-17.895-21.969 13.906-43.219 30.027-20.652v-0.003907c3.5156 3.5195 8.2852 5.4922 13.258 5.4922 4.9727 0 9.7422-1.9766 13.258-5.4922l63.371-63.371c3.2305-3.2305 5.1719-7.5273 5.457-12.086 0.28516-4.5586-1.1055-9.0664-3.9102-12.672-36.012-46.305-58.875-101.46-66.184-159.67-0.56641-4.5352-2.7695-8.7031-6.1953-11.73-3.4258-3.0234-7.8359-4.6914-12.406-4.6953h-89.578c-4.9727 0-9.7422 1.9766-13.258 5.4922s-5.4922 8.2852-5.4922 13.258c4.5586 28.004-33.023 34.547-35.836 6.6289l0.003906-99.828c0.003906-4.7539 1.8906-9.3086 5.25-12.668 3.3594-3.3633 7.9141-5.2539 12.668-5.2578 13.562 0.058594 19.438 12.523 17.914 24.555 0 4.9727 1.9766 9.7422 5.4922 13.258s8.2852 5.4922 13.258 5.4922h89.578c4.5664 0 8.9805-1.6719 12.406-4.6953 3.4258-3.0234 5.6289-7.1953 6.1953-11.73 7.3086-58.203 30.172-113.36 66.184-159.67 2.8047-3.6055 4.1953-8.1133 3.9102-12.672-0.28516-4.5586-2.2266-8.8555-5.457-12.082l-63.375-63.375c-4.5352-4.0859-10.66-5.9297-16.699-5.0273-6.0391 0.90625-11.359 4.4609-14.5 9.6992-4.5547 4.3633-11.07 6.0117-17.152 4.3398-6.0859-1.6758-10.84-6.4258-12.516-12.508-1.6797-6.082-0.035156-12.602 4.3281-17.16l70.594-70.605c21.926-17.809 43.555 13.68 20.652 30.027l0.003906 0.003907c-3.5195 3.5156-5.4961 8.2852-5.4961 13.258 0 4.9727 1.9766 9.7422 5.4961 13.258l63.371 63.371c3.2305 3.2305 7.5312 5.168 12.09 5.4531 4.5586 0.28906 9.0664-1.0977 12.676-3.8984 46.301-36.016 101.46-58.883 159.66-66.191 4.5312-0.56641 8.7031-2.7695 11.73-6.1953 3.0234-3.4258 4.6914-7.8398 4.6953-12.406v-89.578c0-4.9727-1.9766-9.7422-5.4922-13.258s-8.2852-5.4922-13.258-5.4922c-27.973 4.5547-34.527-33.023-6.6172-35.836l99.824 0.003906c4.75 0.003906 9.3008 1.8945 12.66 5.25s5.25 7.9102 5.2578 12.656c-0.3125 5.8867-3.2539 11.316-8.0117 14.793-4.7578 3.4766-10.824 4.625-16.523 3.1328-4.9766 0-9.7461 1.9766-13.262 5.4922s-5.4922 8.2852-5.4883 13.258v89.574c0 4.5703 1.668 8.9844 4.6914 12.41 3.0273 3.4258 7.1992 5.6289 11.73 6.1953 58.203 7.3086 113.36 30.176 159.66 66.191 3.6094 2.8008 8.1172 4.1875 12.676 3.8984 4.5586-0.28516 8.8594-2.2266 12.09-5.4531l63.371-63.371v-0.003906c3.5195-3.5117 5.4961-8.2812 5.4961-13.254 0-4.9727-1.9766-9.7422-5.4961-13.258-22.992-16.402-1.1055-47.844 20.656-30.031l70.594 70.605c4.3945 4.5586 6.0586 11.094 4.375 17.195-1.6797 6.1016-6.4531 10.867-12.559 12.531-6.1094 1.6641-12.641-0.015625-17.184-4.4219-3.1484-5.2188-8.4648-8.7617-14.492-9.6641-6.0312-0.89844-12.148 0.94141-16.684 5.0156l-63.371 63.371c-3.2305 3.2305-5.1719 7.5273-5.457 12.086-0.28516 4.5586 1.1055 9.0664 3.9102 12.672 36.012 46.305 58.875 101.46 66.184 159.67 0.56641 4.5352 2.7695 8.7031 6.1953 11.73 3.4258 3.0234 7.8398 4.6914 12.406 4.6953h89.578c4.9727 0 9.7422-1.9766 13.258-5.4922s5.4922-8.2852 5.4922-13.258c-1.4844-5.6992-0.33203-11.766 3.1406-16.523 3.4727-4.7578 8.8945-7.7031 14.777-8.0312 4.75 0.003906 9.3047 1.8945 12.664 5.2578 3.3594 3.3594 5.2461 7.9141 5.25 12.668z"/>
 <path d="m559.56 331.31c-132.72 4.2227-132.71 196.65 0.003906 200.85 132.72-4.2188 132.67-196.64-0.003906-200.85zm0 163.35c-22.32-0.24609-42.836-12.293-53.926-31.66-11.09-19.367-11.086-43.164 0-62.531 11.09-19.367 31.609-31.414 53.926-31.656 22.316 0.24219 42.836 12.289 53.926 31.656 11.086 19.371 11.086 43.164-0.003906 62.531-11.086 19.371-31.605 31.418-53.922 31.66z"/>
 <path d="m426.83 569.8c-28.559 0.26172-54.836 15.648-69.043 40.426-14.203 24.781-14.203 55.23 0 80.008 14.207 24.777 40.484 40.164 69.043 40.426 28.562-0.26172 54.84-15.648 69.043-40.426 14.203-24.777 14.203-55.23 0-80.008-14.207-24.777-40.484-40.164-69.043-40.426zm0 123.36c-15.219-0.17578-29.211-8.3945-36.77-21.605-7.5625-13.211-7.5586-29.438 0-42.648 7.5586-13.211 21.551-21.43 36.77-21.605 15.223 0.17578 29.211 8.3945 36.77 21.605 7.5625 13.211 7.5625 29.438 0 42.648-7.5586 13.211-21.551 21.43-36.77 21.605z"/>
 <path d="m606.34 606.34c-7.6602 0.10938-14.688 4.2617-18.488 10.914-3.7969 6.6523-3.7969 14.812 0 21.465 3.8008 6.6523 10.832 10.805 18.488 10.914 7.6602-0.11328 14.691-4.2617 18.488-10.914s3.7969-14.816 0-21.469c-3.7969-6.6484-10.828-10.801-18.488-10.91z"/>
 <path d="m386.8 515.87c7.6602-0.10938 14.691-4.2578 18.488-10.91 3.7969-6.6523 3.7969-14.816 0-21.469-3.7969-6.6523-10.828-10.801-18.488-10.91-7.6602 0.10938-14.688 4.2578-18.488 10.91-3.7969 6.6523-3.7969 14.816 0 21.469 3.8008 6.6523 10.828 10.801 18.488 10.91z"/>
 <path d="m818.49 708.23c-7.6602 0.10547-14.691 4.2578-18.492 10.91-3.7969 6.6523-3.7969 14.816 0 21.469 3.8008 6.6523 10.832 10.805 18.492 10.91 7.6641-0.10547 14.695-4.2578 18.496-10.91 3.7969-6.6523 3.7969-14.816 0-21.469-3.8008-6.6523-10.832-10.805-18.496-10.91z"/>
 <path d="m686.58 708.23c-7.6602 0.10547-14.691 4.2578-18.492 10.91-3.7969 6.6523-3.7969 14.816 0 21.469 3.8008 6.6523 10.832 10.805 18.492 10.91 7.6641-0.10547 14.695-4.2578 18.496-10.91 3.7969-6.6523 3.7969-14.816 0-21.469-3.8008-6.6523-10.832-10.805-18.496-10.91z"/>
 <path d="m768.24 475.03c7.6602-0.11328 14.691-4.2617 18.488-10.914 3.7969-6.6523 3.7969-14.816 0-21.469-3.7969-6.6523-10.828-10.801-18.488-10.91-7.6602 0.10938-14.688 4.2578-18.488 10.91-3.7969 6.6523-3.7969 14.816 0 21.469 3.8008 6.6523 10.832 10.801 18.488 10.914z"/>
 <path d="m837.24 604.91c-0.25-22.723-12.52-43.613-32.238-54.906-19.723-11.289-43.949-11.289-63.672 0-19.723 11.293-31.988 32.184-32.238 54.91 0.25 22.723 12.516 43.613 32.238 54.906 19.723 11.289 43.949 11.289 63.672 0 19.723-11.293 31.988-32.184 32.238-54.91zm-64.07 26.57c-9.4102-0.12891-18.051-5.2227-22.719-13.395-4.668-8.168-4.668-18.199 0-26.371 4.668-8.1719 13.309-13.266 22.719-13.391 9.4102 0.12891 18.047 5.2227 22.715 13.395 4.668 8.168 4.668 18.199 0 26.367-4.668 8.1719-13.305 13.266-22.715 13.395z"/>
 <path d="m559.56 759.3c-20.992 0.23047-40.293 11.562-50.723 29.781-10.43 18.219-10.43 40.598 0.003906 58.816 10.43 18.219 29.727 29.551 50.719 29.781 20.992-0.23047 40.293-11.562 50.719-29.781 10.43-18.219 10.43-40.598 0-58.816s-29.73-29.551-50.719-29.781zm0 80.879c-7.6758-0.10938-14.723-4.2656-18.531-10.934-3.8086-6.6641-3.8086-14.848 0-21.512 3.8086-6.668 10.855-10.824 18.531-10.934 7.6758 0.10938 14.723 4.2656 18.527 10.934 3.8086 6.6641 3.8086 14.848 0 21.512-3.8047 6.668-10.852 10.824-18.527 10.934z"/>
</svg>
