<?xml version="1.0" encoding="UTF-8"?>
<svg width="1200pt" height="1200pt" version="1.1" viewBox="0 0 1200 1200" xmlns="http://www.w3.org/2000/svg">
 <path d="m836.16 51.422c-0.32812 0.046875-0.70312 0.09375-1.0312 0.14062-0.60938 0-1.1719 0.046875-1.7812 0.14062-0.84375 0.09375-1.6875 0.23438-2.5312 0.42188-0.60938 0.1875-1.2188 0.42188-1.8281 0.70312-0.79688 0.28125-1.5469 0.65625-2.2969 1.0312-0.5625 0.375-1.125 0.75-1.6875 1.1719-0.42188 0.28125-0.84375 0.5625-1.2188 0.89062-0.1875 0.1875-0.375 0.375-0.51562 0.5625-0.1875 0.1875-0.42188 0.375-0.60938 0.51562 0 0-63.375 69.891-126.28 161.86-62.906 91.969-127.03 205.18-125.16 300.89 2.8594 145.69 118.41 264.74 264.1 264.74 145.69 0 261.24-119.06 264.1-264.74 1.875-95.719-62.25-208.92-125.16-300.89-62.719-91.734-125.9-161.44-126.24-161.81l-0.046875-0.046875c-0.32812-0.375-0.70312-0.75-1.125-1.125-0.375-0.28125-0.75-0.5625-1.1719-0.79688-0.60938-0.46875-1.2188-0.9375-1.875-1.3125-0.60938-0.32812-1.2656-0.65625-1.9219-0.89062-0.65625-0.28125-1.3594-0.5625-2.1094-0.75-0.70312-0.1875-1.4531-0.28125-2.2031-0.375-0.42188-0.09375-0.89062-0.1875-1.3594-0.28125zm-0.89062 43.078c21.094 24.516 65.812 78.234 110.58 143.72 61.406 89.812 120.74 201.94 119.2 280.92-2.5312 128.02-102.7 231.05-229.78 231.05-127.08 0-227.29-103.03-229.82-231.05-1.5469-79.031 57.797-191.16 119.25-280.92 44.766-65.484 89.484-119.2 110.58-143.72zm-386.95 87.656h0.046875c-1.3594-0.046875-2.7188 0.09375-4.0312 0.32812-0.14062 0.046875-0.28125 0.046875-0.42188 0.09375-1.5469 0.32812-3.0469 0.89062-4.4531 1.6406-0.23438 0.09375-0.42188 0.23438-0.65625 0.32812-0.98438 0.5625-1.9219 1.2656-2.7656 2.0156-0.28125 0.28125-0.5625 0.60938-0.84375 0.89062l-0.28125 0.28125s-84.375 92.766-168.19 215.11c-83.812 122.34-168.61 273.32-166.13 398.21 3.75 191.39 155.48 347.48 346.97 347.48 183.14 0 330.05-142.78 345.71-322.69v0.046875c0.79688-9.4219-6.1875-17.672-15.562-18.469-9.4219-0.84375-17.766 6.0938-18.562 15.562-14.203 163.13-146.21 291.32-311.58 291.32-172.92 0-309.42-140.16-312.79-313.87-2.1094-108.19 78.047-257.95 160.36-378.1 63.281-92.391 126.52-167.29 152.48-197.21 19.922 22.922 61.266 71.766 107.81 134.58l-0.046875-0.046875c2.7188 3.7031 6.7969 6.1406 11.297 6.7969s9.0938-0.51562 12.75-3.2344c7.5469-5.625 9.1406-16.312 3.5156-23.906-65.625-88.5-121.4-150.14-122.53-151.36-0.046875-0.09375-0.14062-0.1875-0.1875-0.28125-0.14062-0.09375-0.28125-0.23438-0.375-0.375-0.23438-0.28125-0.51562-0.51562-0.79688-0.75-0.046875-0.046875-0.09375-0.09375-0.1875-0.14062-1.1719-1.0312-2.4844-1.875-3.8906-2.5312l-0.70312-0.42188c-1.4062-0.5625-2.8594-0.9375-4.3594-1.1719-0.28125-0.046875-0.5625-0.09375-0.84375-0.09375l-0.70312-0.14062zm228.24 313.31h0.046874c-4.5469 0-8.9062 1.7812-12.141 5.0156-3.2344 3.1875-5.0625 7.5469-5.0625 12.094 0 71.578 43.266 136.22 109.36 163.36 8.7188 3.5156 18.656-0.65625 22.266-9.375 3.6094-8.7188-0.51563-18.75-9.2812-22.406-53.25-21.844-88.078-73.781-88.078-131.63l0.046876 0.046875c-0.046876-9.4219-7.6875-17.062-17.109-17.109zm-441.05 278.9c-4.5469 0.046874-8.9062 1.875-12.141 5.0625-3.1875 3.2344-4.9688 7.5938-4.9688 12.141 0 93.188 56.25 177.28 142.36 212.58 4.2188 1.7344 8.9531 1.7344 13.172 0 4.1719-1.7812 7.5-5.1094 9.2344-9.3281s1.7344-8.9531-0.046875-13.125c-1.7344-4.2188-5.1094-7.5469-9.3281-9.2812-73.312-30.047-121.08-101.44-121.08-180.84 0-4.5469-1.8281-8.9531-5.0156-12.188-3.2344-3.2344-7.6406-5.0156-12.188-5.0156z"/>
</svg>
