<?xml version="1.0" encoding="UTF-8"?>
<svg width="1200pt" height="1200pt" version="1.1" viewBox="0 0 1200 1200" xmlns="http://www.w3.org/2000/svg">
 <path d="m56.25 300h-37.5c-10.312 0-18.75 8.4375-18.75 18.75v562.5c0 10.312 8.4375 18.75 18.75 18.75h37.5c10.312 0 18.75-8.4375 18.75-18.75v-562.5c0-10.312-8.4375-18.75-18.75-18.75z"/>
 <path d="m168.75 225h-37.5c-10.312 0-18.75 8.4375-18.75 18.75v712.5c0 10.312 8.4375 18.75 18.75 18.75h37.5c10.312 0 18.75-8.4375 18.75-18.75v-712.5c0-10.312-8.4375-18.75-18.75-18.75z"/>
 <path d="m281.25 0h-37.5c-10.312 0-18.75 8.4375-18.75 18.75v1162.5c0 10.312 8.4375 18.75 18.75 18.75h37.5c10.312 0 18.75-8.4375 18.75-18.75v-1162.5c0-10.312-8.4375-18.75-18.75-18.75z"/>
 <path d="m506.25 300h-37.5c-10.312 0-18.75 8.4375-18.75 18.75v562.5c0 10.312 8.4375 18.75 18.75 18.75h37.5c10.312 0 18.75-8.4375 18.75-18.75v-562.5c0-10.312-8.4375-18.75-18.75-18.75z"/>
 <path d="m393.75 150h-37.5c-10.312 0-18.75 8.4375-18.75 18.75v862.5c0 10.312 8.4375 18.75 18.75 18.75h37.5c10.312 0 18.75-8.4375 18.75-18.75v-862.5c0-10.312-8.4375-18.75-18.75-18.75z"/>
 <path d="m618.75 375h-37.5c-10.312 0-18.75 8.4375-18.75 18.75v412.5c0 10.312 8.4375 18.75 18.75 18.75h37.5c10.312 0 18.75-8.4375 18.75-18.75v-412.5c0-10.312-8.4375-18.75-18.75-18.75z"/>
 <path d="m843.75 300h-37.5c-10.312 0-18.75 8.4375-18.75 18.75v562.5c0 10.312 8.4375 18.75 18.75 18.75h37.5c10.312 0 18.75-8.4375 18.75-18.75v-562.5c0-10.312-8.4375-18.75-18.75-18.75z"/>
 <path d="m956.25 375h-37.5c-10.312 0-18.75 8.4375-18.75 18.75v412.5c0 10.312 8.4375 18.75 18.75 18.75h37.5c10.312 0 18.75-8.4375 18.75-18.75v-412.5c0-10.312-8.4375-18.75-18.75-18.75z"/>
 <path d="m731.25 225h-37.5c-10.312 0-18.75 8.4375-18.75 18.75v712.5c0 10.312 8.4375 18.75 18.75 18.75h37.5c10.312 0 18.75-8.4375 18.75-18.75v-712.5c0-10.312-8.4375-18.75-18.75-18.75z"/>
 <path d="m1068.8 450h-37.5c-10.312 0-18.75 8.4375-18.75 18.75v262.5c0 10.312 8.4375 18.75 18.75 18.75h37.5c10.312 0 18.75-8.4375 18.75-18.75v-262.5c0-10.312-8.4375-18.75-18.75-18.75z"/>
 <path d="m1181.2 525h-37.5c-10.312 0-18.75 8.4375-18.75 18.75v112.5c0 10.312 8.4375 18.75 18.75 18.75h37.5c10.312 0 18.75-8.4375 18.75-18.75v-112.5c0-10.312-8.4375-18.75-18.75-18.75z"/>
</svg>
