<?xml version="1.0" encoding="UTF-8"?>
<svg width="1200pt" height="1200pt" version="1.1" viewBox="0 0 1200 1200" xmlns="http://www.w3.org/2000/svg">
 <path d="m507.25 115.61c-35.453-0.20312-71.184 9.7578-102.13 30.293-66.012 43.809-96.121 125.73-74.59 201.97 2.1953 7.6172 7.3164 14.055 14.246 17.91 6.9258 3.8516 15.098 4.8086 22.727 2.6562 7.6602-2.1445 14.156-7.2461 18.059-14.18 3.8984-6.9336 4.8867-15.133 2.7422-22.793-14.512-51.387 5.5469-106 50.039-135.53 44.492-29.527 102.72-26.949 144.43 6.3867 41.715 33.336 57.07 89.43 38.086 139.34s-67.852 81.629-121.17 78.809c-0.21484-0.003906-0.42969-0.003906-0.64453 0-0.29688-0.003906-0.58984-0.003906-0.88672 0h-378.28c-7.957 0.03125-15.574 3.2227-21.18 8.8672-5.6016 5.6484-8.7344 13.293-8.7031 21.25 0.015624 7.9258 3.168 15.523 8.7656 21.133 5.6016 5.6094 13.191 8.7773 21.117 8.8086h376.7c79.117 4.1836 152.12-43.371 180.29-117.42 28.172-74.051 5.1719-158.25-56.719-207.71-30.945-24.73-68.062-37.941-105.82-39.609-2.3594-0.10547-4.7266-0.16016-7.0898-0.17969zm421 150.59c-35.426-0.17969-70.949 9.9922-101.89 30.527-66.012 43.809-96.18 125.49-74.648 201.74 2.1445 7.6719 7.2539 14.18 14.203 18.082 6.9453 3.9023 15.16 4.8789 22.828 2.7188 7.6719-2.1914 14.152-7.3516 18.012-14.332 3.8594-6.9844 4.7773-15.215 2.5547-22.875-14.512-51.387 5.7812-105.77 50.273-135.29 44.492-29.527 102.66-27.125 144.38 6.2109 41.715 33.336 57.07 89.605 38.086 139.51s-67.793 81.629-121.11 78.809c-0.39062 0.011719-0.78125 0.03125-1.1719 0.058594-0.11719-0.019531-0.23438-0.039062-0.35156-0.058594h-799.51c-7.9141 0.03125-15.5 3.1875-21.098 8.7852-5.5977 5.5977-8.7539 13.18-8.7852 21.098-0.03125 7.957 3.1016 15.598 8.7031 21.246 5.6055 5.6484 13.223 8.8398 21.18 8.8711h799.51c0.70312 0.003907 1.4062-0.015624 2.1094-0.058593 77.684 2.5352 148.87-44.648 176.6-117.54 28.172-74.051 5.1719-158.02-56.719-207.48-30.945-24.73-68.297-38.176-106.05-39.844-2.3594-0.10547-4.7266-0.16016-7.0898-0.17188zm-166.52 452.99c-3.6758-0.03125-7.3672 0.097656-11.074 0.29297h-630.76c-7.957 0.03125-15.574 3.2227-21.18 8.8711-5.6016 5.6484-8.7344 13.289-8.7031 21.246 0.03125 7.918 3.1914 15.5 8.7852 21.098 5.5977 5.5977 13.184 8.7539 21.098 8.7852h632.29c0.13672-0.015625 0.27344-0.035156 0.41016-0.058594 0.36719 0.027344 0.73828 0.046876 1.1094 0.058594 53.32-2.8203 102.19 28.902 121.17 78.809 18.988 49.906 3.6289 106-38.086 139.34-41.715 33.336-99.883 35.914-144.38 6.3867-44.492-29.527-64.609-84.141-50.098-135.53 2.1445-7.6602 1.1562-15.859-2.7422-22.793-3.9023-6.9336-10.398-12.031-18.059-14.18-7.6602-2.1406-15.859-1.1562-22.793 2.7461-6.9336 3.8984-12.035 10.395-14.18 18.055-21.531 76.246 8.8125 157.99 74.824 201.8 33.008 21.906 71.227 31.785 108.98 30.117 37.758-1.668 74.934-14.938 105.88-39.668 61.891-49.461 84.832-133.43 56.66-207.48-26.852-70.578-94.383-117.29-169.16-117.89z"/>
</svg>
