<?xml version="1.0" encoding="UTF-8"?>
<svg width="1200pt" height="1200pt" version="1.1" viewBox="0 0 1200 1200" xmlns="http://www.w3.org/2000/svg">
 <path d="m600 31.594c176.72 0 343.36 82.172 450.94 222.37 107.58 140.21 143.86 322.45 98.109 493.18-45.75 170.68-168.28 310.4-331.55 378-163.26 67.641-348.66 55.5-501.71-32.859s-256.31-242.9-279.37-418.08c-23.062-175.22 36.703-351.19 161.63-476.16 106.5-106.73 251.16-166.64 401.95-166.45zm313.08 486.89c-44.016-0.046875-81.891 31.031-90.469 74.203-8.5781 43.125 14.484 86.344 55.125 103.17 40.641 16.875 87.516 2.625 111.98-33.938 24.422-36.562 19.641-85.312-11.484-116.44-17.25-17.297-40.688-27.047-65.156-27zm46.312 45.844c-22.078-22.125-56.719-25.547-82.734-8.1562-26.016 17.344-36.094 50.672-24.141 79.547s42.656 45.281 73.312 39.188 52.781-33 52.781-64.266c0-17.391-6.8906-34.031-19.219-46.312zm-178.36-84.094c16.5-16.547 36-29.859 57.469-39.141-5.25-37.453-12.797-74.578-22.5-111.14-66.797 12.938-134.63 19.781-202.69 20.344v236.39h114.98c5.4375-40.312 23.953-77.672 52.734-106.45zm83.062-48h-0.046875c15.984-4.2656 32.484-6.4688 49.031-6.4688 45.094-0.14062 88.641 16.125 122.68 45.75 33.984 29.578 56.062 70.5 62.156 115.17h43.734-0.046876c-2.7188-119.06-44.812-233.86-119.62-326.48-56.859 29.344-117.42 50.953-179.95 64.359 9.375 35.438 16.734 71.391 22.031 107.72zm235.55 181.08c-0.14062 49.172-19.734 96.281-54.516 131.06l-122.63 122.63c-2.4844 2.5312-5.9062 3.9375-9.4219 3.9375s-6.9375-1.4062-9.4219-3.9375l-48.422-48.375c-3.8906 19.547-8.2969 38.484-13.219 56.859 62.578 13.359 123.1 35.016 179.95 64.312 74.812-92.625 116.91-207.47 119.62-326.53zm-267.14 182.58-51.469-51.516c-34.781-34.781-54.375-81.891-54.516-131.06h-113.2v236.29c68.062 0.60938 135.89 7.4062 202.69 20.344 6.3281-23.625 11.859-48.375 16.547-74.062zm80.578-343.5c-42.469-0.09375-83.203 16.734-113.2 46.734-62.25 62.672-62.25 163.82 0 226.45l113.2 113.16 113.25-113.2h-0.046875c45.891-45.75 59.625-114.66 34.828-174.47-24.797-59.859-83.25-98.812-148.03-98.672zm-299.76-393.37v264.74c65.578-0.5625 130.97-7.0312 195.37-19.359-14.297-49.172-34.969-96.328-61.453-140.21-38.203-61.078-84.375-99.328-133.87-105.19zm0 817.26v264.71c46.125-5.4375 89.391-39 125.95-92.906 30.562-47.109 53.953-98.531 69.375-152.48-64.359-12.328-129.74-18.797-195.32-19.359zm-26.672 264.74 0.046875-264.79c-65.578 0.5625-130.97 7.0312-195.32 19.359 9.3281 31.219 21 61.734 34.781 91.266 42.281 89.344 98.719 146.86 160.5 154.13zm0-291.37 0.046875-236.34h-236.16c0.46875 86.625 11.719 172.82 33.469 256.64 66.797-12.938 134.63-19.734 202.64-20.344zm0-262.92 0.046875-236.34c-68.062-0.60938-135.89-7.4062-202.69-20.344-21.75 83.812-33 170.02-33.469 256.64zm0-262.92 0.046875-264.79c-61.781 7.2656-118.22 64.781-160.5 154.13h-0.046875c-13.828 29.531-25.453 60.047-34.781 91.266 64.406 12.328 129.74 18.797 195.32 19.359zm-528.24 262.87h265.5c0.51562-88.453 11.953-176.53 34.078-262.18-62.531-13.359-123.1-35.016-179.95-64.312-74.812 92.625-116.91 207.42-119.62 326.48zm265.5 26.672-265.5-0.046875c2.7188 119.06 44.812 233.86 119.62 326.48 56.859-29.297 117.38-50.953 179.95-64.312-22.125-85.641-33.609-173.72-34.125-262.18zm-128.29-373.87v-0.046874c53.766 26.953 110.77 46.969 169.64 59.484 9.8438-33.234 22.172-65.719 36.844-97.125 27.984-59.156 62.391-105.61 101.06-134.95-108.47 19.641-208.36 72-286.26 150.05-7.3125 7.3125-14.438 14.812-21.328 22.547zm639.14 59.484v-0.046876c58.875-12.516 115.88-32.531 169.64-59.484-6.8906-7.7344-14.016-15.234-21.328-22.547h0.046875c-77.859-78-177.71-130.31-286.13-149.95 29.062 23.156 53.766 51.375 72.844 83.297 28.078 46.5 49.922 96.562 64.922 148.78zm169.64 661.6c-53.766-27-110.77-46.969-169.64-59.531-16.266 57.375-41.062 111.94-73.5 161.95-17.531 26.672-39.234 50.391-64.312 70.125 108.47-19.641 208.31-72 286.18-150 7.3125-7.3125 14.391-14.812 21.328-22.547zm-639.14-59.484v-0.046875c-58.828 12.562-115.83 32.531-169.64 59.531 6.8906 7.7344 13.969 15.234 21.281 22.547h0.046875c77.859 78 177.71 130.36 286.18 150-38.625-29.344-72.984-75.797-101.06-134.95v0.046875c-14.672-31.453-26.953-63.891-36.797-97.172z" fill-rule="evenodd"/>
</svg>
