<?xml version="1.0" encoding="UTF-8"?>
<svg width="1200pt" height="1200pt" version="1.1" viewBox="0 0 1200 1200" xmlns="http://www.w3.org/2000/svg">
 <path d="m262.74 805.4c-53.344-10.547-110.91 4.8281-152.26 46.219-65.859 65.859-65.859 172.78 0 238.64s172.78 65.859 238.64 0c41.344-41.344 56.719-98.906 46.172-152.29 0.046875 0.046875 457.97-457.97 457.97-457.97 77.25 28.5 166.26 11.438 229.03-50.156 58.031-57 72.656-143.72 53.484-217.36-1.6875-6.4688-6.6562-11.531-13.125-13.359-6.4688-1.7812-13.406 0-18.141 4.6875l-88.406 86.859c-31.922 31.312-79.359 36.141-110.67 4.2188-31.406-31.969-26.297-79.969 5.625-111.33l88.406-86.812c4.7812-4.6875 6.6562-11.531 5.0156-18.047-1.6875-6.4688-6.6562-11.578-13.125-13.406-73.359-20.484-160.22-7.1719-217.82 50.438-65.25 65.297-79.406 152.95-51.75 230.58l-459.05 459.05zm1.0781 38.719c6.4688 1.7344 13.359-0.09375 18.094-4.875l475.03-474.98c5.3438-5.3906 6.9844-13.453 4.0312-20.484-27.844-66.844-17.906-144.47 39.094-201.52 39.328-39.281 95.25-53.109 147.74-47.297l-63 61.828c-47.109 46.312-52.406 117.23-6.0938 164.34 46.312 47.156 116.53 42.562 163.74-3.75l62.953-61.922c4.9688 52.688-9.6562 108.52-49.359 147.56-54.703 53.719-133.45 66.703-199.74 37.734-7.0312-3.0938-15.281-1.5469-20.766 3.9375l-474.1 474.1c-4.7344 4.7344-6.5625 11.625-4.8281 18.094 11.672 43.781 0.375 92.484-33.984 126.79-51.234 51.234-134.39 51.234-185.63 0-51.238-51.234-51.234-134.34 0-185.58 34.359-34.359 83.016-45.656 126.84-33.984zm-104.06 185.72c1.7344 6.4688 6.7969 11.531 13.266 13.266l72.469 19.406c6.4688 1.7812 13.359-0.09375 18.094-4.8281l53.062-53.016c4.7344-4.7812 6.5625-11.672 4.8281-18.094l-19.406-72.469c-1.7344-6.4688-6.7969-11.531-13.219-13.266l-72.469-19.406c-6.4688-1.7344-13.406 0.09375-18.094 4.8281l-53.016 53.016c-4.7344 4.7812-6.6094 11.672-4.875 18.094l19.406 72.469zm33.422-20.156-13.781-51.562 37.734-37.734 51.516 13.828 13.781 51.516-37.734 37.734z" fill-rule="evenodd"/>
</svg>
