<?xml version="1.0" encoding="UTF-8"?>
<svg width="1200pt" height="1200pt" version="1.1" viewBox="0 0 1200 1200" xmlns="http://www.w3.org/2000/svg">
 <path d="m399.59 800.32c110.47 110.47 290.28 110.6 400.75 0.125 110.47-110.47 110.47-290.4 0-400.88-110.47-110.47-290.28-110.35-400.75 0.125-110.47 110.47-110.47 290.16 0 400.63zm33.406-33.406c-92.422-92.426-92.426-241.39 0-333.82 92.426-92.426 241.52-92.547 333.94-0.125 92.426 92.426 92.426 241.64 0 334.06-92.426 92.426-241.52 92.301-333.94-0.12109z"/>
 <path d="m683.48 483.19-200.3 200.3v0.003906c-4.4531 4.4297-6.9531 10.453-6.9531 16.734s2.5 12.305 6.9531 16.738c4.4258 4.3945 10.41 6.8633 16.648 6.8633s12.223-2.4688 16.648-6.8633l200.48-200.48c4.3984-4.4258 6.8672-10.41 6.8672-16.652 0-6.2383-2.4688-12.223-6.8672-16.648-4.4297-4.4492-10.453-6.9531-16.734-6.9531s-12.305 2.5039-16.738 6.9531z"/>
 <path d="m483.18 483.19c-4.3984 4.4258-6.8672 10.41-6.8672 16.648 0 6.2422 2.4688 12.227 6.8672 16.652l200.3 200.48c4.4336 4.4492 10.457 6.9531 16.738 6.9531s12.305-2.5039 16.734-6.9531c4.4531-4.4336 6.9531-10.457 6.9531-16.738s-2.5-12.305-6.9531-16.734l-200.48-200.3v-0.003906c-4.4258-4.3984-10.41-6.8672-16.648-6.8672s-12.223 2.4688-16.648 6.8672z"/>
</svg>
