<?xml version="1.0" encoding="UTF-8"?>
<svg width="1200pt" height="1200pt" version="1.1" viewBox="0 0 1200 1200" xmlns="http://www.w3.org/2000/svg">
 <path d="m340.09 639.87h242c14.902 0 26.965 12.059 26.965 26.965 0 2.5938-0.35938 5.0742-1.043 7.4531l-72.324 347.91 324.22-462.07h-242c-14.902 0-26.965-12.059-26.965-26.965 0-2.5938 0.35938-5.0742 1.043-7.4531l72.324-347.91zm208.91 53.93h-260.71v-0.035156c-5.3633 0-10.766-1.5859-15.48-4.8945-12.168-8.5664-15.086-25.344-6.5156-37.512l428.91-611.25c6.0117-8.4961 16.668-13.105 27.504-10.871 14.543 3.0234 23.867 17.281 20.879 31.824l-92.52 445.14h260.71v0.035157c5.3633 0 10.766 1.5859 15.48 4.8945 12.168 8.5664 15.086 25.344 6.5156 37.512l-428.91 611.25c-6.0117 8.4961-16.668 13.105-27.504 10.871-14.543-3.0234-23.867-17.281-20.879-31.824z"/>
</svg>
